<?xml version="1.0" encoding="UTF-8"?>
<svg version="1.1" xmlns="http://www.w3.org/2000/svg" width="150" height="150">
<path d="M0 0 C2.26685452 1.68622161 4.37461281 3.45620684 6.4765625 5.34375 C7.70826172 6.43623047 7.70826172 6.43623047 8.96484375 7.55078125 C22.24806842 20.02774039 31.07984821 37.58848816 31.8125 55.9453125 C32.13371051 77.23647878 28.10626638 96.0522542 13.4765625 112.34375 C12.74824219 113.16488281 12.01992187 113.98601562 11.26953125 114.83203125 C-1.20742789 128.11525592 -18.76817566 136.94703571 -37.125 137.6796875 C-58.41616628 138.00089801 -77.2319417 133.97345388 -93.5234375 119.34375 C-94.34457031 118.61542969 -95.16570312 117.88710937 -96.01171875 117.13671875 C-109.29494342 104.65975961 -118.12672321 87.09901184 -118.859375 68.7421875 C-119.18058551 47.45102122 -115.15314138 28.6352458 -100.5234375 12.34375 C-99.79511719 11.52261719 -99.06679687 10.70148437 -98.31640625 9.85546875 C-72.64852592 -17.47107913 -30.68115209 -20.13747444 0 0 Z " fill="#016032" transform="translate(118.5234375,12.65625)"/>
<path d="M0 0 C19.07310128 0 35.61886954 5.08579724 50 18 C50.82113281 18.72832031 51.64226562 19.45664062 52.48828125 20.20703125 C65.77150592 32.68399039 74.60328571 50.24473816 75.3359375 68.6015625 C75.65714801 89.89272878 71.62970388 108.7085042 57 125 C56.27167969 125.82113281 55.54335937 126.64226562 54.79296875 127.48828125 C43.47252559 139.54025547 28.3676433 147.46416794 12 150 C8.04 150 4.08 150 0 150 C0 137.46 0 124.92 0 112 C5.94 111.01 5.94 111.01 12 110 C19.17558956 107.01017102 24.43745986 103.3916241 30 98 C28.00100837 98.99281767 26.00989505 99.9947869 24.03515625 101.03515625 C16.14633302 105.1435929 8.70961385 106.17740346 0 104 C0 91.13 0 78.26 0 65 C6.86666667 71.86666667 6.86666667 71.86666667 8 74 C7.05693882 78.08659846 4.69314286 80.858 2 84 C3.953125 83.47916667 5.90625 82.95833333 7.859375 82.4375 C10 82 10 82 14 82 C16.40285012 84.77760656 18.07702621 87.85331562 20 91 C20.33 87.04 20.66 83.08 21 79 C28.625 76 28.625 76 32 76 C32 75.34 32 74.68 32 74 C31.37351562 73.86722656 30.74703125 73.73445313 30.1015625 73.59765625 C29.28429687 73.42105469 28.46703125 73.24445313 27.625 73.0625 C26.40683594 72.80146484 26.40683594 72.80146484 25.1640625 72.53515625 C23 72 23 72 21 71 C20.5859375 68.27734375 20.5859375 68.27734375 20.375 64.9375 C20.30023438 63.83277344 20.22546875 62.72804687 20.1484375 61.58984375 C20.09945312 60.73519531 20.05046875 59.88054688 20 59 C17.03 63.455 17.03 63.455 14 68 C8.49298626 67.43805982 5.34006219 66.28859808 0 64 C0 58.06 0 52.12 0 46 C8.78916317 43.80270921 16.00899833 44.25628478 23.94140625 48.7109375 C25.64606087 49.77836829 27.3265121 50.8843414 29 52 C20.6098533 42.79790362 12.35049336 39.37227704 0 38 C0 25.46 0 12.92 0 0 Z " fill="#FEFDFD" transform="translate(75,0)"/>
<path d="M0 0 C4.38449935 2.74600132 8.56357644 5.78270706 12.2578125 9.4140625 C12.2578125 10.0740625 12.2578125 10.7340625 12.2578125 11.4140625 C10.28508534 10.44515668 8.34986218 9.46889209 6.4609375 8.34375 C-1.09573117 4.26314892 -8.35090753 5.13200267 -16.7421875 5.4140625 C-16.7421875 11.3540625 -16.7421875 17.2940625 -16.7421875 23.4140625 C-15.1746875 23.8884375 -13.6071875 24.3628125 -11.9921875 24.8515625 C-11.11046875 25.11839844 -10.22875 25.38523437 -9.3203125 25.66015625 C-7.13652915 26.29874744 -4.95383252 26.88182083 -2.7421875 27.4140625 C-2.4946875 26.8778125 -2.2471875 26.3415625 -1.9921875 25.7890625 C-0.44133793 22.84244831 1.34086808 20.13488684 3.2578125 17.4140625 C3.5878125 17.4140625 3.9178125 17.4140625 4.2578125 17.4140625 C4.2578125 21.7040625 4.2578125 25.9940625 4.2578125 30.4140625 C7.8878125 31.4040625 11.5178125 32.3940625 15.2578125 33.4140625 C15.2578125 34.0740625 15.2578125 34.7340625 15.2578125 35.4140625 C11.6278125 36.4040625 7.9978125 37.3940625 4.2578125 38.4140625 C4.2578125 42.7040625 4.2578125 46.9940625 4.2578125 51.4140625 C0.86363485 48.28784624 -1.3484593 45.84865223 -2.7421875 41.4140625 C-3.42925781 41.64222656 -4.11632812 41.87039062 -4.82421875 42.10546875 C-5.72527344 42.39292969 -6.62632813 42.68039063 -7.5546875 42.9765625 C-8.44800781 43.26660156 -9.34132812 43.55664062 -10.26171875 43.85546875 C-12.7421875 44.4140625 -12.7421875 44.4140625 -15.7421875 43.4140625 C-13.7621875 40.7740625 -11.7821875 38.1340625 -9.7421875 35.4140625 C-11.86622223 30.95926847 -11.86622223 30.95926847 -15.7421875 25.4140625 C-16.0721875 37.9540625 -16.4021875 50.4940625 -16.7421875 63.4140625 C-3.64953392 63.4140625 3.96720016 62.68647848 14.2578125 55.4140625 C11.47687062 62.18505144 4.15598508 66.80383972 -2.2421875 69.9140625 C-10.9113109 72.9866632 -22.54797424 72.96175914 -31.2421875 69.9765625 C-40.74875072 65.3464229 -47.64927978 57.17326997 -52.5546875 48.0390625 C-55.62987285 38.97256775 -54.96708107 26.64506591 -51.1953125 17.90625 C-40.98464362 0.39440391 -19.17683713 -9.28773645 0 0 Z " fill="#CF1336" transform="translate(91.7421875,40.5859375)"/>
<path d="M0 0 C0 5.61 0 11.22 0 17 C1.5675 17.474375 3.135 17.94875 4.75 18.4375 C5.63171875 18.70433594 6.5134375 18.97117187 7.421875 19.24609375 C9.60565835 19.88468494 11.78835498 20.46775833 14 21 C14.2475 20.46375 14.495 19.9275 14.75 19.375 C16.30084957 16.42838581 18.08305558 13.72082434 20 11 C20.33 11 20.66 11 21 11 C21 15.29 21 19.58 21 24 C24.63 24.99 28.26 25.98 32 27 C32 27.66 32 28.32 32 29 C28.37 29.99 24.74 30.98 21 32 C21 36.29 21 40.58 21 45 C17.60582235 41.87378374 15.3937282 39.43458973 14 35 C13.31292969 35.22816406 12.62585938 35.45632812 11.91796875 35.69140625 C11.01691406 35.97886719 10.11585937 36.26632813 9.1875 36.5625 C8.29417969 36.85253906 7.40085937 37.14257812 6.48046875 37.44140625 C4 38 4 38 1 37 C2.98 34.36 4.96 31.72 7 29 C4.87596527 24.54520597 4.87596527 24.54520597 1 19 C0.67 31.21 0.34 43.42 0 56 C-7.15256052 54.5694879 -11.76215972 50.70896454 -16.375 45.125 C-20.91271875 36.39861778 -22.6539524 28.00208509 -19.875 18.375 C-16.8105516 10.33082294 -9.45748222 0 0 0 Z " fill="#026133" transform="translate(75,47)"/>
<path d="M0 0 C17.3045112 -1.16007896 34.55678087 4.94674522 47.85546875 16.07421875 C48.56316406 16.70972656 49.27085938 17.34523438 50 18 C50.82113281 18.72832031 51.64226562 19.45664062 52.48828125 20.20703125 C65.77150592 32.68399039 74.60328571 50.24473816 75.3359375 68.6015625 C75.65714801 89.89272878 71.62970388 108.7085042 57 125 C56.27167969 125.82113281 55.54335937 126.64226562 54.79296875 127.48828125 C43.17009271 139.86223167 26.08480047 149.50429707 8.78125 150.11328125 C5.85061303 150.12355217 2.92912754 150.08921201 0 150 C0 148.68 0 147.36 0 146 C0.90878906 145.91363281 1.81757812 145.82726562 2.75390625 145.73828125 C23.86888483 143.37773493 41.34641956 135.53382199 55.32421875 119.30078125 C68.43960184 102.18832903 71.82138502 83.21387415 69.6015625 62.234375 C67.31779527 49.24359515 60.82093869 36.76393436 52 27 C51.43152344 26.32839844 50.86304688 25.65679688 50.27734375 24.96484375 C37.58333383 10.97717677 18.23703927 5.44677973 0 4 C0 2.68 0 1.36 0 0 Z " fill="#DFDFDF" transform="translate(75,0)"/>
<path d="M0 0 C0.33 0 0.66 0 1 0 C1 4.29 1 8.58 1 13 C4.63 13.99 8.26 14.98 12 16 C12 16.66 12 17.32 12 18 C6.555 19.485 6.555 19.485 1 21 C1 25.29 1 29.58 1 34 C-2.39417765 30.87378374 -4.6062718 28.43458973 -6 24 C-7.03060547 24.34224609 -7.03060547 24.34224609 -8.08203125 24.69140625 C-8.98308594 24.97886719 -9.88414063 25.26632813 -10.8125 25.5625 C-11.70582031 25.85253906 -12.59914063 26.14257812 -13.51953125 26.44140625 C-16 27 -16 27 -19 26 C-17.02 23.36 -15.04 20.72 -13 18 C-14.44755587 15.10488827 -15.90314017 12.46872604 -17.625 9.75 C-18.29402344 8.69039062 -18.29402344 8.69039062 -18.9765625 7.609375 C-19.31429687 7.07828125 -19.65203125 6.5471875 -20 6 C-19.32453125 6.20496094 -18.6490625 6.40992187 -17.953125 6.62109375 C-17.06109375 6.89050781 -16.1690625 7.15992187 -15.25 7.4375 C-14.36828125 7.70433594 -13.4865625 7.97117187 -12.578125 8.24609375 C-10.39434165 8.88468494 -8.21164502 9.46775833 -6 10 C-5.62875 9.195625 -5.62875 9.195625 -5.25 8.375 C-3.69915043 5.42838581 -1.91694442 2.72082434 0 0 Z " fill="#D31538" transform="translate(95,58)"/>
<path d="M0 0 C6.86666667 6.86666667 6.86666667 6.86666667 8 9 C7.05693882 13.08659846 4.69314286 15.858 2 19 C2.33 19.66 2.66 20.32 3 21 C2.01 21 1.02 21 0 21 C0 14.07 0 7.14 0 0 Z " fill="#FCF2F4" transform="translate(75,65)"/>
</svg>
