<?xml version="1.0" encoding="UTF-8"?>
<!DOCTYPE svg PUBLIC "-//W3C//DTD SVG 1.1//EN" "http://www.w3.org/Graphics/SVG/1.1/DTD/svg11.dtd">
<svg xmlns="http://www.w3.org/2000/svg" version="1.1" width="150px" height="150px" style="shape-rendering:geometricPrecision; text-rendering:geometricPrecision; image-rendering:optimizeQuality; fill-rule:evenodd; clip-rule:evenodd" xmlns:xlink="http://www.w3.org/1999/xlink">
<g><path style="opacity:0.961" fill="#055831" d="M 62.5,-0.5 C 66.5,-0.5 70.5,-0.5 74.5,-0.5C 74.5,0.833333 74.5,2.16667 74.5,3.5C 38.4054,5.46733 15.2388,23.8007 5,58.5C -0.872332,101.936 16.961,130.436 58.5,144C 63.7797,145.095 69.113,145.595 74.5,145.5C 74.5,146.833 74.5,148.167 74.5,149.5C 70.5,149.5 66.5,149.5 62.5,149.5C 28.5,141.5 7.5,120.5 -0.5,86.5C -0.5,78.5 -0.5,70.5 -0.5,62.5C 7.5,28.5 28.5,7.5 62.5,-0.5 Z"/></g>
<g><path style="opacity:0.88" fill="#dedede" d="M 74.5,-0.5 C 78.5,-0.5 82.5,-0.5 86.5,-0.5C 120.5,7.5 141.5,28.5 149.5,62.5C 149.5,70.5 149.5,78.5 149.5,86.5C 141.5,120.5 120.5,141.5 86.5,149.5C 82.5,149.5 78.5,149.5 74.5,149.5C 74.5,148.167 74.5,146.833 74.5,145.5C 112.832,143.006 136.332,123.006 145,85.5C 148.19,47.6975 132.356,21.5308 97.5,7C 90.0583,4.34493 82.3916,3.17826 74.5,3.5C 74.5,2.16667 74.5,0.833333 74.5,-0.5 Z"/></g>
<g><path style="opacity:1" fill="#016133" d="M 74.5,3.5 C 74.5,14.5 74.5,25.5 74.5,36.5C 72.901,36.2322 71.5676,36.5655 70.5,37.5C 49.7521,40.8167 38.7521,52.9833 37.5,74C 38.6096,97.6095 50.943,110.109 74.5,111.5C 74.5,122.833 74.5,134.167 74.5,145.5C 69.113,145.595 63.7797,145.095 58.5,144C 16.961,130.436 -0.872332,101.936 5,58.5C 15.2388,23.8007 38.4054,5.46733 74.5,3.5 Z"/></g>
<g><path style="opacity:1" fill="#fefdfd" d="M 74.5,3.5 C 82.3916,3.17826 90.0583,4.34493 97.5,7C 132.356,21.5308 148.19,47.6975 145,85.5C 136.332,123.006 112.832,143.006 74.5,145.5C 74.5,134.167 74.5,122.833 74.5,111.5C 87.3198,111.59 97.6531,106.59 105.5,96.5C 105.333,96.1667 105.167,95.8333 105,95.5C 96.089,103.984 85.9223,106.317 74.5,102.5C 74.5,89.8333 74.5,77.1667 74.5,64.5C 77.4926,67.5012 80.1593,70.8346 82.5,74.5C 80.2887,77.7556 77.9554,80.9223 75.5,84C 79.2119,83.7151 82.8786,82.8818 86.5,81.5C 89.5502,84.5672 92.3835,87.9005 95,91.5C 95.1725,87.1289 95.6725,82.7956 96.5,78.5C 99.9227,77.3598 103.256,76.0265 106.5,74.5C 103.256,72.9735 99.9227,71.6402 96.5,70.5C 95.6725,66.2044 95.1725,61.8711 95,57.5C 92.3937,61.0593 89.5604,64.3926 86.5,67.5C 82.5504,65.9613 78.5504,64.6279 74.5,63.5C 74.5,57.8333 74.5,52.1667 74.5,46.5C 84.0421,43.1602 93.0421,44.4935 101.5,50.5C 102.282,48.6707 101.616,47.1707 99.5,46C 91.0185,39.2294 81.3518,36.3961 70.5,37.5C 71.5676,36.5655 72.901,36.2322 74.5,36.5C 74.5,25.5 74.5,14.5 74.5,3.5 Z"/></g>
<g><path style="opacity:1" fill="#cf1836" d="M 70.5,37.5 C 81.3518,36.3961 91.0185,39.2294 99.5,46C 101.616,47.1707 102.282,48.6707 101.5,50.5C 93.0421,44.4935 84.0421,43.1602 74.5,46.5C 65.7453,48.7492 59.5786,54.0825 56,62.5C 51.1794,77.702 55.0127,90.202 67.5,100C 69.6504,101.411 71.9837,102.245 74.5,102.5C 85.9223,106.317 96.089,103.984 105,95.5C 105.167,95.8333 105.333,96.1667 105.5,96.5C 97.6531,106.59 87.3198,111.59 74.5,111.5C 50.943,110.109 38.6096,97.6095 37.5,74C 38.7521,52.9833 49.7521,40.8167 70.5,37.5 Z"/></g>
<g><path style="opacity:1" fill="#066133" d="M 74.5,46.5 C 74.5,52.1667 74.5,57.8333 74.5,63.5C 74.5,63.8333 74.5,64.1667 74.5,64.5C 74.5,77.1667 74.5,89.8333 74.5,102.5C 71.9837,102.245 69.6504,101.411 67.5,100C 55.0127,90.202 51.1794,77.702 56,62.5C 59.5786,54.0825 65.7453,48.7492 74.5,46.5 Z"/></g>
<g><path style="opacity:1" fill="#d31c39" d="M 74.5,64.5 C 74.5,64.1667 74.5,63.8333 74.5,63.5C 78.5504,64.6279 82.5504,65.9613 86.5,67.5C 89.5604,64.3926 92.3937,61.0593 95,57.5C 95.1725,61.8711 95.6725,66.2044 96.5,70.5C 99.9227,71.6402 103.256,72.9735 106.5,74.5C 103.256,76.0265 99.9227,77.3598 96.5,78.5C 95.6725,82.7956 95.1725,87.1289 95,91.5C 92.3835,87.9005 89.5502,84.5672 86.5,81.5C 82.8786,82.8818 79.2119,83.7151 75.5,84C 77.9554,80.9223 80.2887,77.7556 82.5,74.5C 80.1593,70.8346 77.4926,67.5012 74.5,64.5 Z"/></g>
</svg>
