<?xml version="1.0" encoding="UTF-8"?>
<svg version="1.1" xmlns="http://www.w3.org/2000/svg" width="150" height="151">
<path d="M0 0 C0.77988281 0.62519531 1.55976562 1.25039062 2.36328125 1.89453125 C3.19472656 2.55066406 4.02617188 3.20679687 4.8828125 3.8828125 C18.97373579 15.72265127 28.85343582 33.54810069 30.66503906 51.96166992 C30.79871352 55.05029259 30.83164114 58.11573806 30.80078125 61.20703125 C30.79175781 62.29935059 30.78273437 63.39166992 30.7734375 64.51708984 C30.32661546 85.45877015 21.59681367 102.10911015 7.28515625 117.06640625 C-7.80061799 131.48170164 -27.84948114 137.44630296 -48.37890625 137.10546875 C-64.34303048 136.51849913 -79.20791156 130.85812049 -91.63671875 120.89453125 C-92.88388672 119.91033203 -92.88388672 119.91033203 -94.15625 118.90625 C-108.24717329 107.06641123 -118.12687332 89.24096181 -119.93847656 70.82739258 C-120.07215102 67.73876991 -120.10507864 64.67332444 -120.07421875 61.58203125 C-120.06519531 60.48971191 -120.05617188 59.39739258 -120.046875 58.27197266 C-119.60005296 37.33029235 -110.87025117 20.67995235 -96.55859375 5.72265625 C-70.97809421 -18.7209322 -28.26851878 -21.23608858 0 0 Z " fill="#FEFDFD" transform="translate(119.63671875,14.10546875)"/>
<path d="M0 0 C46.86 0 93.72 0 142 0 C135.83679946 18.48960163 122.95782104 33.02004961 105.8359375 42.171875 C87.86453767 51.15290702 67.20958383 52.44169254 48 47 C39.11338398 43.90329115 31.34014597 39.88424925 24 34 C23.16855469 33.34386719 22.33710938 32.68773437 21.48046875 32.01171875 C12.01031221 24.05445972 4.63724042 13.48823882 0 2 C0 1.34 0 0.68 0 0 Z " fill="#6BABE3" transform="translate(4,101)"/>
<path d="M0 0 C0.77988281 0.62519531 1.55976562 1.25039062 2.36328125 1.89453125 C3.19472656 2.55066406 4.02617188 3.20679687 4.8828125 3.8828125 C14.35296904 11.84007153 21.72604083 22.40629243 26.36328125 33.89453125 C26.36328125 34.55453125 26.36328125 35.21453125 26.36328125 35.89453125 C-20.49671875 35.89453125 -67.35671875 35.89453125 -115.63671875 35.89453125 C-109.47351821 17.40492962 -96.59453979 2.87448164 -79.47265625 -6.27734375 C-54.3443141 -18.83498798 -22.63442058 -17.00359909 0 0 Z " fill="#6BABE3" transform="translate(119.63671875,14.10546875)"/>
<path d="M0 0 C0.66 0 1.32 0 2 0 C2.33 0.99 2.66 1.98 3 3 C3.33 2.01 3.66 1.02 4 0 C4.66 0 5.32 0 6 0 C6.33 1.98 6.66 3.96 7 6 C7.33 4.02 7.66 2.04 8 0 C8.66 0.33 9.32 0.66 10 1 C9.67 3.31 9.34 5.62 9 8 C9.99 5.69 10.98 3.38 12 1 C13 4 13 4 13 7 C14.32 5.68 15.64 4.36 17 3 C15.125 7.75 15.125 7.75 14 10 C15.98 8.35 17.96 6.7 20 5 C18.70700306 7.88437779 17.34058637 9.87219421 15 12 C15.33 12.66 15.66 13.32 16 14 C18.97 13.34 21.94 12.68 25 12 C23.60804085 14.7839183 21.84424221 14.97898997 19 16 C21.31 16 23.62 16 26 16 C23 18 23 18 21 19 C22.65 19.33 24.3 19.66 26 20 C26 20.33 26 20.66 26 21 C23.69 21.33 21.38 21.66 19 22 C20.98 22.66 22.96 23.32 25 24 C22.92446352 24.5534764 21.15634036 25 19 25 C20.98 25.99 22.96 26.98 25 28 C21.86650268 29.04449911 21.01031744 28.93423645 18 28 C19.32 28.66 20.64 29.32 22 30 C21.67 30.66 21.34 31.32 21 32 C19.02 31.01 17.04 30.02 15 29 C16.65 30.65 18.3 32.3 20 34 C19.505 34.99 19.505 34.99 19 36 C17.35 34.68 15.7 33.36 14 32 C14.99 33.32 15.98 34.64 17 36 C16.505 36.99 16.505 36.99 16 38 C15.01 37.34 14.02 36.68 13 36 C12.67 37.32 12.34 38.64 12 40 C11.34 38.68 10.68 37.36 10 36 C10 37.65 10 39.3 10 41 C9.34 41 8.68 41 8 41 C7.67 40.01 7.34 39.02 7 38 C6.67 38.99 6.34 39.98 6 41 C5.34 41 4.68 41 4 41 C3.67 39.02 3.34 37.04 3 35 C2.67 36.98 2.34 38.96 2 41 C0 40 0 40 -1 38 C-1.66 38.66 -2.32 39.32 -3 40 C-2.67 37.69 -2.34 35.38 -2 33 C-3.485 35.475 -3.485 35.475 -5 38 C-5.66 37.67 -6.32 37.34 -7 37 C-5.68 34.69 -4.36 32.38 -3 30 C-5.31 31.98 -7.62 33.96 -10 36 C-9 34 -8 32 -7 30 C-8.65 30.66 -10.3 31.32 -12 32 C-11.34 31.01 -10.68 30.02 -10 29 C-11.32 28.67 -12.64 28.34 -14 28 C-12.35 27.01 -10.7 26.02 -9 25 C-11.31 25 -13.62 25 -16 25 C-13 23 -13 23 -11 22 C-12.65 21.67 -14.3 21.34 -16 21 C-16 20.67 -16 20.34 -16 20 C-12.535 19.505 -12.535 19.505 -9 19 C-10.98 18.34 -12.96 17.68 -15 17 C-13.68 16.34 -12.36 15.68 -11 15 C-11.99 14.67 -12.98 14.34 -14 14 C-14 13.34 -14 12.68 -14 12 C-11.03 12.495 -11.03 12.495 -8 13 C-9.32 12.34 -10.64 11.68 -12 11 C-11.67 10.34 -11.34 9.68 -11 9 C-9.02 9.99 -7.04 10.98 -5 12 C-6.65 10.35 -8.3 8.7 -10 7 C-9.67 6.34 -9.34 5.68 -9 5 C-6.525 6.98 -6.525 6.98 -4 9 C-4.99 7.68 -5.98 6.36 -7 5 C-6.67 4.34 -6.34 3.68 -6 3 C-5.01 3.99 -4.02 4.98 -3 6 C-2.67 4.68 -2.34 3.36 -2 2 C-1.01 3.485 -1.01 3.485 0 5 C0 3.35 0 1.7 0 0 Z " fill="#B77821" transform="translate(70,55)"/>
<path d="M0 0 C1.65 0 3.3 0 5 0 C5.40089844 0.88300781 5.80179688 1.76601562 6.21484375 2.67578125 C14.85594535 21.15066344 27.91759855 33.75400827 47 41 C66.14003088 47.90430143 85.01430107 46.16776452 103.375 37.75 C118.45790476 29.42839738 131.45689541 16.62931378 137 0 C138.65 0 140.3 0 142 0 C137.42542127 16.92594132 124.25271578 31.39741376 109.4375 40.1875 C91.80762762 50.19940663 71.33271982 52.47347423 51.66796875 48.0390625 C41.38140462 45.12508374 32.33490078 40.68169732 24 34 C23.16855469 33.34386719 22.33710938 32.68773437 21.48046875 32.01171875 C12.01031221 24.05445972 4.63724042 13.48823882 0 2 C0 1.34 0 0.68 0 0 Z " fill="#6197C8" transform="translate(4,101)"/>
<path d="M0 0 C0.77988281 0.62519531 1.55976562 1.25039062 2.36328125 1.89453125 C3.19472656 2.55066406 4.02617188 3.20679687 4.8828125 3.8828125 C14.35296904 11.84007153 21.72604083 22.40629243 26.36328125 33.89453125 C26.36328125 34.55453125 26.36328125 35.21453125 26.36328125 35.89453125 C24.71328125 35.89453125 23.06328125 35.89453125 21.36328125 35.89453125 C20.96238281 35.01152344 20.56148437 34.12851562 20.1484375 33.21875 C11.41298976 14.54215351 -1.5875364 2.52249546 -20.63671875 -5.10546875 C-38.90859967 -11.72324719 -58.35763805 -10.611901 -75.88671875 -2.41796875 C-91.46214927 6.0046146 -104.92296593 18.7532728 -110.63671875 35.89453125 C-112.28671875 35.89453125 -113.93671875 35.89453125 -115.63671875 35.89453125 C-111.06214002 18.96858993 -97.88943453 4.49711749 -83.07421875 -4.29296875 C-57.40364907 -18.87114273 -23.84390167 -17.91219454 0 0 Z " fill="#6197C8" transform="translate(119.63671875,14.10546875)"/>
<path d="M0 0 C1.04623504 0.00092179 2.09247007 0.00184359 3.1704092 0.00279331 C4.96468601 0.00073132 4.96468601 0.00073132 6.79521084 -0.00137234 C8.13279653 0.00216726 9.47038198 0.00580208 10.80796719 0.00952244 C12.20711166 0.00980431 13.60625627 0.00964658 15.00540066 0.00907993 C18.81515014 0.00879195 22.62486841 0.01468885 26.43461061 0.02165389 C30.41179863 0.02788724 34.38898731 0.02849121 38.36617947 0.0296793 C45.90267094 0.03279267 53.43914798 0.04100614 60.97563308 0.05102879 C69.55348383 0.06218974 78.13133525 0.06770033 86.70919144 0.07272422 C104.35923101 0.08318875 122.00925712 0.1007883 139.65928555 0.12304783 C140.14698619 1.40041817 140.63250892 2.67862018 141.11711025 3.95716953 C141.38771896 4.66887837 141.65832767 5.38058722 141.93713665 6.11386299 C144.17253317 12.33325186 143.87859617 18.66021984 143.90928555 25.18554783 C143.94022305 26.78946384 143.94022305 26.78946384 143.97178555 28.4257822 C144.00843761 36.00817814 143.03222089 42.90083406 140.65928555 50.12304783 C139.65928555 51.12304783 139.65928555 51.12304783 137.31857109 51.24609566 C136.27233605 51.24517386 135.22610102 51.24425207 134.14816189 51.24330235 C132.95197735 51.24467701 131.75579281 51.24605167 130.52336025 51.24746799 C129.18577456 51.24392839 127.84818911 51.24029358 126.5106039 51.23657322 C125.11145943 51.23629135 123.71231482 51.23644908 122.31317043 51.23701572 C118.50342095 51.23730371 114.69370268 51.2314068 110.88396049 51.22444177 C106.90677246 51.21820842 102.92958378 51.21760445 98.95239162 51.21641636 C91.41590015 51.21330299 83.87942311 51.20508952 76.34293801 51.19506687 C67.76508726 51.18390591 59.18723584 51.17839533 50.60937965 51.17337143 C32.95934009 51.16290691 15.30931397 51.14530736 -2.34071445 51.12304783 C-2.82841509 49.84567749 -3.31393783 48.56747548 -3.79853916 47.28892612 C-4.06914787 46.57721728 -4.33975658 45.86550844 -4.61856556 45.13223267 C-6.85396208 38.9128438 -6.56002508 32.58587582 -6.59071445 26.06054783 C-6.61133945 24.99127048 -6.63196445 23.92199314 -6.65321445 22.82031345 C-6.68986652 15.23791751 -5.7136498 8.3452616 -3.34071445 1.12304783 C-2.34071445 0.12304783 -2.34071445 0.12304783 0 0 Z M1.65928555 1.12304783 C1.17044292 2.55000289 0.68502275 3.9781307 0.20103359 5.40673923 C-0.06965443 6.20189945 -0.34034245 6.99705967 -0.61923313 7.81631565 C-2.54518147 13.97398996 -2.57931292 20.35310206 -2.65321445 26.74804783 C-2.68221836 27.56144627 -2.71122227 28.3748447 -2.74110508 29.21289158 C-2.82255422 37.27009125 -0.93134441 41.70350047 1.65928555 50.12304783 C45.87928555 50.12304783 90.09928555 50.12304783 135.65928555 50.12304783 C139.35735802 38.34824968 139.35735802 38.34824968 140.09678555 26.68554783 C140.08574795 25.79319431 140.07471035 24.9008408 140.06333828 23.98144627 C140.08586143 11.72728782 140.08586143 11.72728782 135.65928555 1.12304783 C133.92568957 1.02677669 132.18813909 1.00117215 130.45187283 1.00279331 C129.32300152 1.00141865 128.19413021 1.00004398 127.03105068 0.99862766 C125.15694515 1.00402058 125.15694515 1.00402058 123.2449789 1.00952244 C121.93785442 1.00937641 120.63072994 1.00923038 119.28399563 1.00907993 C115.68911456 1.00879197 112.09426658 1.01468855 108.49939322 1.02165389 C104.74642302 1.02788757 100.99345214 1.02849124 97.24047756 1.0296793 C90.12897728 1.03279257 83.0174923 1.04100591 75.90599877 1.05102879 C67.81181488 1.06219005 59.71763028 1.06770041 51.62344062 1.07272422 C34.9687133 1.08318852 18.31400137 1.10078789 1.65928555 1.12304783 Z " fill="#C6D8E8" transform="translate(6.340714454650879,49.876952171325684)"/>
<path d="M0 0 C1.65 0 3.3 0 5 0 C4.7834375 0.92296875 4.566875 1.8459375 4.34375 2.796875 C0.95608163 18.2342748 0.32902864 33.76373627 5 49 C3.35 49 1.7 49 0 49 C-2.43902542 40.71064708 -3.47145588 33.12744289 -3.375 24.5 C-3.38660156 23.46230469 -3.39820313 22.42460938 -3.41015625 21.35546875 C-3.38218184 13.86765081 -2.11068145 7.17343218 0 0 Z " fill="#DFDFDF" transform="translate(3,51)"/>
<path d="M0 0 C2.5625 2.0625 2.5625 2.0625 4 5 C3.94021398 8.46758942 3.60965977 10.88826749 1.9375 13.9375 C-1.27905997 15.70141999 -4.49385409 15.73924763 -8 15 C-10.5625 12.9375 -10.5625 12.9375 -12 10 C-11.94021398 6.53241058 -11.60965977 4.11173251 -9.9375 1.0625 C-6.72094003 -0.70141999 -3.50614591 -0.73924763 0 0 Z " fill="#FCB51B" transform="translate(79,68)"/>
<path d="M0 0 C1.37890625 1.62890625 1.37890625 1.62890625 2.5625 3.5625 C3.68067595 5.48877939 3.68067595 5.48877939 5 7 C5.99 7 6.98 7 8 7 C8 7.66 8 8.32 8 9 C9.32 9.33 10.64 9.66 12 10 C11.67 12.97 11.34 15.94 11 19 C10.34 19 9.68 19 9 19 C8.67 17.02 8.34 15.04 8 13 C7.67 14.98 7.34 16.96 7 19 C5 18 5 18 4 16 C3.34 16.66 2.68 17.32 2 18 C2.33 15.69 2.66 13.38 3 11 C1.515 13.475 1.515 13.475 0 16 C-0.66 15.67 -1.32 15.34 -2 15 C-0.68 12.69 0.64 10.38 2 8 C-0.31 9.98 -2.62 11.96 -5 14 C-4 12 -3 10 -2 8 C-3.65 8.66 -5.3 9.32 -7 10 C-6.34 9.01 -5.68 8.02 -5 7 C-6.32 6.67 -7.64 6.34 -9 6 C-7.35 5.01 -5.7 4.02 -4 3 C-6.31 3 -8.62 3 -11 3 C-4.1370869 -1.5752754 -4.1370869 -1.5752754 0 0 Z " fill="#CEA264" transform="translate(65,77)"/>
<path d="M0 0 C0.66 0 1.32 0 2 0 C2.33 1.98 2.66 3.96 3 6 C3.33 4.02 3.66 2.04 4 0 C4.66 0.33 5.32 0.66 6 1 C5.67 3.31 5.34 5.62 5 8 C5.99 5.69 6.98 3.38 8 1 C9 4 9 4 9 7 C10.32 5.68 11.64 4.36 13 3 C11.125 7.75 11.125 7.75 10 10 C11.98 8.35 13.96 6.7 16 5 C14.70700306 7.88437779 13.34058637 9.87219421 11 12 C11.33 12.66 11.66 13.32 12 14 C14.97 13.34 17.94 12.68 21 12 C19.60804085 14.7839183 17.84424221 14.97898997 15 16 C17.31 16 19.62 16 22 16 C15.93333333 20.04444444 15.93333333 20.04444444 12.375 19.875 C9.34134509 18.75733766 9.37427154 17.82938258 8 15 C3.94041188 11.77652224 3.94041188 11.77652224 -1 11 C-0.67 7.37 -0.34 3.74 0 0 Z " fill="#C8954B" transform="translate(74,55)"/>
<path d="M0 0 C0.66 0 1.32 0 2 0 C3.36824115 4.51519581 2.65027447 7.62677266 1 12 C-2 14 -2 14 -5 14 C-4.67 15.32 -4.34 16.64 -4 18 C-8.29299643 19.26264601 -10.87831311 18.62950412 -15 17 C-13.68 16.34 -12.36 15.68 -11 15 C-11.99 14.67 -12.98 14.34 -14 14 C-14 13.34 -14 12.68 -14 12 C-11.03 12.495 -11.03 12.495 -8 13 C-9.32 12.34 -10.64 11.68 -12 11 C-11.67 10.34 -11.34 9.68 -11 9 C-9.02 9.99 -7.04 10.98 -5 12 C-6.65 10.35 -8.3 8.7 -10 7 C-9.67 6.34 -9.34 5.68 -9 5 C-6.525 6.98 -6.525 6.98 -4 9 C-4.99 7.68 -5.98 6.36 -7 5 C-6.67 4.34 -6.34 3.68 -6 3 C-5.01 3.99 -4.02 4.98 -3 6 C-2.67 4.68 -2.34 3.36 -2 2 C-1.01 3.485 -1.01 3.485 0 5 C0 3.35 0 1.7 0 0 Z " fill="#CDA162" transform="translate(70,55)"/>
<path d="M0 0 C1.64666203 0.1135629 3.29236082 0.24117381 4.9375 0.375 C6.31228516 0.47941406 6.31228516 0.47941406 7.71484375 0.5859375 C8.84599609 0.79089844 8.84599609 0.79089844 10 1 C10.33 1.66 10.66 2.32 11 3 C9.02 3 7.04 3 5 3 C6.98 3.99 8.96 4.98 11 6 C7.86650268 7.04449911 7.01031744 6.93423645 4 6 C5.32 6.66 6.64 7.32 8 8 C7.67 8.66 7.34 9.32 7 10 C5.02 9.01 3.04 8.02 1 7 C2.65 8.65 4.3 10.3 6 12 C5.67 12.66 5.34 13.32 5 14 C3.35 12.68 1.7 11.36 0 10 C0.99 11.32 1.98 12.64 3 14 C2.67 14.66 2.34 15.32 2 16 C1.01 15.34 0.02 14.68 -1 14 C-1.33 15.32 -1.66 16.64 -2 18 C-2.66 16.68 -3.32 15.36 -4 14 C-4 15.65 -4 17.3 -4 19 C-4.66 19 -5.32 19 -6 19 C-7.36661647 14.49016565 -6.60005266 11.37909149 -5 7 C-2.99967627 5.99983813 -1.16874252 5.50603992 1 5 C0.67 3.35 0.34 1.7 0 0 Z " fill="#CB9951" transform="translate(84,77)"/>
<path d="M0 0 C2.64 0 5.28 0 8 0 C8 1.32 8 2.64 8 4 C7.34 4 6.68 4 6 4 C6 5.32 6 6.64 6 8 C4.68 7.67 3.36 7.34 2 7 C2 6.01 2 5.02 2 4 C1.01 3.67 0.02 3.34 -1 3 C-0.67 2.01 -0.34 1.02 0 0 Z " fill="#CF8C19" transform="translate(71,72)"/>
<path d="M0 0 C0.99 0 1.98 0 3 0 C3 0.66 3 1.32 3 2 C4.32 2.33 5.64 2.66 7 3 C6.67 5.97 6.34 8.94 6 12 C5.34 12 4.68 12 4 12 C3.67 10.02 3.34 8.04 3 6 C2.67 7.98 2.34 9.96 2 12 C1.34 11.67 0.68 11.34 0 11 C0.185625 9.9275 0.37125 8.855 0.5625 7.75 C0.9304568 4.59608454 1.04465343 2.90181508 0 0 Z " fill="#CC9D58" transform="translate(70,84)"/>
<path d="M0 0 C0.66 0 1.32 0 2 0 C2.33 1.98 2.66 3.96 3 6 C3.33 4.02 3.66 2.04 4 0 C4.66 0.33 5.32 0.66 6 1 C5.67 4.3 5.34 7.6 5 11 C3.02 11 1.04 11 -1 11 C-0.67 7.37 -0.34 3.74 0 0 Z " fill="#CD9F5C" transform="translate(74,55)"/>
<path d="M0 0 C-1.98 0.99 -3.96 1.98 -6 3 C-3.69 3 -1.38 3 1 3 C-5.16981132 7.11320755 -5.16981132 7.11320755 -8.75 6.625 C-9.4925 6.41875 -10.235 6.2125 -11 6 C-11 4.68 -11 3.36 -11 2 C-9.54494642 1.47007308 -8.08581873 0.9513211 -6.625 0.4375 C-5.81289062 0.14746094 -5.00078125 -0.14257812 -4.1640625 -0.44140625 C-2 -1 -2 -1 0 0 Z " fill="#CC9F5E" transform="translate(95,68)"/>
<path d="M0 0 C3 2 3 2 3.51171875 4.1640625 C3.56972656 4.97617188 3.62773438 5.78828125 3.6875 6.625 C3.75324219 7.44226563 3.81898437 8.25953125 3.88671875 9.1015625 C3.92410156 9.72804688 3.96148437 10.35453125 4 11 C3.01 9.68 2.02 8.36 1 7 C1 8.65 1 10.3 1 12 C0.34 12 -0.32 12 -1 12 C-2.36884358 7.48281619 -1.47075246 4.41225737 0 0 Z " fill="#D2AE7D" transform="translate(79,84)"/>
<path d="M0 0 C4.455 0.99 4.455 0.99 9 2 C9.33 3.32 9.66 4.64 10 6 C5.70700357 7.26264601 3.12168689 6.62950412 -1 5 C0.32 4.34 1.64 3.68 3 3 C2.01 2.67 1.02 2.34 0 2 C0 1.34 0 0.68 0 0 Z " fill="#D1A86F" transform="translate(56,67)"/>
<path d="M0 0 C1.64666203 0.1135629 3.29236082 0.24117381 4.9375 0.375 C5.85402344 0.44460937 6.77054687 0.51421875 7.71484375 0.5859375 C8.84599609 0.79089844 8.84599609 0.79089844 10 1 C10.33 1.66 10.66 2.32 11 3 C9.02 3 7.04 3 5 3 C6.98 3.99 8.96 4.98 11 6 C7.18652885 7.27115705 5.64026964 6.54905091 2 5 C0 2 0 2 0 0 Z " fill="#CEA05C" transform="translate(84,77)"/>
<path d="M0 0 C0.33 1.32 0.66 2.64 1 4 C-1.31 4.33 -3.62 4.66 -6 5 C-5.34 4.34 -4.68 3.68 -4 3 C-6.31 3 -8.62 3 -11 3 C-4.23255814 -1.51162791 -4.23255814 -1.51162791 0 0 Z " fill="#CB9D5E" transform="translate(65,77)"/>
<path d="M0 0 C2.25245881 2.68841859 3.88213958 4.64641875 5 8 C8.63 8.33 12.26 8.66 16 9 C16 9.33 16 9.66 16 10 C15.31292969 10.06058594 14.62585938 10.12117188 13.91796875 10.18359375 C13.01691406 10.26738281 12.11585937 10.35117188 11.1875 10.4375 C9.84751953 10.55931641 9.84751953 10.55931641 8.48046875 10.68359375 C5.87256441 10.93489767 5.87256441 10.93489767 3 12 C2.566875 10.3603125 2.566875 10.3603125 2.125 8.6875 C1.18106796 4.95986155 1.18106796 4.95986155 -1 2 C-0.67 1.34 -0.34 0.68 0 0 Z " fill="#B27320" transform="translate(80,66)"/>
<path d="M0 0 C0.515625 0.37125 1.03125 0.7425 1.5625 1.125 C-3.7109375 4.34765625 -3.7109375 4.34765625 -5.4375 5.125 C-6.0975 4.795 -6.7575 4.465 -7.4375 4.125 C-6.7775 3.465 -6.1175 2.805 -5.4375 2.125 C-6.7575 1.795 -8.0775 1.465 -9.4375 1.125 C-3.0375 -1.09038462 -3.0375 -1.09038462 0 0 Z " fill="#D3AD77" transform="translate(65.4375,81.875)"/>
<path d="M0 0 C2.64 0 5.28 0 8 0 C7.01 0.495 7.01 0.495 6 1 C6 2.32 6 3.64 6 5 C4.68 4.67 3.36 4.34 2 4 C2 3.01 2 2.02 2 1 C1.34 0.67 0.68 0.34 0 0 Z " fill="#E29D1A" transform="translate(71,75)"/>
</svg>
