<?xml version="1.0" encoding="UTF-8"?>
<svg version="1.1" xmlns="http://www.w3.org/2000/svg" width="150" height="150">
<path d="M0 0 C2.26685452 1.68622161 4.37461281 3.45620684 6.4765625 5.34375 C7.70826172 6.43623047 7.70826172 6.43623047 8.96484375 7.55078125 C22.24806842 20.02774039 31.07984821 37.58848816 31.8125 55.9453125 C32.13371051 77.23647878 28.10626638 96.0522542 13.4765625 112.34375 C12.74824219 113.16488281 12.01992187 113.98601562 11.26953125 114.83203125 C-1.20742789 128.11525592 -18.76817566 136.94703571 -37.125 137.6796875 C-58.41616628 138.00089801 -77.2319417 133.97345388 -93.5234375 119.34375 C-94.34457031 118.61542969 -95.16570312 117.88710937 -96.01171875 117.13671875 C-109.29494342 104.65975961 -118.12672321 87.09901184 -118.859375 68.7421875 C-119.18058551 47.45102122 -115.15314138 28.6352458 -100.5234375 12.34375 C-99.79511719 11.52261719 -99.06679687 10.70148437 -98.31640625 9.85546875 C-72.64852592 -17.47107913 -30.68115209 -20.13747444 0 0 Z " fill="#02028A" transform="translate(118.5234375,12.65625)"/>
<path d="M0 0 C0.61242737 4.41741593 1.04373036 8.34380287 -1.40625 12.23144531 C-3.34580296 14.32757677 -5.35935163 16.2350582 -7.5 18.125 C-8.21542969 18.7953125 -8.93085937 19.465625 -9.66796875 20.15625 C-11.42338912 21.79464234 -13.20884382 23.40075341 -15 25 C-10.05 25.33 -5.1 25.66 0 26 C0 33.59 0 41.18 0 49 C-4.95 49 -9.9 49 -15 49 C-15 49.66 -15 50.32 -15 51 C-14.18982422 51.32871094 -14.18982422 51.32871094 -13.36328125 51.6640625 C-10.19659821 53.4541544 -7.75473707 55.83780862 -5.1875 58.375 C-4.4150293 59.09816406 -4.4150293 59.09816406 -3.62695312 59.8359375 C-2.16796875 61.2734375 -2.16796875 61.2734375 0 64 C-0.36450195 66.17041016 -0.36450195 66.17041016 -1 68 C-1.77077881 67.18208984 -1.77077881 67.18208984 -2.55712891 66.34765625 C-4.89719559 63.88276495 -7.26051534 61.44146789 -9.625 59 C-10.43324219 58.14148437 -11.24148437 57.28296875 -12.07421875 56.3984375 C-12.86699219 55.58632813 -13.65976562 54.77421875 -14.4765625 53.9375 C-15.19924316 53.18339844 -15.92192383 52.42929687 -16.66650391 51.65234375 C-19.61156355 49.56695311 -21.46904578 49.68021547 -25 50 C-24.27296875 50.72179443 -23.5459375 51.44358887 -22.796875 52.18725586 C-20.11077299 54.85531428 -17.42793567 57.52663468 -14.74609375 60.19897461 C-13.58292608 61.35710059 -12.41886426 62.51432923 -11.25390625 63.6706543 C-9.5835999 65.32888785 -7.9164921 66.99027812 -6.25 68.65234375 C-5.46254395 69.43205788 -5.46254395 69.43205788 -4.65917969 70.2275238 C-3.42032908 71.46617967 -2.20725811 72.73053278 -1 74 C-1 74.33 -1 74.66 -1 75 C-4.70209985 75.75296946 -6.40873577 75.98478051 -10 75 C-15.26968405 71.47009001 -21.98626146 66.04121562 -24 60 C-24.66 60 -25.32 60 -26 60 C-26 64.95 -26 69.9 -26 75 C-33.59 75 -41.18 75 -49 75 C-49 70.05 -49 65.1 -49 60 C-53.65561579 63.80050269 -57.52492205 67.6233758 -61.2265625 72.36328125 C-63.41634795 74.38425064 -65.08273733 74.65649979 -68 75 C-64.52627116 69.88467779 -60.59490307 65.3790421 -56.25 61 C-55.76619873 60.50717529 -55.28239746 60.01435059 -54.78393555 59.5065918 C-51.24760061 56 -51.24760061 56 -49 56 C-49.33 54.02 -49.66 52.04 -50 50 C-50.72179443 50.72703125 -51.44358887 51.4540625 -52.18725586 52.203125 C-54.85531428 54.88922701 -57.52663468 57.57206433 -60.19897461 60.25390625 C-61.35710059 61.41707392 -62.51432923 62.58113574 -63.6706543 63.74609375 C-65.32888785 65.4164001 -66.99027812 67.0835079 -68.65234375 68.75 C-69.17215317 69.2749707 -69.69196259 69.79994141 -70.2275238 70.34082031 C-71.46617967 71.57967092 -72.73053278 72.79274189 -74 74 C-74.33 74 -74.66 74 -75 74 C-76.25693075 57.20600856 -69.67386974 39.98980773 -58.92578125 27.14453125 C-58.29027344 26.43683594 -57.65476562 25.72914062 -57 25 C-56.27167969 24.17886719 -55.54335938 23.35773437 -54.79296875 22.51171875 C-40.24072623 7.01910515 -21.00494562 -0.63974454 0 0 Z " fill="#FE0000" transform="translate(75,0)"/>
<path d="M0 0 C0.61242737 4.41741593 1.04373036 8.34380287 -1.40625 12.23144531 C-3.34580296 14.32757677 -5.35935163 16.2350582 -7.5 18.125 C-8.21542969 18.7953125 -8.93085937 19.465625 -9.66796875 20.15625 C-11.42338912 21.79464234 -13.20884382 23.40075341 -15 25 C-10.05 25.33 -5.1 25.66 0 26 C0 27.65 0 29.3 0 31 C-10.23 31 -20.46 31 -31 31 C-31 22.75 -31 14.5 -31 6 C-19.61496372 1.44598549 -11.97108295 -0.36460151 0 0 Z " fill="#FCEBEC" transform="translate(75,0)"/>
<path d="M0 0 C2.34914492 2.34914492 2.73140357 3.95679446 3.625 7.125 C4.01558594 8.49011719 4.01558594 8.49011719 4.4140625 9.8828125 C4.70410156 10.93082031 4.70410156 10.93082031 5 12 C5.77085938 11.69964844 6.54171875 11.39929688 7.3359375 11.08984375 C8.33882812 10.70957031 9.34171875 10.32929687 10.375 9.9375 C11.37273438 9.55464844 12.37046875 9.17179687 13.3984375 8.77734375 C16 8 16 8 18 9 C17.566875 9.62648438 17.13375 10.25296875 16.6875 10.8984375 C16.130625 11.71570313 15.57375 12.53296875 15 13.375 C14.443125 14.18710938 13.88625 14.99921875 13.3125 15.8359375 C11.82714156 17.86318187 11.82714156 17.86318187 12 20 C14.02068011 21.55311615 14.02068011 21.55311615 16.5 23.0625 C18.0148047 24.01860359 19.51910652 24.99216972 21 26 C21 26.33 21 26.66 21 27 C16.9472484 27.98248524 13.16138263 28.08159574 9 28 C9.165 28.639375 9.33 29.27875 9.5 29.9375 C10.15932515 33.97586652 10.08003779 37.91807258 10 42 C9.52949219 41.59007812 9.05898438 41.18015625 8.57421875 40.7578125 C7.95160156 40.21898437 7.32898438 39.68015625 6.6875 39.125 C6.07261719 38.59132812 5.45773438 38.05765625 4.82421875 37.5078125 C2.86501788 35.8359553 2.86501788 35.8359553 0 34 C-0.56589844 34.5053125 -1.13179687 35.010625 -1.71484375 35.53125 C-2.44832031 36.1809375 -3.18179688 36.830625 -3.9375 37.5 C-5.03384766 38.47453125 -5.03384766 38.47453125 -6.15234375 39.46875 C-8 41 -8 41 -9 41 C-8.67 36.71 -8.34 32.42 -8 28 C-10.1346875 28.061875 -10.1346875 28.061875 -12.3125 28.125 C-15.98060033 28.23132175 -16.79619983 28.13586678 -20 26 C-17.03 24.02 -14.06 22.04 -11 20 C-12.29358794 16.76603015 -13.40282267 14.11520147 -15.125 11.1875 C-15.74375 10.135625 -16.3625 9.08375 -17 8 C-15.96939453 8.32484375 -15.96939453 8.32484375 -14.91796875 8.65625 C-14.01691406 8.9346875 -13.11585937 9.213125 -12.1875 9.5 C-11.29417969 9.7784375 -10.40085937 10.056875 -9.48046875 10.34375 C-6.94426605 11.12788351 -6.94426605 11.12788351 -4 11 C-2.68 7.37 -1.36 3.74 0 0 Z " fill="#F3F3F9" transform="translate(37,91)"/>
<path d="M0 0 C8.25 0 16.5 0 25 0 C25 10.23 25 20.46 25 31 C23.35 31 21.7 31 20 31 C20 26.05 20 21.1 20 16 C15.34438421 19.80050269 11.47507795 23.6233758 7.7734375 28.36328125 C5.58365205 30.38425064 3.91726267 30.65649979 1 31 C4.47372884 25.88467779 8.40509693 21.3790421 12.75 17 C13.23380127 16.50717529 13.71760254 16.01435059 14.21606445 15.5065918 C17.75239939 12 17.75239939 12 20 12 C19.67 10.02 19.34 8.04 19 6 C17.91730835 7.09054688 17.91730835 7.09054688 16.81274414 8.203125 C14.14468572 10.88922701 11.47336532 13.57206433 8.80102539 16.25390625 C7.64289941 17.41707392 6.48567077 18.58113574 5.3293457 19.74609375 C3.67111215 21.4164001 2.00972188 23.0835079 0.34765625 24.75 C-0.17215317 25.2749707 -0.69196259 25.79994141 -1.2275238 26.34082031 C-2.46617967 27.57967092 -3.73053278 28.79274189 -5 30 C-5.33 30 -5.66 30 -6 30 C-6.78366601 19.52935138 -4.7040208 9.4080416 0 0 Z " fill="#F9E5E8" transform="translate(6,44)"/>
<path d="M0 0 C10.23 0 20.46 0 31 0 C31 1.65 31 3.3 31 5 C26.05 5 21.1 5 16 5 C16 5.66 16 6.32 16 7 C16.54011719 7.21914063 17.08023438 7.43828125 17.63671875 7.6640625 C20.80340179 9.4541544 23.24526293 11.83780862 25.8125 14.375 C26.5849707 15.09816406 26.5849707 15.09816406 27.37304688 15.8359375 C28.83203125 17.2734375 28.83203125 17.2734375 31 20 C30.63549805 22.17041016 30.63549805 22.17041016 30 24 C29.48614746 23.45472656 28.97229492 22.90945312 28.44287109 22.34765625 C26.10280441 19.88276495 23.73948466 17.44146789 21.375 15 C20.56675781 14.14148437 19.75851563 13.28296875 18.92578125 12.3984375 C17.73662109 11.18027344 17.73662109 11.18027344 16.5234375 9.9375 C15.80075684 9.18339844 15.07807617 8.42929687 14.33349609 7.65234375 C11.38843645 5.56695311 9.53095422 5.68021547 6 6 C7.09054688 7.08269165 7.09054688 7.08269165 8.203125 8.18725586 C10.88922701 10.85531428 13.57206433 13.52663468 16.25390625 16.19897461 C17.41707392 17.35710059 18.58113574 18.51432923 19.74609375 19.6706543 C21.4164001 21.32888785 23.0835079 22.99027812 24.75 24.65234375 C25.53745605 25.43205788 25.53745605 25.43205788 26.34082031 26.2275238 C27.57967092 27.46617967 28.79274189 28.73053278 30 30 C30 30.33 30 30.66 30 31 C26.29790015 31.75296946 24.59126423 31.98478051 21 31 C15.73031595 27.47009001 9.01373854 22.04121562 7 16 C6.34 16 5.68 16 5 16 C5 20.95 5 25.9 5 31 C3.35 31 1.7 31 0 31 C0 20.77 0 10.54 0 0 Z " fill="#F9E9EC" transform="translate(44,44)"/>
<path d="M0 0 C0 5.61 0 11.22 0 17 C-5.61 17 -11.22 17 -17 17 C-14.44994179 12.74990299 -11.92116514 9.64668796 -8.4375 6.25 C-7.94314453 5.75628906 -7.44878906 5.26257813 -6.93945312 4.75390625 C-2.12693707 0 -2.12693707 0 0 0 Z " fill="#E9AEAE" transform="translate(31,14)"/>
<path d="M0 0 C2 2 2 2 2 5 C3.98 4.34 5.96 3.68 8 3 C9.85776765 6.13498292 10.20140476 8.37471432 10 12 C8.35 12 6.7 12 5 12 C5 13.98 5 15.96 5 18 C3.8553125 17.4740625 3.8553125 17.4740625 2.6875 16.9375 C-0.04759379 15.67639116 -0.04759379 15.67639116 -3 17 C-3 15.35 -3 13.7 -3 12 C-4.98 12 -6.96 12 -9 12 C-7.68 10.68 -6.36 9.36 -5 8 C-5.66 6.68 -6.32 5.36 -7 4 C-4.03 4.495 -4.03 4.495 -1 5 C-0.67 3.35 -0.34 1.7 0 0 Z " fill="#EBEBF4" transform="translate(138,47)"/>
<path d="M0 0 C2.83426438 -0.55762325 4.24455432 -0.71058574 7 0 C10.7125468 2.62591025 13.77993275 5.80408269 16.9375 9.0625 C17.81212891 9.91005859 18.68675781 10.75761719 19.58789062 11.63085938 C26.55856961 18.67772065 26.55856961 18.67772065 26.56640625 23.12109375 C26.37949219 24.07113281 26.19257812 25.02117187 26 26 C20.02265091 21.04455862 14.53812065 15.68810448 9.0625 10.1875 C8.18787109 9.31673828 7.31324219 8.44597656 6.41210938 7.54882812 C5.58646484 6.72189453 4.76082031 5.89496094 3.91015625 5.04296875 C3.15871338 4.29039795 2.40727051 3.53782715 1.63305664 2.76245117 C0 1 0 1 0 0 Z " fill="#FF1414" transform="translate(49,49)"/>
<path d="M0 0 C0.66 0.33 1.32 0.66 2 1 C2 1.99 2 2.98 2 4 C3.98 3.67 5.96 3.34 8 3 C7.34 4.98 6.68 6.96 6 9 C7.32 9.66 8.64 10.32 10 11 C10 11.33 10 11.66 10 12 C8.35 12 6.7 12 5 12 C5 13.98 5 15.96 5 18 C3.35 17.01 1.7 16.02 0 15 C-1.32 15.99 -2.64 16.98 -4 18 C-4 16.02 -4 14.04 -4 12 C-5.32 11.67 -6.64 11.34 -8 11 C-7.01 9.68 -6.02 8.36 -5 7 C-5.66 5.68 -6.32 4.36 -7 3 C-4.03 3.495 -4.03 3.495 -1 4 C-0.67 2.68 -0.34 1.36 0 0 Z " fill="#E1E1F1" transform="translate(114,23)"/>
<path d="M0 0 C-2.59979552 4.10321545 -5.26858933 7.51660662 -8.73046875 10.9609375 C-9.61541016 11.84394531 -10.50035156 12.72695312 -11.41210938 13.63671875 C-12.32798828 14.54035156 -13.24386719 15.44398437 -14.1875 16.375 C-15.11498047 17.30183594 -16.04246094 18.22867187 -16.99804688 19.18359375 C-23.85962813 26 -23.85962813 26 -25 26 C-25.56235081 23.16128394 -25.71704633 21.75896225 -25 19 C-22.35021878 15.28953824 -19.15039255 12.22022815 -15.875 9.0625 C-15.0190625 8.18787109 -14.163125 7.31324219 -13.28125 6.41210938 C-6.20484822 -0.56086808 -6.20484822 -0.56086808 0 0 Z " fill="#FE1212" transform="translate(74,0)"/>
<path d="M0 0 C0.66 0.33 1.32 0.66 2 1 C2 1.99 2 2.98 2 4 C3.98 3.67 5.96 3.34 8 3 C7.34 4.98 6.68 6.96 6 9 C7.32 9.66 8.64 10.32 10 11 C10 11.33 10 11.66 10 12 C8.35 12 6.7 12 5 12 C5 13.98 5 15.96 5 18 C3.35 17.01 1.7 16.02 0 15 C-0.99 15.66 -1.98 16.32 -3 17 C-3 15.35 -3 13.7 -3 12 C-4.98 12 -6.96 12 -9 12 C-7.625 10.5 -7.625 10.5 -6 9 C-5.34 9 -4.68 9 -4 9 C-4.66 7.35 -5.32 5.7 -6 4 C-4.35 4.33 -2.7 4.66 -1 5 C-0.67 3.35 -0.34 1.7 0 0 Z " fill="#E8E8F4" transform="translate(114,109)"/>
<path d="M0 0 C0.5 3.0625 0.5 3.0625 0 7 C-2.34984675 9.72056049 -5.18445024 11.78109038 -8 14 C-9.27064018 15.18660987 -10.52198941 16.39432562 -11.75 17.625 C-12.32234375 18.19605469 -12.8946875 18.76710938 -13.484375 19.35546875 C-15.19161867 21.1274264 -15.19161867 21.1274264 -17 23.9375 C-19 26 -19 26 -22.75 26.3125 C-23.8225 26.209375 -24.895 26.10625 -26 26 C-21.04455862 20.02265091 -15.68810448 14.53812065 -10.1875 9.0625 C-9.31673828 8.18787109 -8.44597656 7.31324219 -7.54882812 6.41210938 C-6.72189453 5.58646484 -5.89496094 4.76082031 -5.04296875 3.91015625 C-4.29039795 3.15871338 -3.53782715 2.40727051 -2.76245117 1.63305664 C-1 0 -1 0 0 0 Z " fill="#FC0C0C" transform="translate(26,49)"/>
<path d="M0 0 C2 2 2 2 2 5 C3.65 4.67 5.3 4.34 7 4 C6.34 5.65 5.68 7.3 5 9 C7.475 9.99 7.475 9.99 10 11 C10 11.33 10 11.66 10 12 C8.02 12 6.04 12 4 12 C4 13.65 4 15.3 4 17 C2.35 16.01 0.7 15.02 -1 14 C-1.66 15.32 -2.32 16.64 -3 18 C-3.33 18 -3.66 18 -4 18 C-4 16.02 -4 14.04 -4 12 C-5.32 12 -6.64 12 -8 12 C-7.67 11.01 -7.34 10.02 -7 9 C-6.34 9 -5.68 9 -5 9 C-5.66 7.02 -6.32 5.04 -7 3 C-5.02 3.66 -3.04 4.32 -1 5 C-0.67 3.35 -0.34 1.7 0 0 Z " fill="#E8E8F4" transform="translate(87,57)"/>
<path d="M0 0 C3.63 0 7.26 0 11 0 C11 0.66 11 1.32 11 2 C9.42578125 3.515625 9.42578125 3.515625 7.3125 5.25 C3.76035397 8.25954469 0.86029631 11.33524535 -2 15 C-2.66 14.67 -3.32 14.34 -4 14 C-3.52372025 12.04096255 -3.04388577 10.08278903 -2.5625 8.125 C-2.29566406 7.03445312 -2.02882812 5.94390625 -1.75390625 4.8203125 C-1 2 -1 2 0 0 Z " fill="#121284" transform="translate(4,49)"/>
<path d="M0 0 C-4.09526587 4.89434213 -8.26357085 9.70720334 -13 14 C-13.33 14 -13.66 14 -14 14 C-14 10.37 -14 6.74 -14 3 C-4.42857143 -0.42857143 -4.42857143 -0.42857143 0 0 Z " fill="#08087E" transform="translate(63,1)"/>
<path d="M0 0 C0.33 0 0.66 0 1 0 C1 3.3 1 6.6 1 10 C-3.95 10 -8.9 10 -14 10 C-13.34 8.68 -12.68 7.36 -12 6 C-9.03 6 -6.06 6 -3 6 C-2.67 4.68 -2.34 3.36 -2 2 C-1.34 1.34 -0.68 0.68 0 0 Z " fill="#FEFEFE" transform="translate(29,20)"/>
<path d="M0 0 C2.625 -0.1875 2.625 -0.1875 5 0 C3.87212312 3.28109638 2.39011594 6.29812021 0.6875 9.3125 C0.29949219 10.00988281 -0.08851562 10.70726562 -0.48828125 11.42578125 C-2 13 -2 13 -4.66796875 13.23046875 C-5.43753906 13.15441406 -6.20710937 13.07835937 -7 13 C-6.21085079 11.39459341 -5.41858235 9.79071984 -4.625 8.1875 C-4.18414062 7.29417969 -3.74328125 6.40085937 -3.2890625 5.48046875 C-2 3 -2 3 0 0 Z " fill="#DE0506" transform="translate(13,31)"/>
<path d="M0 0 C0.3359375 2.265625 0.3359375 2.265625 0 5 C-2.3359375 6.984375 -2.3359375 6.984375 -5.375 8.75 C-6.37273438 9.34296875 -7.37046875 9.9359375 -8.3984375 10.546875 C-9.91596315 11.39450194 -11.44530247 12.22265123 -13 13 C-13.37109375 10.2421875 -13.37109375 10.2421875 -13 7 C-10.41015625 4.8828125 -10.41015625 4.8828125 -7.0625 3.125 C-5.96035156 2.52945312 -4.85820313 1.93390625 -3.72265625 1.3203125 C-1 0 -1 0 0 0 Z " fill="#DF0506" transform="translate(44,6)"/>
<path d="M0 0 C-0.5625 1.875 -0.5625 1.875 -2 4 C-3.546875 4.3403125 -3.546875 4.3403125 -5.125 4.6875 C-10.12989403 5.99390798 -12.99611932 9.44691059 -16.4375 13.125 C-17.07365234 13.78371094 -17.70980469 14.44242188 -18.36523438 15.12109375 C-19.92219097 16.73658255 -21.46620915 18.36255308 -23 20 C-23 14.78850984 -18.40082419 11.84702277 -14.875 8.3125 C-14.11445312 7.51521484 -13.35390625 6.71792969 -12.5703125 5.89648438 C-11.44882812 4.76629883 -11.44882812 4.76629883 -10.3046875 3.61328125 C-9.62390137 2.92016846 -8.94311523 2.22705566 -8.24169922 1.51293945 C-5.35802817 -0.43327156 -3.40698123 -0.28173231 0 0 Z " fill="#FF0D0D" transform="translate(74,0)"/>
<path d="M0 0 C0.66 0 1.32 0 2 0 C2 0.66 2 1.32 2 2 C3.32 2 4.64 2 6 2 C6 2.66 6 3.32 6 4 C5.34 4 4.68 4 4 4 C4 5.32 4 6.64 4 8 C2.02 8 0.04 8 -2 8 C-2.66 6.02 -3.32 4.04 -4 2 C-2.68 2 -1.36 2 0 2 C0 1.34 0 0.68 0 0 Z " fill="#E3E3F2" transform="translate(124,77)"/>
<path d="M0 0 C0 0.99 0 1.98 0 3 C0.103125 4.299375 0.20625 5.59875 0.3125 6.9375 C0.33203125 9.05859375 0.33203125 9.05859375 0 11 C-2.5 13.5 -2.5 13.5 -5 15 C-5 11.7 -5 8.4 -5 5 C-4.34 5 -3.68 5 -3 5 C-2.5359375 4.0409375 -2.5359375 4.0409375 -2.0625 3.0625 C-1 1 -1 1 0 0 Z " fill="#D5D2D8" transform="translate(5,59)"/>
<path d="M0 0 C0.33 1.32 0.66 2.64 1 4 C3.31 3.34 5.62 2.68 8 2 C6.4169423 6.2742558 3.49431596 8.26531794 0 11 C0 7.37 0 3.74 0 0 Z " fill="#181893" transform="translate(49,4)"/>
<path d="M0 0 C1.98 0 3.96 0 6 0 C5.04578192 1.14926266 4.08647955 2.29430541 3.125 3.4375 C2.59132813 4.07558594 2.05765625 4.71367188 1.5078125 5.37109375 C0 7 0 7 -2 8 C-1.125 2.25 -1.125 2.25 0 0 Z " fill="#00008A" transform="translate(8,50)"/>
<path d="M0 0 C0.9075 0.103125 1.815 0.20625 2.75 0.3125 C2.25 2.25 2.25 2.25 0.75 4.3125 C-1.94658452 5.00040422 -4.4517019 5.13196464 -7.25 5.3125 C-4.05 0.38942308 -4.05 0.38942308 0 0 Z " fill="#DF0B0B" transform="translate(71.25,-0.3125)"/>
<path d="M0 0 C1.98 0 3.96 0 6 0 C4.8125 2 4.8125 2 3 4 C0.3125 4.25 0.3125 4.25 -2 4 C-1.34 2.68 -0.68 1.36 0 0 Z " fill="#DEDEDE" transform="translate(17,26)"/>
<path d="M0 0 C0.763125 0.0825 1.52625 0.165 2.3125 0.25 C0.6625 2.23 -0.9875 4.21 -2.6875 6.25 C-3.6775 5.59 -4.6675 4.93 -5.6875 4.25 C-3.34903846 0.31153846 -3.34903846 0.31153846 0 0 Z " fill="#D6C9CE" transform="translate(65.6875,-0.25)"/>
<path d="M0 0 C3.875 1.75 3.875 1.75 5 4 C2.36 4 -0.28 4 -3 4 C-2.01 2.68 -1.02 1.36 0 0 Z " fill="#E22627" transform="translate(21,22)"/>
<path d="M0 0 C2 3 2 3 2 7 C0.68 6.34 -0.64 5.68 -2 5 C-1.125 1.125 -1.125 1.125 0 0 Z " fill="#121281" transform="translate(146,51)"/>
<path d="M0 0 C0 1.65 0 3.3 0 5 C-1.32 5.33 -2.64 5.66 -4 6 C-4 4.35 -4 2.7 -4 1 C-1 0 -1 0 0 0 Z " fill="#DEDEDE" transform="translate(49,4)"/>
<path d="M0 0 C1.32 0 2.64 0 4 0 C3.67 1.32 3.34 2.64 3 4 C1.35 4 -0.3 4 -2 4 C-1.34 2.68 -0.68 1.36 0 0 Z " fill="#DEDEDE" transform="translate(6,45)"/>
</svg>
