<?xml version="1.0" encoding="UTF-8"?>
<svg version="1.1" xmlns="http://www.w3.org/2000/svg" width="150" height="150">
<path d="M0 0 C2.26685452 1.68622161 4.37461281 3.45620684 6.4765625 5.34375 C7.70826172 6.43623047 7.70826172 6.43623047 8.96484375 7.55078125 C22.24806842 20.02774039 31.07984821 37.58848816 31.8125 55.9453125 C32.13371051 77.23647878 28.10626638 96.0522542 13.4765625 112.34375 C12.74824219 113.16488281 12.01992187 113.98601562 11.26953125 114.83203125 C-1.20742789 128.11525592 -18.76817566 136.94703571 -37.125 137.6796875 C-58.41616628 138.00089801 -77.2319417 133.97345388 -93.5234375 119.34375 C-94.34457031 118.61542969 -95.16570312 117.88710937 -96.01171875 117.13671875 C-109.29494342 104.65975961 -118.12672321 87.09901184 -118.859375 68.7421875 C-119.18058551 47.45102122 -115.15314138 28.6352458 -100.5234375 12.34375 C-99.79511719 11.52261719 -99.06679687 10.70148437 -98.31640625 9.85546875 C-72.64852592 -17.47107913 -30.68115209 -20.13747444 0 0 Z " fill="#FEFEFE" transform="translate(118.5234375,12.65625)"/>
<path d="M0 0 C46.86 0 93.72 0 142 0 C135.58124025 19.25627924 123.12775367 33.75377298 105 43 C87.07217835 51.06648822 66.36266928 53.36855165 47.390625 47.328125 C37.70833463 43.53552278 28.79330925 38.99836332 21 32 C20.17886719 31.27167969 19.35773437 30.54335937 18.51171875 29.79296875 C9.28069346 21.12224848 3.99768103 11.99304309 0 0 Z " fill="#C7102D" transform="translate(4,100)"/>
<path d="M0 0 C2.26685452 1.68622161 4.37461281 3.45620684 6.4765625 5.34375 C7.70826172 6.43623047 7.70826172 6.43623047 8.96484375 7.55078125 C18.19586904 16.22150152 23.47888147 25.35070691 27.4765625 37.34375 C-19.3834375 37.34375 -66.2434375 37.34375 -114.5234375 37.34375 C-108.10467775 18.08747076 -95.65119117 3.58997702 -77.5234375 -5.65625 C-51.91977915 -17.17642309 -23.57942655 -15.47627996 0 0 Z " fill="#C7102E" transform="translate(118.5234375,12.65625)"/>
<path d="M0 0 C1.65 0 3.3 0 5 0 C5.44988281 1.01578125 5.89976563 2.0315625 6.36328125 3.078125 C15.61664117 23.18879326 29.97418725 35.04681167 50.68359375 43.03515625 C67.3025332 48.22103721 85.35736449 45.91996107 101 39 C102.03382812 38.55527344 103.06765625 38.11054688 104.1328125 37.65234375 C120.02524854 29.88723611 130.17012607 15.33350311 138 0 C139.32 0 140.64 0 142 0 C137.7360636 16.48722074 125.66681716 30.3351964 111.5625 39.4375 C93.15798292 50.03938349 71.66074709 53.52476793 50.875 48.4375 C39.86587844 44.93235367 29.63204436 39.75154438 21 32 C20.17886719 31.27167969 19.35773437 30.54335937 18.51171875 29.79296875 C9.64157317 21.46122351 3.19717117 11.78956869 0 0 Z " fill="#AF122D" transform="translate(4,100)"/>
<path d="M0 0 C2.26685452 1.68622161 4.37461281 3.45620684 6.4765625 5.34375 C7.70826172 6.43623047 7.70826172 6.43623047 8.96484375 7.55078125 C17.83498933 15.88252649 24.27939133 25.55418131 27.4765625 37.34375 C25.8265625 37.34375 24.1765625 37.34375 22.4765625 37.34375 C22.02667969 36.32796875 21.57679688 35.3121875 21.11328125 34.265625 C12.39616947 15.32813263 -0.99595816 2.92026737 -20.5234375 -4.65625 C-36.95152193 -10.54870614 -55.59251479 -9.25464133 -71.5234375 -2.65625 C-72.46445313 -2.27210937 -73.40546875 -1.88796875 -74.375 -1.4921875 C-80.86374418 1.46089422 -86.18613192 5.66482915 -91.5234375 10.34375 C-92.2246875 10.93800781 -92.9259375 11.53226563 -93.6484375 12.14453125 C-100.66704433 18.54626834 -104.76265094 26.88773646 -109.00390625 35.26953125 C-109.75607422 36.29626953 -109.75607422 36.29626953 -110.5234375 37.34375 C-111.8434375 37.34375 -113.1634375 37.34375 -114.5234375 37.34375 C-110.2595011 20.85652926 -98.19025466 7.0085536 -84.0859375 -2.09375 C-57.47227981 -17.42449173 -25.74171521 -16.8954911 0 0 Z " fill="#AF132D" transform="translate(118.5234375,12.65625)"/>
<path d="M0 0 C2.475 0.495 2.475 0.495 5 1 C10.30819998 15.40797138 10.30819998 34.59202862 5 49 C2.525 49.495 2.525 49.495 0 50 C0.2165625 49.13761719 0.433125 48.27523437 0.65625 47.38671875 C4.33375557 31.26358089 3.72054482 16.05592259 0 0 Z " fill="#DFDFDF" transform="translate(142,50)"/>
<path d="M0 0 C1.32 0 2.64 0 4 0 C3.67515625 1.11568359 3.67515625 1.11568359 3.34375 2.25390625 C1.32793801 10.15850235 0.67224628 17.61248477 0.625 25.75 C0.61146484 26.70720947 0.59792969 27.66441895 0.58398438 28.65063477 C0.62014037 34.47928308 1.4425313 39.40398291 3.35693359 44.91503906 C4 47 4 47 4 50 C2.35 49.67 0.7 49.34 -1 49 C-6.19988629 34.88602292 -6.6414341 15.05973992 -1 1 C-0.67 0.67 -0.34 0.34 0 0 Z " fill="#DFDFDF" transform="translate(4,50)"/>
</svg>
