<?xml version="1.0" encoding="UTF-8"?>
<!DOCTYPE svg PUBLIC "-//W3C//DTD SVG 1.1//EN" "http://www.w3.org/Graphics/SVG/1.1/DTD/svg11.dtd">
<svg xmlns="http://www.w3.org/2000/svg" version="1.1" width="150px" height="150px" style="shape-rendering:geometricPrecision; text-rendering:geometricPrecision; image-rendering:optimizeQuality; fill-rule:evenodd; clip-rule:evenodd" xmlns:xlink="http://www.w3.org/1999/xlink">
<g><path style="opacity:0.903" fill="#debe0f" d="M 62.5,-0.5 C 70.5,-0.5 78.5,-0.5 86.5,-0.5C 90.7914,0.661164 95.1247,1.9945 99.5,3.5C 99.5,4.83333 99.5,6.16667 99.5,7.5C 82.8137,2.22553 66.1471,2.22553 49.5,7.5C 49.5,6.16667 49.5,4.83333 49.5,3.5C 53.8753,1.9945 58.2086,0.661164 62.5,-0.5 Z"/></g>
<g><path style="opacity:1" fill="#fed80c" d="M 99.5,7.5 C 99.5,51.8333 99.5,96.1667 99.5,140.5C 99.5,140.833 99.5,141.167 99.5,141.5C 82.8352,146.728 66.1685,146.728 49.5,141.5C 49.5,96.8333 49.5,52.1667 49.5,7.5C 66.1471,2.22553 82.8137,2.22553 99.5,7.5 Z"/></g>
<g><path style="opacity:0.938" fill="#d51a2f" d="M 99.5,3.5 C 127.035,14.0292 143.702,33.6959 149.5,62.5C 149.5,70.5 149.5,78.5 149.5,86.5C 143.702,115.304 127.035,134.971 99.5,145.5C 99.5,144.167 99.5,142.833 99.5,141.5C 99.5,141.167 99.5,140.833 99.5,140.5C 129.252,128.546 144.586,106.38 145.5,74C 144.113,42.1241 128.78,19.9574 99.5,7.5C 99.5,6.16667 99.5,4.83333 99.5,3.5 Z"/></g>
<g><path style="opacity:0.993" fill="#000000" d="M 49.5,3.5 C 49.5,4.83333 49.5,6.16667 49.5,7.5C 49.5,52.1667 49.5,96.8333 49.5,141.5C 49.5,142.833 49.5,144.167 49.5,145.5C 21.9652,134.971 5.2985,115.304 -0.5,86.5C -0.5,78.5 -0.5,70.5 -0.5,62.5C 5.2985,33.6959 21.9652,14.0292 49.5,3.5 Z"/></g>
<g><path style="opacity:1" fill="#f2182f" d="M 99.5,7.5 C 128.78,19.9574 144.113,42.1241 145.5,74C 144.586,106.38 129.252,128.546 99.5,140.5C 99.5,96.1667 99.5,51.8333 99.5,7.5 Z"/></g>
<g><path style="opacity:0.903" fill="#dfbe0f" d="M 49.5,141.5 C 66.1685,146.728 82.8352,146.728 99.5,141.5C 99.5,142.833 99.5,144.167 99.5,145.5C 95.1247,147.006 90.7914,148.339 86.5,149.5C 78.5,149.5 70.5,149.5 62.5,149.5C 58.2086,148.339 53.8753,147.006 49.5,145.5C 49.5,144.167 49.5,142.833 49.5,141.5 Z"/></g>
</svg>
