<?xml version="1.0" encoding="UTF-8"?>
<!DOCTYPE svg PUBLIC "-//W3C//DTD SVG 1.1//EN" "http://www.w3.org/Graphics/SVG/1.1/DTD/svg11.dtd">
<svg xmlns="http://www.w3.org/2000/svg" version="1.1" width="150px" height="150px" style="shape-rendering:geometricPrecision; text-rendering:geometricPrecision; image-rendering:optimizeQuality; fill-rule:evenodd; clip-rule:evenodd" xmlns:xlink="http://www.w3.org/1999/xlink">
<g><path style="opacity:0.936" fill="#058c37" d="M 61.5,-0.5 C 70.1667,-0.5 78.8333,-0.5 87.5,-0.5C 120.833,7.5 141.5,28.1667 149.5,61.5C 149.5,69.8333 149.5,78.1667 149.5,86.5C 141.842,120.824 120.842,141.824 86.5,149.5C 78.5,149.5 70.5,149.5 62.5,149.5C 28.9445,141.611 7.94451,120.945 -0.5,87.5C -0.5,78.8333 -0.5,70.1667 -0.5,61.5C 7.5,28.1667 28.1667,7.5 61.5,-0.5 Z"/></g>
<g><path style="opacity:1" fill="#039c3a" d="M 65.5,3.5 C 106.322,1.8451 132.489,20.5118 144,59.5C 149.324,96.3552 135.491,123.189 102.5,140C 67.8554,151.967 39.0221,143.8 16,115.5C -0.666667,88.1667 -0.666667,60.8333 16,33.5C 28.4541,16.6952 44.9541,6.69519 65.5,3.5 Z"/></g>
<g><path style="opacity:1" fill="#fadc04" d="M 72.5,31.5 C 73.8734,31.3433 75.2068,31.51 76.5,32C 98.1667,46.1667 119.833,60.3333 141.5,74.5C 119.742,89.4624 97.5756,103.796 75,117.5C 52.1087,103.774 29.6087,89.441 7.5,74.5C 29.4035,60.3915 51.0702,46.0581 72.5,31.5 Z"/></g>
<g><path style="opacity:1" fill="#0a2976" d="M 102.5,78.5 C 97.1202,74.4656 91.4535,70.799 85.5,67.5C 84.7524,64.7048 83.2524,64.0381 81,65.5C 70.9829,62.1556 60.8163,60.1556 50.5,59.5C 58.9167,47.4748 70.2501,43.6415 84.5,48C 97.5493,53.9229 103.549,64.0896 102.5,78.5 Z"/></g>
<g><path style="opacity:1" fill="#122d79" d="M 47.5,65.5 C 68.0744,64.1358 86.0744,70.1358 101.5,83.5C 94.7322,98.5543 83.0655,104.721 66.5,102C 50.2716,95.0447 43.9383,82.8781 47.5,65.5 Z"/></g>
<g><path style="opacity:1" fill="#a8d5bd" d="M 50.5,59.5 C 60.8163,60.1556 70.9829,62.1556 81,65.5C 83.2524,64.0381 84.7524,64.7048 85.5,67.5C 91.4535,70.799 97.1202,74.4656 102.5,78.5C 102.634,80.2915 102.301,81.9582 101.5,83.5C 86.0744,70.1358 68.0744,64.1358 47.5,65.5C 47.9925,63.1815 48.9925,61.1815 50.5,59.5 Z"/></g>
</svg>
