<?xml version="1.0" encoding="UTF-8"?>
<!DOCTYPE svg PUBLIC "-//W3C//DTD SVG 1.1//EN" "http://www.w3.org/Graphics/SVG/1.1/DTD/svg11.dtd">
<svg xmlns="http://www.w3.org/2000/svg" version="1.1" width="150px" height="150px" style="shape-rendering:geometricPrecision; text-rendering:geometricPrecision; image-rendering:optimizeQuality; fill-rule:evenodd; clip-rule:evenodd" xmlns:xlink="http://www.w3.org/1999/xlink">
<g><path style="opacity:1" fill="#fefdfd" d="M 23.5,124.5 C 23.5,91.1667 23.5,57.8333 23.5,24.5C 45.8127,4.00242 71.4794,-1.49758 100.5,8C 111.333,12.1691 120.5,18.6691 128,27.5C 128.667,58.8333 128.667,90.1667 128,121.5C 105.767,145.015 79.2667,151.515 48.5,141C 39.1092,136.98 30.7758,131.48 23.5,124.5 Z"/></g>
<g><path style="opacity:0.982" fill="#c03327" d="M 23.5,19.5 C 23.5,21.1667 23.5,22.8333 23.5,24.5C 23.5,57.8333 23.5,91.1667 23.5,124.5C 23.5,126.167 23.5,127.833 23.5,129.5C 10.5539,117.943 2.55395,103.609 -0.5,86.5C -0.5,78.5 -0.5,70.5 -0.5,62.5C 2.55395,45.3908 10.5539,31.0575 23.5,19.5 Z"/></g>
<g><path style="opacity:0.968" fill="#ba2a1f" d="M 129.5,23.5 C 140.136,34.4388 146.803,47.4388 149.5,62.5C 149.5,70.5 149.5,78.5 149.5,86.5C 146.803,101.561 140.136,114.561 129.5,125.5C 129.5,123.5 129.5,121.5 129.5,119.5C 142.654,102.844 147.821,83.8437 145,62.5C 142.464,50.1025 137.297,39.1025 129.5,29.5C 129.5,27.5 129.5,25.5 129.5,23.5 Z"/></g>
<g><path style="opacity:1" fill="#d42b1e" d="M 21.5,26.5 C 22.6641,58.3307 22.8307,90.3307 22,122.5C 3.4089,100.579 -1.25777,75.9122 8,48.5C 11.257,40.3028 15.757,32.9695 21.5,26.5 Z"/></g>
<g><path style="opacity:1" fill="#d52e21" d="M 74.5,29.5 C 77.2656,34.1909 79.9323,39.0242 82.5,44C 85.0514,43.3127 87.5514,42.146 90,40.5C 89.384,47.8652 88.2173,55.1985 86.5,62.5C 86.8333,63.1667 87.1667,63.8333 87.5,64.5C 91.1667,61.1667 94.8333,57.8333 98.5,54.5C 99.8955,56.7327 101.729,58.3993 104,59.5C 106.822,58.7245 109.656,58.0579 112.5,57.5C 111.996,61.1847 111.33,64.8514 110.5,68.5C 110.406,70.9116 111.406,72.745 113.5,74C 107.667,79.1667 101.833,84.3333 96,89.5C 95.289,91.8991 95.4557,94.2324 96.5,96.5C 95,96.8333 93.5,97.1667 92,97.5C 86.832,96.7772 81.6653,96.1106 76.5,95.5C 76.5,102.5 76.5,109.5 76.5,116.5C 75.1667,116.5 73.8333,116.5 72.5,116.5C 72.5,109.5 72.5,102.5 72.5,95.5C 67.154,96.0016 61.8206,96.6683 56.5,97.5C 55.5,97.1667 54.5,96.8333 53.5,96.5C 54.5202,94.5675 54.6869,92.5675 54,90.5C 47.6971,84.9405 41.5304,79.2738 35.5,73.5C 36.6283,72.7379 37.7949,72.0712 39,71.5C 39.8369,66.6917 39.0035,62.1917 36.5,58C 39.4896,58.1522 42.4896,58.6522 45.5,59.5C 46.5,59.1667 47.5,58.8333 48.5,58.5C 49.2485,56.6675 50.2485,55.0009 51.5,53.5C 54.6872,56.8528 57.6872,60.3528 60.5,64C 61.448,64.4828 62.448,64.6495 63.5,64.5C 61.7545,57.5915 60.4212,50.5915 59.5,43.5C 59.8333,42.8333 60.1667,42.1667 60.5,41.5C 62.7293,42.9632 65.0627,43.7965 67.5,44C 70.2477,39.3388 72.581,34.5055 74.5,29.5 Z"/></g>
<g><path style="opacity:1" fill="#d42b1e" d="M 129.5,29.5 C 137.297,39.1025 142.464,50.1025 145,62.5C 147.821,83.8437 142.654,102.844 129.5,119.5C 129.5,89.5 129.5,59.5 129.5,29.5 Z"/></g>
<g><path style="opacity:0.881" fill="#e1dfdf" d="M 62.5,-0.5 C 70.5,-0.5 78.5,-0.5 86.5,-0.5C 103.609,2.55395 117.943,10.5539 129.5,23.5C 129.5,25.5 129.5,27.5 129.5,29.5C 129.5,59.5 129.5,89.5 129.5,119.5C 129.5,121.5 129.5,123.5 129.5,125.5C 117.943,138.446 103.609,146.446 86.5,149.5C 78.5,149.5 70.5,149.5 62.5,149.5C 47.4388,146.803 34.4388,140.136 23.5,129.5C 23.5,127.833 23.5,126.167 23.5,124.5C 30.7758,131.48 39.1092,136.98 48.5,141C 79.2667,151.515 105.767,145.015 128,121.5C 128.667,90.1667 128.667,58.8333 128,27.5C 120.5,18.6691 111.333,12.1691 100.5,8C 71.4794,-1.49758 45.8127,4.00242 23.5,24.5C 23.5,22.8333 23.5,21.1667 23.5,19.5C 34.4388,8.86366 47.4388,2.19699 62.5,-0.5 Z"/></g>
</svg>
