<?xml version="1.0" encoding="UTF-8"?>
<!DOCTYPE svg PUBLIC "-//W3C//DTD SVG 1.1//EN" "http://www.w3.org/Graphics/SVG/1.1/DTD/svg11.dtd">
<svg xmlns="http://www.w3.org/2000/svg" version="1.1" width="150px" height="150px" style="shape-rendering:geometricPrecision; text-rendering:geometricPrecision; image-rendering:optimizeQuality; fill-rule:evenodd; clip-rule:evenodd" xmlns:xlink="http://www.w3.org/1999/xlink">
<g><path style="opacity:0.903" fill="#dedede" d="M 62.5,-0.5 C 70.5,-0.5 78.5,-0.5 86.5,-0.5C 90.7914,0.661164 95.1247,1.9945 99.5,3.5C 99.5,4.83333 99.5,6.16667 99.5,7.5C 82.8196,2.19449 66.153,2.19449 49.5,7.5C 49.5,6.16667 49.5,4.83333 49.5,3.5C 53.8753,1.9945 58.2086,0.661164 62.5,-0.5 Z"/></g>
<g><path style="opacity:1" fill="#fefefe" d="M 99.5,7.5 C 99.5,51.8333 99.5,96.1667 99.5,140.5C 99.5,140.833 99.5,141.167 99.5,141.5C 82.843,146.727 66.1763,146.727 49.5,141.5C 49.5,96.8333 49.5,52.1667 49.5,7.5C 66.153,2.19449 82.8196,2.19449 99.5,7.5 Z"/></g>
<g><path style="opacity:0.96" fill="#058b57" d="M 99.5,3.5 C 127.035,14.0292 143.702,33.6959 149.5,62.5C 149.5,70.5 149.5,78.5 149.5,86.5C 143.702,115.304 127.035,134.971 99.5,145.5C 99.5,144.167 99.5,142.833 99.5,141.5C 99.5,141.167 99.5,140.833 99.5,140.5C 129.554,128.276 144.887,105.776 145.5,73C 143.663,41.6664 128.329,19.8331 99.5,7.5C 99.5,6.16667 99.5,4.83333 99.5,3.5 Z"/></g>
<g><path style="opacity:0.965" fill="#d77106" d="M 49.5,3.5 C 49.5,4.83333 49.5,6.16667 49.5,7.5C 13.9317,24.2949 -0.90162,52.2949 5,91.5C 11.9154,115.247 26.7487,131.914 49.5,141.5C 49.5,142.833 49.5,144.167 49.5,145.5C 21.9652,134.971 5.2985,115.304 -0.5,86.5C -0.5,78.5 -0.5,70.5 -0.5,62.5C 5.2985,33.6959 21.9652,14.0292 49.5,3.5 Z"/></g>
<g><path style="opacity:1" fill="#f67e00" d="M 49.5,7.5 C 49.5,52.1667 49.5,96.8333 49.5,141.5C 26.7487,131.914 11.9154,115.247 5,91.5C -0.90162,52.2949 13.9317,24.2949 49.5,7.5 Z"/></g>
<g><path style="opacity:1" fill="#009d5f" d="M 99.5,7.5 C 128.329,19.8331 143.663,41.6664 145.5,73C 144.887,105.776 129.554,128.276 99.5,140.5C 99.5,96.1667 99.5,51.8333 99.5,7.5 Z"/></g>
<g><path style="opacity:0.903" fill="#dfdfdf" d="M 49.5,141.5 C 66.1763,146.727 82.843,146.727 99.5,141.5C 99.5,142.833 99.5,144.167 99.5,145.5C 95.1247,147.006 90.7914,148.339 86.5,149.5C 78.5,149.5 70.5,149.5 62.5,149.5C 58.2086,148.339 53.8753,147.006 49.5,145.5C 49.5,144.167 49.5,142.833 49.5,141.5 Z"/></g>
</svg>
