<?xml version="1.0" encoding="UTF-8"?>
<!DOCTYPE svg PUBLIC "-//W3C//DTD SVG 1.1//EN" "http://www.w3.org/Graphics/SVG/1.1/DTD/svg11.dtd">
<svg xmlns="http://www.w3.org/2000/svg" version="1.1" width="150px" height="150px" style="shape-rendering:geometricPrecision; text-rendering:geometricPrecision; image-rendering:optimizeQuality; fill-rule:evenodd; clip-rule:evenodd" xmlns:xlink="http://www.w3.org/1999/xlink">
<g><path style="opacity:0.947" fill="#deca06" d="M 62.5,-0.5 C 70.5,-0.5 78.5,-0.5 86.5,-0.5C 120.5,7.5 141.5,28.5 149.5,62.5C 149.5,66.5 149.5,70.5 149.5,74.5C 148.167,74.5 146.833,74.5 145.5,74.5C 144.142,41.6342 128.142,19.1342 97.5,7C 65.9732,-1.93348 39.4732,5.89985 18,30.5C 8.26124,43.5496 3.42791,58.2163 3.5,74.5C 2.16667,74.5 0.833333,74.5 -0.5,74.5C -0.5,70.5 -0.5,66.5 -0.5,62.5C 7.5,28.5 28.5,7.5 62.5,-0.5 Z"/></g>
<g><path style="opacity:1" fill="#fee700" d="M 145.5,74.5 C 98.1667,74.5 50.8333,74.5 3.5,74.5C 3.42791,58.2163 8.26124,43.5496 18,30.5C 39.4732,5.89985 65.9732,-1.93348 97.5,7C 128.142,19.1342 144.142,41.6342 145.5,74.5 Z"/></g>
<g><path style="opacity:1" fill="#0d138b" d="M -0.5,74.5 C 0.833333,74.5 2.16667,74.5 3.5,74.5C 50.8333,74.5 98.1667,74.5 145.5,74.5C 146.833,74.5 148.167,74.5 149.5,74.5C 149.5,78.5 149.5,82.5 149.5,86.5C 147.551,95.6768 144.218,104.343 139.5,112.5C 137.833,112.5 136.167,112.5 134.5,112.5C 94.5,112.5 54.5,112.5 14.5,112.5C 12.8333,112.5 11.1667,112.5 9.5,112.5C 4.78215,104.343 1.44882,95.6768 -0.5,86.5C -0.5,82.5 -0.5,78.5 -0.5,74.5 Z"/></g>
<g><path style="opacity:0.94" fill="#be0512" d="M 9.5,112.5 C 11.1667,112.5 12.8333,112.5 14.5,112.5C 32.4796,139.228 57.4796,149.728 89.5,144C 109.05,139.9 124.05,129.4 134.5,112.5C 136.167,112.5 137.833,112.5 139.5,112.5C 127.163,132.499 109.497,144.832 86.5,149.5C 78.5,149.5 70.5,149.5 62.5,149.5C 39.5034,144.832 21.8367,132.499 9.5,112.5 Z"/></g>
<g><path style="opacity:1" fill="#d90010" d="M 14.5,112.5 C 54.5,112.5 94.5,112.5 134.5,112.5C 124.05,129.4 109.05,139.9 89.5,144C 57.4796,149.728 32.4796,139.228 14.5,112.5 Z"/></g>
</svg>
