<?xml version="1.0" encoding="UTF-8"?>
<!DOCTYPE svg PUBLIC "-//W3C//DTD SVG 1.1//EN" "http://www.w3.org/Graphics/SVG/1.1/DTD/svg11.dtd">
<svg xmlns="http://www.w3.org/2000/svg" version="1.1" width="150px" height="150px" style="shape-rendering:geometricPrecision; text-rendering:geometricPrecision; image-rendering:optimizeQuality; fill-rule:evenodd; clip-rule:evenodd" xmlns:xlink="http://www.w3.org/1999/xlink">
<g><path style="opacity:0.936" fill="#df0405" d="M 62.5,-0.5 C 70.5,-0.5 78.5,-0.5 86.5,-0.5C 115.304,5.2985 134.971,21.9652 145.5,49.5C 144.167,49.5 142.833,49.5 141.5,49.5C 124.725,13.9414 96.7255,-0.891938 57.5,5C 33.7777,11.888 17.1111,26.7214 7.5,49.5C 6.16667,49.5 4.83333,49.5 3.5,49.5C 14.0292,21.9652 33.6959,5.2985 62.5,-0.5 Z"/></g>
<g><path style="opacity:1" fill="#fe0502" d="M 141.5,49.5 C 128.833,49.5 116.167,49.5 103.5,49.5C 102.833,49.5 102.5,49.1667 102.5,48.5C 104.345,47.0045 104.678,45.3379 103.5,43.5C 103.833,42.1667 104.167,40.8333 104.5,39.5C 105.397,40.5981 106.23,40.5981 107,39.5C 107.557,37.3853 108.391,35.3853 109.5,33.5C 107.827,30.3375 105.66,27.6708 103,25.5C 100.535,26.6513 98.0351,27.6513 95.5,28.5C 94.0686,26.563 92.4019,24.7297 90.5,23C 87.522,22.1669 85.1887,23.0003 83.5,25.5C 79.7974,25.1376 76.7974,23.471 74.5,20.5C 72.2026,23.471 69.2026,25.1376 65.5,25.5C 63.2459,24.5849 61.2459,23.2516 59.5,21.5C 57.8103,23.5193 56.1436,25.5193 54.5,27.5C 51.3935,28.1502 48.3935,27.4836 45.5,25.5C 43.1468,27.8599 41.1468,30.5265 39.5,33.5C 41.7007,38.1088 43.7007,42.7754 45.5,47.5C 45.5,48.1667 45.5,48.8333 45.5,49.5C 32.8333,49.5 20.1667,49.5 7.5,49.5C 17.1111,26.7214 33.7777,11.888 57.5,5C 96.7255,-0.891938 124.725,13.9414 141.5,49.5 Z"/></g>
<g><path style="opacity:1" fill="#4e2c96" d="M 65.5,25.5 C 66.1667,26.1667 66.8333,26.8333 67.5,27.5C 63.1186,27.3718 58.7853,27.7051 54.5,28.5C 54.5,28.1667 54.5,27.8333 54.5,27.5C 56.1436,25.5193 57.8103,23.5193 59.5,21.5C 61.2459,23.2516 63.2459,24.5849 65.5,25.5 Z"/></g>
<g><path style="opacity:1" fill="#3c2590" d="M 95.5,28.5 C 95.1417,31.2666 94.475,33.9333 93.5,36.5C 93.5,37.5 93.5,38.5 93.5,39.5C 92.6908,41.0276 92.0241,42.6943 91.5,44.5C 88.7212,44.7214 86.0545,44.388 83.5,43.5C 82.791,42.596 81.791,42.2627 80.5,42.5C 80.1262,36.4522 81.1262,30.7856 83.5,25.5C 85.1887,23.0003 87.522,22.1669 90.5,23C 92.4019,24.7297 94.0686,26.563 95.5,28.5 Z"/></g>
<g><path style="opacity:1" fill="#4699d7" d="M 54.5,27.5 C 54.5,27.8333 54.5,28.1667 54.5,28.5C 54.5,29.8333 54.5,31.1667 54.5,32.5C 54.8333,33.8333 55.1667,35.1667 55.5,36.5C 55.8333,37.8333 56.1667,39.1667 56.5,40.5C 56.4326,41.9587 56.7659,43.2921 57.5,44.5C 54.3173,46.01 50.984,47.3433 47.5,48.5C 46.8333,48.1667 46.1667,47.8333 45.5,47.5C 43.7007,42.7754 41.7007,38.1088 39.5,33.5C 41.1468,30.5265 43.1468,27.8599 45.5,25.5C 48.3935,27.4836 51.3935,28.1502 54.5,27.5 Z"/></g>
<g><path style="opacity:1" fill="#f4010d" d="M 67.5,27.5 C 67.5,28.5 67.5,29.5 67.5,30.5C 63.1928,31.3266 58.8595,31.9933 54.5,32.5C 54.5,31.1667 54.5,29.8333 54.5,28.5C 58.7853,27.7051 63.1186,27.3718 67.5,27.5 Z"/></g>
<g><path style="opacity:1" fill="#5f9fd6" d="M 104.5,39.5 C 103.292,38.7659 101.959,38.4326 100.5,38.5C 98.4855,37.0762 96.1522,36.4095 93.5,36.5C 94.475,33.9333 95.1417,31.2666 95.5,28.5C 98.0351,27.6513 100.535,26.6513 103,25.5C 105.66,27.6708 107.827,30.3375 109.5,33.5C 108.391,35.3853 107.557,37.3853 107,39.5C 106.23,40.5981 105.397,40.5981 104.5,39.5 Z"/></g>
<g><path style="opacity:1" fill="#c4b31e" d="M 100.5,29.5 C 104.864,29.6648 105.364,30.9981 102,33.5C 100.812,32.4366 100.312,31.1033 100.5,29.5 Z"/></g>
<g><path style="opacity:1" fill="#2f91d1" d="M 83.5,25.5 C 81.1262,30.7856 80.1262,36.4522 80.5,42.5C 76.5,42.5 72.5,42.5 68.5,42.5C 68.5,41.1667 68.5,39.8333 68.5,38.5C 68.5,37.5 68.5,36.5 68.5,35.5C 67.6993,33.9582 67.366,32.2915 67.5,30.5C 67.5,29.5 67.5,28.5 67.5,27.5C 66.8333,26.8333 66.1667,26.1667 65.5,25.5C 69.2026,25.1376 72.2026,23.471 74.5,20.5C 76.7974,23.471 79.7974,25.1376 83.5,25.5 Z"/></g>
<g><path style="opacity:1" fill="#c6b41f" d="M 69.5,27.5 C 70.8333,27.5 72.1667,27.5 73.5,27.5C 74.2436,30.9496 72.9103,32.6162 69.5,32.5C 69.5,30.8333 69.5,29.1667 69.5,27.5 Z"/></g>
<g><path style="opacity:1" fill="#bfaf20" d="M 76.5,27.5 C 77.5,27.5 78.5,27.5 79.5,27.5C 79.5,29.1667 79.5,30.8333 79.5,32.5C 75.7162,32.4747 74.7162,30.8081 76.5,27.5 Z"/></g>
<g><path style="opacity:1" fill="#421588" d="M 67.5,30.5 C 67.366,32.2915 67.6993,33.9582 68.5,35.5C 64.1186,35.3718 59.7853,35.7051 55.5,36.5C 55.1667,35.1667 54.8333,33.8333 54.5,32.5C 58.8595,31.9933 63.1928,31.3266 67.5,30.5 Z"/></g>
<g><path style="opacity:1" fill="#cbbd2a" d="M 46.5,30.5 C 49.5689,31.4959 50.0689,33.1626 48,35.5C 45.5274,34.2595 45.0274,32.5929 46.5,30.5 Z"/></g>
<g><path style="opacity:1" fill="#cfb724" d="M 83.5,30.5 C 84.552,30.3505 85.552,30.5172 86.5,31C 85.1667,31.6667 85.1667,32.3333 86.5,33C 88.087,33.8624 89.7536,34.5291 91.5,35C 90.8095,36.0674 90.3095,37.2341 90,38.5C 87.7283,37.7598 85.7283,37.7598 84,38.5C 83.5026,35.854 83.3359,33.1873 83.5,30.5 Z"/></g>
<g><path style="opacity:1" fill="#f20811" d="M 68.5,35.5 C 68.5,36.5 68.5,37.5 68.5,38.5C 64.5,39.1667 60.5,39.8333 56.5,40.5C 56.1667,39.1667 55.8333,37.8333 55.5,36.5C 59.7853,35.7051 64.1186,35.3718 68.5,35.5 Z"/></g>
<g><path style="opacity:1" fill="#d91b17" d="M 93.5,36.5 C 96.1522,36.4095 98.4855,37.0762 100.5,38.5C 98.8561,38.7135 97.3561,38.3802 96,37.5C 95.5304,38.5768 95.6971,39.5768 96.5,40.5C 95.209,40.7373 94.209,40.404 93.5,39.5C 93.5,38.5 93.5,37.5 93.5,36.5 Z"/></g>
<g><path style="opacity:1" fill="#b7ac2b" d="M 72.5,34.5 C 73.8333,34.5 75.1667,34.5 76.5,34.5C 76.9492,36.9775 76.2825,38.9775 74.5,40.5C 72.7175,38.9775 72.0508,36.9775 72.5,34.5 Z"/></g>
<g><path style="opacity:1" fill="#331a90" d="M 68.5,38.5 C 68.5,39.8333 68.5,41.1667 68.5,42.5C 65.2727,42.6761 62.2727,43.3428 59.5,44.5C 58.8333,44.5 58.1667,44.5 57.5,44.5C 56.7659,43.2921 56.4326,41.9587 56.5,40.5C 60.5,39.8333 64.5,39.1667 68.5,38.5 Z"/></g>
<g><path style="opacity:1" fill="#75a6db" d="M 93.5,39.5 C 94.209,40.404 95.209,40.7373 96.5,40.5C 98.9154,41.3052 101.249,42.3052 103.5,43.5C 104.678,45.3379 104.345,47.0045 102.5,48.5C 102.167,48.5 101.833,48.5 101.5,48.5C 97.9581,47.4597 94.6248,46.1263 91.5,44.5C 92.0241,42.6943 92.6908,41.0276 93.5,39.5 Z"/></g>
<g><path style="opacity:1" fill="#a01814" d="M 100.5,38.5 C 101.959,38.4326 103.292,38.7659 104.5,39.5C 104.167,40.8333 103.833,42.1667 103.5,43.5C 101.249,42.3052 98.9154,41.3052 96.5,40.5C 95.6971,39.5768 95.5304,38.5768 96,37.5C 97.3561,38.3802 98.8561,38.7135 100.5,38.5 Z"/></g>
<g><path style="opacity:1" fill="#ca90a9" d="M 68.5,42.5 C 72.5,42.5 76.5,42.5 80.5,42.5C 81.791,42.2627 82.791,42.596 83.5,43.5C 75.4754,43.3903 67.4754,43.7237 59.5,44.5C 62.2727,43.3428 65.2727,42.6761 68.5,42.5 Z"/></g>
<g><path style="opacity:1" fill="#ff0f08" d="M 83.5,43.5 C 86.0545,44.388 88.7212,44.7214 91.5,44.5C 94.6248,46.1263 97.9581,47.4597 101.5,48.5C 83.5,49.8333 65.5,49.8333 47.5,48.5C 50.984,47.3433 54.3173,46.01 57.5,44.5C 58.1667,44.5 58.8333,44.5 59.5,44.5C 67.4754,43.7237 75.4754,43.3903 83.5,43.5 Z"/></g>
<g><path style="opacity:1" fill="#fcfbfb" d="M 3.5,49.5 C 4.83333,49.5 6.16667,49.5 7.5,49.5C 20.1667,49.5 32.8333,49.5 45.5,49.5C 45.3334,63.504 45.5001,77.504 46,91.5C 46.3333,92.5 46.6667,93.5 47,94.5C 46.8951,91.9715 47.0617,89.6382 47.5,87.5C 50.8333,87.5 54.1667,87.5 57.5,87.5C 57.5,91.5 57.5,95.5 57.5,99.5C 55.8333,99.5 54.1667,99.5 52.5,99.5C 51.2022,98.8843 50.2022,98.8843 49.5,99.5C 35.5,99.5 21.5,99.5 7.5,99.5C 6.16667,99.5 4.83333,99.5 3.5,99.5C 1.9945,95.1247 0.661164,90.7914 -0.5,86.5C -0.5,78.5 -0.5,70.5 -0.5,62.5C 0.661164,58.2086 1.9945,53.8753 3.5,49.5 Z"/></g>
<g><path style="opacity:1" fill="#fcfbfb" d="M 103.5,49.5 C 116.167,49.5 128.833,49.5 141.5,49.5C 142.833,49.5 144.167,49.5 145.5,49.5C 147.006,53.8753 148.339,58.2086 149.5,62.5C 149.5,70.5 149.5,78.5 149.5,86.5C 148.339,90.7914 147.006,95.1247 145.5,99.5C 144.167,99.5 142.833,99.5 141.5,99.5C 127.833,99.5 114.167,99.5 100.5,99.5C 100.649,98.448 100.483,97.448 100,96.5C 99.5776,98.4257 98.4109,99.4257 96.5,99.5C 94.8333,99.5 93.1667,99.5 91.5,99.5C 91.5,95.5 91.5,91.5 91.5,87.5C 94.8333,87.5 98.1667,87.5 101.5,87.5C 101.938,89.6382 102.105,91.9715 102,94.5C 102.333,93.5 102.667,92.5 103,91.5C 103.5,77.504 103.667,63.504 103.5,49.5 Z"/></g>
<g><path style="opacity:1" fill="#ff8f8e" d="M 45.5,47.5 C 46.1667,47.8333 46.8333,48.1667 47.5,48.5C 65.5,49.8333 83.5,49.8333 101.5,48.5C 101.833,48.5 102.167,48.5 102.5,48.5C 102.5,49.1667 102.833,49.5 103.5,49.5C 103.667,63.504 103.5,77.504 103,91.5C 102.667,92.5 102.333,93.5 102,94.5C 102.105,91.9715 101.938,89.6382 101.5,87.5C 101.5,83.5 101.5,79.5 101.5,75.5C 102.833,71.5 102.833,67.5 101.5,63.5C 101.5,59.5 101.5,55.5 101.5,51.5C 98.1667,51.5 94.8333,51.5 91.5,51.5C 87.5,50.1667 83.5,50.1667 79.5,51.5C 76.1667,51.5 72.8333,51.5 69.5,51.5C 66.0381,50.5184 62.3714,50.185 58.5,50.5C 58.5,54.8333 58.5,59.1667 58.5,63.5C 58.5,67.5 58.5,71.5 58.5,75.5C 58.5,79.5 58.5,83.5 58.5,87.5C 58.5,91.5 58.5,95.5 58.5,99.5C 58.7214,102.279 58.388,104.946 57.5,107.5C 54.5,105.167 51.8333,102.5 49.5,99.5C 50.2022,98.8843 51.2022,98.8843 52.5,99.5C 53.3733,101.886 54.8733,103.886 57,105.5C 57.4955,103.527 57.6621,101.527 57.5,99.5C 57.5,95.5 57.5,91.5 57.5,87.5C 57.5,83.5 57.5,79.5 57.5,75.5C 57.5,71.5 57.5,67.5 57.5,63.5C 57.5,59.5 57.5,55.5 57.5,51.5C 54.1667,51.5 50.8333,51.5 47.5,51.5C 47.5,55.5 47.5,59.5 47.5,63.5C 46.1667,67.5 46.1667,71.5 47.5,75.5C 47.5,79.5 47.5,83.5 47.5,87.5C 47.0617,89.6382 46.8951,91.9715 47,94.5C 46.6667,93.5 46.3333,92.5 46,91.5C 45.5001,77.504 45.3334,63.504 45.5,49.5C 45.5,48.8333 45.5,48.1667 45.5,47.5 Z"/></g>
<g><path style="opacity:1" fill="#fffaf9" d="M 69.5,51.5 C 68.5166,55.2984 68.1832,59.2984 68.5,63.5C 65.1667,63.5 61.8333,63.5 58.5,63.5C 58.5,59.1667 58.5,54.8333 58.5,50.5C 62.3714,50.185 66.0381,50.5184 69.5,51.5 Z"/></g>
<g><path style="opacity:1" fill="#fff9f9" d="M 79.5,51.5 C 83.5,50.1667 87.5,50.1667 91.5,51.5C 90.5166,55.2984 90.1832,59.2984 90.5,63.5C 87.1667,63.5 83.8333,63.5 80.5,63.5C 80.8168,59.2984 80.4834,55.2984 79.5,51.5 Z"/></g>
<g><path style="opacity:1" fill="#ff0b07" d="M 57.5,63.5 C 54.1667,63.5 50.8333,63.5 47.5,63.5C 47.5,59.5 47.5,55.5 47.5,51.5C 50.8333,51.5 54.1667,51.5 57.5,51.5C 57.5,55.5 57.5,59.5 57.5,63.5 Z"/></g>
<g><path style="opacity:1" fill="#fa8183" d="M 69.5,51.5 C 69.5,55.5 69.5,59.5 69.5,63.5C 69.5,67.5 69.5,71.5 69.5,75.5C 69.5,79.5 69.5,83.5 69.5,87.5C 69.5,91.5 69.5,95.5 69.5,99.5C 69.5,103.5 69.5,107.5 69.5,111.5C 72.8333,111.5 76.1667,111.5 79.5,111.5C 79.5,107.5 79.5,103.5 79.5,99.5C 79.5,95.5 79.5,91.5 79.5,87.5C 79.5,83.5 79.5,79.5 79.5,75.5C 79.5,71.5 79.5,67.5 79.5,63.5C 79.5,59.5 79.5,55.5 79.5,51.5C 80.4834,55.2984 80.8168,59.2984 80.5,63.5C 80.5,67.5 80.5,71.5 80.5,75.5C 80.5,79.5 80.5,83.5 80.5,87.5C 80.5,91.5 80.5,95.5 80.5,99.5C 80.5,103.5 80.5,107.5 80.5,111.5C 81.5,111.5 82.5,111.5 83.5,111.5C 77.5,114.167 71.5,114.167 65.5,111.5C 66.5,111.5 67.5,111.5 68.5,111.5C 68.5,107.5 68.5,103.5 68.5,99.5C 68.5,95.5 68.5,91.5 68.5,87.5C 68.5,83.5 68.5,79.5 68.5,75.5C 68.5,71.5 68.5,67.5 68.5,63.5C 68.1832,59.2984 68.5166,55.2984 69.5,51.5 Z"/></g>
<g><path style="opacity:1" fill="#ff0b07" d="M 69.5,51.5 C 72.8333,51.5 76.1667,51.5 79.5,51.5C 79.5,55.5 79.5,59.5 79.5,63.5C 76.1667,63.5 72.8333,63.5 69.5,63.5C 69.5,59.5 69.5,55.5 69.5,51.5 Z"/></g>
<g><path style="opacity:1" fill="#fc8788" d="M 91.5,51.5 C 91.5,55.5 91.5,59.5 91.5,63.5C 91.5,67.5 91.5,71.5 91.5,75.5C 91.5,79.5 91.5,83.5 91.5,87.5C 91.5,91.5 91.5,95.5 91.5,99.5C 91.3379,101.527 91.5045,103.527 92,105.5C 94.1267,103.886 95.6267,101.886 96.5,99.5C 98.4109,99.4257 99.5776,98.4257 100,96.5C 100.483,97.448 100.649,98.448 100.5,99.5C 97.1667,102.5 93.8333,105.5 90.5,108.5C 90.5,105.5 90.5,102.5 90.5,99.5C 90.5,95.5 90.5,91.5 90.5,87.5C 90.5,83.5 90.5,79.5 90.5,75.5C 90.5,71.5 90.5,67.5 90.5,63.5C 90.1832,59.2984 90.5166,55.2984 91.5,51.5 Z"/></g>
<g><path style="opacity:1" fill="#ff0b07" d="M 91.5,51.5 C 94.8333,51.5 98.1667,51.5 101.5,51.5C 101.5,55.5 101.5,59.5 101.5,63.5C 98.1667,63.5 94.8333,63.5 91.5,63.5C 91.5,59.5 91.5,55.5 91.5,51.5 Z"/></g>
<g><path style="opacity:1" fill="#fffcfc" d="M 47.5,63.5 C 50.8333,63.5 54.1667,63.5 57.5,63.5C 57.5,67.5 57.5,71.5 57.5,75.5C 54.1667,75.5 50.8333,75.5 47.5,75.5C 46.1667,71.5 46.1667,67.5 47.5,63.5 Z"/></g>
<g><path style="opacity:1" fill="#ff0302" d="M 58.5,63.5 C 61.8333,63.5 65.1667,63.5 68.5,63.5C 68.5,67.5 68.5,71.5 68.5,75.5C 65.1667,75.5 61.8333,75.5 58.5,75.5C 58.5,71.5 58.5,67.5 58.5,63.5 Z"/></g>
<g><path style="opacity:1" fill="#fffcfc" d="M 69.5,63.5 C 72.8333,63.5 76.1667,63.5 79.5,63.5C 79.5,67.5 79.5,71.5 79.5,75.5C 76.1667,75.5 72.8333,75.5 69.5,75.5C 69.5,71.5 69.5,67.5 69.5,63.5 Z"/></g>
<g><path style="opacity:1" fill="#ff0302" d="M 80.5,63.5 C 83.8333,63.5 87.1667,63.5 90.5,63.5C 90.5,67.5 90.5,71.5 90.5,75.5C 87.1667,75.5 83.8333,75.5 80.5,75.5C 80.5,71.5 80.5,67.5 80.5,63.5 Z"/></g>
<g><path style="opacity:1" fill="#fffcfc" d="M 91.5,63.5 C 94.8333,63.5 98.1667,63.5 101.5,63.5C 102.833,67.5 102.833,71.5 101.5,75.5C 98.1667,75.5 94.8333,75.5 91.5,75.5C 91.5,71.5 91.5,67.5 91.5,63.5 Z"/></g>
<g><path style="opacity:1" fill="#ff0302" d="M 47.5,75.5 C 50.8333,75.5 54.1667,75.5 57.5,75.5C 57.5,79.5 57.5,83.5 57.5,87.5C 54.1667,87.5 50.8333,87.5 47.5,87.5C 47.5,83.5 47.5,79.5 47.5,75.5 Z"/></g>
<g><path style="opacity:1" fill="#fffcfc" d="M 58.5,75.5 C 61.8333,75.5 65.1667,75.5 68.5,75.5C 68.5,79.5 68.5,83.5 68.5,87.5C 65.1667,87.5 61.8333,87.5 58.5,87.5C 58.5,83.5 58.5,79.5 58.5,75.5 Z"/></g>
<g><path style="opacity:1" fill="#ff0302" d="M 69.5,75.5 C 72.8333,75.5 76.1667,75.5 79.5,75.5C 79.5,79.5 79.5,83.5 79.5,87.5C 76.1667,87.5 72.8333,87.5 69.5,87.5C 69.5,83.5 69.5,79.5 69.5,75.5 Z"/></g>
<g><path style="opacity:1" fill="#fffcfc" d="M 80.5,75.5 C 83.8333,75.5 87.1667,75.5 90.5,75.5C 90.5,79.5 90.5,83.5 90.5,87.5C 87.1667,87.5 83.8333,87.5 80.5,87.5C 80.5,83.5 80.5,79.5 80.5,75.5 Z"/></g>
<g><path style="opacity:1" fill="#ff0302" d="M 91.5,75.5 C 94.8333,75.5 98.1667,75.5 101.5,75.5C 101.5,79.5 101.5,83.5 101.5,87.5C 98.1667,87.5 94.8333,87.5 91.5,87.5C 91.5,83.5 91.5,79.5 91.5,75.5 Z"/></g>
<g><path style="opacity:1" fill="#fe0000" d="M 58.5,87.5 C 61.8333,87.5 65.1667,87.5 68.5,87.5C 68.5,91.5 68.5,95.5 68.5,99.5C 65.1667,99.5 61.8333,99.5 58.5,99.5C 58.5,95.5 58.5,91.5 58.5,87.5 Z"/></g>
<g><path style="opacity:1" fill="#fefffe" d="M 69.5,87.5 C 72.8333,87.5 76.1667,87.5 79.5,87.5C 79.5,91.5 79.5,95.5 79.5,99.5C 76.1667,99.5 72.8333,99.5 69.5,99.5C 69.5,95.5 69.5,91.5 69.5,87.5 Z"/></g>
<g><path style="opacity:1" fill="#fe0000" d="M 80.5,87.5 C 83.8333,87.5 87.1667,87.5 90.5,87.5C 90.5,91.5 90.5,95.5 90.5,99.5C 87.1667,99.5 83.8333,99.5 80.5,99.5C 80.5,95.5 80.5,91.5 80.5,87.5 Z"/></g>
<g><path style="opacity:0.947" fill="#191985" d="M 3.5,99.5 C 4.83333,99.5 6.16667,99.5 7.5,99.5C 19.9423,128.76 42.109,144.093 74,145.5C 106.253,144.458 128.753,129.125 141.5,99.5C 142.833,99.5 144.167,99.5 145.5,99.5C 134.971,127.035 115.304,143.702 86.5,149.5C 78.5,149.5 70.5,149.5 62.5,149.5C 33.6959,143.702 14.0292,127.035 3.5,99.5 Z"/></g>
<g><path style="opacity:1" fill="#181695" d="M 7.5,99.5 C 21.5,99.5 35.5,99.5 49.5,99.5C 51.8333,102.5 54.5,105.167 57.5,107.5C 59.6123,109.771 62.279,111.104 65.5,111.5C 71.5,114.167 77.5,114.167 83.5,111.5C 85.7128,110.227 88.0462,109.227 90.5,108.5C 93.8333,105.5 97.1667,102.5 100.5,99.5C 114.167,99.5 127.833,99.5 141.5,99.5C 128.753,129.125 106.253,144.458 74,145.5C 42.109,144.093 19.9423,128.76 7.5,99.5 Z"/></g>
<g><path style="opacity:1" fill="#ff0f0c" d="M 52.5,99.5 C 54.1667,99.5 55.8333,99.5 57.5,99.5C 57.6621,101.527 57.4955,103.527 57,105.5C 54.8733,103.886 53.3733,101.886 52.5,99.5 Z"/></g>
<g><path style="opacity:1" fill="#fef5f5" d="M 58.5,99.5 C 61.8333,99.5 65.1667,99.5 68.5,99.5C 68.5,103.5 68.5,107.5 68.5,111.5C 67.5,111.5 66.5,111.5 65.5,111.5C 62.279,111.104 59.6123,109.771 57.5,107.5C 58.388,104.946 58.7214,102.279 58.5,99.5 Z"/></g>
<g><path style="opacity:1" fill="#ff0101" d="M 69.5,99.5 C 72.8333,99.5 76.1667,99.5 79.5,99.5C 79.5,103.5 79.5,107.5 79.5,111.5C 76.1667,111.5 72.8333,111.5 69.5,111.5C 69.5,107.5 69.5,103.5 69.5,99.5 Z"/></g>
<g><path style="opacity:1" fill="#fffdfd" d="M 80.5,99.5 C 83.8333,99.5 87.1667,99.5 90.5,99.5C 90.5,102.5 90.5,105.5 90.5,108.5C 88.0462,109.227 85.7128,110.227 83.5,111.5C 82.5,111.5 81.5,111.5 80.5,111.5C 80.5,107.5 80.5,103.5 80.5,99.5 Z"/></g>
<g><path style="opacity:1" fill="#ff1610" d="M 91.5,99.5 C 93.1667,99.5 94.8333,99.5 96.5,99.5C 95.6267,101.886 94.1267,103.886 92,105.5C 91.5045,103.527 91.3379,101.527 91.5,99.5 Z"/></g>
</svg>
