<?xml version="1.0" standalone="no"?>
<!DOCTYPE svg PUBLIC "-//W3C//DTD SVG 20010904//EN"
 "http://www.w3.org/TR/2001/REC-SVG-20010904/DTD/svg10.dtd">
<svg version="1.0" xmlns="http://www.w3.org/2000/svg"
 width="150.000000pt" height="150.000000pt" viewBox="0 0 150.000000 150.000000"
 preserveAspectRatio="xMidYMid meet">

<g transform="translate(0.000000,150.000000) scale(0.100000,-0.100000)"
fill="#000000" stroke="none">
<path d="M623 1489 c-131 -22 -353 -135 -353 -180 0 -16 8 -19 53 -20 l52 -1
-43 -19 c-34 -16 -42 -24 -37 -40 3 -10 8 -28 11 -39 6 -24 -4 -25 -32 -6 -19
14 -25 12 -59 -11 l-38 -26 6 29 c3 16 9 37 12 47 15 36 -16 15 -55 -40 -99
-138 -147 -305 -136 -473 4 -52 9 -107 12 -123 l6 -27 728 0 728 0 12 81 c25
161 -13 354 -97 493 -78 127 -228 257 -361 311 -117 47 -282 65 -409 44z m-24
-440 l66 0 -57 -26 -56 -25 14 -50 c9 -27 13 -52 11 -54 -2 -3 -21 5 -40 16
l-36 22 -45 -31 c-24 -17 -47 -31 -50 -31 -2 0 3 25 11 55 l16 55 -39 35 -39
34 56 1 56 0 13 48 c20 71 23 72 39 9 l15 -57 65 -1z"/>
<path d="M110 364 c0 -15 73 -104 127 -156 113 -107 225 -165 379 -194 230
-43 467 26 640 189 58 54 134 145 134 161 0 3 -288 6 -640 6 -352 0 -640 -3
-640 -6z"/>
</g>
</svg>
