<?xml version="1.0" encoding="UTF-8"?>
<!DOCTYPE svg PUBLIC "-//W3C//DTD SVG 1.1//EN" "http://www.w3.org/Graphics/SVG/1.1/DTD/svg11.dtd">
<svg xmlns="http://www.w3.org/2000/svg" version="1.1" width="150px" height="150px" style="shape-rendering:geometricPrecision; text-rendering:geometricPrecision; image-rendering:optimizeQuality; fill-rule:evenodd; clip-rule:evenodd" xmlns:xlink="http://www.w3.org/1999/xlink">
<g><path style="opacity:0.939" fill="#deca06" d="M 62.5,-0.5 C 70.5,-0.5 78.5,-0.5 86.5,-0.5C 120.5,7.5 141.5,28.5 149.5,62.5C 149.5,66.5 149.5,70.5 149.5,74.5C 148.167,74.5 146.833,74.5 145.5,74.5C 144.345,44.0264 130.012,22.1931 102.5,9C 61.2519,-4.28221 30.0852,7.88445 9,45.5C 5.17345,54.7989 3.34011,64.4656 3.5,74.5C 2.16667,74.5 0.833333,74.5 -0.5,74.5C -0.5,70.5 -0.5,66.5 -0.5,62.5C 7.5,28.5 28.5,7.5 62.5,-0.5 Z"/></g>
<g><path style="opacity:1" fill="#fce402" d="M 145.5,74.5 C 131.167,74.5 116.833,74.5 102.5,74.5C 102.008,84.6929 97.0082,88.6929 87.5,86.5C 88.5676,85.5655 89.901,85.2322 91.5,85.5C 91.5,84.5 91.5,83.5 91.5,82.5C 94.2313,80.9286 96.0646,78.5952 97,75.5C 98.1564,71.5602 98.9897,67.5602 99.5,63.5C 101.175,60.4928 101.841,57.1595 101.5,53.5C 102.194,56.4213 103.027,59.4213 104,62.5C 104.495,60.5273 104.662,58.5273 104.5,56.5C 104.62,52.9582 104.286,49.4582 103.5,46C 108.609,37.2768 107.276,35.7768 99.5,41.5C 98.52,38.9135 98.1866,36.2469 98.5,33.5C 99.6431,33.0919 100.643,32.4252 101.5,31.5C 99.9974,30.9478 98.3307,30.9478 96.5,31.5C 96.5,33.5 96.5,35.5 96.5,37.5C 95.962,39.1172 95.6287,40.7839 95.5,42.5C 94.6618,42.1583 94.3284,41.4916 94.5,40.5C 94.8194,36.6893 93.3194,35.3559 90,36.5C 89.3333,35.1667 88.6667,33.8333 88,32.5C 86.5157,35.4448 85.1824,38.4448 84,41.5C 81.9711,39.9675 80.1378,38.3008 78.5,36.5C 79.0431,36.44 79.3764,36.1067 79.5,35.5C 78.8333,34.1667 78.1667,32.8333 77.5,31.5C 79.5,30.6667 81.5,29.8333 83.5,29C 90.9985,28.2772 98.6652,27.6105 106.5,27C 98.7629,22.8211 90.4296,20.3211 81.5,19.5C 81.5,20.8333 81.5,22.1667 81.5,23.5C 78.6887,23.4287 76.022,22.762 73.5,21.5C 70.6894,23.1733 68.356,22.6733 66.5,20C 58.2686,19.7422 50.6019,21.7422 43.5,26C 46.5596,28.7041 50.0596,29.5374 54,28.5C 58.4279,29.7041 62.9279,30.5375 67.5,31C 69.1554,32.4443 69.822,34.2776 69.5,36.5C 68.8826,36.6107 68.3826,36.944 68,37.5C 67.7508,36.376 67.2508,35.376 66.5,34.5C 64.8363,36.9952 62.6696,38.9952 60,40.5C 60.3052,38.5568 60.3052,36.5568 60,34.5C 58.2243,36.2106 57.0576,38.2106 56.5,40.5C 56.1667,40.5 55.8333,40.5 55.5,40.5C 54.8783,39.3734 54.045,38.3734 53,37.5C 52.3872,39.4952 52.8872,41.1619 54.5,42.5C 54.5,42.8333 54.5,43.1667 54.5,43.5C 52.8235,44.1834 52.1568,45.5168 52.5,47.5C 50.0324,46.1801 48.5324,44.1801 48,41.5C 47.6924,42.3081 47.1924,42.9747 46.5,43.5C 46.6869,42.1832 46.0202,40.8499 44.5,39.5C 43.5745,40.6405 42.7412,40.6405 42,39.5C 40.3851,41.0107 40.3851,42.344 42,43.5C 42.3333,42.8333 42.6667,42.1667 43,41.5C 43.1753,46.0195 43.6753,50.3528 44.5,54.5C 44.7191,58.8002 45.7191,62.8002 47.5,66.5C 47.6879,72.8669 50.0212,78.2002 54.5,82.5C 54.3893,83.1174 54.056,83.6174 53.5,84C 54.8584,84.9344 56.1917,85.7677 57.5,86.5C 52.4812,88.7198 48.6478,87.3865 46,82.5C 45.1785,79.8832 44.6785,77.2165 44.5,74.5C 30.8333,74.5 17.1667,74.5 3.5,74.5C 3.34011,64.4656 5.17345,54.7989 9,45.5C 30.0852,7.88445 61.2519,-4.28221 102.5,9C 130.012,22.1931 144.345,44.0264 145.5,74.5 Z"/></g>
<g><path style="opacity:1" fill="#974402" d="M 78.5,36.5 C 77.5416,36.9528 76.7083,37.6195 76,38.5C 75.2496,37.8742 74.4162,37.3742 73.5,37C 74.7472,35.5064 74.7472,34.0064 73.5,32.5C 72.5113,34.5862 71.178,36.2529 69.5,37.5C 69.5,37.1667 69.5,36.8333 69.5,36.5C 69.822,34.2776 69.1554,32.4443 67.5,31C 62.9279,30.5375 58.4279,29.7041 54,28.5C 50.0596,29.5374 46.5596,28.7041 43.5,26C 50.6019,21.7422 58.2686,19.7422 66.5,20C 68.356,22.6733 70.6894,23.1733 73.5,21.5C 76.022,22.762 78.6887,23.4287 81.5,23.5C 81.5,22.1667 81.5,20.8333 81.5,19.5C 90.4296,20.3211 98.7629,22.8211 106.5,27C 98.6652,27.6105 90.9985,28.2772 83.5,29C 81.5,29.8333 79.5,30.6667 77.5,31.5C 78.1667,32.8333 78.8333,34.1667 79.5,35.5C 79.3764,36.1067 79.0431,36.44 78.5,36.5 Z"/></g>
<g><path style="opacity:1" fill="#887055" d="M 44.5,31.5 C 46.2589,31.0461 48.2589,31.0461 50.5,31.5C 50.067,34.1656 49.567,36.8323 49,39.5C 49.0695,35.813 47.5695,33.1463 44.5,31.5 Z"/></g>
<g><path style="opacity:1" fill="#95806f" d="M 98.5,33.5 C 97.8333,34.8333 97.1667,36.1667 96.5,37.5C 96.5,35.5 96.5,33.5 96.5,31.5C 98.3307,30.9478 99.9974,30.9478 101.5,31.5C 100.643,32.4252 99.6431,33.0919 98.5,33.5 Z"/></g>
<g><path style="opacity:1" fill="#989900" d="M 69.5,36.5 C 69.5,36.8333 69.5,37.1667 69.5,37.5C 66.4308,39.8945 63.0975,41.8945 59.5,43.5C 58.3065,42.7281 57.3065,41.7281 56.5,40.5C 57.0576,38.2106 58.2243,36.2106 60,34.5C 60.3052,36.5568 60.3052,38.5568 60,40.5C 62.6696,38.9952 64.8363,36.9952 66.5,34.5C 67.2508,35.376 67.7508,36.376 68,37.5C 68.3826,36.944 68.8826,36.6107 69.5,36.5 Z"/></g>
<g><path style="opacity:1" fill="#310e8c" d="M 55.5,40.5 C 55.6716,41.4916 55.3382,42.1583 54.5,42.5C 52.8872,41.1619 52.3872,39.4952 53,37.5C 54.045,38.3734 54.8783,39.3734 55.5,40.5 Z"/></g>
<g><path style="opacity:1" fill="#1b177f" d="M 54.5,43.5 C 55.3382,43.8417 55.6716,44.5084 55.5,45.5C 55.0252,47.7221 54.0252,48.3888 52.5,47.5C 52.1568,45.5168 52.8235,44.1834 54.5,43.5 Z"/></g>
<g><path style="opacity:1" fill="#9f1804" d="M 55.5,40.5 C 55.8333,40.5 56.1667,40.5 56.5,40.5C 57.3065,41.7281 58.3065,42.7281 59.5,43.5C 59.8333,44.1667 60.1667,44.8333 60.5,45.5C 58.7659,46.562 57.0992,46.562 55.5,45.5C 55.6716,44.5084 55.3382,43.8417 54.5,43.5C 54.5,43.1667 54.5,42.8333 54.5,42.5C 55.3382,42.1583 55.6716,41.4916 55.5,40.5 Z"/></g>
<g><path style="opacity:1" fill="#d1a21f" d="M 98.5,33.5 C 98.1866,36.2469 98.52,38.9135 99.5,41.5C 107.276,35.7768 108.609,37.2768 103.5,46C 104.286,49.4582 104.62,52.9582 104.5,56.5C 102.923,51.7661 102.089,46.7661 102,41.5C 101.501,45.4862 101.334,49.4862 101.5,53.5C 101.841,57.1595 101.175,60.4928 99.5,63.5C 99.8507,57.7383 99.3507,52.0716 98,46.5C 97.6174,47.056 97.1174,47.3893 96.5,47.5C 95.962,45.8828 95.6287,44.2161 95.5,42.5C 95.6287,40.7839 95.962,39.1172 96.5,37.5C 97.1667,36.1667 97.8333,34.8333 98.5,33.5 Z"/></g>
<g><path style="opacity:1" fill="#746831" d="M 52.5,47.5 C 54.0252,48.3888 55.0252,47.7221 55.5,45.5C 57.0992,46.562 58.7659,46.562 60.5,45.5C 60.1667,46.1667 59.8333,46.8333 59.5,47.5C 57.847,47.6596 56.5137,48.3263 55.5,49.5C 54.1779,49.33 53.0113,49.6634 52,50.5C 50.871,48.8588 49.371,47.8588 47.5,47.5C 46.0119,44.8136 45.3453,45.1469 45.5,48.5C 44.5386,50.2646 44.2053,52.2646 44.5,54.5C 43.6753,50.3528 43.1753,46.0195 43,41.5C 42.6667,42.1667 42.3333,42.8333 42,43.5C 40.3851,42.344 40.3851,41.0107 42,39.5C 42.7412,40.6405 43.5745,40.6405 44.5,39.5C 46.0202,40.8499 46.6869,42.1832 46.5,43.5C 47.1924,42.9747 47.6924,42.3081 48,41.5C 48.5324,44.1801 50.0324,46.1801 52.5,47.5 Z"/></g>
<g><path style="opacity:1" fill="#f2d302" d="M 47.5,47.5 C 47.5,49.8333 47.5,52.1667 47.5,54.5C 46.8826,54.6107 46.3826,54.944 46,55.5C 45.5034,53.1902 45.3367,50.8568 45.5,48.5C 45.3453,45.1469 46.0119,44.8136 47.5,47.5 Z"/></g>
<g><path style="opacity:1" fill="#184b06" d="M 94.5,40.5 C 94.3284,41.4916 94.6618,42.1583 95.5,42.5C 95.6287,44.2161 95.962,45.8828 96.5,47.5C 96.2671,49.0618 95.6005,50.3951 94.5,51.5C 93.1417,52.6256 91.8084,52.6256 90.5,51.5C 89.5236,48.8371 88.1903,46.5038 86.5,44.5C 86.8693,42.5588 87.536,40.7255 88.5,39C 89.4491,38.3828 90.2825,38.5494 91,39.5C 92.7331,37.042 93.8998,37.3753 94.5,40.5 Z"/></g>
<g><path style="opacity:1" fill="#1404b3" d="M 47.5,47.5 C 49.371,47.8588 50.871,48.8588 52,50.5C 53.0113,49.6634 54.1779,49.33 55.5,49.5C 55.9923,53.2896 55.159,53.9563 53,51.5C 52.3333,57.5 52.3333,63.5 53,69.5C 53.3683,72.5651 54.535,75.2318 56.5,77.5C 56.0472,78.4584 55.3805,79.2917 54.5,80C 58.4557,81.1139 58.4557,81.9473 54.5,82.5C 50.0212,78.2002 47.6879,72.8669 47.5,66.5C 47.5,62.5 47.5,58.5 47.5,54.5C 47.5,52.1667 47.5,49.8333 47.5,47.5 Z"/></g>
<g><path style="opacity:1" fill="#210bb3" d="M 99.5,63.5 C 98.9897,67.5602 98.1564,71.5602 97,75.5C 96.0646,78.5952 94.2313,80.9286 91.5,82.5C 88.8707,83.7143 86.204,83.7143 83.5,82.5C 86.5548,80.195 89.3881,77.5283 92,74.5C 94.0617,66.9723 94.895,59.3057 94.5,51.5C 95.6005,50.3951 96.2671,49.0618 96.5,47.5C 97.1174,47.3893 97.6174,47.056 98,46.5C 99.3507,52.0716 99.8507,57.7383 99.5,63.5 Z"/></g>
<g><path style="opacity:1" fill="#d21702" d="M 59.5,47.5 C 56.3337,56.8309 57.167,65.8309 62,74.5C 64.6713,76.9024 67.5046,78.9024 70.5,80.5C 70.189,81.4778 69.5223,82.1445 68.5,82.5C 66.8273,80.9137 64.8273,80.2471 62.5,80.5C 62.1667,80.5 61.8333,80.5 61.5,80.5C 60.2318,78.953 58.5652,77.953 56.5,77.5C 54.535,75.2318 53.3683,72.5651 53,69.5C 52.3333,63.5 52.3333,57.5 53,51.5C 55.159,53.9563 55.9923,53.2896 55.5,49.5C 56.5137,48.3263 57.847,47.6596 59.5,47.5 Z"/></g>
<g><path style="opacity:1" fill="#cc1a08" d="M 86.5,44.5 C 88.1903,46.5038 89.5236,48.8371 90.5,51.5C 91.8084,52.6256 93.1417,52.6256 94.5,51.5C 94.895,59.3057 94.0617,66.9723 92,74.5C 89.3881,77.5283 86.5548,80.195 83.5,82.5C 83.5,83.5 83.5,84.5 83.5,85.5C 83.5,86.1667 83.5,86.8333 83.5,87.5C 83.1667,87.5 82.8333,87.5 82.5,87.5C 82.5,85.1667 82.5,82.8333 82.5,80.5C 80.5853,80.7845 78.9187,80.4511 77.5,79.5C 83.1655,76.5205 86.6655,71.8538 88,65.5C 89.1718,58.3717 88.3385,51.5384 85.5,45C 85.7284,44.6012 86.0618,44.4346 86.5,44.5 Z"/></g>
<g><path style="opacity:1" fill="#624552" d="M 104.5,56.5 C 104.662,58.5273 104.495,60.5273 104,62.5C 103.027,59.4213 102.194,56.4213 101.5,53.5C 101.334,49.4862 101.501,45.4862 102,41.5C 102.089,46.7661 102.923,51.7661 104.5,56.5 Z"/></g>
<g><path style="opacity:1" fill="#b25916" d="M 45.5,48.5 C 45.3367,50.8568 45.5034,53.1902 46,55.5C 46.3826,54.944 46.8826,54.6107 47.5,54.5C 47.5,58.5 47.5,62.5 47.5,66.5C 45.7191,62.8002 44.7191,58.8002 44.5,54.5C 44.2053,52.2646 44.5386,50.2646 45.5,48.5 Z"/></g>
<g><path style="opacity:1" fill="#503d5f" d="M 42.5,55.5 C 43.8946,57.8473 43.7279,60.1806 42,62.5C 42.2068,60.2487 42.3735,57.9154 42.5,55.5 Z"/></g>
<g><path style="opacity:1" fill="#11138a" d="M -0.5,74.5 C 0.833333,74.5 2.16667,74.5 3.5,74.5C 17.1667,74.5 30.8333,74.5 44.5,74.5C 44.6785,77.2165 45.1785,79.8832 46,82.5C 48.6478,87.3865 52.4812,88.7198 57.5,86.5C 58.9305,86.5792 60.2638,86.2458 61.5,85.5C 62.2975,85.9569 62.6309,86.6236 62.5,87.5C 62.4606,88.5832 62.1272,89.5832 61.5,90.5C 62.7357,91.3567 64.069,92.0234 65.5,92.5C 66.9185,91.9953 67.5852,90.9953 67.5,89.5C 69.666,86.9599 70.666,87.6266 70.5,91.5C 70.6227,94.5879 69.6227,97.2546 67.5,99.5C 71.4633,99.378 75.4633,99.5447 79.5,100C 76.1174,96.5563 74.7841,92.3896 75.5,87.5C 76.5,87.5 77.5,87.5 78.5,87.5C 78.2275,89.9582 79.2275,91.6249 81.5,92.5C 84.2195,91.4236 84.8861,89.7569 83.5,87.5C 83.5,86.8333 83.5,86.1667 83.5,85.5C 84.9587,85.4326 86.2921,85.7659 87.5,86.5C 97.0082,88.6929 102.008,84.6929 102.5,74.5C 116.833,74.5 131.167,74.5 145.5,74.5C 146.833,74.5 148.167,74.5 149.5,74.5C 149.5,78.5 149.5,82.5 149.5,86.5C 147.551,95.6768 144.218,104.343 139.5,112.5C 137.833,112.5 136.167,112.5 134.5,112.5C 94.5,112.5 54.5,112.5 14.5,112.5C 12.8333,112.5 11.1667,112.5 9.5,112.5C 4.78215,104.343 1.44882,95.6768 -0.5,86.5C -0.5,82.5 -0.5,78.5 -0.5,74.5 Z"/></g>
<g><path style="opacity:1" fill="#e5ca1a" d="M 78.5,36.5 C 80.1378,38.3008 81.9711,39.9675 84,41.5C 85.1824,38.4448 86.5157,35.4448 88,32.5C 88.6667,33.8333 89.3333,35.1667 90,36.5C 93.3194,35.3559 94.8194,36.6893 94.5,40.5C 93.8998,37.3753 92.7331,37.042 91,39.5C 90.2825,38.5494 89.4491,38.3828 88.5,39C 87.536,40.7255 86.8693,42.5588 86.5,44.5C 86.0618,44.4346 85.7284,44.6012 85.5,45C 88.3385,51.5384 89.1718,58.3717 88,65.5C 86.6655,71.8538 83.1655,76.5205 77.5,79.5C 76.2921,80.2341 74.9587,80.5674 73.5,80.5C 73.1667,80.5 72.8333,80.5 72.5,80.5C 71.8333,80.5 71.1667,80.5 70.5,80.5C 67.5046,78.9024 64.6713,76.9024 62,74.5C 57.167,65.8309 56.3337,56.8309 59.5,47.5C 59.8333,46.8333 60.1667,46.1667 60.5,45.5C 60.1667,44.8333 59.8333,44.1667 59.5,43.5C 63.0975,41.8945 66.4308,39.8945 69.5,37.5C 71.178,36.2529 72.5113,34.5862 73.5,32.5C 74.7472,34.0064 74.7472,35.5064 73.5,37C 74.4162,37.3742 75.2496,37.8742 76,38.5C 76.7083,37.6195 77.5416,36.9528 78.5,36.5 Z"/></g>
<g><path style="opacity:1" fill="#a0c3e8" d="M 66.5,58.5 C 68.1667,58.5 69.8333,58.5 71.5,58.5C 71.5,59.5 71.5,60.5 71.5,61.5C 72.8333,61.5 74.1667,61.5 75.5,61.5C 75.5,62.5 75.5,63.5 75.5,64.5C 79.1024,64.6924 82.1024,66.0257 84.5,68.5C 80.1564,78.2225 73.4897,80.0558 64.5,74C 63.7476,73.3292 63.4142,72.4959 63.5,71.5C 64.7562,71.5386 65.7562,71.0386 66.5,70C 62.1779,68.8085 61.8446,67.4752 65.5,66C 62.8794,62.7125 63.8794,60.8791 68.5,60.5C 67.7573,59.8182 67.0906,59.1515 66.5,58.5 Z"/></g>
<g><path style="opacity:1" fill="#a0531d" d="M 72.5,67.5 C 73.4345,68.5676 73.7678,69.901 73.5,71.5C 76.2443,70.795 78.911,70.795 81.5,71.5C 81.2907,72.086 80.9574,72.586 80.5,73C 76.7115,74.1163 73.3782,73.4496 70.5,71C 71.9733,70.2904 72.6399,69.1238 72.5,67.5 Z"/></g>
<g><path style="opacity:1" fill="#a9f07b" d="M 71.5,58.5 C 76.5,58.5 81.5,58.5 86.5,58.5C 86.8412,62.1595 86.1745,65.4928 84.5,68.5C 82.1024,66.0257 79.1024,64.6924 75.5,64.5C 75.5,63.5 75.5,62.5 75.5,61.5C 74.1667,61.5 72.8333,61.5 71.5,61.5C 71.5,60.5 71.5,59.5 71.5,58.5 Z"/></g>
<g><path style="opacity:1" fill="#a7f076" d="M 59.5,58.5 C 61.8333,58.5 64.1667,58.5 66.5,58.5C 67.0906,59.1515 67.7573,59.8182 68.5,60.5C 63.8794,60.8791 62.8794,62.7125 65.5,66C 61.8446,67.4752 62.1779,68.8085 66.5,70C 65.7562,71.0386 64.7562,71.5386 63.5,71.5C 60.7929,67.6932 59.4596,63.3599 59.5,58.5 Z"/></g>
<g><path style="opacity:1" fill="#f5f8fa" d="M 86.5,54.5 C 86.5,55.8333 86.5,57.1667 86.5,58.5C 81.5,58.5 76.5,58.5 71.5,58.5C 69.8333,58.5 68.1667,58.5 66.5,58.5C 64.1667,58.5 61.8333,58.5 59.5,58.5C 59.298,56.0504 59.6314,53.717 60.5,51.5C 62.0936,51.0805 63.5936,50.4138 65,49.5C 66.6667,50.8333 68.3333,50.8333 70,49.5C 71.7975,50.9564 73.6308,52.4564 75.5,54C 79.1516,54.4986 82.8183,54.6653 86.5,54.5 Z"/></g>
<g><path style="opacity:1" fill="#a1c6ea" d="M 86.5,54.5 C 82.8183,54.6653 79.1516,54.4986 75.5,54C 73.6308,52.4564 71.7975,50.9564 70,49.5C 68.3333,50.8333 66.6667,50.8333 65,49.5C 63.5936,50.4138 62.0936,51.0805 60.5,51.5C 60.8769,49.742 61.5435,48.0754 62.5,46.5C 63.6507,45.269 64.8173,45.269 66,46.5C 66.4643,45.9056 66.631,45.2389 66.5,44.5C 65.7611,44.631 65.0944,44.4643 64.5,44C 70.0283,38.1843 75.695,38.0176 81.5,43.5C 80.9598,44.7481 80.2931,45.9148 79.5,47C 80.7425,47.3114 81.7425,46.8114 82.5,45.5C 84.9814,47.928 86.3147,50.928 86.5,54.5 Z"/></g>
<g><path style="opacity:1" fill="#a89a2f" d="M 66.5,44.5 C 68.2303,43.0882 69.7303,43.4215 71,45.5C 71.4828,44.552 71.6495,43.552 71.5,42.5C 72.8333,42.5 74.1667,42.5 75.5,42.5C 75.5,44.1667 75.5,45.8333 75.5,47.5C 72.1633,47.3227 69.1633,46.3227 66.5,44.5 Z"/></g>
<g><path style="opacity:1" fill="#865939" d="M 77.5,79.5 C 78.9187,80.4511 80.5853,80.7845 82.5,80.5C 82.5,82.8333 82.5,85.1667 82.5,87.5C 81.1667,87.5 79.8333,87.5 78.5,87.5C 77.5,87.5 76.5,87.5 75.5,87.5C 73.6565,85.7211 72.9898,83.3878 73.5,80.5C 74.9587,80.5674 76.2921,80.2341 77.5,79.5 Z"/></g>
<g><path style="opacity:1" fill="#7a6d62" d="M 56.5,77.5 C 58.5652,77.953 60.2318,78.953 61.5,80.5C 58.4524,80.494 57.9524,81.494 60,83.5C 61.417,82.9221 62.2504,81.9221 62.5,80.5C 64.8273,80.2471 66.8273,80.9137 68.5,82.5C 69.5223,82.1445 70.189,81.4778 70.5,80.5C 71.1667,80.5 71.8333,80.5 72.5,80.5C 72.8016,83.0593 72.4682,85.3926 71.5,87.5C 71.6602,85.8008 71.4935,84.1341 71,82.5C 69.3333,85.1667 67.6667,85.1667 66,82.5C 66.068,84.3423 65.9014,86.009 65.5,87.5C 64.5,87.5 63.5,87.5 62.5,87.5C 62.6309,86.6236 62.2975,85.9569 61.5,85.5C 60.2638,86.2458 58.9305,86.5792 57.5,86.5C 56.1917,85.7677 54.8584,84.9344 53.5,84C 54.056,83.6174 54.3893,83.1174 54.5,82.5C 58.4557,81.9473 58.4557,81.1139 54.5,80C 55.3805,79.2917 56.0472,78.4584 56.5,77.5 Z"/></g>
<g><path style="opacity:1" fill="#1510ac" d="M 61.5,80.5 C 61.8333,80.5 62.1667,80.5 62.5,80.5C 62.2504,81.9221 61.417,82.9221 60,83.5C 57.9524,81.494 58.4524,80.494 61.5,80.5 Z"/></g>
<g><path style="opacity:1" fill="#92874c" d="M 83.5,82.5 C 86.204,83.7143 88.8707,83.7143 91.5,82.5C 91.5,83.5 91.5,84.5 91.5,85.5C 89.901,85.2322 88.5676,85.5655 87.5,86.5C 86.2921,85.7659 84.9587,85.4326 83.5,85.5C 83.5,84.5 83.5,83.5 83.5,82.5 Z"/></g>
<g><path style="opacity:1" fill="#914319" d="M 71.5,87.5 C 71.7678,89.099 71.4345,90.4324 70.5,91.5C 70.666,87.6266 69.666,86.9599 67.5,89.5C 67.5,88.1667 66.8333,87.5 65.5,87.5C 65.9014,86.009 66.068,84.3423 66,82.5C 67.6667,85.1667 69.3333,85.1667 71,82.5C 71.4935,84.1341 71.6602,85.8008 71.5,87.5 Z"/></g>
<g><path style="opacity:1" fill="#e5c814" d="M 62.5,87.5 C 63.5,87.5 64.5,87.5 65.5,87.5C 66.8333,87.5 67.5,88.1667 67.5,89.5C 67.5852,90.9953 66.9185,91.9953 65.5,92.5C 64.069,92.0234 62.7357,91.3567 61.5,90.5C 62.1272,89.5832 62.4606,88.5832 62.5,87.5 Z"/></g>
<g><path style="opacity:1" fill="#c40a07" d="M 72.5,80.5 C 72.8333,80.5 73.1667,80.5 73.5,80.5C 72.9898,83.3878 73.6565,85.7211 75.5,87.5C 74.7841,92.3896 76.1174,96.5563 79.5,100C 75.4633,99.5447 71.4633,99.378 67.5,99.5C 69.6227,97.2546 70.6227,94.5879 70.5,91.5C 71.4345,90.4324 71.7678,89.099 71.5,87.5C 72.4682,85.3926 72.8016,83.0593 72.5,80.5 Z"/></g>
<g><path style="opacity:1" fill="#dec216" d="M 78.5,87.5 C 79.8333,87.5 81.1667,87.5 82.5,87.5C 82.8333,87.5 83.1667,87.5 83.5,87.5C 84.8861,89.7569 84.2195,91.4236 81.5,92.5C 79.2275,91.6249 78.2275,89.9582 78.5,87.5 Z"/></g>
<g><path style="opacity:0.936" fill="#be0912" d="M 9.5,112.5 C 11.1667,112.5 12.8333,112.5 14.5,112.5C 33.2289,139.52 58.8956,150.02 91.5,144C 109.919,139.082 124.252,128.582 134.5,112.5C 136.167,112.5 137.833,112.5 139.5,112.5C 127.163,132.499 109.497,144.832 86.5,149.5C 78.5,149.5 70.5,149.5 62.5,149.5C 39.5034,144.832 21.8367,132.499 9.5,112.5 Z"/></g>
<g><path style="opacity:1" fill="#d90010" d="M 14.5,112.5 C 54.5,112.5 94.5,112.5 134.5,112.5C 124.252,128.582 109.919,139.082 91.5,144C 58.8956,150.02 33.2289,139.52 14.5,112.5 Z"/></g>
</svg>
