<?xml version="1.0" standalone="no"?>
<!DOCTYPE svg PUBLIC "-//W3C//DTD SVG 20010904//EN"
 "http://www.w3.org/TR/2001/REC-SVG-20010904/DTD/svg10.dtd">
<svg version="1.0" xmlns="http://www.w3.org/2000/svg"
 width="150.000000pt" height="150.000000pt" viewBox="0 0 150.000000 150.000000"
 preserveAspectRatio="xMidYMid meet">

<g transform="translate(0.000000,150.000000) scale(0.100000,-0.100000)"
fill="#000000" stroke="none">
<path d="M615 1486 c-161 -32 -271 -92 -390 -211 -70 -69 -101 -109 -133 -172
-23 -44 -42 -86 -42 -92 0 -8 199 -11 700 -11 501 0 700 3 700 11 0 6 -19 48
-42 92 -32 62 -64 104 -133 173 -76 77 -105 98 -185 137 -52 26 -122 54 -155
62 -86 22 -236 27 -320 11z"/>
<path d="M62 453 c80 -182 262 -351 444 -412 175 -58 379 -51 540 20 165 73
324 232 394 393 l19 46 -709 0 -709 0 21 -47z"/>
</g>
</svg>
