<?xml version="1.0" encoding="UTF-8"?>
<!DOCTYPE svg PUBLIC "-//W3C//DTD SVG 1.1//EN" "http://www.w3.org/Graphics/SVG/1.1/DTD/svg11.dtd">
<svg xmlns="http://www.w3.org/2000/svg" version="1.1" width="150px" height="150px" style="shape-rendering:geometricPrecision; text-rendering:geometricPrecision; image-rendering:optimizeQuality; fill-rule:evenodd; clip-rule:evenodd" xmlns:xlink="http://www.w3.org/1999/xlink">
<g><path style="opacity:0.877" fill="#dedede" d="M 62.5,0.5 C 62.5,1.83333 62.5,3.16667 62.5,4.5C 36.4964,9.32591 18.3297,23.9926 8,48.5C 6.26017,53.0353 5.0935,57.7019 4.5,62.5C 3.16667,62.5 1.83333,62.5 0.5,62.5C 6.21281,31.9486 23.8795,11.782 53.5,2C 56.4318,1.04673 59.4318,0.546728 62.5,0.5 Z"/></g>
<g><path style="opacity:0.872" fill="#dedede" d="M 86.5,0.5 C 117.051,6.21281 137.218,23.8795 147,53.5C 147.953,56.4318 148.453,59.4318 148.5,62.5C 147.167,62.5 145.833,62.5 144.5,62.5C 139.645,36.4723 124.978,18.3056 100.5,8C 95.8924,6.51477 91.2258,5.34811 86.5,4.5C 86.5,3.16667 86.5,1.83333 86.5,0.5 Z"/></g>
<g><path style="opacity:1" fill="#cc1124" d="M 62.5,-0.5 C 70.5,-0.5 78.5,-0.5 86.5,-0.5C 86.5,-0.166667 86.5,0.166667 86.5,0.5C 86.5,1.83333 86.5,3.16667 86.5,4.5C 86.5,23.8333 86.5,43.1667 86.5,62.5C 105.833,62.5 125.167,62.5 144.5,62.5C 145.833,62.5 147.167,62.5 148.5,62.5C 148.833,62.5 149.167,62.5 149.5,62.5C 149.5,70.5 149.5,78.5 149.5,86.5C 149.167,86.5 148.833,86.5 148.5,86.5C 147.167,86.5 145.833,86.5 144.5,86.5C 125.167,86.5 105.833,86.5 86.5,86.5C 86.5,105.833 86.5,125.167 86.5,144.5C 86.5,145.833 86.5,147.167 86.5,148.5C 86.5,148.833 86.5,149.167 86.5,149.5C 78.5,149.5 70.5,149.5 62.5,149.5C 62.5,149.167 62.5,148.833 62.5,148.5C 62.5,147.167 62.5,145.833 62.5,144.5C 62.5,125.167 62.5,105.833 62.5,86.5C 43.1667,86.5 23.8333,86.5 4.5,86.5C 3.16667,86.5 1.83333,86.5 0.5,86.5C 0.166667,86.5 -0.166667,86.5 -0.5,86.5C -0.5,78.5 -0.5,70.5 -0.5,62.5C -0.166667,62.5 0.166667,62.5 0.5,62.5C 1.83333,62.5 3.16667,62.5 4.5,62.5C 23.8333,62.5 43.1667,62.5 62.5,62.5C 62.5,43.1667 62.5,23.8333 62.5,4.5C 62.5,3.16667 62.5,1.83333 62.5,0.5C 62.5,0.166667 62.5,-0.166667 62.5,-0.5 Z"/></g>
<g><path style="opacity:1" fill="#fefefe" d="M 62.5,4.5 C 62.5,23.8333 62.5,43.1667 62.5,62.5C 43.1667,62.5 23.8333,62.5 4.5,62.5C 5.0935,57.7019 6.26017,53.0353 8,48.5C 18.3297,23.9926 36.4964,9.32591 62.5,4.5 Z"/></g>
<g><path style="opacity:1" fill="#fefefe" d="M 86.5,4.5 C 91.2258,5.34811 95.8924,6.51477 100.5,8C 124.978,18.3056 139.645,36.4723 144.5,62.5C 125.167,62.5 105.833,62.5 86.5,62.5C 86.5,43.1667 86.5,23.8333 86.5,4.5 Z"/></g>
<g><path style="opacity:0.871" fill="#dfdfdf" d="M 0.5,86.5 C 1.83333,86.5 3.16667,86.5 4.5,86.5C 9.34609,112.52 24.0128,130.687 48.5,141C 53.0353,142.74 57.7019,143.906 62.5,144.5C 62.5,145.833 62.5,147.167 62.5,148.5C 31.9486,142.787 11.782,125.121 2,95.5C 1.04673,92.5682 0.546728,89.5682 0.5,86.5 Z"/></g>
<g><path style="opacity:1" fill="#fefefe" d="M 4.5,86.5 C 23.8333,86.5 43.1667,86.5 62.5,86.5C 62.5,105.833 62.5,125.167 62.5,144.5C 57.7019,143.906 53.0353,142.74 48.5,141C 24.0128,130.687 9.34609,112.52 4.5,86.5 Z"/></g>
<g><path style="opacity:1" fill="#fefefe" d="M 144.5,86.5 C 139.722,111.549 125.722,129.382 102.5,140C 97.268,142.024 91.9347,143.524 86.5,144.5C 86.5,125.167 86.5,105.833 86.5,86.5C 105.833,86.5 125.167,86.5 144.5,86.5 Z"/></g>
<g><path style="opacity:0.871" fill="#dedede" d="M 144.5,86.5 C 145.833,86.5 147.167,86.5 148.5,86.5C 142.787,117.051 125.121,137.218 95.5,147C 92.5682,147.953 89.5682,148.453 86.5,148.5C 86.5,147.167 86.5,145.833 86.5,144.5C 91.9347,143.524 97.268,142.024 102.5,140C 125.722,129.382 139.722,111.549 144.5,86.5 Z"/></g>
</svg>
