<?xml version="1.0" standalone="no"?>
<!DOCTYPE svg PUBLIC "-//W3C//DTD SVG 20010904//EN"
 "http://www.w3.org/TR/2001/REC-SVG-20010904/DTD/svg10.dtd">
<svg version="1.0" xmlns="http://www.w3.org/2000/svg"
 width="150.000000pt" height="150.000000pt" viewBox="0 0 150.000000 150.000000"
 preserveAspectRatio="xMidYMid meet">

<g transform="translate(0.000000,150.000000) scale(0.100000,-0.100000)"
fill="#000000" stroke="none">
<path d="M560 1281 c-69 -23 -110 -42 -110 -52 0 -11 28 -19 67 -19 20 0 65
-5 100 -11 65 -11 97 -36 86 -65 -3 -8 -1 -14 5 -14 5 0 13 11 16 25 4 14 11
25 17 25 7 0 9 -11 7 -25 -4 -19 -1 -25 12 -25 25 0 41 22 30 40 -6 8 -10 18
-10 21 0 12 80 29 105 23 15 -4 25 -2 25 5 0 7 24 11 64 11 36 0 67 4 70 8 5
9 -125 56 -188 68 -37 6 -39 6 -33 -16 5 -21 3 -22 -31 -16 -20 3 -51 6 -68 6
-17 0 -37 6 -44 15 -16 19 -52 18 -120 -4z"/>
<path d="M490 1146 c0 -54 -11 -96 -24 -89 -6 4 -5 -1 2 -10 10 -12 12 -32 8
-69 -10 -79 -9 -107 3 -172 13 -66 24 -90 55 -124 11 -13 20 -27 18 -30 -2 -4
2 -8 10 -10 10 -3 10 -1 -1 6 -11 8 -10 11 5 14 10 2 30 2 43 -1 22 -4 21 -5
-14 -22 -21 -11 -48 -19 -60 -19 -32 0 -64 36 -77 86 l-12 44 -224 0 -225 0 7
-67 c19 -186 94 -341 228 -469 117 -112 228 -170 384 -200 405 -76 807 207
873 617 6 35 11 76 11 92 l0 27 -235 0 -234 0 -11 -41 c-6 -23 -23 -53 -36
-66 -22 -22 -31 -24 -66 -19 -22 4 -50 13 -61 21 -20 14 -19 15 19 15 76 0
113 68 141 265 l6 40 13 -50 c11 -40 12 -42 7 -10 -3 22 -7 69 -9 105 -3 92
-3 92 -15 85 -6 -4 -7 -19 -4 -36 4 -16 3 -59 -1 -97 l-8 -67 -8 64 c-4 41 -3
69 3 77 6 7 6 14 1 18 -6 3 -12 -3 -15 -14 -9 -34 -27 -23 -20 12 4 20 3 29
-4 25 -15 -9 -23 39 -9 54 6 7 0 5 -13 -4 -18 -12 -29 -13 -44 -6 -15 9 -18 8
-14 -3 2 -7 -2 -28 -9 -45 -11 -28 -11 -39 2 -70 31 -73 16 -185 -32 -249 -97
-131 -264 -33 -264 156 0 33 7 76 15 96 8 19 12 41 9 49 -4 8 -2 15 3 15 5 0
18 7 29 15 17 13 16 13 -13 3 -30 -11 -35 -10 -63 17 l-30 29 -1 -35 c-1 -19
0 -44 1 -57 1 -21 -1 -22 -19 -12 -14 7 -21 20 -20 38 0 23 2 24 8 8 4 -11 10
-15 14 -10 3 6 2 16 -4 24 -11 19 -12 63 0 56 5 -4 7 3 4 14 -8 32 -23 23 -23
-14z m120 -446 c11 -7 7 -10 -18 -10 -20 0 -31 4 -27 10 8 13 26 13 45 0z m70
-99 c0 -10 -7 -21 -15 -25 -8 -3 -15 -1 -15 4 0 5 -7 7 -15 4 -17 -7 -18 -3
-9 20 9 23 54 21 54 -3z m160 15 c0 -2 3 -12 7 -22 5 -14 3 -16 -11 -11 -10 4
-15 3 -11 -3 9 -14 -9 -12 -23 2 -20 20 -14 38 13 38 14 0 25 -2 25 -4z"/>
<path d="M971 1144 c0 -21 4 -48 9 -59 6 -14 8 -4 6 32 -3 61 -16 85 -15 27z"/>
<path d="M580 1109 c0 -18 2 -19 15 -9 15 12 12 30 -6 30 -5 0 -9 -10 -9 -21z"/>
<path d="M650 1119 c0 -5 5 -7 10 -4 6 3 10 8 10 11 0 2 -4 4 -10 4 -5 0 -10
-5 -10 -11z"/>
<path d="M437 1003 c-3 -54 -9 -107 -13 -117 -5 -14 -4 -17 4 -12 7 4 12 22
12 39 0 25 3 29 11 17 8 -11 9 5 4 57 -4 44 -2 74 4 77 6 4 8 13 4 21 -13 34
-20 9 -26 -82z"/>
<path d="M720 1065 c-6 -8 -10 -20 -7 -27 4 -8 6 -7 6 5 1 9 8 17 16 17 7 0
19 -8 24 -17 9 -15 10 -15 11 -2 0 15 -18 39 -31 39 -4 0 -12 -7 -19 -15z"/>
<path d="M755 830 c3 -5 8 -10 11 -10 2 0 4 5 4 10 0 6 -5 10 -11 10 -5 0 -7
-4 -4 -10z"/>
<path d="M731 808 c0 -9 -9 -19 -18 -21 -17 -4 -17 -5 0 -6 9 0 17 -6 17 -12
0 -14 82 -7 87 7 2 6 -5 14 -17 17 -11 3 -20 0 -21 -6 0 -7 -4 -3 -9 8 -7 17
-9 17 -9 3 -1 -26 -19 -22 -24 5 -3 13 -5 15 -6 5z"/>
</g>
</svg>
