<?xml version="1.0" encoding="UTF-8"?>
<!DOCTYPE svg PUBLIC "-//W3C//DTD SVG 1.1//EN" "http://www.w3.org/Graphics/SVG/1.1/DTD/svg11.dtd">
<svg xmlns="http://www.w3.org/2000/svg" version="1.1" width="150px" height="150px" style="shape-rendering:geometricPrecision; text-rendering:geometricPrecision; image-rendering:optimizeQuality; fill-rule:evenodd; clip-rule:evenodd" xmlns:xlink="http://www.w3.org/1999/xlink">
<g><path style="opacity:0.95" fill="#ad0e1f" d="M 62.5,-0.5 C 70.5,-0.5 78.5,-0.5 86.5,-0.5C 109.497,4.1676 127.163,16.5009 139.5,36.5C 137.801,36.6602 136.134,36.4935 134.5,36C 115.518,9.35016 89.851,-0.983172 57.5,5C 39.2258,9.95125 24.8925,20.2846 14.5,36C 12.8659,36.4935 11.1992,36.6602 9.5,36.5C 21.8367,16.5009 39.5034,4.1676 62.5,-0.5 Z"/></g>
<g><path style="opacity:1" fill="#c7141d" d="M 139.5,36.5 C 138.432,37.4345 137.099,37.7678 135.5,37.5C 94.8333,37.5 54.1667,37.5 13.5,37.5C 11.901,37.7678 10.5676,37.4345 9.5,36.5C 11.1992,36.6602 12.8659,36.4935 14.5,36C 24.8925,20.2846 39.2258,9.95125 57.5,5C 89.851,-0.983172 115.518,9.35016 134.5,36C 136.134,36.4935 137.801,36.6602 139.5,36.5 Z"/></g>
<g><path style="opacity:0.95" fill="#dfac05" d="M 9.5,36.5 C 10.5676,37.4345 11.901,37.7678 13.5,37.5C 0.26454,62.092 0.26454,86.7586 13.5,111.5C 11.901,111.232 10.5676,111.566 9.5,112.5C 4.78215,104.343 1.44882,95.6768 -0.5,86.5C -0.5,78.5 -0.5,70.5 -0.5,62.5C 1.44882,53.3232 4.78215,44.6565 9.5,36.5 Z"/></g>
<g><path style="opacity:1" fill="#fdc200" d="M 13.5,37.5 C 54.1667,37.5 94.8333,37.5 135.5,37.5C 148.809,62.1099 148.809,86.7766 135.5,111.5C 94.8333,111.5 54.1667,111.5 13.5,111.5C 0.26454,86.7586 0.26454,62.092 13.5,37.5 Z"/></g>
<g><path style="opacity:0.95" fill="#deac05" d="M 139.5,36.5 C 144.218,44.6565 147.551,53.3232 149.5,62.5C 149.5,70.5 149.5,78.5 149.5,86.5C 147.551,95.6768 144.218,104.343 139.5,112.5C 138.432,111.566 137.099,111.232 135.5,111.5C 148.809,86.7766 148.809,62.1099 135.5,37.5C 137.099,37.7678 138.432,37.4345 139.5,36.5 Z"/></g>
<g><path style="opacity:1" fill="#b4931b" d="M 56.5,65.5 C 55.5,65.5 54.5,65.5 53.5,65.5C 53.9175,64.7784 54.5842,64.2784 55.5,64C 50.6478,63.1849 45.9811,63.3516 41.5,64.5C 39.3812,64.5323 38.0478,63.5323 37.5,61.5C 40.6132,62.0998 43.6132,61.4331 46.5,59.5C 48.7485,59.403 51.0819,59.5696 53.5,60C 53.3662,58.455 53.6995,56.7883 54.5,55C 53.381,53.124 51.7144,52.2907 49.5,52.5C 49.762,53.9778 49.4287,55.3112 48.5,56.5C 47.561,54.9466 46.3943,53.6133 45,52.5C 43.3791,52.7247 42.2125,53.558 41.5,55C 42.6274,56.0567 43.1274,57.2234 43,58.5C 41.2942,57.6921 40.4609,56.3588 40.5,54.5C 37.6544,54.0301 35.3211,54.8634 33.5,57C 34.8333,57.6667 36.1667,58.3333 37.5,59C 36.944,59.3826 36.6107,59.8826 36.5,60.5C 30.8433,58.3741 30.1767,55.2074 34.5,51C 39.3324,49.8075 43.999,48.3075 48.5,46.5C 49.2508,47.376 49.7508,48.376 50,49.5C 54.9293,48.7284 59.596,49.7284 64,52.5C 64.6667,54.1667 64.6667,55.8333 64,57.5C 61.295,60.0362 58.795,62.7029 56.5,65.5 Z"/></g>
<g><path style="opacity:1" fill="#a42217" d="M 56.5,54.5 C 63.2331,54.2914 64.0665,56.2914 59,60.5C 57.8647,60.273 56.698,59.9396 55.5,59.5C 56.0253,58.8076 56.6919,58.3076 57.5,58C 56.6634,56.9887 56.33,55.8221 56.5,54.5 Z"/></g>
<g><path style="opacity:1" fill="#a03c14" d="M 37.5,61.5 C 36.8333,61.5 36.5,61.1667 36.5,60.5C 36.6107,59.8826 36.944,59.3826 37.5,59C 36.1667,58.3333 34.8333,57.6667 33.5,57C 35.3211,54.8634 37.6544,54.0301 40.5,54.5C 40.4609,56.3588 41.2942,57.6921 43,58.5C 43.1274,57.2234 42.6274,56.0567 41.5,55C 42.2125,53.558 43.3791,52.7247 45,52.5C 46.3943,53.6133 47.561,54.9466 48.5,56.5C 49.4287,55.3112 49.762,53.9778 49.5,52.5C 51.7144,52.2907 53.381,53.124 54.5,55C 53.6995,56.7883 53.3662,58.455 53.5,60C 51.0819,59.5696 48.7485,59.403 46.5,59.5C 43.6132,61.4331 40.6132,62.0998 37.5,61.5 Z"/></g>
<g><path style="opacity:1" fill="#845d07" d="M 68.5,61.5 C 72.0403,61.1936 73.3736,62.5269 72.5,65.5C 68.4834,66.7903 67.1501,65.4569 68.5,61.5 Z"/></g>
<g><path style="opacity:1" fill="#a98403" d="M 28.5,69.5 C 26.8333,69.5 25.1667,69.5 23.5,69.5C 22.8316,67.537 22.4983,65.537 22.5,63.5C 24.7045,60.9469 27.0379,60.9469 29.5,63.5C 29.5017,65.537 29.1684,67.537 28.5,69.5 Z"/></g>
<g><path style="opacity:1" fill="#c0bbbc" d="M 53.5,65.5 C 54.5,65.5 55.5,65.5 56.5,65.5C 58.8333,65.5 61.1667,65.5 63.5,65.5C 63.5,68.5 63.5,71.5 63.5,74.5C 63.5,75.8333 63.5,77.1667 63.5,78.5C 63.5,79.8333 63.5,81.1667 63.5,82.5C 60.1667,82.5 56.8333,82.5 53.5,82.5C 53.4048,79.7277 52.0715,77.7277 49.5,76.5C 48.5108,72.8927 48.1774,69.226 48.5,65.5C 50.1667,65.5 51.8333,65.5 53.5,65.5 Z"/></g>
<g><path style="opacity:1" fill="#bab8b8" d="M 23.5,69.5 C 25.1667,69.5 26.8333,69.5 28.5,69.5C 28.5,71.1667 28.5,72.8333 28.5,74.5C 26.7839,74.6287 25.1172,74.962 23.5,75.5C 23.5,73.5 23.5,71.5 23.5,69.5 Z"/></g>
<g><path style="opacity:1" fill="#c0bbb2" d="M 73.5,75.5 C 71.8828,74.962 70.2161,74.6287 68.5,74.5C 68.5,72.8333 68.5,71.1667 68.5,69.5C 70.1667,69.5 71.8333,69.5 73.5,69.5C 73.5,71.5 73.5,73.5 73.5,75.5 Z"/></g>
<g><path style="opacity:1" fill="#c36f93" d="M 50.5,68.5 C 51.7564,68.9038 52.9231,69.5705 54,70.5C 55.7618,70.0556 55.5951,69.5556 53.5,69C 55.1341,68.5065 56.8008,68.3398 58.5,68.5C 57.7997,76.4236 58.4663,76.4236 60.5,68.5C 60.8333,68.6667 61.1667,68.8333 61.5,69C 60.991,71.6931 59.991,74.1931 58.5,76.5C 59.6446,77.891 59.6446,79.2243 58.5,80.5C 57.7492,79.624 57.2492,78.624 57,77.5C 52.5038,78.299 52.3371,77.4657 56.5,75C 55.9747,74.3076 55.3081,73.8076 54.5,73.5C 52.1625,75.0107 51.4958,74.6773 52.5,72.5C 51.3698,71.3777 50.7031,70.0443 50.5,68.5 Z"/></g>
<g><path style="opacity:1" fill="#af4216" d="M 63.5,74.5 C 65.1667,74.5 66.8333,74.5 68.5,74.5C 70.2161,74.6287 71.8828,74.962 73.5,75.5C 75.2517,75.4176 76.2517,76.2509 76.5,78C 76.2926,79.9497 75.2926,81.1164 73.5,81.5C 73.2542,78.5299 71.5876,77.1966 68.5,77.5C 66.8828,78.038 65.2161,78.3713 63.5,78.5C 63.5,77.1667 63.5,75.8333 63.5,74.5 Z"/></g>
<g><path style="opacity:1" fill="#aaa3a3" d="M 28.5,77.5 C 28.5,78.1667 28.5,78.8333 28.5,79.5C 28.2542,82.4701 26.5876,83.8034 23.5,83.5C 23.5,82.8333 23.5,82.1667 23.5,81.5C 23.3838,78.0897 25.0504,76.7564 28.5,77.5 Z"/></g>
<g><path style="opacity:1" fill="#b0a59e" d="M 68.5,77.5 C 71.5876,77.1966 73.2542,78.5299 73.5,81.5C 73.5,82.5 73.5,83.5 73.5,84.5C 70.6299,83.9219 68.9633,82.2552 68.5,79.5C 68.5,78.8333 68.5,78.1667 68.5,77.5 Z"/></g>
<g><path style="opacity:1" fill="#a4251a" d="M 28.5,79.5 C 31.0479,81.0378 31.0479,82.7044 28.5,84.5C 26.9505,85.4408 25.2838,86.1075 23.5,86.5C 22.7321,87.2625 22.2321,88.2625 22,89.5C 19.9299,86.8746 20.4299,84.8746 23.5,83.5C 26.5876,83.8034 28.2542,82.4701 28.5,79.5 Z"/></g>
<g><path style="opacity:1" fill="#9e2a19" d="M 53.5,65.5 C 51.8333,65.5 50.1667,65.5 48.5,65.5C 48.1774,69.226 48.5108,72.8927 49.5,76.5C 52.0715,77.7277 53.4048,79.7277 53.5,82.5C 56.8333,82.5 60.1667,82.5 63.5,82.5C 63.6655,86.5138 63.4988,90.5138 63,94.5C 61.5897,97.7892 59.0897,99.4559 55.5,99.5C 52.3257,98.9898 49.9923,97.3231 48.5,94.5C 48.8076,92.076 48.4742,89.7427 47.5,87.5C 46.5159,90.4281 46.1826,93.4281 46.5,96.5C 46.5,97.1667 46.1667,97.5 45.5,97.5C 45.5,93.5 45.5,89.5 45.5,85.5C 44.8826,85.3893 44.3826,85.056 44,84.5C 43.5008,89.1548 43.3342,93.8215 43.5,98.5C 43.44,99.0431 43.1067,99.3764 42.5,99.5C 41.1701,76.8723 40.5034,76.8723 40.5,99.5C 39.8333,99.5 39.1667,99.5 38.5,99.5C 38.8288,93.7945 38.4954,88.1278 37.5,82.5C 36.8332,87.6511 36.1665,92.6511 35.5,97.5C 34.8213,91.286 33.988,84.9527 33,78.5C 31.6439,77.6198 30.1439,77.2865 28.5,77.5C 25.0504,76.7564 23.3838,78.0897 23.5,81.5C 20.7564,80.9283 19.9231,79.2617 21,76.5C 21.6708,75.7476 22.5041,75.4142 23.5,75.5C 25.1172,74.962 26.7839,74.6287 28.5,74.5C 29.2216,74.9175 29.7216,75.5842 30,76.5C 31.0113,75.6634 32.1779,75.33 33.5,75.5C 33.5,72.1667 33.5,68.8333 33.5,65.5C 36.3854,65.8064 39.0521,65.4731 41.5,64.5C 45.9811,63.3516 50.6478,63.1849 55.5,64C 54.5842,64.2784 53.9175,64.7784 53.5,65.5 Z"/></g>
<g><path style="opacity:1" fill="#61555e" d="M 46.5,79.5 C 47.2189,81.0913 48.2189,82.5913 49.5,84C 48.9558,84.7172 48.2891,85.2172 47.5,85.5C 46.8333,85.5 46.1667,85.5 45.5,85.5C 43.8617,83.0445 44.195,81.0445 46.5,79.5 Z"/></g>
<g><path style="opacity:1" fill="#78631f" d="M 39.5,68.5 C 39.56,67.9569 39.8933,67.6236 40.5,67.5C 41.2811,68.7287 41.7811,70.062 42,71.5C 42.3173,69.6992 42.984,69.3659 44,70.5C 44.2256,73.095 44.7256,75.595 45.5,78C 43.7227,80.152 42.2227,79.9853 41,77.5C 39.7592,79.4206 38.2592,79.754 36.5,78.5C 37.0851,75.4973 37.7518,72.4973 38.5,69.5C 40.4325,70.6295 40.7658,70.2962 39.5,68.5 Z"/></g>
<g><path style="opacity:1" fill="#aa2e1b" d="M 68.5,79.5 C 68.9633,82.2552 70.6299,83.9219 73.5,84.5C 74.9953,84.4148 75.9953,85.0815 76.5,86.5C 76.1207,88.2131 75.1207,89.2131 73.5,89.5C 73.2542,86.5299 71.5876,85.1966 68.5,85.5C 67.4183,84.4062 66.7517,83.0729 66.5,81.5C 66.7472,80.2867 67.4138,79.62 68.5,79.5 Z"/></g>
<g><path style="opacity:1" fill="#27509b" d="M 46.5,79.5 C 47.6009,78.4017 48.9343,78.235 50.5,79C 49.9781,79.5613 49.6448,80.228 49.5,81C 50.1667,81.6667 50.8333,82.3333 51.5,83C 50.8179,85.6001 49.4845,86.4335 47.5,85.5C 48.2891,85.2172 48.9558,84.7172 49.5,84C 48.2189,82.5913 47.2189,81.0913 46.5,79.5 Z"/></g>
<g><path style="opacity:1" fill="#bfb9b0" d="M 68.5,85.5 C 71.5876,85.1966 73.2542,86.5299 73.5,89.5C 73.5,90.8333 73.5,92.1667 73.5,93.5C 71.8333,93.5 70.1667,93.5 68.5,93.5C 68.5,90.8333 68.5,88.1667 68.5,85.5 Z"/></g>
<g><path style="opacity:1" fill="#af790c" d="M 45.5,85.5 C 45.5,89.5 45.5,93.5 45.5,97.5C 45.1583,98.3382 44.4916,98.6716 43.5,98.5C 43.3342,93.8215 43.5008,89.1548 44,84.5C 44.3826,85.056 44.8826,85.3893 45.5,85.5 Z"/></g>
<g><path style="opacity:1" fill="#b3b0ad" d="M 28.5,84.5 C 28.5,87.5 28.5,90.5 28.5,93.5C 26.8333,93.5 25.1667,93.5 23.5,93.5C 23.5,91.1667 23.5,88.8333 23.5,86.5C 25.2838,86.1075 26.9505,85.4408 28.5,84.5 Z"/></g>
<g><path style="opacity:1" fill="#a38308" d="M 48.5,94.5 C 47.8333,95.1667 47.1667,95.8333 46.5,96.5C 46.1826,93.4281 46.5159,90.4281 47.5,87.5C 48.4742,89.7427 48.8076,92.076 48.5,94.5 Z"/></g>
<g><path style="opacity:1" fill="#ba6c0f" d="M 52.5,95.5 C 50.88,94.1591 49.88,92.3258 49.5,90C 50.3617,87.2656 51.195,87.0989 52,89.5C 52.3176,87.9391 53.1509,86.7724 54.5,86C 52.6992,85.6827 52.3659,85.016 53.5,84C 54.448,83.5172 55.448,83.3505 56.5,83.5C 56.3433,84.8734 56.51,86.2068 57,87.5C 58.6883,86.6753 58.8549,85.6753 57.5,84.5C 58.6888,83.5713 60.0222,83.238 61.5,83.5C 61.8537,87.6372 61.3537,91.6372 60,95.5C 57.2933,98.0589 54.7933,98.0589 52.5,95.5 Z"/></g>
<g><path style="opacity:1" fill="#a48c01" d="M 38.5,99.5 C 37.2905,99.0679 36.2905,98.4013 35.5,97.5C 36.1665,92.6511 36.8332,87.6511 37.5,82.5C 38.4954,88.1278 38.8288,93.7945 38.5,99.5 Z"/></g>
<g><path style="opacity:1" fill="#b54314" d="M 52.5,95.5 C 51.962,93.8828 51.6287,92.2161 51.5,90.5C 52.8333,90.5 54.1667,90.5 55.5,90.5C 54.7437,92.6133 54.5771,94.6133 55,96.5C 54.3292,95.7476 53.4959,95.4142 52.5,95.5 Z"/></g>
<g><path style="opacity:1" fill="#587790" d="M 21.5,96.5 C 24.5,96.5 27.5,96.5 30.5,96.5C 30.5,97.8333 30.5,99.1667 30.5,100.5C 27.5,100.5 24.5,100.5 21.5,100.5C 21.5,99.1667 21.5,97.8333 21.5,96.5 Z"/></g>
<g><path style="opacity:1" fill="#56758c" d="M 66.5,96.5 C 69.5,96.5 72.5,96.5 75.5,96.5C 75.5,97.8333 75.5,99.1667 75.5,100.5C 72.5,100.5 69.5,100.5 66.5,100.5C 66.5,99.1667 66.5,97.8333 66.5,96.5 Z"/></g>
<g><path style="opacity:1" fill="#a99e72" d="M 43.5,98.5 C 44.4916,98.6716 45.1583,98.3382 45.5,97.5C 46.1667,97.5 46.5,97.1667 46.5,96.5C 47.1667,95.8333 47.8333,95.1667 48.5,94.5C 49.9923,97.3231 52.3257,98.9898 55.5,99.5C 53.7103,100.997 51.5437,101.664 49,101.5C 45.8844,101.511 43.051,100.845 40.5,99.5C 40.5034,76.8723 41.1701,76.8723 42.5,99.5C 43.1067,99.3764 43.44,99.0431 43.5,98.5 Z"/></g>
<g><path style="opacity:0.965" fill="#ad0e1f" d="M 9.5,112.5 C 11.1992,112.34 12.8659,112.506 14.5,113C 37.1141,143.536 66.4474,152.536 102.5,140C 115.905,134.263 126.571,125.263 134.5,113C 136.134,112.506 137.801,112.34 139.5,112.5C 127.163,132.499 109.497,144.832 86.5,149.5C 78.5,149.5 70.5,149.5 62.5,149.5C 39.5034,144.832 21.8367,132.499 9.5,112.5 Z"/></g>
<g><path style="opacity:1" fill="#c7141d" d="M 9.5,112.5 C 10.5676,111.566 11.901,111.232 13.5,111.5C 54.1667,111.5 94.8333,111.5 135.5,111.5C 137.099,111.232 138.432,111.566 139.5,112.5C 137.801,112.34 136.134,112.506 134.5,113C 126.571,125.263 115.905,134.263 102.5,140C 66.4474,152.536 37.1141,143.536 14.5,113C 12.8659,112.506 11.1992,112.34 9.5,112.5 Z"/></g>
</svg>
