<?xml version="1.0" encoding="UTF-8"?>
<!DOCTYPE svg PUBLIC "-//W3C//DTD SVG 1.1//EN" "http://www.w3.org/Graphics/SVG/1.1/DTD/svg11.dtd">
<svg xmlns="http://www.w3.org/2000/svg" version="1.1" width="150px" height="150px" style="shape-rendering:geometricPrecision; text-rendering:geometricPrecision; image-rendering:optimizeQuality; fill-rule:evenodd; clip-rule:evenodd" xmlns:xlink="http://www.w3.org/1999/xlink">
<g><path style="opacity:0.923" fill="#b41426" d="M 62.5,-0.5 C 70.5,-0.5 78.5,-0.5 86.5,-0.5C 115.304,5.2985 134.971,21.9652 145.5,49.5C 144.167,49.5 142.833,49.5 141.5,49.5C 141.167,49.5 140.833,49.5 140.5,49.5C 128.108,19.2833 105.441,3.94994 72.5,3.5C 41.4297,5.57358 19.763,20.9069 7.5,49.5C 6.16667,49.5 4.83333,49.5 3.5,49.5C 14.0292,21.9652 33.6959,5.2985 62.5,-0.5 Z"/></g>
<g><path style="opacity:1" fill="#cd1126" d="M 140.5,49.5 C 96.1667,49.5 51.8333,49.5 7.5,49.5C 19.763,20.9069 41.4297,5.57358 72.5,3.5C 105.441,3.94994 128.108,19.2833 140.5,49.5 Z"/></g>
<g><path style="opacity:0.971" fill="#dcb718" d="M 3.5,49.5 C 4.83333,49.5 6.16667,49.5 7.5,49.5C 2.23456,66.1792 2.23456,82.8459 7.5,99.5C 6.16667,99.5 4.83333,99.5 3.5,99.5C 1.9945,95.1247 0.661164,90.7914 -0.5,86.5C -0.5,78.5 -0.5,70.5 -0.5,62.5C 0.661164,58.2086 1.9945,53.8753 3.5,49.5 Z"/></g>
<g><path style="opacity:1" fill="#fbd015" d="M 7.5,49.5 C 51.8333,49.5 96.1667,49.5 140.5,49.5C 140.833,49.5 141.167,49.5 141.5,49.5C 146.806,66.153 146.806,82.8196 141.5,99.5C 124.5,99.5 107.5,99.5 90.5,99.5C 90.7373,98.209 90.404,97.209 89.5,96.5C 88.34,91.1863 86.6734,86.0197 84.5,81C 89.8025,77.0094 95.1358,73.0094 100.5,69C 93.8085,68.8309 87.1419,68.3309 80.5,67.5C 78.8948,61.6837 76.8948,56.0171 74.5,50.5C 72.2975,56.4409 70.2975,62.4409 68.5,68.5C 61.825,68.3337 55.1583,68.5004 48.5,69C 54.222,72.5228 59.5554,76.5228 64.5,81C 62.2889,86.3467 60.6222,91.8467 59.5,97.5C 42.4042,99.4644 25.0708,100.131 7.5,99.5C 2.23456,82.8459 2.23456,66.1792 7.5,49.5 Z"/></g>
<g><path style="opacity:0.946" fill="#dbb718" d="M 141.5,49.5 C 142.833,49.5 144.167,49.5 145.5,49.5C 147.006,53.8753 148.339,58.2086 149.5,62.5C 149.5,70.5 149.5,78.5 149.5,86.5C 148.339,90.7914 147.006,95.1247 145.5,99.5C 144.167,99.5 142.833,99.5 141.5,99.5C 146.806,82.8196 146.806,66.153 141.5,49.5 Z"/></g>
<g><path style="opacity:1" fill="#0b0701" d="M 89.5,96.5 C 89.5,97.1667 89.1667,97.5 88.5,97.5C 83.5731,94.5797 78.9065,91.2464 74.5,87.5C 70.0935,91.2464 65.4269,94.5797 60.5,97.5C 60.1667,97.5 59.8333,97.5 59.5,97.5C 60.6222,91.8467 62.2889,86.3467 64.5,81C 59.5554,76.5228 54.222,72.5228 48.5,69C 55.1583,68.5004 61.825,68.3337 68.5,68.5C 70.2975,62.4409 72.2975,56.4409 74.5,50.5C 76.8948,56.0171 78.8948,61.6837 80.5,67.5C 87.1419,68.3309 93.8085,68.8309 100.5,69C 95.1358,73.0094 89.8025,77.0094 84.5,81C 86.6734,86.0197 88.34,91.1863 89.5,96.5 Z"/></g>
<g><path style="opacity:1" fill="#f4ca15" d="M 88.5,97.5 C 88.6107,98.1174 88.944,98.6174 89.5,99C 79.5,99.6667 69.5,99.6667 59.5,99C 60.056,98.6174 60.3893,98.1174 60.5,97.5C 65.4269,94.5797 70.0935,91.2464 74.5,87.5C 78.9065,91.2464 83.5731,94.5797 88.5,97.5 Z"/></g>
<g><path style="opacity:0.922" fill="#05603b" d="M 3.5,99.5 C 4.83333,99.5 6.16667,99.5 7.5,99.5C 20.0966,128.968 42.4299,144.302 74.5,145.5C 106.57,144.302 128.903,128.968 141.5,99.5C 142.833,99.5 144.167,99.5 145.5,99.5C 134.971,127.035 115.304,143.702 86.5,149.5C 78.5,149.5 70.5,149.5 62.5,149.5C 33.6959,143.702 14.0292,127.035 3.5,99.5 Z"/></g>
<g><path style="opacity:1" fill="#006a3e" d="M 89.5,96.5 C 90.404,97.209 90.7373,98.209 90.5,99.5C 107.5,99.5 124.5,99.5 141.5,99.5C 128.903,128.968 106.57,144.302 74.5,145.5C 42.4299,144.302 20.0966,128.968 7.5,99.5C 25.0708,100.131 42.4042,99.4644 59.5,97.5C 59.8333,97.5 60.1667,97.5 60.5,97.5C 60.3893,98.1174 60.056,98.6174 59.5,99C 69.5,99.6667 79.5,99.6667 89.5,99C 88.944,98.6174 88.6107,98.1174 88.5,97.5C 89.1667,97.5 89.5,97.1667 89.5,96.5 Z"/></g>
</svg>
