<?xml version="1.0" encoding="UTF-8"?>
<!DOCTYPE svg PUBLIC "-//W3C//DTD SVG 1.1//EN" "http://www.w3.org/Graphics/SVG/1.1/DTD/svg11.dtd">
<svg xmlns="http://www.w3.org/2000/svg" version="1.1" width="150px" height="150px" style="shape-rendering:geometricPrecision; text-rendering:geometricPrecision; image-rendering:optimizeQuality; fill-rule:evenodd; clip-rule:evenodd" xmlns:xlink="http://www.w3.org/1999/xlink">
<g><path style="opacity:0.993" fill="#000000" d="M 62.5,-0.5 C 70.5,-0.5 78.5,-0.5 86.5,-0.5C 115.304,5.2985 134.971,21.9652 145.5,49.5C 144.167,49.5 142.833,49.5 141.5,49.5C 96.8333,49.5 52.1667,49.5 7.5,49.5C 6.16667,49.5 4.83333,49.5 3.5,49.5C 14.0292,21.9652 33.6959,5.2985 62.5,-0.5 Z"/></g>
<g><path style="opacity:0.972" fill="#c10406" d="M 3.5,49.5 C 4.83333,49.5 6.16667,49.5 7.5,49.5C 2.1999,66.1827 2.1999,82.8494 7.5,99.5C 6.16667,99.5 4.83333,99.5 3.5,99.5C 1.9945,95.1247 0.661164,90.7914 -0.5,86.5C -0.5,78.5 -0.5,70.5 -0.5,62.5C 0.661164,58.2086 1.9945,53.8753 3.5,49.5 Z"/></g>
<g><path style="opacity:1" fill="#dc0000" d="M 7.5,49.5 C 52.1667,49.5 96.8333,49.5 141.5,49.5C 146.74,66.1426 146.74,82.8093 141.5,99.5C 97.1667,99.5 52.8333,99.5 8.5,99.5C 8.16667,99.5 7.83333,99.5 7.5,99.5C 2.1999,82.8494 2.1999,66.1827 7.5,49.5 Z"/></g>
<g><path style="opacity:0.981" fill="#c10506" d="M 141.5,49.5 C 142.833,49.5 144.167,49.5 145.5,49.5C 147.006,53.8753 148.339,58.2086 149.5,62.5C 149.5,70.5 149.5,78.5 149.5,86.5C 148.339,90.7914 147.006,95.1247 145.5,99.5C 144.167,99.5 142.833,99.5 141.5,99.5C 146.74,82.8093 146.74,66.1426 141.5,49.5 Z"/></g>
<g><path style="opacity:0.937" fill="#dfb406" d="M 3.5,99.5 C 4.83333,99.5 6.16667,99.5 7.5,99.5C 7.83333,99.5 8.16667,99.5 8.5,99.5C 20.0632,128.538 41.5632,143.871 73,145.5C 105.684,144.747 128.518,129.414 141.5,99.5C 142.833,99.5 144.167,99.5 145.5,99.5C 134.971,127.035 115.304,143.702 86.5,149.5C 78.5,149.5 70.5,149.5 62.5,149.5C 33.6959,143.702 14.0292,127.035 3.5,99.5 Z"/></g>
<g><path style="opacity:1" fill="#fecd00" d="M 8.5,99.5 C 52.8333,99.5 97.1667,99.5 141.5,99.5C 128.518,129.414 105.684,144.747 73,145.5C 41.5632,143.871 20.0632,128.538 8.5,99.5 Z"/></g>
</svg>
