<?xml version="1.0" encoding="UTF-8"?>
<!DOCTYPE svg PUBLIC "-//W3C//DTD SVG 1.1//EN" "http://www.w3.org/Graphics/SVG/1.1/DTD/svg11.dtd">
<svg xmlns="http://www.w3.org/2000/svg" version="1.1" width="150px" height="150px" style="shape-rendering:geometricPrecision; text-rendering:geometricPrecision; image-rendering:optimizeQuality; fill-rule:evenodd; clip-rule:evenodd" xmlns:xlink="http://www.w3.org/1999/xlink">
<g><path style="opacity:0.935" fill="#05208d" d="M 62.5,-0.5 C 70.5,-0.5 78.5,-0.5 86.5,-0.5C 120.5,7.5 141.5,28.5 149.5,62.5C 149.5,66.5 149.5,70.5 149.5,74.5C 148.167,74.5 146.833,74.5 145.5,74.5C 143.491,39.0107 125.491,15.844 91.5,5C 48.242,-1.12602 19.4087,16.374 5,57.5C 3.8686,63.112 3.3686,68.7787 3.5,74.5C 2.16667,74.5 0.833333,74.5 -0.5,74.5C -0.5,70.5 -0.5,66.5 -0.5,62.5C 7.5,28.5 28.5,7.5 62.5,-0.5 Z"/></g>
<g><path style="opacity:1" fill="#00209e" d="M 145.5,74.5 C 129.833,74.5 114.167,74.5 98.5,74.5C 98.5,68.1667 98.5,61.8333 98.5,55.5C 82.5,55.5 66.5,55.5 50.5,55.5C 50.5,61.8333 50.5,68.1667 50.5,74.5C 34.8333,74.5 19.1667,74.5 3.5,74.5C 3.3686,68.7787 3.8686,63.112 5,57.5C 19.4087,16.374 48.242,-1.12602 91.5,5C 125.491,15.844 143.491,39.0107 145.5,74.5 Z"/></g>
<g><path style="opacity:1" fill="#c3c5df" d="M 98.5,74.5 C 98.1667,74.5 97.8333,74.5 97.5,74.5C 97.5,68.5 97.5,62.5 97.5,56.5C 90.0869,55.8721 83.0869,56.5388 76.5,58.5C 75.1667,59.8333 73.8333,59.8333 72.5,58.5C 73.0431,58.44 73.3764,58.1067 73.5,57.5C 66.1968,56.5027 58.8635,56.1694 51.5,56.5C 51.5,62.5 51.5,68.5 51.5,74.5C 51.1667,74.5 50.8333,74.5 50.5,74.5C 50.5,68.1667 50.5,61.8333 50.5,55.5C 66.5,55.5 82.5,55.5 98.5,55.5C 98.5,61.8333 98.5,68.1667 98.5,74.5 Z"/></g>
<g><path style="opacity:1" fill="#f6f5f3" d="M 72.5,58.5 C 69.4359,58.1437 66.7693,58.9771 64.5,61C 65.4061,64.1838 67.2394,65.0172 70,63.5C 70.4983,65.5444 71.665,66.8777 73.5,67.5C 73.6602,69.1992 73.4935,70.8659 73,72.5C 71.5861,71.5868 70.0861,71.5868 68.5,72.5C 67.1667,71.8333 66.1667,70.8333 65.5,69.5C 65.44,68.9569 65.1067,68.6236 64.5,68.5C 61.6115,70.5634 58.6115,72.3967 55.5,74C 57.1247,74.8525 57.4581,75.8525 56.5,77C 57.0944,77.4643 57.7611,77.631 58.5,77.5C 58.5,78.5 58.5,79.5 58.5,80.5C 57.2426,81.6226 57.5759,82.2893 59.5,82.5C 59.6309,83.3764 59.2975,84.0431 58.5,84.5C 56.1143,83.0116 55.4476,83.3449 56.5,85.5C 55.2196,86.9313 53.5529,87.5979 51.5,87.5C 51.3234,85.0194 52.3234,83.1861 54.5,82C 53.5509,81.3828 52.7175,81.5494 52,82.5C 51.5026,79.854 51.3359,77.1873 51.5,74.5C 51.5,68.5 51.5,62.5 51.5,56.5C 58.8635,56.1694 66.1968,56.5027 73.5,57.5C 73.3764,58.1067 73.0431,58.44 72.5,58.5 Z"/></g>
<g><path style="opacity:1" fill="#f4f3ef" d="M 97.5,74.5 C 97.6641,77.1873 97.4974,79.854 97,82.5C 96.2825,81.5494 95.4491,81.3828 94.5,82C 95.7282,82.779 96.7282,83.779 97.5,85C 97.4301,85.7648 97.0967,86.2648 96.5,86.5C 93.8333,86.1667 91.1667,85.8333 88.5,85.5C 88.5,84.5 88.5,83.5 88.5,82.5C 89.675,82.719 90.675,82.3857 91.5,81.5C 91.3764,80.8933 91.0431,80.56 90.5,80.5C 90.3601,78.8762 91.0267,77.7096 92.5,77C 91.944,76.6174 91.6107,76.1174 91.5,75.5C 92.2891,75.2172 92.9558,74.7172 93.5,74C 90.588,72.7604 87.9213,71.0937 85.5,69C 83.6493,68.2966 82.9826,68.4632 83.5,69.5C 82.8333,70.8333 81.8333,71.8333 80.5,72.5C 78.9139,71.5868 77.4139,71.5868 76,72.5C 75.5065,70.8659 75.3398,69.1992 75.5,67.5C 77.1733,66.657 78.34,65.3237 79,63.5C 81.7606,65.0172 83.5939,64.1838 84.5,61C 82.2853,58.2038 79.6186,57.3705 76.5,58.5C 83.0869,56.5388 90.0869,55.8721 97.5,56.5C 97.5,62.5 97.5,68.5 97.5,74.5 Z"/></g>
<g><path style="opacity:1" fill="#296a2d" d="M 75.5,67.5 C 74.8333,67.5 74.1667,67.5 73.5,67.5C 71.665,66.8777 70.4983,65.5444 70,63.5C 67.2394,65.0172 65.4061,64.1838 64.5,61C 66.7693,58.9771 69.4359,58.1437 72.5,58.5C 73.8333,59.8333 75.1667,59.8333 76.5,58.5C 79.6186,57.3705 82.2853,58.2038 84.5,61C 83.5939,64.1838 81.7606,65.0172 79,63.5C 78.34,65.3237 77.1733,66.657 75.5,67.5 Z"/></g>
<g><path style="opacity:1" fill="#1a3481" d="M 83.5,69.5 C 84.4778,69.811 85.1445,70.4777 85.5,71.5C 84.4756,72.8518 83.4756,74.1851 82.5,75.5C 81.391,75.4431 80.391,75.1098 79.5,74.5C 79.8333,73.8333 80.1667,73.1667 80.5,72.5C 81.8333,71.8333 82.8333,70.8333 83.5,69.5 Z"/></g>
<g><path style="opacity:1" fill="#30377c" d="M 65.5,69.5 C 66.1667,70.8333 67.1667,71.8333 68.5,72.5C 68.8333,73.1667 69.1667,73.8333 69.5,74.5C 69.4621,76.6361 68.7954,77.9694 67.5,78.5C 66.448,78.3505 65.448,78.5172 64.5,79C 65.756,79.4169 66.4226,80.2502 66.5,81.5C 63.9455,80.612 61.2788,80.2786 58.5,80.5C 58.5,79.5 58.5,78.5 58.5,77.5C 59.648,76.8359 60.9813,76.6692 62.5,77C 60.5794,75.7592 60.246,74.2592 61.5,72.5C 63.8375,74.0107 64.5042,73.6773 63.5,71.5C 63.8555,70.4777 64.5222,69.811 65.5,69.5 Z"/></g>
<g><path style="opacity:1" fill="#8a636c" d="M 91.5,75.5 C 90.0502,74.3424 89.0502,74.8424 88.5,77C 87.8333,77.6667 87.1667,77.6667 86.5,77C 88.4206,75.7592 88.754,74.2592 87.5,72.5C 86.0603,73.9524 84.3936,74.9524 82.5,75.5C 83.4756,74.1851 84.4756,72.8518 85.5,71.5C 85.1445,70.4777 84.4778,69.811 83.5,69.5C 82.9826,68.4632 83.6493,68.2966 85.5,69C 87.9213,71.0937 90.588,72.7604 93.5,74C 92.9558,74.7172 92.2891,75.2172 91.5,75.5 Z"/></g>
<g><path style="opacity:1" fill="#9d7177" d="M 65.5,69.5 C 64.5222,69.811 63.8555,70.4777 63.5,71.5C 64.5042,73.6773 63.8375,74.0107 61.5,72.5C 60.246,74.2592 60.5794,75.7592 62.5,77C 60.9813,76.6692 59.648,76.8359 58.5,77.5C 57.7611,77.631 57.0944,77.4643 56.5,77C 57.4581,75.8525 57.1247,74.8525 55.5,74C 58.6115,72.3967 61.6115,70.5634 64.5,68.5C 65.1067,68.6236 65.44,68.9569 65.5,69.5 Z"/></g>
<g><path style="opacity:1" fill="#c39833" d="M 73.5,67.5 C 74.1667,67.5 74.8333,67.5 75.5,67.5C 75.3398,69.1992 75.5065,70.8659 76,72.5C 77.4139,71.5868 78.9139,71.5868 80.5,72.5C 80.1667,73.1667 79.8333,73.8333 79.5,74.5C 77.1165,76.2467 75.4498,78.58 74.5,81.5C 73.5502,78.58 71.8835,76.2467 69.5,74.5C 69.1667,73.8333 68.8333,73.1667 68.5,72.5C 70.0861,71.5868 71.5861,71.5868 73,72.5C 73.4935,70.8659 73.6602,69.1992 73.5,67.5 Z"/></g>
<g><path style="opacity:0.95" fill="#b81232" d="M -0.5,74.5 C 0.833333,74.5 2.16667,74.5 3.5,74.5C 5.52115,110.027 23.5211,133.194 57.5,144C 96.3758,150.415 124.209,135.915 141,100.5C 144.238,92.1406 145.738,83.474 145.5,74.5C 146.833,74.5 148.167,74.5 149.5,74.5C 149.5,78.5 149.5,82.5 149.5,86.5C 141.5,120.5 120.5,141.5 86.5,149.5C 78.5,149.5 70.5,149.5 62.5,149.5C 28.5,141.5 7.5,120.5 -0.5,86.5C -0.5,82.5 -0.5,78.5 -0.5,74.5 Z"/></g>
<g><path style="opacity:1" fill="#d11033" d="M 3.5,74.5 C 19.1667,74.5 34.8333,74.5 50.5,74.5C 50.5,78.8333 50.5,83.1667 50.5,87.5C 50.5,89.5 50.5,91.5 50.5,93.5C 66.5,93.5 82.5,93.5 98.5,93.5C 98.5,91.8333 98.5,90.1667 98.5,88.5C 98.5,83.8333 98.5,79.1667 98.5,74.5C 114.167,74.5 129.833,74.5 145.5,74.5C 145.738,83.474 144.238,92.1406 141,100.5C 124.209,135.915 96.3758,150.415 57.5,144C 23.5211,133.194 5.52115,110.027 3.5,74.5 Z"/></g>
<g><path style="opacity:1" fill="#e79ba6" d="M 97.5,74.5 C 97.8333,74.5 98.1667,74.5 98.5,74.5C 98.5,79.1667 98.5,83.8333 98.5,88.5C 97.5,88.1667 96.8333,87.5 96.5,86.5C 97.0967,86.2648 97.4301,85.7648 97.5,85C 96.7282,83.779 95.7282,82.779 94.5,82C 95.4491,81.3828 96.2825,81.5494 97,82.5C 97.4974,79.854 97.6641,77.1873 97.5,74.5 Z"/></g>
<g><path style="opacity:1" fill="#37367d" d="M 91.5,75.5 C 91.6107,76.1174 91.944,76.6174 92.5,77C 91.0267,77.7096 90.3601,78.8762 90.5,80.5C 87.8806,80.2317 85.3806,80.565 83,81.5C 82.7216,80.5842 82.2216,79.9175 81.5,79.5C 81.4326,78.0413 81.7659,76.7079 82.5,75.5C 84.3936,74.9524 86.0603,73.9524 87.5,72.5C 88.754,74.2592 88.4206,75.7592 86.5,77C 87.1667,77.6667 87.8333,77.6667 88.5,77C 89.0502,74.8424 90.0502,74.3424 91.5,75.5 Z"/></g>
<g><path style="opacity:1" fill="#6b825c" d="M 67.5,78.5 C 68.3382,78.8417 68.6716,79.5084 68.5,80.5C 68.1583,81.3382 67.4916,81.6716 66.5,81.5C 66.4226,80.2502 65.756,79.4169 64.5,79C 65.448,78.5172 66.448,78.3505 67.5,78.5 Z"/></g>
<g><path style="opacity:1" fill="#bd3e22" d="M 69.5,74.5 C 71.8835,76.2467 73.5502,78.58 74.5,81.5C 75.4498,78.58 77.1165,76.2467 79.5,74.5C 80.391,75.1098 81.391,75.4431 82.5,75.5C 81.7659,76.7079 81.4326,78.0413 81.5,79.5C 77.0888,80.6474 76.7554,82.1474 80.5,84C 79.944,84.3826 79.6107,84.8826 79.5,85.5C 78.209,85.2627 77.209,85.596 76.5,86.5C 75.2976,87.4054 73.9643,87.4054 72.5,86.5C 71.1917,85.7677 69.8584,84.9344 68.5,84C 69.3279,83.0853 70.3279,82.4186 71.5,82C 70.4734,81.4867 69.4734,80.9867 68.5,80.5C 68.6716,79.5084 68.3382,78.8417 67.5,78.5C 68.7954,77.9694 69.4621,76.6361 69.5,74.5 Z"/></g>
<g><path style="opacity:1" fill="#e7909c" d="M 50.5,74.5 C 50.8333,74.5 51.1667,74.5 51.5,74.5C 51.3359,77.1873 51.5026,79.854 52,82.5C 52.7175,81.5494 53.5509,81.3828 54.5,82C 52.3234,83.1861 51.3234,85.0194 51.5,87.5C 51.1667,87.5 50.8333,87.5 50.5,87.5C 50.5,83.1667 50.5,78.8333 50.5,74.5 Z"/></g>
<g><path style="opacity:1" fill="#b4891f" d="M 58.5,80.5 C 61.2788,80.2786 63.9455,80.612 66.5,81.5C 67.4916,81.6716 68.1583,81.3382 68.5,80.5C 69.4734,80.9867 70.4734,81.4867 71.5,82C 70.3279,82.4186 69.3279,83.0853 68.5,84C 69.8584,84.9344 71.1917,85.7677 72.5,86.5C 71.0357,87.4054 69.7024,87.4054 68.5,86.5C 65.7469,84.7301 62.7469,83.3968 59.5,82.5C 57.5759,82.2893 57.2426,81.6226 58.5,80.5 Z"/></g>
<g><path style="opacity:1" fill="#9a8e87" d="M 72.5,82.5 C 73.9778,82.238 75.3112,82.5713 76.5,83.5C 75.8333,83.8333 75.1667,84.1667 74.5,84.5C 73.2867,84.2528 72.62,83.5862 72.5,82.5 Z"/></g>
<g><path style="opacity:1" fill="#b9881b" d="M 81.5,79.5 C 82.2216,79.9175 82.7216,80.5842 83,81.5C 85.3806,80.565 87.8806,80.2317 90.5,80.5C 91.0431,80.56 91.3764,80.8933 91.5,81.5C 90.675,82.3857 89.675,82.719 88.5,82.5C 85.7336,84.0707 82.7336,85.0707 79.5,85.5C 79.6107,84.8826 79.944,84.3826 80.5,84C 76.7554,82.1474 77.0888,80.6474 81.5,79.5 Z"/></g>
<g><path style="opacity:1" fill="#7a7941" d="M 59.5,82.5 C 62.7469,83.3968 65.7469,84.7301 68.5,86.5C 67.9045,89.1125 67.0712,89.1125 66,86.5C 64.6667,87.8333 63.3333,87.8333 62,86.5C 61.6924,87.3081 61.1924,87.9747 60.5,88.5C 59.2888,87.7261 59.2888,86.8928 60.5,86C 59.2068,85.51 57.8734,85.3433 56.5,85.5C 55.4476,83.3449 56.1143,83.0116 58.5,84.5C 59.2975,84.0431 59.6309,83.3764 59.5,82.5 Z"/></g>
<g><path style="opacity:1" fill="#707931" d="M 88.5,82.5 C 88.5,83.5 88.5,84.5 88.5,85.5C 88.9528,86.4584 89.6195,87.2917 90.5,88C 88.892,88.658 87.7253,88.158 87,86.5C 85.6976,87.0848 84.531,87.7515 83.5,88.5C 80.9242,88.5321 78.5909,87.8654 76.5,86.5C 77.209,85.596 78.209,85.2627 79.5,85.5C 82.7336,85.0707 85.7336,84.0707 88.5,82.5 Z"/></g>
<g><path style="opacity:1" fill="#2b6720" d="M 56.5,85.5 C 57.8734,85.3433 59.2068,85.51 60.5,86C 59.2888,86.8928 59.2888,87.7261 60.5,88.5C 61.1924,87.9747 61.6924,87.3081 62,86.5C 63.3333,87.8333 64.6667,87.8333 66,86.5C 67.0712,89.1125 67.9045,89.1125 68.5,86.5C 69.7024,87.4054 71.0357,87.4054 72.5,86.5C 73.9643,87.4054 75.2976,87.4054 76.5,86.5C 78.5909,87.8654 80.9242,88.5321 83.5,88.5C 84.531,87.7515 85.6976,87.0848 87,86.5C 87.7253,88.158 88.892,88.658 90.5,88C 89.6195,87.2917 88.9528,86.4584 88.5,85.5C 91.1667,85.8333 93.8333,86.1667 96.5,86.5C 96.8333,87.5 97.5,88.1667 98.5,88.5C 98.5,90.1667 98.5,91.8333 98.5,93.5C 82.5,93.5 66.5,93.5 50.5,93.5C 50.5,91.5 50.5,89.5 50.5,87.5C 50.8333,87.5 51.1667,87.5 51.5,87.5C 53.5529,87.5979 55.2196,86.9313 56.5,85.5 Z"/></g>
<g><path style="opacity:1" fill="#adb9ae" d="M 83.5,88.5 C 86.5623,88.8442 89.5623,89.5109 92.5,90.5C 91.6667,90.8333 90.8333,91.1667 90,91.5C 78.8,91.6046 67.6334,91.4379 56.5,91C 58.9162,89.9371 61.4162,89.1037 64,88.5C 70.6463,91.1071 77.1463,91.1071 83.5,88.5 Z"/></g>
</svg>
