<?xml version="1.0" encoding="UTF-8"?>
<!DOCTYPE svg PUBLIC "-//W3C//DTD SVG 1.1//EN" "http://www.w3.org/Graphics/SVG/1.1/DTD/svg11.dtd">
<svg xmlns="http://www.w3.org/2000/svg" version="1.1" width="150px" height="150px" style="shape-rendering:geometricPrecision; text-rendering:geometricPrecision; image-rendering:optimizeQuality; fill-rule:evenodd; clip-rule:evenodd" xmlns:xlink="http://www.w3.org/1999/xlink">
<g><path style="opacity:0.919" fill="#278e3e" d="M 62.5,-0.5 C 70.5,-0.5 78.5,-0.5 86.5,-0.5C 112.188,4.67854 130.855,19.0119 142.5,42.5C 139.813,42.6641 137.146,42.4974 134.5,42C 135.5,41.6667 136.5,41.3333 137.5,41C 119.043,11.1101 92.3762,-0.889911 57.5,5C 36.9726,10.7471 21.6392,22.9138 11.5,41.5C 11.4622,48.0414 10.7955,48.0414 9.5,41.5C 8.4763,42.8532 7.14297,43.5198 5.5,43.5C 17.3188,19.4351 36.3188,4.76842 62.5,-0.5 Z"/></g>
<g><path style="opacity:1" fill="#2ca144" d="M 142.5,42.5 C 143.167,42.5 143.5,42.8333 143.5,43.5C 140.887,44.0955 140.887,44.9288 143.5,46C 142.552,46.4828 141.552,46.6495 140.5,46.5C 140.5,45.5 140.5,44.5 140.5,43.5C 138.5,43.5 136.5,43.5 134.5,43.5C 134.5,44.8333 134.5,46.1667 134.5,47.5C 137.833,47.5 141.167,47.5 144.5,47.5C 145.404,48.209 145.737,49.209 145.5,50.5C 143.785,49.3426 141.785,48.6759 139.5,48.5C 137.36,48.5561 135.694,49.2227 134.5,50.5C 132.616,49.3248 130.449,48.6582 128,48.5C 125.698,48.6004 123.698,49.267 122,50.5C 120.302,49.267 118.302,48.6004 116,48.5C 113.698,48.6004 111.698,49.267 110,50.5C 108.475,49.2799 106.641,48.6132 104.5,48.5C 102.285,48.6705 100.285,49.3372 98.5,50.5C 94.5,47.8333 90.5,47.8333 86.5,50.5C 82.5,47.8333 78.5,47.8333 74.5,50.5C 70.5,47.8333 66.5,47.8333 62.5,50.5C 60.7148,49.3372 58.7148,48.6705 56.5,48.5C 54.3587,48.6132 52.5253,49.2799 51,50.5C 49.3023,49.267 47.3023,48.6004 45,48.5C 42.6977,48.6004 40.6977,49.267 39,50.5C 37.4747,49.2799 35.6413,48.6132 33.5,48.5C 30.9886,48.288 28.8219,48.9546 27,50.5C 25.4747,49.2799 23.6413,48.6132 21.5,48.5C 19.2852,48.6705 17.2852,49.3372 15.5,50.5C 14.8933,50.3764 14.56,50.0431 14.5,49.5C 11.0381,48.5184 7.37141,48.185 3.5,48.5C 3.5,47.8333 3.83333,47.5 4.5,47.5C 5.55198,47.6495 6.55198,47.4828 7.5,47C 6.30441,46.3457 6.30441,45.8457 7.5,45.5C 9.86755,47.223 12.5342,47.8897 15.5,47.5C 15.2567,40.4308 14.4234,40.0974 13,46.5C 12.8019,44.6183 12.3019,42.9516 11.5,41.5C 21.6392,22.9138 36.9726,10.7471 57.5,5C 92.3762,-0.889911 119.043,11.1101 137.5,41C 136.5,41.3333 135.5,41.6667 134.5,42C 137.146,42.4974 139.813,42.6641 142.5,42.5 Z"/></g>
<g><path style="opacity:1" fill="#b4debd" d="M 126.5,41.5 C 128.117,42.5893 128.95,44.256 129,46.5C 129.667,39.8333 130.333,39.8333 131,46.5C 132.423,40.0974 133.257,40.4308 133.5,47.5C 130.639,47.6584 127.972,46.9917 125.5,45.5C 122.937,45.737 122.937,46.237 125.5,47C 124.552,47.4828 123.552,47.6495 122.5,47.5C 122.5,46.1667 122.5,44.8333 122.5,43.5C 124.483,43.8432 125.817,43.1765 126.5,41.5 Z"/></g>
<g><path style="opacity:1" fill="#a6cdaf" d="M 11.5,41.5 C 12.3019,42.9516 12.8019,44.6183 13,46.5C 14.4234,40.0974 15.2567,40.4308 15.5,47.5C 12.5342,47.8897 9.86755,47.223 7.5,45.5C 6.30441,45.8457 6.30441,46.3457 7.5,47C 6.55198,47.4828 5.55198,47.6495 4.5,47.5C 4.83333,46.1667 5.16667,44.8333 5.5,43.5C 7.14297,43.5198 8.4763,42.8532 9.5,41.5C 10.7955,48.0414 11.4622,48.0414 11.5,41.5 Z"/></g>
<g><path style="opacity:1" fill="#b1ddba" d="M 16.5,43.5 C 19.5959,42.9066 21.9292,43.9066 23.5,46.5C 24.5063,46.0623 24.5063,45.3957 23.5,44.5C 24.325,43.6143 25.325,43.281 26.5,43.5C 26.5,44.8333 26.5,46.1667 26.5,47.5C 24.5,47.5 22.5,47.5 20.5,47.5C 20.5,46.5 20.5,45.5 20.5,44.5C 19.5,44.5 18.5,44.5 17.5,44.5C 16.9553,48.1716 16.6219,47.8383 16.5,43.5 Z"/></g>
<g><path style="opacity:1" fill="#a8d8b1" d="M 39.5,43.5 C 41.5,43.5 43.5,43.5 45.5,43.5C 45.5,44.5 45.5,45.5 45.5,46.5C 48.7181,46.3491 49.0515,45.5158 46.5,44C 47.448,43.5172 48.448,43.3505 49.5,43.5C 49.5,44.8333 49.5,46.1667 49.5,47.5C 47.1432,47.6633 44.8098,47.4966 42.5,47C 43.6956,46.3457 43.6956,45.8457 42.5,45.5C 40.2864,47.9238 39.2864,47.2571 39.5,43.5 Z"/></g>
<g><path style="opacity:1" fill="#b0dcb9" d="M 63.5,43.5 C 65.5,43.5 67.5,43.5 69.5,43.5C 69.5,44.5 69.5,45.5 69.5,46.5C 72.7973,46.6713 73.1306,46.0046 70.5,44.5C 71.325,43.6143 72.325,43.281 73.5,43.5C 73.5,44.8333 73.5,46.1667 73.5,47.5C 70.979,47.5603 68.6457,46.8936 66.5,45.5C 65.3527,45.8178 64.5194,46.4844 64,47.5C 63.51,46.2068 63.3433,44.8734 63.5,43.5 Z"/></g>
<g><path style="opacity:1" fill="#cbe8d1" d="M 79.5,41.5 C 80.8638,47.8574 82.0304,47.8574 83,41.5C 83.6667,48.1667 84.3333,48.1667 85,41.5C 85.4955,43.4727 85.6621,45.4727 85.5,47.5C 82.7562,47.7521 80.2562,47.0855 78,45.5C 76.2382,45.9444 76.4049,46.4444 78.5,47C 77.552,47.4828 76.552,47.6495 75.5,47.5C 75.5,46.1667 75.5,44.8333 75.5,43.5C 77.4832,43.8432 78.8166,43.1765 79.5,41.5 Z"/></g>
<g><path style="opacity:1" fill="#b1ddba" d="M 87.5,43.5 C 90.5959,42.9066 92.9292,43.9066 94.5,46.5C 95.5063,46.0623 95.5063,45.3957 94.5,44.5C 95.325,43.6143 96.325,43.281 97.5,43.5C 97.5,44.8333 97.5,46.1667 97.5,47.5C 95.5,47.5 93.5,47.5 91.5,47.5C 91.5,46.5 91.5,45.5 91.5,44.5C 90.5,44.5 89.5,44.5 88.5,44.5C 87.9553,48.1716 87.6219,47.8383 87.5,43.5 Z"/></g>
<g><path style="opacity:1" fill="#9dcda7" d="M 143.5,43.5 C 144.234,44.7079 144.567,46.0413 144.5,47.5C 141.167,47.5 137.833,47.5 134.5,47.5C 134.5,46.1667 134.5,44.8333 134.5,43.5C 136.5,43.5 138.5,43.5 140.5,43.5C 140.5,44.5 140.5,45.5 140.5,46.5C 141.552,46.6495 142.552,46.4828 143.5,46C 140.887,44.9288 140.887,44.0955 143.5,43.5 Z"/></g>
<g><path style="opacity:1" fill="#c4e5cb" d="M 32.5,41.5 C 33.3019,42.9516 33.8019,44.6183 34,46.5C 35,39.8333 36,39.8333 37,46.5C 37.9812,40.136 38.4812,40.4694 38.5,47.5C 35.7562,47.7521 33.2562,47.0855 31,45.5C 29.2785,45.6107 29.1118,46.1107 30.5,47C 29.552,47.4828 28.552,47.6495 27.5,47.5C 27.5,46.1667 27.5,44.8333 27.5,43.5C 29.7812,43.9227 31.4479,43.256 32.5,41.5 Z"/></g>
<g><path style="opacity:1" fill="#c0e3c7" d="M 55.5,41.5 C 57.1171,42.5893 57.9504,44.256 58,46.5C 58.6667,39.8333 59.3333,39.8333 60,46.5C 61.4234,40.0974 62.2567,40.4308 62.5,47.5C 59.4284,47.8125 56.595,47.1458 54,45.5C 52.2382,45.9444 52.4049,46.4444 54.5,47C 53.552,47.4828 52.552,47.6495 51.5,47.5C 51.5,46.1667 51.5,44.8333 51.5,43.5C 53.4832,43.8432 54.8166,43.1765 55.5,41.5 Z"/></g>
<g><path style="opacity:1" fill="#c4e5ca" d="M 103.5,41.5 C 104.302,42.9516 104.802,44.6183 105,46.5C 106,39.8333 107,39.8333 108,46.5C 108.981,40.136 109.481,40.4694 109.5,47.5C 106.756,47.7521 104.256,47.0855 102,45.5C 100.278,45.6107 100.112,46.1107 101.5,47C 100.552,47.4828 99.552,47.6495 98.5,47.5C 98.5,46.1667 98.5,44.8333 98.5,43.5C 100.781,43.9227 102.448,43.256 103.5,41.5 Z"/></g>
<g><path style="opacity:1" fill="#d2ebd7" d="M 111.5,43.5 C 113.167,43.5 114.833,43.5 116.5,43.5C 116.5,44.5 116.5,45.5 116.5,46.5C 117.675,46.719 118.675,46.3857 119.5,45.5C 118.494,44.6043 118.494,43.9377 119.5,43.5C 120.429,44.6888 120.762,46.0222 120.5,47.5C 118.088,47.6695 115.921,47.0028 114,45.5C 113.055,45.9054 112.388,46.572 112,47.5C 111.51,46.2068 111.343,44.8734 111.5,43.5 Z"/></g>
<g><path style="opacity:0.903" fill="#dddcdb" d="M 3.5,48.5 C 7.37141,48.185 11.0381,48.5184 14.5,49.5C 12.076,49.1924 9.74269,49.5258 7.5,50.5C 2.16887,66.8593 2.16887,83.1927 7.5,99.5C 9.83333,99.5 12.1667,99.5 14.5,99.5C 10.9351,100.787 7.26842,100.787 3.5,99.5C 1.9945,95.1247 0.661164,90.7914 -0.5,86.5C -0.5,78.5 -0.5,70.5 -0.5,62.5C 0.810971,57.9374 2.1443,53.2707 3.5,48.5 Z"/></g>
<g><path style="opacity:1" fill="#fdfbfa" d="M 134.5,50.5 C 137.316,48.835 139.816,49.1683 142,51.5C 146.639,66.8197 146.639,82.153 142,97.5C 141.161,98.6241 139.994,99.2908 138.5,99.5C 136.592,98.8639 134.925,98.8639 133.5,99.5C 93.9296,99.7371 54.2629,99.7371 14.5,99.5C 12.1667,99.5 9.83333,99.5 7.5,99.5C 2.16887,83.1927 2.16887,66.8593 7.5,50.5C 9.74269,49.5258 12.076,49.1924 14.5,49.5C 14.56,50.0431 14.8933,50.3764 15.5,50.5C 17.2852,49.3372 19.2852,48.6705 21.5,48.5C 23.6413,48.6132 25.4747,49.2799 27,50.5C 28.8219,48.9546 30.9886,48.288 33.5,48.5C 35.6413,48.6132 37.4747,49.2799 39,50.5C 40.6977,49.267 42.6977,48.6004 45,48.5C 47.3023,48.6004 49.3023,49.267 51,50.5C 52.5253,49.2799 54.3587,48.6132 56.5,48.5C 58.7148,48.6705 60.7148,49.3372 62.5,50.5C 66.5,47.8333 70.5,47.8333 74.5,50.5C 78.5,47.8333 82.5,47.8333 86.5,50.5C 90.5,47.8333 94.5,47.8333 98.5,50.5C 100.285,49.3372 102.285,48.6705 104.5,48.5C 106.641,48.6132 108.475,49.2799 110,50.5C 111.698,49.267 113.698,48.6004 116,48.5C 118.302,48.6004 120.302,49.267 122,50.5C 123.698,49.267 125.698,48.6004 128,48.5C 130.449,48.6582 132.616,49.3248 134.5,50.5 Z"/></g>
<g><path style="opacity:0.903" fill="#dedcda" d="M 145.5,50.5 C 147.143,54.4086 148.476,58.4086 149.5,62.5C 149.5,70.5 149.5,78.5 149.5,86.5C 148.339,90.7914 147.006,95.1247 145.5,99.5C 141.5,100.833 137.5,100.833 133.5,99.5C 134.925,98.8639 136.592,98.8639 138.5,99.5C 139.994,99.2908 141.161,98.6241 142,97.5C 146.639,82.153 146.639,66.8197 142,51.5C 139.816,49.1683 137.316,48.835 134.5,50.5C 135.694,49.2227 137.36,48.5561 139.5,48.5C 141.785,48.6759 143.785,49.3426 145.5,50.5 Z"/></g>
<g><path style="opacity:1" fill="#de281b" d="M 82.5,92.5 C 80.5,93.1667 78.5,93.8333 76.5,94.5C 75.1667,97.1667 73.8333,97.1667 72.5,94.5C 70.1667,93.8333 67.8333,93.1667 65.5,92.5C 67.1992,92.6602 68.8659,92.4935 70.5,92C 57.8116,82.3252 56.3116,71.1586 66,58.5C 62.4515,66.8646 62.7849,75.1979 67,83.5C 68.0391,84.7101 69.2058,85.7101 70.5,86.5C 70.56,87.0431 70.8933,87.3764 71.5,87.5C 72.4984,77.8563 72.8318,68.1896 72.5,58.5C 72.6107,57.8826 72.944,57.3826 73.5,57C 72.1667,56.6667 70.8333,56.3333 69.5,56C 68.2888,55.1072 68.2888,54.2739 69.5,53.5C 72.7108,53.6225 75.8775,53.6225 79,53.5C 79.4828,54.448 79.6495,55.448 79.5,56.5C 78.1266,56.3433 76.7932,56.51 75.5,57C 76,57.5 76.5,58 77,58.5C 77.3333,68.1667 77.6667,77.8333 78,87.5C 84.5003,81.179 86.8337,73.5123 85,64.5C 83.6989,62.5979 83.0322,60.5979 83,58.5C 92.4465,70.5974 91.2799,81.5974 79.5,91.5C 80.325,92.3857 81.325,92.719 82.5,92.5 Z"/></g>
<g><path style="opacity:1" fill="#de241a" d="M 62.5,57.5 C 63.2389,57.369 63.9056,57.5357 64.5,58C 54.2385,66.7562 52.9051,76.7562 60.5,88C 58.6133,88.1626 57.1133,87.3293 56,85.5C 49.5291,73.8708 51.6958,64.5375 62.5,57.5 Z"/></g>
<g><path style="opacity:1" fill="#de251b" d="M 84.5,58.5 C 89.8982,58.8527 93.7315,61.8527 96,67.5C 97.9298,75.8718 95.7632,82.8718 89.5,88.5C 89.1667,88.3333 88.8333,88.1667 88.5,88C 95.283,78.7413 95.1164,69.5746 88,60.5C 86.8873,59.695 85.7206,59.0283 84.5,58.5 Z"/></g>
<g><path style="opacity:1" fill="#ec7e7d" d="M 72.5,58.5 C 72.8318,68.1896 72.4984,77.8563 71.5,87.5C 70.8933,87.3764 70.56,87.0431 70.5,86.5C 71.1667,77.1667 71.8333,67.8333 72.5,58.5 Z"/></g>
<g><path style="opacity:1" fill="#ed8686" d="M 65.5,92.5 C 67.8333,93.1667 70.1667,93.8333 72.5,94.5C 68.6249,94.9155 64.9582,94.4155 61.5,93C 62.7932,92.51 64.1266,92.3433 65.5,92.5 Z"/></g>
<g><path style="opacity:1" fill="#ed8585" d="M 82.5,92.5 C 84.1992,92.3398 85.8659,92.5065 87.5,93C 84.0418,94.4155 80.3751,94.9155 76.5,94.5C 78.5,93.8333 80.5,93.1667 82.5,92.5 Z"/></g>
<g><path style="opacity:1" fill="#db150a" d="M 3.5,99.5 C 7.26842,100.787 10.9351,100.787 14.5,99.5C 54.2629,99.7371 93.9296,99.7371 133.5,99.5C 137.5,100.833 141.5,100.833 145.5,99.5C 145.107,101.284 144.441,102.95 143.5,104.5C 142.25,104.577 141.417,105.244 141,106.5C 139.246,104.75 137.079,104.083 134.5,104.5C 134.232,106.099 134.566,107.432 135.5,108.5C 136.043,108.56 136.376,108.893 136.5,109.5C 122.483,132.845 101.816,144.845 74.5,145.5C 46.6696,144.927 26.003,132.594 12.5,108.5C 13.5,108.5 14.5,108.5 15.5,108.5C 15.2567,101.431 14.4234,101.097 13,107.5C 12.3333,100.833 11.6667,100.833 11,107.5C 10.7978,105.744 10.2978,104.078 9.5,102.5C 8.4763,103.853 7.14297,104.52 5.5,104.5C 4.46253,103.07 3.79586,101.403 3.5,99.5 Z"/></g>
<g><path style="opacity:1" fill="#ebaaa8" d="M 12.5,108.5 C 11.5,108.5 10.5,108.5 9.5,108.5C 9.5,107.5 9.5,106.5 9.5,105.5C 8.16667,105.5 6.83333,105.5 5.5,105.5C 5.5,105.167 5.5,104.833 5.5,104.5C 7.14297,104.52 8.4763,103.853 9.5,102.5C 10.2978,104.078 10.7978,105.744 11,107.5C 11.6667,100.833 12.3333,100.833 13,107.5C 14.4234,101.097 15.2567,101.431 15.5,108.5C 14.5,108.5 13.5,108.5 12.5,108.5 Z"/></g>
<g><path style="opacity:1" fill="#f5b6b5" d="M 16.5,104.5 C 19.4082,104.262 21.7415,105.262 23.5,107.5C 24.7112,106.726 24.7112,105.893 23.5,105C 24.448,104.517 25.448,104.351 26.5,104.5C 26.5,105.833 26.5,107.167 26.5,108.5C 24.5,108.5 22.5,108.5 20.5,108.5C 20.5,107.5 20.5,106.5 20.5,105.5C 19.5,105.5 18.5,105.5 17.5,105.5C 16.9553,109.172 16.6219,108.838 16.5,104.5 Z"/></g>
<g><path style="opacity:1" fill="#f6bcbb" d="M 32.5,102.5 C 33.3019,103.952 33.8019,105.618 34,107.5C 35,100.833 36,100.833 37,107.5C 37.9812,101.136 38.4812,101.469 38.5,108.5C 36.5,108.5 34.5,108.5 32.5,108.5C 32.5,107.5 32.5,106.5 32.5,105.5C 31.325,105.281 30.325,105.614 29.5,106.5C 30.5063,107.396 30.5063,108.062 29.5,108.5C 28.5713,107.311 28.238,105.978 28.5,104.5C 30.4832,104.843 31.8166,104.176 32.5,102.5 Z"/></g>
<g><path style="opacity:1" fill="#f7caca" d="M 40.5,104.5 C 42.1667,104.5 43.8333,104.5 45.5,104.5C 45.5,105.5 45.5,106.5 45.5,107.5C 48.7181,107.349 49.0515,106.516 46.5,105C 47.448,104.517 48.448,104.351 49.5,104.5C 49.5,105.833 49.5,107.167 49.5,108.5C 47.8333,108.5 46.1667,108.5 44.5,108.5C 44.5,107.5 44.5,106.5 44.5,105.5C 42.8762,105.36 41.7096,106.027 41,107.5C 40.5172,106.552 40.3505,105.552 40.5,104.5 Z"/></g>
<g><path style="opacity:1" fill="#f6b4b2" d="M 55.5,102.5 C 57.1171,103.589 57.9504,105.256 58,107.5C 58.6667,100.833 59.3333,100.833 60,107.5C 61.4234,101.097 62.2567,101.431 62.5,108.5C 60.1667,108.5 57.8333,108.5 55.5,108.5C 55.5,107.5 55.5,106.5 55.5,105.5C 52.2819,105.651 51.9485,106.484 54.5,108C 53.552,108.483 52.552,108.649 51.5,108.5C 51.5,107.167 51.5,105.833 51.5,104.5C 53.4832,104.843 54.8166,104.176 55.5,102.5 Z"/></g>
<g><path style="opacity:1" fill="#f5b9b9" d="M 63.5,104.5 C 65.5,104.5 67.5,104.5 69.5,104.5C 69.5,105.5 69.5,106.5 69.5,107.5C 72.7181,107.349 73.0515,106.516 70.5,105C 71.448,104.517 72.448,104.351 73.5,104.5C 73.5,105.833 73.5,107.167 73.5,108.5C 71.8333,108.5 70.1667,108.5 68.5,108.5C 68.5,107.5 68.5,106.5 68.5,105.5C 67.1667,105.5 65.8333,105.5 64.5,105.5C 63.9553,109.172 63.6219,108.838 63.5,104.5 Z"/></g>
<g><path style="opacity:1" fill="#f7c3c3" d="M 79.5,102.5 C 80.8638,108.857 82.0304,108.857 83,102.5C 83.6667,109.167 84.3333,109.167 85,102.5C 85.4955,104.473 85.6621,106.473 85.5,108.5C 83.5,108.5 81.5,108.5 79.5,108.5C 79.5,107.5 79.5,106.5 79.5,105.5C 76.2819,105.651 75.9485,106.484 78.5,108C 77.552,108.483 76.552,108.649 75.5,108.5C 75.5,107.167 75.5,105.833 75.5,104.5C 77.4832,104.843 78.8166,104.176 79.5,102.5 Z"/></g>
<g><path style="opacity:1" fill="#f5b6b5" d="M 87.5,104.5 C 90.4082,104.262 92.7415,105.262 94.5,107.5C 95.7112,106.726 95.7112,105.893 94.5,105C 95.448,104.517 96.448,104.351 97.5,104.5C 97.5,105.833 97.5,107.167 97.5,108.5C 95.5,108.5 93.5,108.5 91.5,108.5C 91.5,107.5 91.5,106.5 91.5,105.5C 90.5,105.5 89.5,105.5 88.5,105.5C 87.9553,109.172 87.6219,108.838 87.5,104.5 Z"/></g>
<g><path style="opacity:1" fill="#f6bcbb" d="M 103.5,102.5 C 104.302,103.952 104.802,105.618 105,107.5C 106,100.833 107,100.833 108,107.5C 108.981,101.136 109.481,101.469 109.5,108.5C 107.5,108.5 105.5,108.5 103.5,108.5C 103.5,107.5 103.5,106.5 103.5,105.5C 102.325,105.281 101.325,105.614 100.5,106.5C 101.506,107.396 101.506,108.062 100.5,108.5C 99.5713,107.311 99.238,105.978 99.5,104.5C 101.483,104.843 102.817,104.176 103.5,102.5 Z"/></g>
<g><path style="opacity:1" fill="#f8cccc" d="M 111.5,104.5 C 113.167,104.5 114.833,104.5 116.5,104.5C 116.5,105.5 116.5,106.5 116.5,107.5C 119.718,107.349 120.051,106.516 117.5,105C 118.448,104.517 119.448,104.351 120.5,104.5C 120.5,105.833 120.5,107.167 120.5,108.5C 118.833,108.5 117.167,108.5 115.5,108.5C 115.5,107.5 115.5,106.5 115.5,105.5C 114.5,105.5 113.5,105.5 112.5,105.5C 111.955,109.172 111.622,108.838 111.5,104.5 Z"/></g>
<g><path style="opacity:1" fill="#f5b3b1" d="M 126.5,102.5 C 128.117,103.589 128.95,105.256 129,107.5C 129.667,100.833 130.333,100.833 131,107.5C 132.423,101.097 133.257,101.431 133.5,108.5C 131.5,108.5 129.5,108.5 127.5,108.5C 127.5,107.5 127.5,106.5 127.5,105.5C 126.022,105.238 124.689,105.571 123.5,106.5C 126.131,108.005 125.797,108.671 122.5,108.5C 122.5,107.167 122.5,105.833 122.5,104.5C 124.483,104.843 125.817,104.176 126.5,102.5 Z"/></g>
<g><path style="opacity:1" fill="#e19d99" d="M 143.5,104.5 C 143.34,106.153 142.674,107.486 141.5,108.5C 139.952,108.179 139.285,107.179 139.5,105.5C 138.167,105.5 136.833,105.5 135.5,105.5C 135.5,106.5 135.5,107.5 135.5,108.5C 134.566,107.432 134.232,106.099 134.5,104.5C 137.079,104.083 139.246,104.75 141,106.5C 141.417,105.244 142.25,104.577 143.5,104.5 Z"/></g>
<g><path style="opacity:0.942" fill="#bf0a08" d="M 5.5,105.5 C 6.83333,105.5 8.16667,105.5 9.5,105.5C 9.5,106.5 9.5,107.5 9.5,108.5C 10.5,108.5 11.5,108.5 12.5,108.5C 26.003,132.594 46.6696,144.927 74.5,145.5C 101.816,144.845 122.483,132.845 136.5,109.5C 136.376,108.893 136.043,108.56 135.5,108.5C 135.5,107.5 135.5,106.5 135.5,105.5C 136.833,105.5 138.167,105.5 139.5,105.5C 139.285,107.179 139.952,108.179 141.5,108.5C 129.719,130.947 111.385,144.614 86.5,149.5C 78.5,149.5 70.5,149.5 62.5,149.5C 36.3188,144.232 17.3188,129.565 5.5,105.5 Z"/></g>
</svg>
