<?xml version="1.0" encoding="UTF-8"?>
<!DOCTYPE svg PUBLIC "-//W3C//DTD SVG 1.1//EN" "http://www.w3.org/Graphics/SVG/1.1/DTD/svg11.dtd">
<svg xmlns="http://www.w3.org/2000/svg" version="1.1" width="150px" height="150px" style="shape-rendering:geometricPrecision; text-rendering:geometricPrecision; image-rendering:optimizeQuality; fill-rule:evenodd; clip-rule:evenodd" xmlns:xlink="http://www.w3.org/1999/xlink">
<g><path style="opacity:0.994" fill="#010000" d="M 62.5,-0.5 C 70.5,-0.5 78.5,-0.5 86.5,-0.5C 115.304,5.2985 134.971,21.9652 145.5,49.5C 144.167,49.5 142.833,49.5 141.5,49.5C 116.167,49.5 90.8333,49.5 65.5,49.5C 51.2939,42.2302 36.9605,35.2302 22.5,28.5C 21.0351,27.2632 19.3684,26.2632 17.5,25.5C 29.361,11.4028 44.361,2.73611 62.5,-0.5 Z"/></g>
<g><path style="opacity:0.94" fill="#de0e0a" d="M 17.5,25.5 C 19.3684,26.2632 21.0351,27.2632 22.5,28.5C 20.6096,28.2965 19.1096,28.9632 18,30.5C 9.52984,41.7389 4.69651,54.4056 3.5,68.5C 4.80978,70.1477 6.14311,71.8144 7.5,73.5C 2.13592,75.62 2.46925,76.9534 8.5,77.5C 8.37642,78.1067 8.04309,78.44 7.5,78.5C 6.43236,77.5655 5.09903,77.2322 3.5,77.5C 4.42206,93.1028 9.58873,107.103 19,119.5C 20.0113,120.337 21.1779,120.67 22.5,120.5C 22.5,121.167 22.1667,121.5 21.5,121.5C 20.1667,122.167 18.8333,122.833 17.5,123.5C 8.02269,112.878 2.02269,100.545 -0.5,86.5C -0.5,78.5 -0.5,70.5 -0.5,62.5C 2.06209,48.4727 8.06209,36.1394 17.5,25.5 Z"/></g>
<g><path style="opacity:1" fill="#fd0301" d="M 22.5,28.5 C 36.9605,35.2302 51.2939,42.2302 65.5,49.5C 81.6251,58.0633 97.9584,66.3966 114.5,74.5C 97.9584,82.6034 81.6251,90.9367 65.5,99.5C 51.2939,106.77 36.9605,113.77 22.5,120.5C 21.1779,120.67 20.0113,120.337 19,119.5C 9.58873,107.103 4.42206,93.1028 3.5,77.5C 5.09903,77.2322 6.43236,77.5655 7.5,78.5C 7.34332,79.8734 7.50999,81.2068 8,82.5C 9,81.1667 10,79.8333 11,78.5C 15.3134,84.1166 16.4801,83.4499 14.5,76.5C 16.1992,76.6602 17.8659,76.4935 19.5,76C 17.9984,75.4169 16.6651,74.5836 15.5,73.5C 17.1392,72.084 17.9725,70.4174 18,68.5C 16.4157,69.8613 14.5824,70.528 12.5,70.5C 12.628,68.3453 12.128,66.3453 11,64.5C 10.7674,66.7801 9.93404,68.7801 8.5,70.5C 6.92464,69.5435 5.25797,68.8769 3.5,68.5C 4.69651,54.4056 9.52984,41.7389 18,30.5C 19.1096,28.9632 20.6096,28.2965 22.5,28.5 Z"/></g>
<g><path style="opacity:1" fill="#fffcfc" d="M 65.5,49.5 C 90.8333,49.5 116.167,49.5 141.5,49.5C 146.806,66.153 146.806,82.8196 141.5,99.5C 116.167,99.5 90.8333,99.5 65.5,99.5C 81.6251,90.9367 97.9584,82.6034 114.5,74.5C 97.9584,66.3966 81.6251,58.0633 65.5,49.5 Z"/></g>
<g><path style="opacity:0.903" fill="#dedede" d="M 141.5,49.5 C 142.833,49.5 144.167,49.5 145.5,49.5C 147.006,53.8753 148.339,58.2086 149.5,62.5C 149.5,70.5 149.5,78.5 149.5,86.5C 148.339,90.7914 147.006,95.1247 145.5,99.5C 144.167,99.5 142.833,99.5 141.5,99.5C 146.806,82.8196 146.806,66.153 141.5,49.5 Z"/></g>
<g><path style="opacity:1" fill="#ffecec" d="M 7.5,78.5 C 8.04309,78.44 8.37642,78.1067 8.5,77.5C 2.46925,76.9534 2.13592,75.62 7.5,73.5C 6.14311,71.8144 4.80978,70.1477 3.5,68.5C 5.25797,68.8769 6.92464,69.5435 8.5,70.5C 9.93404,68.7801 10.7674,66.7801 11,64.5C 12.128,66.3453 12.628,68.3453 12.5,70.5C 14.5824,70.528 16.4157,69.8613 18,68.5C 17.9725,70.4174 17.1392,72.084 15.5,73.5C 16.6651,74.5836 17.9984,75.4169 19.5,76C 17.8659,76.4935 16.1992,76.6602 14.5,76.5C 16.4801,83.4499 15.3134,84.1166 11,78.5C 10,79.8333 9,81.1667 8,82.5C 7.50999,81.2068 7.34332,79.8734 7.5,78.5 Z"/></g>
<g><path style="opacity:1" fill="#009800" d="M 65.5,99.5 C 90.8333,99.5 116.167,99.5 141.5,99.5C 126.295,132.942 100.295,148.109 63.5,145C 46.6246,142.068 32.6246,134.235 21.5,121.5C 22.1667,121.5 22.5,121.167 22.5,120.5C 36.9605,113.77 51.2939,106.77 65.5,99.5 Z"/></g>
<g><path style="opacity:0.958" fill="#058706" d="M 141.5,99.5 C 142.833,99.5 144.167,99.5 145.5,99.5C 134.971,127.035 115.304,143.702 86.5,149.5C 78.5,149.5 70.5,149.5 62.5,149.5C 44.361,146.264 29.361,137.597 17.5,123.5C 18.8333,122.833 20.1667,122.167 21.5,121.5C 32.6246,134.235 46.6246,142.068 63.5,145C 100.295,148.109 126.295,132.942 141.5,99.5 Z"/></g>
</svg>
