<?xml version="1.0" encoding="UTF-8"?>
<svg version="1.1" xmlns="http://www.w3.org/2000/svg" width="150" height="150">
<path d="M0 0 C2.26685452 1.68622161 4.37461281 3.45620684 6.4765625 5.34375 C7.70826172 6.43623047 7.70826172 6.43623047 8.96484375 7.55078125 C22.24806842 20.02774039 31.07984821 37.58848816 31.8125 55.9453125 C32.13371051 77.23647878 28.10626638 96.0522542 13.4765625 112.34375 C12.74824219 113.16488281 12.01992187 113.98601562 11.26953125 114.83203125 C-1.20742789 128.11525592 -18.76817566 136.94703571 -37.125 137.6796875 C-58.41616628 138.00089801 -77.2319417 133.97345388 -93.5234375 119.34375 C-94.34457031 118.61542969 -95.16570312 117.88710937 -96.01171875 117.13671875 C-109.29494342 104.65975961 -118.12672321 87.09901184 -118.859375 68.7421875 C-119.18058551 47.45102122 -115.15314138 28.6352458 -100.5234375 12.34375 C-99.79511719 11.52261719 -99.06679687 10.70148437 -98.31640625 9.85546875 C-72.64852592 -17.47107913 -30.68115209 -20.13747444 0 0 Z " fill="#FDFDFD" transform="translate(118.5234375,12.65625)"/>
<path d="M0 0 C6.40342781 5.13928247 11.29338451 10.75758606 12.41015625 19.04296875 C12.85561849 28.78602749 10.22898367 35.75087001 3.6875 42.9375 C-3.01443856 49.00934177 -9.77984644 49.57120724 -18.66015625 49.34375 C-25.83041682 48.60575827 -30.62606609 45.18663456 -35.45703125 39.96875 C-40.26303669 33.83653039 -41.74101871 27.73969016 -41.4453125 19.9921875 C-40.21404064 11.71890467 -35.49655465 5.09533698 -29 0 C-21.08365883 -5.00829748 -7.97602048 -5.16196997 0 0 Z " fill="#03489F" transform="translate(89,51)"/>
<path d="M0 0 C2.26685452 1.68622161 4.37461281 3.45620684 6.4765625 5.34375 C7.70826172 6.43623047 7.70826172 6.43623047 8.96484375 7.55078125 C22.24806842 20.02774039 31.07984821 37.58848816 31.8125 55.9453125 C32.13371051 77.23647878 28.10626638 96.0522542 13.4765625 112.34375 C12.74824219 113.16488281 12.01992187 113.98601562 11.26953125 114.83203125 C-1.20742789 128.11525592 -18.76817566 136.94703571 -37.125 137.6796875 C-58.41616628 138.00089801 -77.2319417 133.97345388 -93.5234375 119.34375 C-94.34457031 118.61542969 -95.16570312 117.88710937 -96.01171875 117.13671875 C-109.29494342 104.65975961 -118.12672321 87.09901184 -118.859375 68.7421875 C-119.18058551 47.45102122 -115.15314138 28.6352458 -100.5234375 12.34375 C-99.79511719 11.52261719 -99.06679687 10.70148437 -98.31640625 9.85546875 C-72.64852592 -17.47107913 -30.68115209 -20.13747444 0 0 Z M-71.5234375 -3.65625 C-72.46445313 -3.27210937 -73.40546875 -2.88796875 -74.375 -2.4921875 C-80.86472968 0.46134273 -86.19375486 4.65362928 -91.5234375 9.34375 C-92.29816406 10.01148437 -93.07289062 10.67921875 -93.87109375 11.3671875 C-105.92756087 22.49305252 -114.11591014 39.85076471 -114.859375 56.2890625 C-115.2060645 75.96934441 -110.79084856 94.97717297 -97.1484375 109.84375 C-95.31868238 111.73651365 -93.44166258 113.53629567 -91.5234375 115.34375 C-90.73195313 116.09269531 -89.94046875 116.84164062 -89.125 117.61328125 C-74.09938614 130.66709529 -55.44694635 134.54052132 -36.03125 133.54638672 C-18.25094524 132.10969932 -2.53567153 123.09215981 9.4765625 110.34375 C10.22550781 109.55226563 10.97445312 108.76078125 11.74609375 107.9453125 C25.11597921 92.55588411 28.84811968 73.20113766 27.4765625 53.34375 C25.94900439 38.90682826 19.20658477 25.07600632 9.4765625 14.34375 C8.83460937 13.59867188 8.19265625 12.85359375 7.53125 12.0859375 C-3.97039746 -0.43430605 -21.71106833 -8.16891373 -38.65234375 -9.02734375 C-50.54537623 -9.29349217 -60.51704771 -8.21496064 -71.5234375 -3.65625 Z " fill="#DFDFDF" transform="translate(118.5234375,12.65625)"/>
<path d="M0 0 C6.15755336 3.98508323 11.90838951 9.94283337 13.8046875 17.16796875 C14.86203891 28.58194164 14.86203891 28.58194164 11.8046875 33.16796875 C11.63453125 32.5646875 11.464375 31.96140625 11.2890625 31.33984375 C9.87416445 26.67369062 8.79612799 23.25811623 4.8046875 20.16796875 C1.58730293 18.55927646 -1.7055335 18.70310138 -5.1953125 19.16796875 C-9.51382069 21.45942207 -13.04135366 24.66163149 -16.6796875 27.8984375 C-20.04819845 30.7199995 -22.89832023 30.52605144 -27.1953125 30.16796875 C-31.97186772 27.73286217 -34.76020592 24.94452397 -37.1953125 20.16796875 C-37.78285278 16.05518679 -37.55493187 13.88720749 -35.6953125 10.16796875 C-26.62478062 -0.71666951 -13.98265717 -6.39121454 0 0 Z " fill="#CB2F3C" transform="translate(87.1953125,49.83203125)"/>
<path d="M0 0 C0.66 0 1.32 0 2 0 C3.25390625 1.609375 3.25390625 1.609375 4.5625 3.75 C4.99691406 4.44609375 5.43132812 5.1421875 5.87890625 5.859375 C6.95809038 7.91997745 7.54470671 9.72864922 8 12 C8.66 12 9.32 12 10 12 C11.32421875 13.609375 11.32421875 13.609375 12.6875 15.75 C13.14511719 16.44609375 13.60273437 17.1421875 14.07421875 17.859375 C15 20 15 20 14.82421875 22.125 C13.44702977 25.25794175 10.89968291 26.37617757 8 28 C7.01 28 6.02 28 5 28 C5 28.66 5 29.32 5 30 C3.02 30.99 3.02 30.99 1 32 C-0.01170618 30.75945552 -1.00897797 29.5071298 -2 28.25 C-2.556875 27.55390625 -3.11375 26.8578125 -3.6875 26.140625 C-5 24 -5 24 -5 20 C-5.86625 19.690625 -5.86625 19.690625 -6.75 19.375 C-9.90045599 17.44972134 -11.26039731 15.22148646 -13 12 C-13.125 9.875 -13.125 9.875 -12 8 C-6.77777778 4 -6.77777778 4 -4 4 C-3.34 3.34 -2.68 2.68 -2 2 C-1.34 1.34 -0.68 0.68 0 0 Z " fill="#E1E1E1" transform="translate(114,31)"/>
<path d="M0 0 C3.875 1.75 3.875 1.75 5 4 C6.31403276 4.70394612 7.6520257 5.36345658 9 6 C10.67334039 6.98879205 12.34151823 7.98648336 14 9 C13.32902328 13.19360449 11.1441606 16.40334352 9 20 C8.01 20 7.02 20 6 20 C5.9175 20.70125 5.835 21.4025 5.75 22.125 C4.82972275 25.65272947 3.11873023 28.06111614 1 31 C-0.32 30.67 -1.64 30.34 -3 30 C-3 29.01 -3 28.02 -3 27 C-4.32 27.33 -5.64 27.66 -7 28 C-7.226875 27.360625 -7.45375 26.72125 -7.6875 26.0625 C-8.85250896 23.72806339 -8.85250896 23.72806339 -11.625 23.25 C-12.40875 23.1675 -13.1925 23.085 -14 23 C-13.3936169 19.91357813 -12.41489705 17.84649121 -10.5625 15.3125 C-10.13066406 14.71050781 -9.69882813 14.10851562 -9.25390625 13.48828125 C-8 12 -8 12 -6 11 C-5.66131196 9.66801678 -5.32881359 8.33445514 -5 7 C-3.80859375 5.078125 -3.80859375 5.078125 -2.4375 3.25 C-1.98246094 2.63640625 -1.52742188 2.0228125 -1.05859375 1.390625 C-0.70925781 0.93171875 -0.35992187 0.4728125 0 0 Z " fill="#EEEEEE" transform="translate(115,85)"/>
<path d="M0 0 C0.66 0 1.32 0 2 0 C3.09741211 1.40527344 3.09741211 1.40527344 4.27734375 3.359375 C4.70853516 4.06320313 5.13972656 4.76703125 5.58398438 5.4921875 C6.03064453 6.23726563 6.47730469 6.98234375 6.9375 7.75 C7.81998767 9.2041136 8.70405839 10.65726785 9.58984375 12.109375 C10.00484131 12.79193359 10.41983887 13.47449219 10.84741211 14.17773438 C12.05016673 16.13621013 12.05016673 16.13621013 13.8125 18.390625 C15 20 15 20 15.0625 22 C13.40360811 25.12262002 11.05543205 26.35006669 8 28 C4.30209954 26.76736651 4.0645154 25.79947549 2.3125 22.4375 C1.87550781 21.61121094 1.43851563 20.78492187 0.98828125 19.93359375 C0.66214844 19.29550781 0.33601563 18.65742187 0 18 C0.33 17.67 0.66 17.34 1 17 C0.39671875 16.76539062 -0.2065625 16.53078125 -0.828125 16.2890625 C-3.53132927 14.6846427 -4.32315896 13.14941313 -5.75 10.375 C-6.17796875 9.55773437 -6.6059375 8.74046875 -7.046875 7.8984375 C-7.36140625 7.27195312 -7.6759375 6.64546875 -8 6 C-7.38382813 5.71382813 -6.76765625 5.42765625 -6.1328125 5.1328125 C-3.84226396 4.04966371 -3.84226396 4.04966371 -1.875 1.875 C-0.946875 0.946875 -0.946875 0.946875 0 0 Z " fill="#E3E3E3" transform="translate(33,85)"/>
<path d="M0 0 C1.32 0 2.64 0 4 0 C5.66333008 1.78833008 5.66333008 1.78833008 7.26953125 4.26953125 C8.13674805 5.60274414 8.13674805 5.60274414 9.02148438 6.96289062 C9.61251953 7.90326172 10.20355469 8.84363281 10.8125 9.8125 C11.42287109 10.74126953 12.03324219 11.67003906 12.66210938 12.62695312 C15.96614691 17.78601962 15.96614691 17.78601962 17 20 C16 23 16 23 13.9375 24.1875 C13.298125 24.455625 12.65875 24.72375 12 25 C10.98829382 23.75945552 9.99102203 22.5071298 9 21.25 C8.443125 20.55390625 7.88625 19.8578125 7.3125 19.140625 C6 17 6 17 6 13 C5.4225 12.79375 4.845 12.5875 4.25 12.375 C1.09954401 10.44972134 -0.26039731 8.22148646 -2 5 C-1.81353683 2.70028762 -1.62542316 1.62542316 0 0 Z " fill="#E5E5E5" transform="translate(103,38)"/>
<path d="M0 0 C0.99 0 1.98 0 3 0 C4.62573242 1.92773438 4.62573242 1.92773438 6.35546875 4.59375 C7.28842773 6.01494141 7.28842773 6.01494141 8.24023438 7.46484375 C8.88283203 8.46644531 9.52542969 9.46804687 10.1875 10.5 C10.84169922 11.50160156 11.49589844 12.50320312 12.16992188 13.53515625 C13.78937158 16.01752442 15.39881434 18.50582719 17 21 C15.68 21.99 14.36 22.98 13 24 C10.31124794 20.34902957 7.65022271 16.67902115 5 13 C4.37222656 12.1440625 3.74445312 11.288125 3.09765625 10.40625 C2.54980469 9.6328125 2.00195312 8.859375 1.4375 8.0625 C0.94121094 7.37285156 0.44492187 6.68320313 -0.06640625 5.97265625 C-1 4 -1 4 -0.65234375 1.74609375 C-0.43707031 1.16988281 -0.22179687 0.59367187 0 0 Z " fill="#101010" transform="translate(21,93)"/>
<path d="M0 0 C0.66 0 1.32 0 2 0 C3.09741211 1.40527344 3.09741211 1.40527344 4.27734375 3.359375 C4.92413086 4.41511719 4.92413086 4.41511719 5.58398438 5.4921875 C6.03064453 6.23726563 6.47730469 6.98234375 6.9375 7.75 C7.81998767 9.2041136 8.70405839 10.65726785 9.58984375 12.109375 C10.21161499 13.13369629 10.21161499 13.13369629 10.84594727 14.17871094 C12.04800737 16.13830252 12.04800737 16.13830252 13.8359375 18.375 C15 20 15 20 14.6875 22.25 C14.460625 22.8275 14.23375 23.405 14 24 C13.01 24 12.02 24 11 24 C8.36931701 21.02186832 6.33943163 17.5846902 4.1875 14.25 C3.56423828 13.32960938 2.94097656 12.40921875 2.29882812 11.4609375 C1.71939453 10.57148437 1.13996094 9.68203125 0.54296875 8.765625 C-0.2610437 7.54020996 -0.2610437 7.54020996 -1.08129883 6.29003906 C-2 4 -2 4 -1.15893555 1.70214844 C-0.77648682 1.14043945 -0.39403809 0.57873047 0 0 Z " fill="#101010" transform="translate(33,85)"/>
<path d="M0 0 C3.66230173 1.22076724 4.10506827 2.2743154 6.13671875 5.47265625 C6.71357422 6.37177734 7.29042969 7.27089844 7.88476562 8.19726562 C8.47966797 9.14279297 9.07457031 10.08832031 9.6875 11.0625 C10.29400391 12.01189453 10.90050781 12.96128906 11.52539062 13.93945312 C13.02442787 16.28833826 14.51554166 18.64188432 16 21 C15.34 21.99 14.68 22.98 14 24 C10.33769827 22.77923276 9.89493173 21.7256846 7.86328125 18.52734375 C6.99799805 17.17866211 6.99799805 17.17866211 6.11523438 15.80273438 C5.52033203 14.85720703 4.92542969 13.91167969 4.3125 12.9375 C3.70599609 11.98810547 3.09949219 11.03871094 2.47460938 10.06054688 C0.97557213 7.71166174 -0.51554166 5.35811568 -2 3 C-1.34 2.01 -0.68 1.02 0 0 Z " fill="#0F0F0F" transform="translate(108,35)"/>
<path d="M0 0 C1.32 0.66 2.64 1.32 4 2 C-0.01078985 9.79987775 -4.93702974 16.86330771 -10 24 C-11.32 23.34 -12.64 22.68 -14 22 C-9.98921015 14.20012225 -5.06297026 7.13669229 0 0 Z " fill="#101010" transform="translate(39,35)"/>
<path d="M0 0 C0.99 0.66 1.98 1.32 3 2 C2.36929092 5.30713779 1.16114679 7.55199421 -0.72265625 10.328125 C-1.52993164 11.52695312 -1.52993164 11.52695312 -2.35351562 12.75 C-2.91748047 13.575 -3.48144531 14.4 -4.0625 15.25 C-4.63033203 16.09046875 -5.19816406 16.9309375 -5.78320312 17.796875 C-7.18366519 19.86814662 -8.5893906 21.93563166 -10 24 C-11.32 23.67 -12.64 23.34 -14 23 C-13.36539873 19.08973629 -11.46155306 16.42584555 -9.25 13.1875 C-8.53328125 12.13433594 -7.8165625 11.08117187 -7.078125 9.99609375 C-4.75010644 6.63972113 -2.40250006 3.30343758 0 0 Z " fill="#111111" transform="translate(34,31)"/>
<path d="M0 0 C1.32 0.33 2.64 0.66 4 1 C3.36929092 4.30713779 2.16114679 6.55199421 0.27734375 9.328125 C-0.52993164 10.52695312 -0.52993164 10.52695312 -1.35351562 11.75 C-1.91748047 12.575 -2.48144531 13.4 -3.0625 14.25 C-3.63033203 15.09046875 -4.19816406 15.9309375 -4.78320312 16.796875 C-6.18366519 18.86814662 -7.5893906 20.93563166 -9 23 C-10.32 22.67 -11.64 22.34 -13 22 C-11.29816715 16.88424944 -8.32246469 12.64984185 -5.375 8.1875 C-4.859375 7.39923828 -4.34375 6.61097656 -3.8125 5.79882812 C-2.54558583 3.8632648 -1.27467036 1.93046058 0 0 Z " fill="#111111" transform="translate(44,39)"/>
<path d="M0 0 C1.32 0 2.64 0 4 0 C5.34375 1.6796875 5.34375 1.6796875 6.5 3.875 C8.25043005 7.17479719 9.50359308 8.59254806 13 10 C12.67 10.66 12.34 11.32 12 12 C12.99417008 14.25324159 12.99417008 14.25324159 14.4375 16.625 C14.91058594 17.44226563 15.38367187 18.25953125 15.87109375 19.1015625 C16.42990234 20.04128906 16.42990234 20.04128906 17 21 C16.01 21 15.02 21 14 21 C12.55786133 19.37939453 12.55786133 19.37939453 11.08203125 17.1328125 C10.55029297 16.32972656 10.01855469 15.52664062 9.47070312 14.69921875 C8.92349609 13.84972656 8.37628906 13.00023438 7.8125 12.125 C7.25369141 11.28324219 6.69488281 10.44148438 6.11914062 9.57421875 C2 3.28737408 2 3.28737408 2 1 C1.34 0.67 0.68 0.34 0 0 Z " fill="#E4E4E4" transform="translate(22,92)"/>
<path d="M0 0 C1.32 0.66 2.64 1.32 4 2 C2.35 4.97 0.7 7.94 -1 11 C-2.32 11 -3.64 11 -5 11 C-5.33 10.34 -5.66 9.68 -6 9 C-4.02 6.03 -2.04 3.06 0 0 Z " fill="#151515" transform="translate(112,101)"/>
<path d="M0 0 C3.69790046 1.23263349 3.9354846 2.20052451 5.6875 5.5625 C6.34298828 6.80193359 6.34298828 6.80193359 7.01171875 8.06640625 C7.33785156 8.70449219 7.66398437 9.34257813 8 10 C6.02 10.99 6.02 10.99 4 12 C2.02 9.03 0.04 6.06 -2 3 C-1.34 2.01 -0.68 1.02 0 0 Z " fill="#111111" transform="translate(35,101)"/>
<path d="M0 0 C1.32 0.66 2.64 1.32 4 2 C2.35 4.97 0.7 7.94 -1 11 C-2.32 11 -3.64 11 -5 11 C-5.33 10.34 -5.66 9.68 -6 9 C-4.02 6.03 -2.04 3.06 0 0 Z " fill="#141414" transform="translate(120,89)"/>
<path d="M0 0 C3.69790046 1.23263349 3.9354846 2.20052451 5.6875 5.5625 C6.34298828 6.80193359 6.34298828 6.80193359 7.01171875 8.06640625 C7.33785156 8.70449219 7.66398437 9.34257813 8 10 C6.02 10.99 6.02 10.99 4 12 C2.02 9.03 0.04 6.06 -2 3 C-1.34 2.01 -0.68 1.02 0 0 Z " fill="#111111" transform="translate(27,89)"/>
<path d="M0 0 C0.66 0 1.32 0 2 0 C3.32421875 1.609375 3.32421875 1.609375 4.6875 3.75 C5.14511719 4.44609375 5.60273437 5.1421875 6.07421875 5.859375 C7.16906025 8.39090725 6.9435441 9.46100862 6 12 C5.01 12 4.02 12 3 12 C1.54296875 10.390625 1.54296875 10.390625 0.1875 8.25 C-0.27269531 7.55390625 -0.73289062 6.8578125 -1.20703125 6.140625 C-2 4 -2 4 -1.13671875 1.734375 C-0.76160156 1.16203125 -0.38648437 0.5896875 0 0 Z " fill="#131313" transform="translate(122,43)"/>
<path d="M0 0 C0.99 0 1.98 0 3 0 C4.60546875 2.1875 4.60546875 2.1875 6.1875 5 C6.71730469 5.928125 7.24710938 6.85625 7.79296875 7.8125 C8.19128906 8.534375 8.58960937 9.25625 9 10 C7.02 10.99 7.02 10.99 5 12 C3.96386967 10.76265016 2.94652198 9.50955363 1.9375 8.25 C1.36902344 7.55390625 0.80054687 6.8578125 0.21484375 6.140625 C-1 4 -1 4 -0.68359375 1.734375 C-0.45800781 1.16203125 -0.23242188 0.5896875 0 0 Z " fill="#121212" transform="translate(102,39)"/>
<path d="M0 0 C0.66 0 1.32 0 2 0 C3.32421875 1.609375 3.32421875 1.609375 4.6875 3.75 C5.14511719 4.44609375 5.60273437 5.1421875 6.07421875 5.859375 C7.16906025 8.39090725 6.9435441 9.46100862 6 12 C5.01 12 4.02 12 3 12 C1.54296875 10.390625 1.54296875 10.390625 0.1875 8.25 C-0.27269531 7.55390625 -0.73289062 6.8578125 -1.20703125 6.140625 C-2 4 -2 4 -1.13671875 1.734375 C-0.76160156 1.16203125 -0.38648437 0.5896875 0 0 Z " fill="#131313" transform="translate(114,31)"/>
<path d="M0 0 C0.99 0.66 1.98 1.32 3 2 C1.66511872 5.59391114 0.03977277 8.75490696 -2 12 C-3.32 11.67 -4.64 11.34 -6 11 C-5.39305845 7.84669446 -4.3583335 5.81111133 -2.4375 3.25 C-1.98246094 2.63640625 -1.52742188 2.0228125 -1.05859375 1.390625 C-0.70925781 0.93171875 -0.35992187 0.4728125 0 0 Z " fill="#111111" transform="translate(107,97)"/>
<path d="M0 0 C0.99 0.66 1.98 1.32 3 2 C1.66511872 5.59391114 0.03977277 8.75490696 -2 12 C-3.32 11.67 -4.64 11.34 -6 11 C-5.39305845 7.84669446 -4.3583335 5.81111133 -2.4375 3.25 C-1.98246094 2.63640625 -1.52742188 2.0228125 -1.05859375 1.390625 C-0.70925781 0.93171875 -0.35992187 0.4728125 0 0 Z " fill="#111111" transform="translate(115,85)"/>
<path d="M0 0 C0.99 0 1.98 0 3 0 C4.45703125 1.609375 4.45703125 1.609375 5.8125 3.75 C6.50279297 4.79414062 6.50279297 4.79414062 7.20703125 5.859375 C8 8 8 8 7.13671875 10.265625 C6.76160156 10.83796875 6.38648437 11.4103125 6 12 C3.35247996 9.42215154 1.05567935 7.08351902 -1 4 C-0.625 1.8125 -0.625 1.8125 0 0 Z " fill="#111111" transform="translate(110,51)"/>
<path d="M0 0 C0.66 0 1.32 0 2 0 C1.37330264 3.18025525 0.27499852 5.41034707 -1.50390625 8.109375 C-1.99697266 8.86347656 -2.49003906 9.61757813 -2.99804688 10.39453125 C-3.77245117 11.56048828 -3.77245117 11.56048828 -4.5625 12.75 C-5.08263672 13.54277344 -5.60277344 14.33554687 -6.13867188 15.15234375 C-7.42079058 17.1049282 -8.70801774 19.05393387 -10 21 C-10.66 20.67 -11.32 20.34 -12 20 C-10.3734847 15.24059444 -7.77746363 11.33385641 -5 7.1875 C-4.32324219 6.14819336 -4.32324219 6.14819336 -3.6328125 5.08789062 C-2.47765853 3.35345087 -1.24461741 1.67140344 0 0 Z " fill="#E2E2E2" transform="translate(42,38)"/>
<path d="M0 0 C1.32 0.33 2.64 0.66 4 1 C3.38545304 4.99455527 1.29353263 7.74466336 -1 11 C-2.32 10.67 -3.64 10.34 -5 10 C-3.66511872 6.40608886 -2.03977277 3.24509304 0 0 Z " fill="#111111" transform="translate(117,105)"/>
<path d="M0 0 C1.32 0.33 2.64 0.66 4 1 C3.38545304 4.99455527 1.29353263 7.74466336 -1 11 C-2.32 10.67 -3.64 10.34 -5 10 C-3.66511872 6.40608886 -2.03977277 3.24509304 0 0 Z " fill="#111111" transform="translate(125,93)"/>
<path d="M0 0 C0.99 0.33 1.98 0.66 3 1 C-0.96 6.94 -4.92 12.88 -9 19 C-9.66 18.67 -10.32 18.34 -11 18 C-9.48103632 13.56829827 -7.07360191 9.96975924 -4.375 6.1875 C-3.95476563 5.59001953 -3.53453125 4.99253906 -3.1015625 4.37695312 C-2.07220272 2.91479435 -1.0367177 1.45695101 0 0 Z " fill="#E1E1E1" transform="translate(35,37)"/>
<path d="M0 0 C1.32 0.33 2.64 0.66 4 1 C3.34 1 2.68 1 2 1 C1.7525 1.721875 1.505 2.44375 1.25 3.1875 C-0.10983674 6.24713266 -1.82917754 8.4673738 -4 11 C-5 8 -5 8 -4.00390625 5.95703125 C-3.52824219 5.24933594 -3.05257812 4.54164062 -2.5625 3.8125 C-2.08941406 3.09707031 -1.61632812 2.38164063 -1.12890625 1.64453125 C-0.75636719 1.10183594 -0.38382812 0.55914062 0 0 Z " fill="#D9D9D9" transform="translate(123,92)"/>
<path d="M0 0 C1.32 0 2.64 0 4 0 C5.65 2.97 7.3 5.94 9 9 C8.34 9.66 7.68 10.32 7 11 C6.16121545 9.71186658 5.32913217 8.41936744 4.5 7.125 C4.0359375 6.40570313 3.571875 5.68640625 3.09375 4.9453125 C2 3 2 3 2 1 C1.34 0.67 0.68 0.34 0 0 Z " fill="#DDDDDD" transform="translate(111,50)"/>
<path d="M0 0 C1.32 0.33 2.64 0.66 4 1 C3.34 1 2.68 1 2 1 C1.5978125 2.1446875 1.5978125 2.1446875 1.1875 3.3125 C0.05575888 5.87380884 -0.91223401 7.19692938 -3 9 C-3 4.72290301 -2.29379749 3.44069624 0 0 Z " fill="#DADADA" transform="translate(115,104)"/>
<path d="M0 0 C0.33 0 0.66 0 1 0 C1.56638908 4.81430721 -0.17438373 7.20307814 -3 11 C-3.66 10.67 -4.32 10.34 -5 10 C-3.66654496 6.40992874 -2.1056769 3.20429093 0 0 Z " fill="#DDDDDD" transform="translate(110,99)"/>
<path d="M0 0 C0.33 0 0.66 0 1 0 C1.56638908 4.81430721 -0.17438373 7.20307814 -3 11 C-3.66 10.67 -4.32 10.34 -5 10 C-3.66654496 6.40992874 -2.1056769 3.20429093 0 0 Z " fill="#DDDDDD" transform="translate(118,87)"/>
<path d="M0 0 C1.32 0 2.64 0 4 0 C4 0.66 4 1.32 4 2 C5.65 2.33 7.3 2.66 9 3 C7.3125 4.1875 7.3125 4.1875 5 5 C2.25 3.75 2.25 3.75 0 2 C0 1.34 0 0.68 0 0 Z " fill="#E5E5E5" transform="translate(115,101)"/>
<path d="M0 0 C0.99 0.33 1.98 0.66 3 1 C0.525 4.465 0.525 4.465 -2 8 C-2.66 7.34 -3.32 6.68 -4 6 C-2.68 4.02 -1.36 2.04 0 0 Z " fill="#E7E7E7" transform="translate(35,37)"/>
</svg>
