<?xml version="1.0" encoding="UTF-8"?>
<!DOCTYPE svg PUBLIC "-//W3C//DTD SVG 1.1//EN" "http://www.w3.org/Graphics/SVG/1.1/DTD/svg11.dtd">
<svg xmlns="http://www.w3.org/2000/svg" version="1.1" width="150px" height="150px" style="shape-rendering:geometricPrecision; text-rendering:geometricPrecision; image-rendering:optimizeQuality; fill-rule:evenodd; clip-rule:evenodd" xmlns:xlink="http://www.w3.org/1999/xlink">
<g><path style="opacity:0.958" fill="#a9262c" d="M 62.5,-0.5 C 70.5,-0.5 78.5,-0.5 86.5,-0.5C 120.5,7.5 141.5,28.5 149.5,62.5C 149.5,70.5 149.5,78.5 149.5,86.5C 141.5,120.5 120.5,141.5 86.5,149.5C 78.5,149.5 70.5,149.5 62.5,149.5C 28.5,141.5 7.5,120.5 -0.5,86.5C -0.5,78.5 -0.5,70.5 -0.5,62.5C 7.5,28.5 28.5,7.5 62.5,-0.5 Z"/></g>
<g><path style="opacity:1" fill="#c0272d" d="M 62.5,3.5 C 103.489,0.896076 130.656,18.8961 144,57.5C 150.095,100.832 132.595,129.665 91.5,144C 48.242,150.126 19.4087,132.626 5,91.5C -0.640338,45.7472 18.5263,16.4139 62.5,3.5 Z"/></g>
<g><path style="opacity:1" fill="#195e32" d="M 73.5,50.5 C 74.4972,50.4701 75.1639,50.9701 75.5,52C 77.3503,56.7139 78.6837,61.5473 79.5,66.5C 85.5092,66.3338 91.5092,66.5005 97.5,67C 92.8333,70.6667 88.1667,74.3333 83.5,78C 86.0235,83.0336 87.3568,88.2003 87.5,93.5C 83.3409,90.2533 79.0076,87.2533 74.5,84.5C 69.9924,87.2533 65.6591,90.2533 61.5,93.5C 61.6432,88.2003 62.9765,83.0336 65.5,78C 60.8333,74.3333 56.1667,70.6667 51.5,67C 57.4908,66.5005 63.4908,66.3338 69.5,66.5C 71.0369,61.2217 72.3702,55.8884 73.5,50.5 Z"/></g>
<g><path style="opacity:1" fill="#b42c2d" d="M 73.5,63.5 C 75.4646,63.9483 75.7979,64.9483 74.5,66.5C 73.6143,65.675 73.281,64.675 73.5,63.5 Z"/></g>
<g><path style="opacity:1" fill="#b02e2d" d="M 63.5,71.5 C 64.7082,70.218 66.0416,70.218 67.5,71.5C 66.3746,73.7936 65.0412,73.7936 63.5,71.5 Z"/></g>
<g><path style="opacity:1" fill="#ba2a2d" d="M 71.5,70.5 C 76.6723,69.5648 78.839,71.5648 78,76.5C 75.6667,80.5 73.3333,80.5 71,76.5C 70.5099,74.4546 70.6765,72.4546 71.5,70.5 Z"/></g>
<g><path style="opacity:1" fill="#ab302d" d="M 81.5,70.5 C 83.1992,70.3398 84.8659,70.5065 86.5,71C 85.0692,71.4652 83.9025,72.2986 83,73.5C 81.9614,72.7562 81.4614,71.7562 81.5,70.5 Z"/></g>
<g><path style="opacity:1" fill="#ab312d" d="M 78.5,80.5 C 81.0764,80.7218 81.9098,82.0551 81,84.5C 79.5187,83.5291 78.6854,82.1958 78.5,80.5 Z"/></g>
<g><path style="opacity:1" fill="#9d342e" d="M 68.5,80.5 C 69.3764,80.3691 70.0431,80.7025 70.5,81.5C 67.7404,85.564 67.0737,85.2307 68.5,80.5 Z"/></g>
</svg>
