<?xml version="1.0" encoding="UTF-8"?>
<svg version="1.1" xmlns="http://www.w3.org/2000/svg" width="150" height="150">
<path d="M0 0 C2.26685452 1.68622161 4.37461281 3.45620684 6.4765625 5.34375 C7.70826172 6.43623047 7.70826172 6.43623047 8.96484375 7.55078125 C22.24806842 20.02774039 31.07984821 37.58848816 31.8125 55.9453125 C32.13371051 77.23647878 28.10626638 96.0522542 13.4765625 112.34375 C12.74824219 113.16488281 12.01992187 113.98601562 11.26953125 114.83203125 C-1.20742789 128.11525592 -18.76817566 136.94703571 -37.125 137.6796875 C-58.41616628 138.00089801 -77.2319417 133.97345388 -93.5234375 119.34375 C-94.34457031 118.61542969 -95.16570312 117.88710937 -96.01171875 117.13671875 C-109.29494342 104.65975961 -118.12672321 87.09901184 -118.859375 68.7421875 C-119.18058551 47.45102122 -115.15314138 28.6352458 -100.5234375 12.34375 C-99.79511719 11.52261719 -99.06679687 10.70148437 -98.31640625 9.85546875 C-72.64852592 -17.47107913 -30.68115209 -20.13747444 0 0 Z " fill="#FEFEFE" transform="translate(118.5234375,12.65625)"/>
<path d="M0 0 C19.25627924 6.41875975 33.75377298 18.87224633 43 37 C51.06648822 54.92782165 53.36855165 75.63733072 47.328125 94.609375 C43.53552278 104.29166537 38.99836332 113.20669075 32 121 C30.90751953 122.23169922 30.90751953 122.23169922 29.79296875 123.48828125 C21.12224848 132.71930654 11.99304309 138.00231897 0 142 C0 95.14 0 48.28 0 0 Z " fill="#CD1126" transform="translate(100,4)"/>
<path d="M0 0 C0 46.86 0 93.72 0 142 C-19.25627924 135.58124025 -33.75377298 123.12775367 -43 105 C-51.06648822 87.07217835 -53.36855165 66.36266928 -47.328125 47.390625 C-43.53552278 37.70833463 -38.99836332 28.79330925 -32 21 C-31.27167969 20.17886719 -30.54335938 19.35773437 -29.79296875 18.51171875 C-23.04886047 11.33180379 -10.53857888 0 0 0 Z " fill="#006646" transform="translate(50,4)"/>
<path d="M0 0 C4.03454629 2.60810628 7.2123722 5.47479727 9 10 C9.46346074 14.02189655 9.28613129 18.14160613 8 22 C9.32 19.69 10.64 17.38 12 15 C12.66 15.33 13.32 15.66 14 16 C12.78184562 20.68520915 11.30440013 24.70543612 9 29 C7.68 29 6.36 29 5 29 C4.67 29.66 4.34 30.32 4 31 C-1.57484291 33.70778084 -5.97320943 34.52359655 -11.875 32.5625 C-13.25487535 32.05472409 -14.63170304 31.5381968 -16 31 C-16 30.34 -16 29.68 -16 29 C-16.66 29 -17.32 29 -18 29 C-18 28.01 -18 27.02 -18 26 C-18.66 26 -19.32 26 -20 26 C-22.15305957 22.14243493 -23.39253254 19.44870215 -23 15 C-21.35 14.67 -19.7 14.34 -18 14 C-18 12.68 -18 11.36 -18 10 C-16.68 10 -15.36 10 -14 10 C-13.67 9.67 -13.34 9.34 -13 9 C-13.66 8.67 -14.32 8.34 -15 8 C-14.67 6.35 -14.34 4.7 -14 3 C-13.01 3 -12.02 3 -11 3 C-10.236875 2.505 -9.47375 2.01 -8.6875 1.5 C-5.33662431 -0.3702562 -3.78716706 -0.68169007 0 0 Z " fill="#E9E1D2" transform="translate(80,58)"/>
<path d="M0 0 C16.48722074 4.2639364 30.3351964 16.33318284 39.4375 30.4375 C50.03938349 48.84201708 53.52476793 70.33925291 48.4375 91.125 C44.93235367 102.13412156 39.75154438 112.36795564 32 121 C30.90751953 122.23169922 30.90751953 122.23169922 29.79296875 123.48828125 C21.46122351 132.35842683 11.78956869 138.80282883 0 142 C0.16015625 139.67578125 0.16015625 139.67578125 1 137 C3.37109375 135.48046875 3.37109375 135.48046875 6.4375 134.1875 C12.79689485 131.23788744 17.77557938 127.63999391 23 123 C24.04800781 122.11054688 24.04800781 122.11054688 25.1171875 121.203125 C36.23413857 111.08107616 43.85513154 94.49459831 45.22314453 79.56469727 C46.21319203 57.84151224 41.74961473 39.60739063 27 23 C26.40703125 22.30132813 25.8140625 21.60265625 25.203125 20.8828125 C18.80602134 13.8569337 10.45727919 9.76142699 2.07421875 5.51953125 C1.38972656 5.01808594 0.70523438 4.51664063 0 4 C0 2.68 0 1.36 0 0 Z " fill="#B41426" transform="translate(100,4)"/>
<path d="M0 0 C4.00624166 2.58980894 7.27596499 5.47223128 9 10 C8.625 13.75 8.625 13.75 8 17 C5.03824877 16.38722388 3.61941217 15.74627478 1 14 C2.65 15.98 4.3 17.96 6 20 C2.30458414 20.95024979 -0.30458414 20.95024979 -4 20 C-4 19.34 -4 18.68 -4 18 C-4.66 18 -5.32 18 -6 18 C-6 17.34 -6 16.68 -6 16 C-6.66 16 -7.32 16 -8 16 C-8 13 -8 13 -6 11 C-6.66 9.35 -7.32 7.7 -8 6 C-8.99 6 -9.98 6 -11 6 C-11 5.01 -11 4.02 -11 3 C-7.38036104 0.12558082 -4.56098883 -0.82097799 0 0 Z " fill="#8A5A38" transform="translate(80,58)"/>
<path d="M0 0 C0.495 2.475 0.495 2.475 1 5 C-0.16789062 4.67515625 -0.16789062 4.67515625 -1.359375 4.34375 C-17.37407944 0.35852401 -33.03799738 1.25472564 -49 5 C-48.67 3.35 -48.34 1.7 -48 0 C-33.59202862 -5.30819998 -14.40797138 -5.30819998 0 0 Z " fill="#DFDFDF" transform="translate(99,3)"/>
<path d="M0 0 C0.86238281 0.2165625 1.72476563 0.433125 2.61328125 0.65625 C16.28731805 3.77514329 30.3206407 4.57683846 44 1 C45.99810662 0.65549886 47.99722415 0.31622777 50 0 C49.67 1.65 49.34 3.3 49 5 C34.59202862 10.30819998 15.40797138 10.30819998 1 5 C0.67 3.35 0.34 1.7 0 0 Z " fill="#DFDFDF" transform="translate(50,142)"/>
<path d="M0 0 C0.99 0.33 1.98 0.66 3 1 C3 1.66 3 2.32 3 3 C3.61746094 2.98839844 4.23492187 2.97679688 4.87109375 2.96484375 C10.67525544 2.90300337 16.24338088 3.25721044 22 4 C22 4.99 22 5.98 22 7 C20.68 7.33 19.36 7.66 18 8 C18.66 9.98 19.32 11.96 20 14 C15.79823279 15.66116378 13.34397067 16.24113448 9 15 C7.56324446 14.64282526 6.12569492 14.28883409 4.6875 13.9375 C3.470625 13.628125 2.25375 13.31875 1 13 C1 12.34 1 11.68 1 11 C0.34 11 -0.32 11 -1 11 C-1 10.01 -1 9.02 -1 8 C-0.01 8 0.98 8 2 8 C2 8.66 2 9.32 2 10 C3.65 10 5.3 10 7 10 C7.33 8.68 7.66 7.36 8 6 C5.69 5.34 3.38 4.68 1 4 C0.67 2.68 0.34 1.36 0 0 Z " fill="#B9B7A7" transform="translate(63,76)"/>
<path d="M0 0 C2.18286549 2.46758708 2.97249246 3.80351759 3.4375 7.125 C3.623125 8.07375 3.80875 9.0225 4 10 C5.84982472 11.25827123 5.84982472 11.25827123 8 12 C9.75 13.625 9.75 13.625 11 15 C7.30458414 15.95024979 4.69541586 15.95024979 1 15 C1 14.34 1 13.68 1 13 C0.34 13 -0.32 13 -1 13 C-1 12.34 -1 11.68 -1 11 C-1.66 11 -2.32 11 -3 11 C-3 8 -3 8 -1 6 C-1.33 5.34 -1.66 4.68 -2 4 C-1.0625 1.875 -1.0625 1.875 0 0 Z " fill="#67442C" transform="translate(75,63)"/>
<path d="M0 0 C0.99 0.33 1.98 0.66 3 1 C3 1.66 3 2.32 3 3 C3.99 3 4.98 3 6 3 C6.99 4.98 7.98 6.96 9 9 C8.01 9.33 7.02 9.66 6 10 C6 10.99 6 11.98 6 13 C6.66 13 7.32 13 8 13 C8 13.66 8 14.32 8 15 C8.66 15.33 9.32 15.66 10 16 C7.03 15.67 4.06 15.34 1 15 C0.67 13.35 0.34 11.7 0 10 C1.32 10 2.64 10 4 10 C4 8.68 4 7.36 4 6 C3.01 7.485 3.01 7.485 2 9 C1.34 9 0.68 9 0 9 C0.33 8.01 0.66 7.02 1 6 C0.34 5.67 -0.32 5.34 -1 5 C-0.67 3.35 -0.34 1.7 0 0 Z " fill="#BB945A" transform="translate(66,61)"/>
<path d="M0 0 C1 3 1 3 0 6 C-0.99 6.33 -1.98 6.66 -3 7 C-2.67 7.99 -2.34 8.98 -2 10 C0.09719872 11.02281518 0.09719872 11.02281518 2.5625 11.6875 C3.38878906 11.93886719 4.21507813 12.19023438 5.06640625 12.44921875 C5.70449219 12.63097656 6.34257813 12.81273438 7 13 C7 13.33 7 13.66 7 14 C5.22992286 14.08114106 3.45877902 14.13925505 1.6875 14.1875 C0.20830078 14.23970703 0.20830078 14.23970703 -1.30078125 14.29296875 C-4 14 -4 14 -5.85546875 12.48828125 C-6.23316406 11.99714844 -6.61085937 11.50601563 -7 11 C-7.33 11.66 -7.66 12.32 -8 13 C-8.74926071 9.33694766 -9.2380014 6.57644848 -8 3 C-5.03 3.495 -5.03 3.495 -2 4 C-1.34 2.68 -0.68 1.36 0 0 Z " fill="#E6E2CD" transform="translate(70,65)"/>
<path d="M0 0 C0.99 0.33 1.98 0.66 3 1 C3 1.66 3 2.32 3 3 C3.61746094 2.98839844 4.23492187 2.97679688 4.87109375 2.96484375 C10.67525544 2.90300337 16.24338088 3.25721044 22 4 C22 4.99 22 5.98 22 7 C20.3603125 7.2165625 20.3603125 7.2165625 18.6875 7.4375 C15.06877013 7.88288104 15.06877013 7.88288104 12 9 C12 8.34 12 7.68 12 7 C8.37 6.01 4.74 5.02 1 4 C0.67 2.68 0.34 1.36 0 0 Z " fill="#568E89" transform="translate(63,76)"/>
<path d="M0 0 C0.33 0.66 0.66 1.32 1 2 C0.01 2 -0.98 2 -2 2 C-2 3.65 -2 5.3 -2 7 C-2.99 7 -3.98 7 -5 7 C-5.66 7.66 -6.32 8.32 -7 9 C-7.33 8.01 -7.66 7.02 -8 6 C-8.99 6 -9.98 6 -11 6 C-11 5.01 -11 4.02 -11 3 C-7.33513904 0.08966924 -4.60625394 -0.32136655 0 0 Z " fill="#A8774A" transform="translate(80,58)"/>
<path d="M0 0 C0.66 0.33 1.32 0.66 2 1 C0.78184562 5.68520915 -0.69559987 9.70543612 -3 14 C-4.32 14 -5.64 14 -7 14 C-5.23570801 9.02790438 -2.6060834 4.56561939 0 0 Z " fill="#AFB081" transform="translate(92,73)"/>
<path d="M0 0 C0.66 0.66 1.32 1.32 2 2 C1.625 5.625 1.625 5.625 1 9 C-1.96175123 8.38722388 -3.38058783 7.74627478 -6 6 C-5.67 4.68 -5.34 3.36 -5 2 C-3.35 2.33 -1.7 2.66 0 3 C0 2.01 0 1.02 0 0 Z " fill="#82634D" transform="translate(87,66)"/>
<path d="M0 0 C0.99 0.495 0.99 0.495 2 1 C2 1.99 2 2.98 2 4 C2.33 3.01 2.66 2.02 3 1 C6.875 1.875 6.875 1.875 8 3 C8.04063832 4.66617115 8.042721 6.33388095 8 8 C1.125 7.125 1.125 7.125 0 6 C-0.04080783 4.00041636 -0.04254356 1.99954746 0 0 Z " fill="#643D24" transform="translate(79,61)"/>
<path d="M0 0 C0.99 0.33 1.98 0.66 3 1 C3 1.66 3 2.32 3 3 C3.99 3 4.98 3 6 3 C6.33 3.99 6.66 4.98 7 6 C6.01 6 5.02 6 4 6 C3.01 7.485 3.01 7.485 2 9 C1.34 9 0.68 9 0 9 C0.33 8.01 0.66 7.02 1 6 C0.34 5.67 -0.32 5.34 -1 5 C-0.67 3.35 -0.34 1.7 0 0 Z " fill="#CDBD89" transform="translate(66,61)"/>
<path d="M0 0 C0.99 0.33 1.98 0.66 3 1 C3.33 2.65 3.66 4.3 4 6 C2.02 6.33 0.04 6.66 -2 7 C-2.33 6.01 -2.66 5.02 -3 4 C-2.34 3.67 -1.68 3.34 -1 3 C-0.67 2.01 -0.34 1.02 0 0 Z " fill="#ABC0AA" transform="translate(79,84)"/>
<path d="M0 0 C0.33 0.66 0.66 1.32 1 2 C1.66 2.33 2.32 2.66 3 3 C2.01 3.495 2.01 3.495 1 4 C-0.13350534 6.01669827 -0.13350534 6.01669827 -1 8 C-3 7 -3 7 -4 4 C-4.99 3.34 -5.98 2.68 -7 2 C-4.69 2 -2.38 2 0 2 C0 1.34 0 0.68 0 0 Z " fill="#E4E3D2" transform="translate(85,81)"/>
<path d="M0 0 C1.64666203 0.1135629 3.29236082 0.24117381 4.9375 0.375 C5.85402344 0.44460937 6.77054687 0.51421875 7.71484375 0.5859375 C8.84599609 0.79089844 8.84599609 0.79089844 10 1 C10.33 1.66 10.66 2.32 11 3 C7.37 3 3.74 3 0 3 C0 2.01 0 1.02 0 0 Z " fill="#E7E0DB" transform="translate(66,76)"/>
<path d="M0 0 C2.62386487 3.06117568 3 3.73173127 3 8 C1.35 8.33 -0.3 8.66 -2 9 C-1.67 8.01 -1.34 7.02 -1 6 C-1.33 5.34 -1.66 4.68 -2 4 C-1.0625 1.875 -1.0625 1.875 0 0 Z " fill="#5F381F" transform="translate(75,63)"/>
<path d="M0 0 C0.99 0 1.98 0 3 0 C3 0.66 3 1.32 3 2 C3.66 2 4.32 2 5 2 C5 2.66 5 3.32 5 4 C6.65 4.33 8.3 4.66 10 5 C10 5.33 10 5.66 10 6 C7.36 5.67 4.72 5.34 2 5 C2 4.34 2 3.68 2 3 C1.34 3 0.68 3 0 3 C0 2.01 0 1.02 0 0 Z " fill="#AEAD7C" transform="translate(62,84)"/>
<path d="M0 0 C0.99 0.33 1.98 0.66 3 1 C3 1.66 3 2.32 3 3 C6.3 3.66 9.6 4.32 13 5 C13 5.33 13 5.66 13 6 C11.39504433 5.88557539 9.79101881 5.75805306 8.1875 5.625 C7.29417969 5.55539063 6.40085937 5.48578125 5.48046875 5.4140625 C3 5 3 5 0 3 C0 2.01 0 1.02 0 0 Z " fill="#2B8387" transform="translate(63,76)"/>
<path d="M0 0 C1.65 0.33 3.3 0.66 5 1 C4.67 2.65 4.34 4.3 4 6 C3.67 5.34 3.34 4.68 3 4 C0.97536745 3.34786708 0.97536745 3.34786708 -1 3 C-0.67 2.01 -0.34 1.02 0 0 Z " fill="#84CCDB" transform="translate(67,81)"/>
<path d="M0 0 C0.66 0 1.32 0 2 0 C3.125 3.75 3.125 3.75 2 6 C2.66 6 3.32 6 4 6 C3.67 7.32 3.34 8.64 3 10 C0.59185923 6.48812804 -0.36629408 4.27343092 0 0 Z " fill="#ACAC7A" transform="translate(57,73)"/>
<path d="M0 0 C0.99 0.66 1.98 1.32 3 2 C2.34 3.65 1.68 5.3 1 7 C-0.32 7 -1.64 7 -3 7 C-1.125 2.25 -1.125 2.25 0 0 Z " fill="#C3C39B" transform="translate(88,80)"/>
<path d="M0 0 C2.31 0 4.62 0 7 0 C7 0.99 7 1.98 7 3 C4.69 3 2.38 3 0 3 C0 2.01 0 1.02 0 0 Z " fill="#E29D54" transform="translate(72,84)"/>
<path d="M0 0 C0.99 0.495 0.99 0.495 2 1 C2 1.66 2 2.32 2 3 C2.66 3 3.32 3 4 3 C4.33 2.34 4.66 1.68 5 1 C5.66 1.66 6.32 2.32 7 3 C6.01 3.66 5.02 4.32 4 5 C3.34 4.67 2.68 4.34 2 4 C1.67 4.66 1.34 5.32 1 6 C0.67 4.02 0.34 2.04 0 0 Z " fill="#D6C2AE" transform="translate(61,72)"/>
</svg>
