<?xml version="1.0" encoding="UTF-8"?>
<!DOCTYPE svg PUBLIC "-//W3C//DTD SVG 1.1//EN" "http://www.w3.org/Graphics/SVG/1.1/DTD/svg11.dtd">
<svg xmlns="http://www.w3.org/2000/svg" version="1.1" width="150px" height="150px" style="shape-rendering:geometricPrecision; text-rendering:geometricPrecision; image-rendering:optimizeQuality; fill-rule:evenodd; clip-rule:evenodd" xmlns:xlink="http://www.w3.org/1999/xlink">
<g><path style="opacity:0.9" fill="#cf2836" d="M 74.5,-0.5 C 78.5,-0.5 82.5,-0.5 86.5,-0.5C 117.63,6.29289 137.964,24.9596 147.5,55.5C 146.167,55.5 144.833,55.5 143.5,55.5C 132.357,22.429 109.357,5.09569 74.5,3.5C 74.5,2.16667 74.5,0.833333 74.5,-0.5 Z"/></g>
<g><path style="opacity:1" fill="#fdfafa" d="M 65.5,-0.5 C 68.5,-0.5 71.5,-0.5 74.5,-0.5C 74.5,0.833333 74.5,2.16667 74.5,3.5C 74.5,20.8333 74.5,38.1667 74.5,55.5C 97.5,55.5 120.5,55.5 143.5,55.5C 144.833,55.5 146.167,55.5 147.5,55.5C 147.927,58.0098 148.593,60.3432 149.5,62.5C 149.5,63.1667 149.5,63.8333 149.5,64.5C 121.5,64.5 93.5,64.5 65.5,64.5C 65.5,42.8333 65.5,21.1667 65.5,-0.5 Z"/></g>
<g><path style="opacity:1" fill="#ec2938" d="M 74.5,3.5 C 109.357,5.09569 132.357,22.429 143.5,55.5C 120.5,55.5 97.5,55.5 74.5,55.5C 74.5,38.1667 74.5,20.8333 74.5,3.5 Z"/></g>
<g><path style="opacity:1" fill="#002563" d="M 62.5,-0.5 C 63.1667,-0.5 63.8333,-0.5 64.5,-0.5C 64.5,21.5 64.5,43.5 64.5,65.5C 92.8333,65.5 121.167,65.5 149.5,65.5C 149.5,71.5 149.5,77.5 149.5,83.5C 121.167,83.5 92.8333,83.5 64.5,83.5C 64.5,105.5 64.5,127.5 64.5,149.5C 63.8333,149.5 63.1667,149.5 62.5,149.5C 57.1617,148.16 51.8284,146.493 46.5,144.5C 46.5,124.167 46.5,103.833 46.5,83.5C 30.8333,83.5 15.1667,83.5 -0.5,83.5C -0.5,77.5 -0.5,71.5 -0.5,65.5C 15.1667,65.5 30.8333,65.5 46.5,65.5C 46.5,45.1667 46.5,24.8333 46.5,4.5C 51.8284,2.50674 57.1617,0.840071 62.5,-0.5 Z"/></g>
<g><path style="opacity:0.884" fill="#d53b43" d="M 36.5,9.5 C 37.4345,10.5676 37.7678,11.901 37.5,13.5C 37.8291,27.6766 37.4958,41.6766 36.5,55.5C 36.6666,41.8293 36.4999,28.1626 36,14.5C 20.9765,24.5442 10.8099,38.2108 5.5,55.5C 4.16667,55.5 2.83333,55.5 1.5,55.5C 6.89822,35.3584 18.5649,20.025 36.5,9.5 Z"/></g>
<g><path style="opacity:1" fill="#fdfafb" d="M -0.5,64.5 C -0.5,63.8333 -0.5,63.1667 -0.5,62.5C 0.406658,60.3432 1.07332,58.0098 1.5,55.5C 2.83333,55.5 4.16667,55.5 5.5,55.5C 15.8333,55.5 26.1667,55.5 36.5,55.5C 37.4958,41.6766 37.8291,27.6766 37.5,13.5C 39.8774,11.9605 42.3774,10.6272 45,9.5C 45.4999,27.8303 45.6666,46.1636 45.5,64.5C 30.1667,64.5 14.8333,64.5 -0.5,64.5 Z"/></g>
<g><path style="opacity:1" fill="#ced4de" d="M 46.5,4.5 C 46.5,24.8333 46.5,45.1667 46.5,65.5C 30.8333,65.5 15.1667,65.5 -0.5,65.5C -0.5,65.1667 -0.5,64.8333 -0.5,64.5C 14.8333,64.5 30.1667,64.5 45.5,64.5C 45.6666,46.1636 45.4999,27.8303 45,9.5C 42.3774,10.6272 39.8774,11.9605 37.5,13.5C 37.7678,11.901 37.4345,10.5676 36.5,9.5C 39.5154,7.3256 42.8487,5.65893 46.5,4.5 Z"/></g>
<g><path style="opacity:1" fill="#ec2938" d="M 36.5,55.5 C 26.1667,55.5 15.8333,55.5 5.5,55.5C 10.8099,38.2108 20.9765,24.5442 36,14.5C 36.4999,28.1626 36.6666,41.8293 36.5,55.5 Z"/></g>
<g><path style="opacity:1" fill="#8a9bb7" d="M 64.5,-0.5 C 64.8333,-0.5 65.1667,-0.5 65.5,-0.5C 65.5,21.1667 65.5,42.8333 65.5,64.5C 93.5,64.5 121.5,64.5 149.5,64.5C 149.5,64.8333 149.5,65.1667 149.5,65.5C 121.167,65.5 92.8333,65.5 64.5,65.5C 64.5,43.5 64.5,21.5 64.5,-0.5 Z"/></g>
<g><path style="opacity:1" fill="#fdfafb" d="M -0.5,84.5 C 14.8333,84.5 30.1667,84.5 45.5,84.5C 45.6666,102.836 45.4999,121.17 45,139.5C 42.6667,138.167 40.3333,136.833 38,135.5C 37.8311,121.327 37.3311,107.327 36.5,93.5C 26.5,93.5 16.5,93.5 6.5,93.5C 4.83333,93.5 3.16667,93.5 1.5,93.5C 1.07332,90.9902 0.406658,88.6568 -0.5,86.5C -0.5,85.8333 -0.5,85.1667 -0.5,84.5 Z"/></g>
<g><path style="opacity:1" fill="#d8c8d1" d="M -0.5,84.5 C -0.5,84.1667 -0.5,83.8333 -0.5,83.5C 15.1667,83.5 30.8333,83.5 46.5,83.5C 46.5,103.833 46.5,124.167 46.5,144.5C 42.8533,143.343 39.52,141.677 36.5,139.5C 36.5,137.833 36.5,136.167 36.5,134.5C 36.5,120.833 36.5,107.167 36.5,93.5C 37.3311,107.327 37.8311,121.327 38,135.5C 40.3333,136.833 42.6667,138.167 45,139.5C 45.4999,121.17 45.6666,102.836 45.5,84.5C 30.1667,84.5 14.8333,84.5 -0.5,84.5 Z"/></g>
<g><path style="opacity:1" fill="#7589aa" d="M 149.5,83.5 C 149.5,83.8333 149.5,84.1667 149.5,84.5C 121.5,84.5 93.5,84.5 65.5,84.5C 65.5,106.167 65.5,127.833 65.5,149.5C 65.1667,149.5 64.8333,149.5 64.5,149.5C 64.5,127.5 64.5,105.5 64.5,83.5C 92.8333,83.5 121.167,83.5 149.5,83.5 Z"/></g>
<g><path style="opacity:1" fill="#fdfafa" d="M 149.5,84.5 C 149.5,85.1667 149.5,85.8333 149.5,86.5C 148.593,88.6568 147.927,90.9902 147.5,93.5C 145.833,93.5 144.167,93.5 142.5,93.5C 119.833,93.5 97.1667,93.5 74.5,93.5C 74.5,110.833 74.5,128.167 74.5,145.5C 74.5,146.833 74.5,148.167 74.5,149.5C 71.5,149.5 68.5,149.5 65.5,149.5C 65.5,127.833 65.5,106.167 65.5,84.5C 93.5,84.5 121.5,84.5 149.5,84.5 Z"/></g>
<g><path style="opacity:0.884" fill="#d02836" d="M 1.5,93.5 C 3.16667,93.5 4.83333,93.5 6.5,93.5C 11.1279,111.124 21.1279,124.79 36.5,134.5C 36.5,136.167 36.5,137.833 36.5,139.5C 18.5649,128.975 6.89822,113.642 1.5,93.5 Z"/></g>
<g><path style="opacity:1" fill="#ec2938" d="M 6.5,93.5 C 16.5,93.5 26.5,93.5 36.5,93.5C 36.5,107.167 36.5,120.833 36.5,134.5C 21.1279,124.79 11.1279,111.124 6.5,93.5 Z"/></g>
<g><path style="opacity:1" fill="#ec2838" d="M 142.5,93.5 C 134.699,119.467 117.699,136.301 91.5,144C 85.8507,144.757 80.184,145.257 74.5,145.5C 74.5,128.167 74.5,110.833 74.5,93.5C 97.1667,93.5 119.833,93.5 142.5,93.5 Z"/></g>
<g><path style="opacity:0.892" fill="#d02836" d="M 142.5,93.5 C 144.167,93.5 145.833,93.5 147.5,93.5C 137.964,124.04 117.63,142.707 86.5,149.5C 82.5,149.5 78.5,149.5 74.5,149.5C 74.5,148.167 74.5,146.833 74.5,145.5C 80.184,145.257 85.8507,144.757 91.5,144C 117.699,136.301 134.699,119.467 142.5,93.5 Z"/></g>
</svg>
