<?xml version="1.0" encoding="UTF-8"?>
<!DOCTYPE svg PUBLIC "-//W3C//DTD SVG 1.1//EN" "http://www.w3.org/Graphics/SVG/1.1/DTD/svg11.dtd">
<svg xmlns="http://www.w3.org/2000/svg" version="1.1" width="150px" height="150px" style="shape-rendering:geometricPrecision; text-rendering:geometricPrecision; image-rendering:optimizeQuality; fill-rule:evenodd; clip-rule:evenodd" xmlns:xlink="http://www.w3.org/1999/xlink">
<g><path style="opacity:0.921" fill="#052470" d="M 74.5,-0.5 C 78.5,-0.5 82.5,-0.5 86.5,-0.5C 120.5,7.5 141.5,28.5 149.5,62.5C 149.5,70.5 149.5,78.5 149.5,86.5C 141.5,120.5 120.5,141.5 86.5,149.5C 78.5,149.5 70.5,149.5 62.5,149.5C 28.5,141.5 7.5,120.5 -0.5,86.5C -0.5,82.5 -0.5,78.5 -0.5,74.5C 0.833333,74.5 2.16667,74.5 3.5,74.5C 5.99937,112.837 25.9994,136.337 63.5,145C 104.671,147.842 131.504,129.675 144,90.5C 145.006,85.3889 145.506,80.2223 145.5,75C 145.488,71.0982 144.821,67.5982 143.5,64.5C 143.5,64.1667 143.5,63.8333 143.5,63.5C 144.613,62.0536 144.78,60.3869 144,58.5C 133.944,23.6121 110.778,5.27872 74.5,3.5C 74.5,2.5 74.5,1.5 74.5,0.5C 74.5,0.166667 74.5,-0.166667 74.5,-0.5 Z"/></g>
<g><path style="opacity:0.939" fill="#142a69" d="M 62.5,0.5 C 58.2033,5.29788 53.7033,9.96455 49,14.5C 48.5014,10.8484 48.3347,7.18174 48.5,3.5C 53.0243,1.86918 57.6909,0.869182 62.5,0.5 Z"/></g>
<g><path style="opacity:1" fill="#c8263a" d="M 67.5,-0.5 C 69.8333,-0.5 72.1667,-0.5 74.5,-0.5C 74.5,-0.166667 74.5,0.166667 74.5,0.5C 65.8683,8.63098 57.3683,16.9643 49,25.5C 48.3333,23.1667 48.3333,20.8333 49,18.5C 55.3694,12.2981 61.5361,5.96481 67.5,-0.5 Z"/></g>
<g><path style="opacity:1" fill="#f9f7f8" d="M 62.5,-0.5 C 64.1667,-0.5 65.8333,-0.5 67.5,-0.5C 61.5361,5.96481 55.3694,12.2981 49,18.5C 48.3333,20.8333 48.3333,23.1667 49,25.5C 57.3683,16.9643 65.8683,8.63098 74.5,0.5C 74.5,1.5 74.5,2.5 74.5,3.5C 74.5,5.5 74.5,7.5 74.5,9.5C 69.0353,14.4636 63.702,19.6303 58.5,25C 63.8229,25.4994 69.1563,25.666 74.5,25.5C 74.5,26.8333 74.5,28.1667 74.5,29.5C 64.5,29.5 54.5,29.5 44.5,29.5C 44.5,21.5 44.5,13.5 44.5,5.5C 45.6715,4.65536 47.0048,3.98869 48.5,3.5C 48.3347,7.18174 48.5014,10.8484 49,14.5C 53.7033,9.96455 58.2033,5.29788 62.5,0.5C 62.5,0.166667 62.5,-0.166667 62.5,-0.5 Z"/></g>
<g><path style="opacity:1" fill="#00247c" d="M 74.5,3.5 C 110.778,5.27872 133.944,23.6121 144,58.5C 144.78,60.3869 144.613,62.0536 143.5,63.5C 141.833,63.5 140.167,63.5 138.5,63.5C 137.5,56.8333 136.5,56.8333 135.5,63.5C 130.758,62.812 129.925,63.812 133,66.5C 132.954,68.3126 133.12,69.9793 133.5,71.5C 135.713,68.9199 137.88,68.9199 140,71.5C 139.744,69.3977 139.911,67.3977 140.5,65.5C 141.609,65.4431 142.609,65.1098 143.5,64.5C 144.821,67.5982 145.488,71.0982 145.5,75C 145.506,80.2223 145.006,85.3889 144,90.5C 131.504,129.675 104.671,147.842 63.5,145C 25.9994,136.337 5.99937,112.837 3.5,74.5C 4.5,74.5 5.5,74.5 6.5,74.5C 7.83333,74.5 9.16667,74.5 10.5,74.5C 15.1667,74.5 19.8333,74.5 24.5,74.5C 24.8333,74.5 25.1667,74.5 25.5,74.5C 26.8333,74.5 28.1667,74.5 29.5,74.5C 34.5,74.5 39.5,74.5 44.5,74.5C 45.8333,74.5 47.1667,74.5 48.5,74.5C 48.8333,74.5 49.1667,74.5 49.5,74.5C 54.5,74.5 59.5,74.5 64.5,74.5C 67.5,74.5 70.5,74.5 73.5,74.5C 74.4682,72.3926 74.8016,70.0593 74.5,67.5C 74.6567,66.1266 74.49,64.7932 74,63.5C 69.6312,58.9633 65.1312,54.6299 60.5,50.5C 65.1667,49.8333 69.8333,49.1667 74.5,48.5C 74.5,47.1667 74.5,45.8333 74.5,44.5C 74.5,39.5 74.5,34.5 74.5,29.5C 74.5,28.1667 74.5,26.8333 74.5,25.5C 74.5,20.1667 74.5,14.8333 74.5,9.5C 74.5,7.5 74.5,5.5 74.5,3.5 Z"/></g>
<g><path style="opacity:1" fill="#ca2838" d="M 44.5,5.5 C 44.5,13.5 44.5,21.5 44.5,29.5C 54.5,29.5 64.5,29.5 74.5,29.5C 74.5,34.5 74.5,39.5 74.5,44.5C 64.5,44.5 54.5,44.5 44.5,44.5C 44.5,54.5 44.5,64.5 44.5,74.5C 39.5,74.5 34.5,74.5 29.5,74.5C 29.5,64.5 29.5,54.5 29.5,44.5C 21.5,44.5 13.5,44.5 5.5,44.5C 7.31507,38.708 10.3151,33.708 14.5,29.5C 19.5,29.5 24.5,29.5 29.5,29.5C 29.5,24.5 29.5,19.5 29.5,14.5C 33.708,10.3151 38.708,7.31507 44.5,5.5 Z"/></g>
<g><path style="opacity:1" fill="#11296f" d="M 74.5,9.5 C 74.5,14.8333 74.5,20.1667 74.5,25.5C 69.1563,25.666 63.8229,25.4994 58.5,25C 63.702,19.6303 69.0353,14.4636 74.5,9.5 Z"/></g>
<g><path style="opacity:1" fill="#f0f0f0" d="M 29.5,14.5 C 29.5,19.5 29.5,24.5 29.5,29.5C 24.5,29.5 19.5,29.5 14.5,29.5C 14.7376,27.5956 15.7376,26.2623 17.5,25.5C 20.1873,25.6641 22.854,25.4974 25.5,25C 24.2949,23.6244 22.9616,22.4577 21.5,21.5C 23.5691,18.4275 26.2358,16.0941 29.5,14.5 Z"/></g>
<g><path style="opacity:1" fill="#bd3f50" d="M 21.5,21.5 C 22.9616,22.4577 24.2949,23.6244 25.5,25C 22.854,25.4974 20.1873,25.6641 17.5,25.5C 18.5,23.8333 19.8333,22.5 21.5,21.5 Z"/></g>
<g><path style="opacity:1" fill="#f5f4f6" d="M 5.5,44.5 C 13.5,44.5 21.5,44.5 29.5,44.5C 29.5,54.5 29.5,64.5 29.5,74.5C 28.1667,74.5 26.8333,74.5 25.5,74.5C 25.8275,69.456 25.4941,64.456 24.5,59.5C 23.8933,59.6236 23.56,59.9569 23.5,60.5C 19.1759,65.1251 14.8426,69.7918 10.5,74.5C 9.16667,74.5 7.83333,74.5 6.5,74.5C 12.4639,68.0352 18.6306,61.7019 25,55.5C 25.6667,53.1667 25.6667,50.8333 25,48.5C 16.6317,57.0357 8.13165,65.369 -0.5,73.5C -0.5,70.1667 -0.5,66.8333 -0.5,63.5C 4.43326,58.9048 9.43326,54.2382 14.5,49.5C 10.8927,48.5108 7.22605,48.1774 3.5,48.5C 4.16667,47.1667 4.83333,45.8333 5.5,44.5 Z"/></g>
<g><path style="opacity:1" fill="#f8f7f9" d="M 74.5,44.5 C 74.5,45.8333 74.5,47.1667 74.5,48.5C 69.456,48.1725 64.456,48.5059 59.5,49.5C 59.6236,50.1067 59.9569,50.44 60.5,50.5C 65.1312,54.6299 69.6312,58.9633 74,63.5C 74.49,64.7932 74.6567,66.1266 74.5,67.5C 68.0352,61.5361 61.7019,55.3694 55.5,49C 53.1667,48.3333 50.8333,48.3333 48.5,49C 57.0357,57.3683 65.369,65.8683 73.5,74.5C 70.5,74.5 67.5,74.5 64.5,74.5C 59.5271,70.1938 54.8604,65.5271 50.5,60.5C 50.44,59.9569 50.1067,59.6236 49.5,59.5C 48.5059,64.456 48.1725,69.456 48.5,74.5C 47.1667,74.5 45.8333,74.5 44.5,74.5C 44.5,64.5 44.5,54.5 44.5,44.5C 54.5,44.5 64.5,44.5 74.5,44.5 Z"/></g>
<g><path style="opacity:1" fill="#a2aed0" d="M 114.5,44.5 C 113.167,45.1667 111.833,45.8333 110.5,46.5C 109.244,46.5386 108.244,46.0386 107.5,45C 109.81,44.5034 112.143,44.3367 114.5,44.5 Z"/></g>
<g><path style="opacity:1" fill="#d1313f" d="M 119.5,47.5 C 118.624,47.3691 117.957,47.7025 117.5,48.5C 118.847,52.1096 118.18,52.4429 115.5,49.5C 113.898,50.55 113.065,49.8833 113,47.5C 112.329,46.7476 111.496,46.4142 110.5,46.5C 111.833,45.8333 113.167,45.1667 114.5,44.5C 115.967,41.7417 116.633,42.075 116.5,45.5C 117.873,45.3433 119.207,45.51 120.5,46C 119.944,46.3826 119.611,46.8826 119.5,47.5 Z"/></g>
<g><path style="opacity:1" fill="#b1b3cf" d="M 119.5,47.5 C 119.611,46.8826 119.944,46.3826 120.5,46C 119.207,45.51 117.873,45.3433 116.5,45.5C 116.633,42.075 115.967,41.7417 114.5,44.5C 115.428,37.9081 116.428,37.9081 117.5,44.5C 119.527,44.3379 121.527,44.5045 123.5,45C 122.529,46.4813 121.196,47.3146 119.5,47.5 Z"/></g>
<g><path style="opacity:1" fill="#445c91" d="M 74.5,48.5 C 69.8333,49.1667 65.1667,49.8333 60.5,50.5C 59.9569,50.44 59.6236,50.1067 59.5,49.5C 64.456,48.5059 69.456,48.1725 74.5,48.5 Z"/></g>
<g><path style="opacity:0.946" fill="#142868" d="M 3.5,48.5 C 7.22605,48.1774 10.8927,48.5108 14.5,49.5C 9.43326,54.2382 4.43326,58.9048 -0.5,63.5C -0.5,63.1667 -0.5,62.8333 -0.5,62.5C 0.810971,57.9374 2.1443,53.2707 3.5,48.5 Z"/></g>
<g><path style="opacity:1" fill="#cd2b3d" d="M 74.5,67.5 C 74.8016,70.0593 74.4682,72.3926 73.5,74.5C 65.369,65.8683 57.0357,57.3683 48.5,49C 50.8333,48.3333 53.1667,48.3333 55.5,49C 61.7019,55.3694 68.0352,61.5361 74.5,67.5 Z"/></g>
<g><path style="opacity:1" fill="#cc2e3f" d="M 6.5,74.5 C 5.5,74.5 4.5,74.5 3.5,74.5C 2.16667,74.5 0.833333,74.5 -0.5,74.5C -0.5,74.1667 -0.5,73.8333 -0.5,73.5C 8.13165,65.369 16.6317,57.0357 25,48.5C 25.6667,50.8333 25.6667,53.1667 25,55.5C 18.6306,61.7019 12.4639,68.0352 6.5,74.5 Z"/></g>
<g><path style="opacity:1" fill="#cfbdcf" d="M 110.5,46.5 C 111.496,46.4142 112.329,46.7476 113,47.5C 113.065,49.8833 113.898,50.55 115.5,49.5C 118.18,52.4429 118.847,52.1096 117.5,48.5C 117.957,47.7025 118.624,47.3691 119.5,47.5C 119.662,49.5273 119.495,51.5273 119,53.5C 116.667,50.8333 114.333,50.8333 112,53.5C 111.405,52.1011 111.572,50.7678 112.5,49.5C 111.807,48.4822 111.141,47.4822 110.5,46.5 Z"/></g>
<g><path style="opacity:1" fill="#425a90" d="M 23.5,60.5 C 23.56,59.9569 23.8933,59.6236 24.5,59.5C 25.4941,64.456 25.8275,69.456 25.5,74.5C 25.1667,74.5 24.8333,74.5 24.5,74.5C 24.8195,69.6367 24.4861,64.97 23.5,60.5 Z"/></g>
<g><path style="opacity:1" fill="#445c90" d="M 50.5,60.5 C 49.5139,64.97 49.1805,69.6367 49.5,74.5C 49.1667,74.5 48.8333,74.5 48.5,74.5C 48.1725,69.456 48.5059,64.456 49.5,59.5C 50.1067,59.6236 50.44,59.9569 50.5,60.5 Z"/></g>
<g><path style="opacity:1" fill="#0b256c" d="M 23.5,60.5 C 24.4861,64.97 24.8195,69.6367 24.5,74.5C 19.8333,74.5 15.1667,74.5 10.5,74.5C 14.8426,69.7918 19.1759,65.1251 23.5,60.5 Z"/></g>
<g><path style="opacity:1" fill="#08236b" d="M 50.5,60.5 C 54.8604,65.5271 59.5271,70.1938 64.5,74.5C 59.5,74.5 54.5,74.5 49.5,74.5C 49.1805,69.6367 49.5139,64.97 50.5,60.5 Z"/></g>
<g><path style="opacity:1" fill="#d02a3a" d="M 140.5,65.5 C 139.069,65.8807 138.236,66.8807 138,68.5C 137,67.1667 136,67.1667 135,68.5C 134.691,67.2341 134.191,66.0674 133.5,65C 134.416,64.7216 135.082,64.2216 135.5,63.5C 136.967,60.7417 137.633,61.075 137.5,64.5C 138.791,64.2627 139.791,64.596 140.5,65.5 Z"/></g>
<g><path style="opacity:1" fill="#d6c7d7" d="M 143.5,63.5 C 143.5,63.8333 143.5,64.1667 143.5,64.5C 142.609,65.1098 141.609,65.4431 140.5,65.5C 139.791,64.596 138.791,64.2627 137.5,64.5C 137.633,61.075 136.967,60.7417 135.5,63.5C 136.5,56.8333 137.5,56.8333 138.5,63.5C 140.167,63.5 141.833,63.5 143.5,63.5 Z"/></g>
<g><path style="opacity:1" fill="#d12e3c" d="M 92.5,68.5 C 92.8807,69.9311 93.8807,70.7645 95.5,71C 94.944,71.3826 94.6107,71.8826 94.5,72.5C 93.7321,73.2625 93.2321,74.2625 93,75.5C 92.0228,74.2264 91.1894,74.2264 90.5,75.5C 89.1001,74.9002 88.1001,73.9002 87.5,72.5C 87.3893,71.8826 87.056,71.3826 86.5,71C 87.7932,70.51 89.1266,70.3433 90.5,70.5C 90.1307,68.0065 90.7973,67.3398 92.5,68.5 Z"/></g>
<g><path style="opacity:1" fill="#d4bccd" d="M 135.5,63.5 C 135.082,64.2216 134.416,64.7216 133.5,65C 134.191,66.0674 134.691,67.2341 135,68.5C 136,67.1667 137,67.1667 138,68.5C 138.236,66.8807 139.069,65.8807 140.5,65.5C 139.911,67.3977 139.744,69.3977 140,71.5C 137.88,68.9199 135.713,68.9199 133.5,71.5C 133.12,69.9793 132.954,68.3126 133,66.5C 129.925,63.812 130.758,62.812 135.5,63.5 Z"/></g>
<g><path style="opacity:1" fill="#cfcbdd" d="M 92.5,68.5 C 90.7973,67.3398 90.1307,68.0065 90.5,70.5C 89.1266,70.3433 87.7932,70.51 86.5,71C 87.056,71.3826 87.3893,71.8826 87.5,72.5C 85.8042,72.3146 84.4709,71.4813 83.5,70C 85.4727,69.5045 87.4727,69.3379 89.5,69.5C 89.3832,67.5165 90.0499,65.8498 91.5,64.5C 92.4287,65.6888 92.762,67.0222 92.5,68.5 Z"/></g>
<g><path style="opacity:1" fill="#d0d0e2" d="M 92.5,68.5 C 94.4144,69.1847 96.4144,69.6847 98.5,70C 97.5291,71.4813 96.1958,72.3146 94.5,72.5C 94.6107,71.8826 94.944,71.3826 95.5,71C 93.8807,70.7645 92.8807,69.9311 92.5,68.5 Z"/></g>
<g><path style="opacity:1" fill="#d1c2d3" d="M 87.5,72.5 C 88.1001,73.9002 89.1001,74.9002 90.5,75.5C 89.6851,76.8366 88.5185,77.8366 87,78.5C 87.1349,76.5753 87.3016,74.5753 87.5,72.5 Z"/></g>
<g><path style="opacity:1" fill="#d5b9c9" d="M 94.5,72.5 C 96.6902,79.0377 95.3569,80.0377 90.5,75.5C 91.1894,74.2264 92.0228,74.2264 93,75.5C 93.2321,74.2625 93.7321,73.2625 94.5,72.5 Z"/></g>
<g><path style="opacity:1" fill="#c3c4da" d="M 117.5,107.5 C 116.778,107.082 116.278,106.416 116,105.5C 115.617,106.056 115.117,106.389 114.5,106.5C 115.838,101.342 116.838,101.676 117.5,107.5 Z"/></g>
<g><path style="opacity:1" fill="#d12e3c" d="M 117.5,107.5 C 117.881,108.931 118.881,109.764 120.5,110C 118.996,111.491 118.163,113.324 118,115.5C 116.708,114.209 115.542,114.209 114.5,115.5C 113.5,114.167 112.5,112.833 111.5,111.5C 111.389,110.883 111.056,110.383 110.5,110C 111.793,109.51 113.127,109.343 114.5,109.5C 114.5,108.5 114.5,107.5 114.5,106.5C 115.117,106.389 115.617,106.056 116,105.5C 116.278,106.416 116.778,107.082 117.5,107.5 Z"/></g>
<g><path style="opacity:1" fill="#dccfdc" d="M 114.5,106.5 C 114.5,107.5 114.5,108.5 114.5,109.5C 113.127,109.343 111.793,109.51 110.5,110C 111.056,110.383 111.389,110.883 111.5,111.5C 109.804,111.315 108.471,110.481 107.5,109C 110.177,108.832 112.51,107.999 114.5,106.5 Z"/></g>
<g><path style="opacity:1" fill="#d3c2d3" d="M 117.5,107.5 C 119.414,108.185 121.414,108.685 123.5,109C 121.981,110.351 120.648,111.851 119.5,113.5C 120.485,115.098 120.651,116.765 120,118.5C 118.512,116.84 116.679,115.84 114.5,115.5C 115.542,114.209 116.708,114.209 118,115.5C 118.163,113.324 118.996,111.491 120.5,110C 118.881,109.764 117.881,108.931 117.5,107.5 Z"/></g>
<g><path style="opacity:1" fill="#c7b7cc" d="M 111.5,111.5 C 112.5,112.833 113.5,114.167 114.5,115.5C 113.685,116.837 112.518,117.837 111,118.5C 111.207,116.249 111.373,113.915 111.5,111.5 Z"/></g>
</svg>
