<?xml version="1.0" encoding="UTF-8"?>
<!DOCTYPE svg PUBLIC "-//W3C//DTD SVG 1.1//EN" "http://www.w3.org/Graphics/SVG/1.1/DTD/svg11.dtd">
<svg xmlns="http://www.w3.org/2000/svg" version="1.1" width="150px" height="150px" style="shape-rendering:geometricPrecision; text-rendering:geometricPrecision; image-rendering:optimizeQuality; fill-rule:evenodd; clip-rule:evenodd" xmlns:xlink="http://www.w3.org/1999/xlink">
<g><path style="opacity:0.884" fill="#dedede" d="M 62.5,-0.5 C 66.5,-0.5 70.5,-0.5 74.5,-0.5C 74.5,0.833333 74.5,2.16667 74.5,3.5C 36.2021,5.95542 12.7021,25.9554 4,63.5C 3.50137,67.1516 3.3347,70.8183 3.5,74.5C 2.16667,74.5 0.833333,74.5 -0.5,74.5C -0.5,70.5 -0.5,66.5 -0.5,62.5C 7.5,28.5 28.5,7.5 62.5,-0.5 Z"/></g>
<g><path style="opacity:0.952" fill="#bd0506" d="M 74.5,-0.5 C 78.5,-0.5 82.5,-0.5 86.5,-0.5C 120.5,7.5 141.5,28.5 149.5,62.5C 149.5,66.5 149.5,70.5 149.5,74.5C 148.167,74.5 146.833,74.5 145.5,74.5C 143.539,38.4243 125.205,15.2577 90.5,5C 85.2074,4.02298 79.8741,3.52298 74.5,3.5C 74.5,2.16667 74.5,0.833333 74.5,-0.5 Z"/></g>
<g><path style="opacity:1" fill="#fefefe" d="M 74.5,3.5 C 74.5,27.1667 74.5,50.8333 74.5,74.5C 50.8333,74.5 27.1667,74.5 3.5,74.5C 3.3347,70.8183 3.50137,67.1516 4,63.5C 12.7021,25.9554 36.2021,5.95542 74.5,3.5 Z"/></g>
<g><path style="opacity:1" fill="#d70000" d="M 74.5,3.5 C 79.8741,3.52298 85.2074,4.02298 90.5,5C 125.205,15.2577 143.539,38.4243 145.5,74.5C 121.833,74.5 98.1667,74.5 74.5,74.5C 74.5,50.8333 74.5,27.1667 74.5,3.5 Z"/></g>
<g><path style="opacity:1" fill="#182d5f" d="M 36.5,22.5 C 38.4384,26.1254 40.105,29.9587 41.5,34C 46.1667,34.3333 50.8333,34.6667 55.5,35C 51.3808,37.2905 47.7142,40.1238 44.5,43.5C 46.2081,47.4457 47.3748,51.4457 48,55.5C 44.6553,52.661 40.9886,50.3276 37,48.5C 33.0114,50.3276 29.3447,52.661 26,55.5C 27.3984,51.2945 28.3984,46.9612 29,42.5C 25.588,39.8773 22.088,37.3773 18.5,35C 23.1667,34.6667 27.8333,34.3333 32.5,34C 34.1314,30.2725 35.4648,26.4391 36.5,22.5 Z"/></g>
<g><path style="opacity:1" fill="#072256" d="M -0.5,74.5 C 0.833333,74.5 2.16667,74.5 3.5,74.5C 27.1667,74.5 50.8333,74.5 74.5,74.5C 74.5,98.1667 74.5,121.833 74.5,145.5C 74.5,146.833 74.5,148.167 74.5,149.5C 70.5,149.5 66.5,149.5 62.5,149.5C 28.5,141.5 7.5,120.5 -0.5,86.5C -0.5,82.5 -0.5,78.5 -0.5,74.5 Z"/></g>
<g><path style="opacity:1" fill="#fefefe" d="M 74.5,74.5 C 98.1667,74.5 121.833,74.5 145.5,74.5C 143.478,110.028 125.478,133.195 91.5,144C 85.8507,144.757 80.184,145.257 74.5,145.5C 74.5,121.833 74.5,98.1667 74.5,74.5 Z"/></g>
<g><path style="opacity:0.879" fill="#dfdfdf" d="M 145.5,74.5 C 146.833,74.5 148.167,74.5 149.5,74.5C 149.5,78.5 149.5,82.5 149.5,86.5C 141.5,120.5 120.5,141.5 86.5,149.5C 82.5,149.5 78.5,149.5 74.5,149.5C 74.5,148.167 74.5,146.833 74.5,145.5C 80.184,145.257 85.8507,144.757 91.5,144C 125.478,133.195 143.478,110.028 145.5,74.5 Z"/></g>
<g><path style="opacity:1" fill="#dc2424" d="M 91.5,107.5 C 95.5,106.833 99.5,106.167 103.5,105.5C 105.266,101.715 106.766,97.7152 108,93.5C 109.793,97.046 111.293,100.713 112.5,104.5C 117.132,105.328 121.798,105.828 126.5,106C 122.833,108.833 119.167,111.667 115.5,114.5C 117.208,118.446 118.375,122.446 119,126.5C 115.655,123.661 111.989,121.328 108,119.5C 104.934,121.619 101.768,123.619 98.5,125.5C 98.1667,125.167 97.8333,124.833 97.5,124.5C 99.2875,120.989 100.121,117.322 100,113.5C 97.2872,111.28 94.4539,109.28 91.5,107.5 Z"/></g>
<g><path style="opacity:1" fill="#f0a1a5" d="M 103.5,105.5 C 99.5,106.167 95.5,106.833 91.5,107.5C 90.9569,107.44 90.6236,107.107 90.5,106.5C 94.7828,105.508 99.1161,105.174 103.5,105.5 Z"/></g>
</svg>
