<?xml version="1.0" encoding="UTF-8"?>
<!DOCTYPE svg PUBLIC "-//W3C//DTD SVG 1.1//EN" "http://www.w3.org/Graphics/SVG/1.1/DTD/svg11.dtd">
<svg xmlns="http://www.w3.org/2000/svg" version="1.1" width="150px" height="150px" style="shape-rendering:geometricPrecision; text-rendering:geometricPrecision; image-rendering:optimizeQuality; fill-rule:evenodd; clip-rule:evenodd" xmlns:xlink="http://www.w3.org/1999/xlink">
<g><path style="opacity:0.953" fill="#ba2a1f" d="M 62.5,-0.5 C 70.5,-0.5 78.5,-0.5 86.5,-0.5C 115.304,5.2985 134.971,21.9652 145.5,49.5C 144.167,49.5 142.833,49.5 141.5,49.5C 141.167,49.5 140.833,49.5 140.5,49.5C 128.535,19.7433 106.368,4.40994 74,3.5C 42.1668,4.83506 20.0001,20.1684 7.5,49.5C 6.16667,49.5 4.83333,49.5 3.5,49.5C 14.0292,21.9652 33.6959,5.2985 62.5,-0.5 Z"/></g>
<g><path style="opacity:1" fill="#d42b1e" d="M 140.5,49.5 C 96.1667,49.5 51.8333,49.5 7.5,49.5C 20.0001,20.1684 42.1668,4.83506 74,3.5C 106.368,4.40994 128.535,19.7433 140.5,49.5 Z"/></g>
<g><path style="opacity:0.903" fill="#dfdfdf" d="M 3.5,49.5 C 4.83333,49.5 6.16667,49.5 7.5,49.5C 2.27292,66.1763 2.27292,82.843 7.5,99.5C 6.16667,99.5 4.83333,99.5 3.5,99.5C 1.9945,95.1247 0.661164,90.7914 -0.5,86.5C -0.5,78.5 -0.5,70.5 -0.5,62.5C 0.661164,58.2086 1.9945,53.8753 3.5,49.5 Z"/></g>
<g><path style="opacity:1" fill="#fefefe" d="M 7.5,49.5 C 51.8333,49.5 96.1667,49.5 140.5,49.5C 140.833,49.5 141.167,49.5 141.5,49.5C 146.806,66.153 146.806,82.8196 141.5,99.5C 96.8333,99.5 52.1667,99.5 7.5,99.5C 2.27292,82.843 2.27292,66.1763 7.5,49.5 Z"/></g>
<g><path style="opacity:0.903" fill="#dedede" d="M 141.5,49.5 C 142.833,49.5 144.167,49.5 145.5,49.5C 147.006,53.8753 148.339,58.2086 149.5,62.5C 149.5,70.5 149.5,78.5 149.5,86.5C 148.339,90.7914 147.006,95.1247 145.5,99.5C 144.167,99.5 142.833,99.5 141.5,99.5C 146.806,82.8196 146.806,66.153 141.5,49.5 Z"/></g>
<g><path style="opacity:1" fill="#d8d8d8" d="M 71.5,54.5 C 85.0723,54.4071 92.739,61.0738 94.5,74.5C 93.5079,86.8255 86.8412,93.4921 74.5,94.5C 62.6042,92.7708 55.9375,85.9375 54.5,74C 56.1551,63.8537 61.8218,57.3537 71.5,54.5 Z"/></g>
<g><path style="opacity:1" fill="#7e7e7e" d="M 78.5,59.5 C 78.6495,60.552 78.4828,61.552 78,62.5C 77.0138,61.8288 75.8471,61.8288 74.5,62.5C 74.238,61.0222 74.5713,59.6888 75.5,58.5C 76.213,60.435 77.213,60.7683 78.5,59.5 Z"/></g>
<g><path style="opacity:1" fill="#eff3ef" d="M 78.5,59.5 C 79.5,59.8333 80.1667,60.5 80.5,61.5C 80.9371,63.0744 81.9371,64.2411 83.5,65C 82.4019,65.7697 82.4019,66.603 83.5,67.5C 81.5056,66.6503 79.5056,66.1503 77.5,66C 84.6074,72.7663 83.6074,78.2663 74.5,82.5C 69.041,80.2934 66.8744,76.2934 68,70.5C 69.3513,68.981 70.8513,67.6477 72.5,66.5C 71.635,65.4173 70.635,65.2506 69.5,66C 67.6769,66.9973 66.0103,68.1639 64.5,69.5C 66.064,65.2642 69.064,62.9308 73.5,62.5C 73.8333,62.5 74.1667,62.5 74.5,62.5C 75.8471,61.8288 77.0138,61.8288 78,62.5C 78.4828,61.552 78.6495,60.552 78.5,59.5 Z"/></g>
<g><path style="opacity:1" fill="#797979" d="M 73.5,62.5 C 69.064,62.9308 66.064,65.2642 64.5,69.5C 63.7777,70.5511 62.7777,71.2178 61.5,71.5C 58.8749,70.5595 58.8749,69.3928 61.5,68C 60.6598,66.3335 61.1598,66.1669 63,67.5C 63.6172,66.5509 63.4506,65.7175 62.5,65C 63.6667,64.5 64.5,63.6667 65,62.5C 65.3333,63.1667 65.6667,63.8333 66,64.5C 67.0437,63.3774 67.7104,62.0441 68,60.5C 70.0214,63.2862 71.5214,62.9528 72.5,59.5C 73.3857,60.325 73.719,61.325 73.5,62.5 Z"/></g>
<g><path style="opacity:1" fill="#369953" d="M 83.5,67.5 C 83.2627,68.791 83.596,69.791 84.5,70.5C 84.2155,72.8771 84.2155,75.0438 84.5,77C 83.1198,78.3236 82.7865,79.6569 83.5,81C 81.3825,81.2602 79.7158,82.2602 78.5,84C 68.58,84.7872 63.9133,79.9539 64.5,69.5C 66.0103,68.1639 67.6769,66.9973 69.5,66C 70.635,65.2506 71.635,65.4173 72.5,66.5C 70.8513,67.6477 69.3513,68.981 68,70.5C 66.8744,76.2934 69.041,80.2934 74.5,82.5C 83.6074,78.2663 84.6074,72.7663 77.5,66C 79.5056,66.1503 81.5056,66.6503 83.5,67.5 Z"/></g>
<g><path style="opacity:1" fill="#a5a6a5" d="M 86.5,83.5 C 85.2874,80.1992 85.2874,76.8659 86.5,73.5C 86.3333,72.5 86.1667,71.5 86,70.5C 85.31,69.2617 84.81,69.2617 84.5,70.5C 83.596,69.791 83.2627,68.791 83.5,67.5C 82.4019,66.603 82.4019,65.7697 83.5,65C 81.9371,64.2411 80.9371,63.0744 80.5,61.5C 81.9733,60.9285 83.64,60.9285 85.5,61.5C 85.3433,62.8734 85.51,64.2068 86,65.5C 86.8893,64.1118 87.3893,64.2785 87.5,66C 87.3552,66.772 87.0219,67.4387 86.5,68C 89.9988,68.8762 91.3321,71.2095 90.5,75C 91.2454,78.9157 89.912,81.749 86.5,83.5 Z"/></g>
<g><path style="opacity:1" fill="#424242" d="M 87.5,77.5 C 90.1368,79.1538 89.8034,79.6538 86.5,79C 87.056,78.6174 87.3893,78.1174 87.5,77.5 Z"/></g>
<g><path style="opacity:1" fill="#eff1f0" d="M 64.5,69.5 C 63.9133,79.9539 68.58,84.7872 78.5,84C 79.7158,82.2602 81.3825,81.2602 83.5,81C 82.7865,79.6569 83.1198,78.3236 84.5,77C 84.2155,75.0438 84.2155,72.8771 84.5,70.5C 84.81,69.2617 85.31,69.2617 86,70.5C 86.1667,71.5 86.3333,72.5 86.5,73.5C 85.2874,76.8659 85.2874,80.1992 86.5,83.5C 82.181,89.0875 76.5144,90.9209 69.5,89C 67.1384,87.4894 64.8051,85.9894 62.5,84.5C 65.338,82.4643 65.0046,80.9643 61.5,80C 62.1667,79.6667 62.8333,79.3333 63.5,79C 62.7069,77.9148 62.0402,76.7481 61.5,75.5C 62.8069,74.135 62.8069,72.8016 61.5,71.5C 62.7777,71.2178 63.7777,70.5511 64.5,69.5 Z"/></g>
<g><path style="opacity:1" fill="#e9d02f" d="M 73.5,71.5 C 78.5376,73.4098 78.3709,75.4098 73,77.5C 72.5099,75.4546 72.6765,73.4546 73.5,71.5 Z"/></g>
<g><path style="opacity:1" fill="#8b8b8b" d="M 61.5,71.5 C 62.8069,72.8016 62.8069,74.135 61.5,75.5C 62.0402,76.7481 62.7069,77.9148 63.5,79C 62.8333,79.3333 62.1667,79.6667 61.5,80C 65.0046,80.9643 65.338,82.4643 62.5,84.5C 59.1922,80.9027 57.8588,76.5693 58.5,71.5C 59.5,71.5 60.5,71.5 61.5,71.5 Z"/></g>
<g><path style="opacity:0.93" fill="#043595" d="M 3.5,99.5 C 4.83333,99.5 6.16667,99.5 7.5,99.5C 19.8714,128.523 41.8714,143.857 73.5,145.5C 105.978,144.599 128.645,129.266 141.5,99.5C 142.833,99.5 144.167,99.5 145.5,99.5C 134.971,127.035 115.304,143.702 86.5,149.5C 78.5,149.5 70.5,149.5 62.5,149.5C 33.6959,143.702 14.0292,127.035 3.5,99.5 Z"/></g>
<g><path style="opacity:1" fill="#0037a7" d="M 7.5,99.5 C 52.1667,99.5 96.8333,99.5 141.5,99.5C 128.645,129.266 105.978,144.599 73.5,145.5C 41.8714,143.857 19.8714,128.523 7.5,99.5 Z"/></g>
</svg>
