<?xml version="1.0" encoding="UTF-8"?>
<!DOCTYPE svg PUBLIC "-//W3C//DTD SVG 1.1//EN" "http://www.w3.org/Graphics/SVG/1.1/DTD/svg11.dtd">
<svg xmlns="http://www.w3.org/2000/svg" version="1.1" width="150px" height="150px" style="shape-rendering:geometricPrecision; text-rendering:geometricPrecision; image-rendering:optimizeQuality; fill-rule:evenodd; clip-rule:evenodd" xmlns:xlink="http://www.w3.org/1999/xlink">
<g><path style="opacity:0.944" fill="#de0506" d="M 62.5,-0.5 C 70.5,-0.5 78.5,-0.5 86.5,-0.5C 120.5,7.5 141.5,28.5 149.5,62.5C 149.5,70.5 149.5,78.5 149.5,86.5C 141.5,120.5 120.5,141.5 86.5,149.5C 78.5,149.5 70.5,149.5 62.5,149.5C 61.791,148.596 60.791,148.263 59.5,148.5C 59.5,147.167 59.5,145.833 59.5,144.5C 97.3625,149.44 124.529,134.773 141,100.5C 151.603,67.9853 144.103,40.4853 118.5,18C 100.702,5.46767 81.0351,0.967668 59.5,4.5C 59.5,3.16667 59.5,1.83333 59.5,0.5C 60.791,0.737305 61.791,0.403972 62.5,-0.5 Z"/></g>
<g><path style="opacity:0.939" fill="#045c05" d="M 59.5,0.5 C 59.5,1.83333 59.5,3.16667 59.5,4.5C 59.5,4.83333 59.5,5.16667 59.5,5.5C 24.0242,14.7541 5.35755,37.7541 3.5,74.5C 5.36567,111.272 24.0323,134.272 59.5,143.5C 59.5,143.833 59.5,144.167 59.5,144.5C 59.5,145.833 59.5,147.167 59.5,148.5C 26.9065,139.908 6.9065,119.241 -0.5,86.5C -0.5,78.5 -0.5,70.5 -0.5,62.5C 6.9065,29.7585 26.9065,9.09188 59.5,0.5 Z"/></g>
<g><path style="opacity:1" fill="#fe0000" d="M 59.5,144.5 C 59.5,144.167 59.5,143.833 59.5,143.5C 59.5,131.5 59.5,119.5 59.5,107.5C 59.8333,107.5 60.1667,107.5 60.5,107.5C 62.099,107.768 63.4324,107.434 64.5,106.5C 74.2056,105.444 81.5389,100.777 86.5,92.5C 87.5,92.1667 88.1667,91.5 88.5,90.5C 95.5397,74.8632 92.873,61.0298 80.5,49C 76.8562,46.3441 72.8562,44.5107 68.5,43.5C 66.1617,41.9605 63.4951,41.2938 60.5,41.5C 60.1667,41.5 59.8333,41.5 59.5,41.5C 59.5,29.5 59.5,17.5 59.5,5.5C 59.5,5.16667 59.5,4.83333 59.5,4.5C 81.0351,0.967668 100.702,5.46767 118.5,18C 144.103,40.4853 151.603,67.9853 141,100.5C 124.529,134.773 97.3625,149.44 59.5,144.5 Z"/></g>
<g><path style="opacity:1" fill="#006500" d="M 59.5,5.5 C 59.5,17.5 59.5,29.5 59.5,41.5C 59.1667,41.5 58.8333,41.5 58.5,41.5C 52.0265,41.5446 46.3599,43.5446 41.5,47.5C 36.4216,50.2435 32.7549,54.2435 30.5,59.5C 26.6573,66.4764 25.6573,73.8097 27.5,81.5C 29.8882,92.8881 36.5548,100.555 47.5,104.5C 50.763,106.568 54.4296,107.568 58.5,107.5C 58.8333,107.5 59.1667,107.5 59.5,107.5C 59.5,119.5 59.5,131.5 59.5,143.5C 24.0323,134.272 5.36567,111.272 3.5,74.5C 5.35755,37.7541 24.0242,14.7541 59.5,5.5 Z"/></g>
<g><path style="opacity:1" fill="#e9e900" d="M 58.5,41.5 C 58.8333,41.5 59.1667,41.5 59.5,41.5C 59.8333,41.5 60.1667,41.5 60.5,41.5C 60.5,44.8333 60.5,48.1667 60.5,51.5C 59.8333,51.5 59.1667,51.5 58.5,51.5C 58.5,48.1667 58.5,44.8333 58.5,41.5 Z"/></g>
<g><path style="opacity:1" fill="#a1a800" d="M 58.5,41.5 C 58.5,44.8333 58.5,48.1667 58.5,51.5C 58.1667,51.5 57.8333,51.5 57.5,51.5C 57.5,49.5 57.5,47.5 57.5,45.5C 55.0971,45.448 52.7638,45.7814 50.5,46.5C 52.0261,44.87 54.0261,44.0367 56.5,44C 57.6956,43.3457 57.6956,42.8457 56.5,42.5C 51.2819,43.5727 46.2819,45.2393 41.5,47.5C 46.3599,43.5446 52.0265,41.5446 58.5,41.5 Z"/></g>
<g><path style="opacity:1" fill="#0b6600" d="M 57.5,51.5 C 52.1667,51.5 46.8333,51.5 41.5,51.5C 44.0516,49.0568 47.0516,47.3901 50.5,46.5C 52.7638,45.7814 55.0971,45.448 57.5,45.5C 57.5,47.5 57.5,49.5 57.5,51.5 Z"/></g>
<g><path style="opacity:1" fill="#a98f00" d="M 60.5,41.5 C 63.4951,41.2938 66.1617,41.9605 68.5,43.5C 66.4086,43.6816 64.4086,43.3482 62.5,42.5C 62.1667,42.6667 61.8333,42.8333 61.5,43C 62.5707,43.8518 63.5707,44.6851 64.5,45.5C 63.5,45.5 62.5,45.5 61.5,45.5C 61.5,47.5 61.5,49.5 61.5,51.5C 61.1667,51.5 60.8333,51.5 60.5,51.5C 60.5,48.1667 60.5,44.8333 60.5,41.5 Z"/></g>
<g><path style="opacity:1" fill="#f80500" d="M 64.5,45.5 C 69.4553,46.3639 73.7886,48.3639 77.5,51.5C 72.1667,51.5 66.8333,51.5 61.5,51.5C 61.5,49.5 61.5,47.5 61.5,45.5C 62.5,45.5 63.5,45.5 64.5,45.5 Z"/></g>
<g><path style="opacity:1" fill="#aeac9b" d="M 41.5,51.5 C 46.8333,51.5 52.1667,51.5 57.5,51.5C 57.8333,51.5 58.1667,51.5 58.5,51.5C 59.1667,51.5 59.8333,51.5 60.5,51.5C 60.8333,51.5 61.1667,51.5 61.5,51.5C 66.8333,51.5 72.1667,51.5 77.5,51.5C 79.3079,52.9179 79.9746,54.9179 79.5,57.5C 79.5,58.1667 79.5,58.8333 79.5,59.5C 79.5,60.5 79.5,61.5 79.5,62.5C 79.5,64.5 79.5,66.5 79.5,68.5C 79.5,69.8333 79.5,71.1667 79.5,72.5C 79.5,73.8333 79.5,75.1667 79.5,76.5C 79.7678,78.099 79.4345,79.4324 78.5,80.5C 78.5,71.1667 78.5,61.8333 78.5,52.5C 76.8333,52.5 75.1667,52.5 73.5,52.5C 62.5,52.5 51.5,52.5 40.5,52.5C 40.2598,63.5313 40.5931,74.5313 41.5,85.5C 41.1667,85.5 40.8333,85.5 40.5,85.5C 40.3713,83.7839 40.038,82.1172 39.5,80.5C 39.5,79.1667 39.5,77.8333 39.5,76.5C 39.5,74.8333 39.5,73.1667 39.5,71.5C 39.5,69.1667 39.5,66.8333 39.5,64.5C 39.5,64.1667 39.5,63.8333 39.5,63.5C 38.9106,59.0293 39.5772,55.0293 41.5,51.5 Z"/></g>
<g><path style="opacity:1" fill="#d7d800" d="M 50.5,46.5 C 47.0516,47.3901 44.0516,49.0568 41.5,51.5C 39.5772,55.0293 38.9106,59.0293 39.5,63.5C 36.5274,62.0134 33.5274,60.6801 30.5,59.5C 32.7549,54.2435 36.4216,50.2435 41.5,47.5C 46.2819,45.2393 51.2819,43.5727 56.5,42.5C 57.6956,42.8457 57.6956,43.3457 56.5,44C 54.0261,44.0367 52.0261,44.87 50.5,46.5 Z"/></g>
<g><path style="opacity:1" fill="#ab9c00" d="M 73.5,53.5 C 76.6973,54.1124 78.0306,56.1124 77.5,59.5C 75.8333,59.5 74.1667,59.5 72.5,59.5C 72.5,57.8333 72.5,56.1667 72.5,54.5C 73.1667,54.5 73.5,54.1667 73.5,53.5 Z"/></g>
<g><path style="opacity:1" fill="#e41200" d="M 79.5,57.5 C 84.6397,57.5835 84.6397,58.2502 79.5,59.5C 79.5,58.8333 79.5,58.1667 79.5,57.5 Z"/></g>
<g><path style="opacity:1" fill="#ceca08" d="M 68.5,43.5 C 72.8562,44.5107 76.8562,46.3441 80.5,49C 92.873,61.0298 95.5397,74.8632 88.5,90.5C 86.1152,87.7883 83.7819,85.1216 81.5,82.5C 78.9236,82.7218 78.0902,84.0551 79,86.5C 81.106,89.1174 83.606,91.1174 86.5,92.5C 81.5389,100.777 74.2056,105.444 64.5,106.5C 63.325,106.719 62.325,106.386 61.5,105.5C 62.6016,104.824 63.6016,104.158 64.5,103.5C 70.3043,102.598 75.3043,100.098 79.5,96C 74.2762,96.8093 68.9428,97.3093 63.5,97.5C 63.5,97.1667 63.5,96.8333 63.5,96.5C 66.1192,96.0745 68.4525,95.0745 70.5,93.5C 72.4286,93.7692 74.0953,93.2692 75.5,92C 74.8333,91.6667 74.1667,91.3333 73.5,91C 74.3805,90.2917 75.0472,89.4584 75.5,88.5C 76.7298,86.7028 77.3964,84.7028 77.5,82.5C 78.3382,82.1583 78.6716,81.4916 78.5,80.5C 79.4345,79.4324 79.7678,78.099 79.5,76.5C 91.5,75.1667 91.5,73.8333 79.5,72.5C 79.5,71.1667 79.5,69.8333 79.5,68.5C 82.2377,68.8511 84.9044,69.5178 87.5,70.5C 89.2292,63.253 86.5626,60.5863 79.5,62.5C 79.5,61.5 79.5,60.5 79.5,59.5C 84.6397,58.2502 84.6397,57.5835 79.5,57.5C 79.9746,54.9179 79.3079,52.9179 77.5,51.5C 73.7886,48.3639 69.4553,46.3639 64.5,45.5C 63.5707,44.6851 62.5707,43.8518 61.5,43C 61.8333,42.8333 62.1667,42.6667 62.5,42.5C 64.4086,43.3482 66.4086,43.6816 68.5,43.5 Z"/></g>
<g><path style="opacity:1" fill="#cc402e" d="M 48.5,60.5 C 48.5,67.1667 48.5,73.8333 48.5,80.5C 47.5489,79.0813 47.2155,77.4147 47.5,75.5C 45.2646,75.7947 43.2646,75.4614 41.5,74.5C 43.1667,74.5 44.8333,74.5 46.5,74.5C 46.5,72.8333 46.5,71.1667 46.5,69.5C 47.1667,66.5 47.8333,63.5 48.5,60.5 Z"/></g>
<g><path style="opacity:1" fill="#f2f2f7" d="M 48.5,60.5 C 55.8333,60.5 63.1667,60.5 70.5,60.5C 70.5,66.8333 70.5,73.1667 70.5,79.5C 68.0431,88.4965 62.3764,91.3299 53.5,88C 50.8002,86.1433 49.1335,83.6433 48.5,80.5C 48.5,73.8333 48.5,67.1667 48.5,60.5 Z"/></g>
<g><path style="opacity:1" fill="#c42714" d="M 73.5,53.5 C 73.5,53.1667 73.5,52.8333 73.5,52.5C 75.1667,52.5 76.8333,52.5 78.5,52.5C 78.5,61.8333 78.5,71.1667 78.5,80.5C 78.6716,81.4916 78.3382,82.1583 77.5,82.5C 77.5,80.1667 77.5,77.8333 77.5,75.5C 75.5,75.5 73.5,75.5 71.5,75.5C 71.7678,77.099 71.4345,78.4324 70.5,79.5C 70.5,73.1667 70.5,66.8333 70.5,60.5C 63.1667,60.5 55.8333,60.5 48.5,60.5C 50.9479,59.5269 53.6146,59.1936 56.5,59.5C 58.5,59.5 60.5,59.5 62.5,59.5C 65.5,59.5 68.5,59.5 71.5,59.5C 71.2155,57.5853 71.5489,55.9187 72.5,54.5C 72.5,56.1667 72.5,57.8333 72.5,59.5C 74.1667,59.5 75.8333,59.5 77.5,59.5C 78.0306,56.1124 76.6973,54.1124 73.5,53.5 Z"/></g>
<g><path style="opacity:1" fill="#fe0000" d="M 77.5,69.5 C 75.7659,68.438 74.0992,68.438 72.5,69.5C 71.5233,66.7131 71.19,63.7131 71.5,60.5C 73.5,60.5 75.5,60.5 77.5,60.5C 77.5,63.5 77.5,66.5 77.5,69.5 Z"/></g>
<g><path style="opacity:1" fill="#869ece" d="M 61.5,67.5 C 62.0268,65.971 61.3601,64.6377 59.5,63.5C 57.6399,64.6377 56.9732,65.971 57.5,67.5C 55.8231,63.0143 57.3231,61.681 62,63.5C 62.765,65.0657 62.5983,66.3991 61.5,67.5 Z"/></g>
<g><path style="opacity:1" fill="#ef1e00" d="M 79.5,68.5 C 79.5,66.5 79.5,64.5 79.5,62.5C 86.5626,60.5863 89.2292,63.253 87.5,70.5C 84.9044,69.5178 82.2377,68.8511 79.5,68.5 Z"/></g>
<g><path style="opacity:1" fill="#2247a3" d="M 61.5,67.5 C 60.1667,70.1667 58.8333,70.1667 57.5,67.5C 56.9732,65.971 57.6399,64.6377 59.5,63.5C 61.3601,64.6377 62.0268,65.971 61.5,67.5 Z"/></g>
<g><path style="opacity:1" fill="#f1f100" d="M 39.5,64.5 C 39.5,66.8333 39.5,69.1667 39.5,71.5C 39.1667,71.5 38.8333,71.5 38.5,71.5C 30.7044,71.595 30.7044,70.7616 38.5,69C 36.5952,67.5787 34.5952,66.412 32.5,65.5C 32.281,64.325 32.6143,63.325 33.5,62.5C 35.323,63.7472 37.323,64.4139 39.5,64.5 Z"/></g>
<g><path style="opacity:1" fill="#bbbe00" d="M 30.5,59.5 C 33.5274,60.6801 36.5274,62.0134 39.5,63.5C 39.5,63.8333 39.5,64.1667 39.5,64.5C 37.323,64.4139 35.323,63.7472 33.5,62.5C 32.6143,63.325 32.281,64.325 32.5,65.5C 34.5952,66.412 36.5952,67.5787 38.5,69C 30.7044,70.7616 30.7044,71.595 38.5,71.5C 27.6469,73.9637 27.9802,75.6303 39.5,76.5C 39.5,77.8333 39.5,79.1667 39.5,80.5C 36.7623,80.1489 34.0956,79.4822 31.5,78.5C 30.9426,80.7175 30.9426,83.0509 31.5,85.5C 29.7773,83.22 29.1107,80.5533 29.5,77.5C 30.8734,77.6567 32.2068,77.49 33.5,77C 31.7818,76.654 30.1151,76.154 28.5,75.5C 27.5344,77.396 27.2011,79.396 27.5,81.5C 25.6573,73.8097 26.6573,66.4764 30.5,59.5 Z"/></g>
<g><path style="opacity:1" fill="#176400" d="M 32.5,65.5 C 33.2899,66.7942 34.2899,67.9609 35.5,69C 33.8988,69.2734 32.3988,69.7734 31,70.5C 30.1231,68.3258 30.6231,66.6591 32.5,65.5 Z"/></g>
<g><path style="opacity:1" fill="#b8ae00" d="M 46.5,69.5 C 46.5,71.1667 46.5,72.8333 46.5,74.5C 44.8333,74.5 43.1667,74.5 41.5,74.5C 40.8834,70.0107 42.5501,68.344 46.5,69.5 Z"/></g>
<g><path style="opacity:1" fill="#baad00" d="M 77.5,69.5 C 77.5,71.1667 77.5,72.8333 77.5,74.5C 75.8333,74.5 74.1667,74.5 72.5,74.5C 72.5,72.8333 72.5,71.1667 72.5,69.5C 74.0992,68.438 75.7659,68.438 77.5,69.5 Z"/></g>
<g><path style="opacity:1" fill="#1e6900" d="M 38.5,71.5 C 38.8333,71.5 39.1667,71.5 39.5,71.5C 39.5,73.1667 39.5,74.8333 39.5,76.5C 27.9802,75.6303 27.6469,73.9637 38.5,71.5 Z"/></g>
<g><path style="opacity:1" fill="#ef2200" d="M 79.5,72.5 C 91.5,73.8333 91.5,75.1667 79.5,76.5C 79.5,75.1667 79.5,73.8333 79.5,72.5 Z"/></g>
<g><path style="opacity:1" fill="#3957ab" d="M 50.5,72.5 C 51.9187,71.5489 53.5853,71.2155 55.5,71.5C 56.5918,76.1225 54.9252,77.9558 50.5,77C 50.5618,75.395 50.5618,73.895 50.5,72.5 Z"/></g>
<g><path style="opacity:1" fill="#2149a4" d="M 64.5,72.5 C 65.6009,71.4017 66.9343,71.235 68.5,72C 68.5,73.6667 68.5,75.3333 68.5,77C 67.1667,77.6667 65.8333,77.6667 64.5,77C 64.5618,75.395 64.5618,73.895 64.5,72.5 Z"/></g>
<g><path style="opacity:1" fill="#f20e03" d="M 73.5,52.5 C 73.5,52.8333 73.5,53.1667 73.5,53.5C 73.5,54.1667 73.1667,54.5 72.5,54.5C 71.5489,55.9187 71.2155,57.5853 71.5,59.5C 68.5,59.5 65.5,59.5 62.5,59.5C 63.1265,55.055 61.4598,53.3883 57.5,54.5C 56.5481,56.0453 56.2148,57.712 56.5,59.5C 53.6146,59.1936 50.9479,59.5269 48.5,60.5C 47.8333,63.5 47.1667,66.5 46.5,69.5C 42.5501,68.344 40.8834,70.0107 41.5,74.5C 43.2646,75.4614 45.2646,75.7947 47.5,75.5C 47.2155,77.4147 47.5489,79.0813 48.5,80.5C 49.1335,83.6433 50.8002,86.1433 53.5,88C 62.3764,91.3299 68.0431,88.4965 70.5,79.5C 71.4345,78.4324 71.7678,77.099 71.5,75.5C 73.5,75.5 75.5,75.5 77.5,75.5C 77.5,77.8333 77.5,80.1667 77.5,82.5C 77.3964,84.7028 76.7298,86.7028 75.5,88.5C 75.1667,88.5 74.8333,88.5 74.5,88.5C 72.2415,83.2626 69.9082,83.2626 67.5,88.5C 68.1882,89.8549 69.1882,90.8549 70.5,91.5C 70.5,92.1667 70.5,92.8333 70.5,93.5C 68.4525,95.0745 66.1192,96.0745 63.5,96.5C 58.6383,96.8824 53.9716,96.2157 49.5,94.5C 48.5084,94.6716 47.8417,94.3382 47.5,93.5C 45.0838,91.0922 43.0838,88.4256 41.5,85.5C 40.5931,74.5313 40.2598,63.5313 40.5,52.5C 51.5,52.5 62.5,52.5 73.5,52.5 Z"/></g>
<g><path style="opacity:1" fill="#a28a00" d="M 62.5,59.5 C 60.5,59.5 58.5,59.5 56.5,59.5C 56.2148,57.712 56.5481,56.0453 57.5,54.5C 61.4598,53.3883 63.1265,55.055 62.5,59.5 Z"/></g>
<g><path style="opacity:1" fill="#9f9500" d="M 43.5,53.5 C 44.4959,53.4142 45.3292,53.7476 46,54.5C 46.4935,56.1341 46.6602,57.8008 46.5,59.5C 44.8333,59.5 43.1667,59.5 41.5,59.5C 41.2587,57.1137 41.9254,55.1137 43.5,53.5 Z"/></g>
<g><path style="opacity:1" fill="#1d45a2" d="M 57.5,72.5 C 58.6009,71.4017 59.9343,71.235 61.5,72C 61.5,73.6667 61.5,75.3333 61.5,77C 60.1667,77.6667 58.8333,77.6667 57.5,77C 57.5618,75.395 57.5618,73.895 57.5,72.5 Z"/></g>
<g><path style="opacity:1" fill="#0b6400" d="M 39.5,80.5 C 40.038,82.1172 40.3713,83.7839 40.5,85.5C 38.1346,86.0084 35.8013,86.6751 33.5,87.5C 32.8182,86.7573 32.1515,86.0906 31.5,85.5C 30.9426,83.0509 30.9426,80.7175 31.5,78.5C 34.0956,79.4822 36.7623,80.1489 39.5,80.5 Z"/></g>
<g><path style="opacity:1" fill="#ea2200" d="M 81.5,82.5 C 80.4019,81.603 80.4019,80.7697 81.5,80C 83.8127,79.338 86.146,78.838 88.5,78.5C 88.3015,80.9599 87.6348,83.2933 86.5,85.5C 84.9713,84.2371 83.3046,83.2371 81.5,82.5 Z"/></g>
<g><path style="opacity:1" fill="#5167b4" d="M 56.5,80.5 C 58.5,80.5 60.5,80.5 62.5,80.5C 63.5952,85.3855 61.9285,87.0522 57.5,85.5C 56.6906,83.9291 56.3573,82.2624 56.5,80.5 Z"/></g>
<g><path style="opacity:1" fill="#fafa00" d="M 81.5,82.5 C 83.7819,85.1216 86.1152,87.7883 88.5,90.5C 88.1667,91.5 87.5,92.1667 86.5,92.5C 83.606,91.1174 81.106,89.1174 79,86.5C 78.0902,84.0551 78.9236,82.7218 81.5,82.5 Z"/></g>
<g><path style="opacity:1" fill="#a99c00" d="M 47.5,84.5 C 52.0393,86.5019 52.3726,88.8352 48.5,91.5C 43.7498,89.5071 43.4165,87.1738 47.5,84.5 Z"/></g>
<g><path style="opacity:1" fill="#a49b00" d="M 74.5,88.5 C 73.1667,89.5 71.8333,90.5 70.5,91.5C 69.1882,90.8549 68.1882,89.8549 67.5,88.5C 69.9082,83.2626 72.2415,83.2626 74.5,88.5 Z"/></g>
<g><path style="opacity:1" fill="#477820" d="M 41.5,85.5 C 43.0838,88.4256 45.0838,91.0922 47.5,93.5C 43.4964,92.7764 39.4964,91.9431 35.5,91C 38.6411,90.2854 40.6411,88.4521 41.5,85.5 Z"/></g>
<g><path style="opacity:1" fill="#cb462d" d="M 74.5,88.5 C 74.8333,88.5 75.1667,88.5 75.5,88.5C 75.0472,89.4584 74.3805,90.2917 73.5,91C 74.1667,91.3333 74.8333,91.6667 75.5,92C 74.0953,93.2692 72.4286,93.7692 70.5,93.5C 70.5,92.8333 70.5,92.1667 70.5,91.5C 71.8333,90.5 73.1667,89.5 74.5,88.5 Z"/></g>
<g><path style="opacity:1" fill="#d5d700" d="M 31.5,85.5 C 32.1515,86.0906 32.8182,86.7573 33.5,87.5C 35.8013,86.6751 38.1346,86.0084 40.5,85.5C 40.8333,85.5 41.1667,85.5 41.5,85.5C 40.6411,88.4521 38.6411,90.2854 35.5,91C 39.4964,91.9431 43.4964,92.7764 47.5,93.5C 47.8417,94.3382 48.5084,94.6716 49.5,94.5C 50.1098,95.391 50.4431,96.391 50.5,97.5C 46.7929,96.7689 43.1262,96.2689 39.5,96C 43.4951,100.499 48.4951,102.999 54.5,103.5C 55.4293,104.315 56.4293,105.148 57.5,106C 54.1682,105.839 50.8349,105.339 47.5,104.5C 36.5548,100.555 29.8882,92.8881 27.5,81.5C 27.2011,79.396 27.5344,77.396 28.5,75.5C 30.1151,76.154 31.7818,76.654 33.5,77C 32.2068,77.49 30.8734,77.6567 29.5,77.5C 29.1107,80.5533 29.7773,83.22 31.5,85.5 Z"/></g>
<g><path style="opacity:1" fill="#116500" d="M 50.5,97.5 C 52.8333,97.5 55.1667,97.5 57.5,97.5C 57.5,99.5 57.5,101.5 57.5,103.5C 56.5,103.5 55.5,103.5 54.5,103.5C 48.4951,102.999 43.4951,100.499 39.5,96C 43.1262,96.2689 46.7929,96.7689 50.5,97.5 Z"/></g>
<g><path style="opacity:1" fill="#c87d64" d="M 49.5,94.5 C 53.9716,96.2157 58.6383,96.8824 63.5,96.5C 63.5,96.8333 63.5,97.1667 63.5,97.5C 62.8333,97.5 62.1667,97.5 61.5,97.5C 60.1667,97.5 58.8333,97.5 57.5,97.5C 55.1667,97.5 52.8333,97.5 50.5,97.5C 50.4431,96.391 50.1098,95.391 49.5,94.5 Z"/></g>
<g><path style="opacity:1" fill="#f01400" d="M 64.5,103.5 C 63.5,103.5 62.5,103.5 61.5,103.5C 61.5,101.5 61.5,99.5 61.5,97.5C 62.1667,97.5 62.8333,97.5 63.5,97.5C 68.9428,97.3093 74.2762,96.8093 79.5,96C 75.3043,100.098 70.3043,102.598 64.5,103.5 Z"/></g>
<g><path style="opacity:1" fill="#989808" d="M 57.5,97.5 C 58.8333,97.5 60.1667,97.5 61.5,97.5C 61.5,99.5 61.5,101.5 61.5,103.5C 62.5,103.5 63.5,103.5 64.5,103.5C 63.6016,104.158 62.6016,104.824 61.5,105.5C 62.325,106.386 63.325,106.719 64.5,106.5C 63.4324,107.434 62.099,107.768 60.5,107.5C 59.8333,95.5 59.1667,95.5 58.5,107.5C 54.4296,107.568 50.763,106.568 47.5,104.5C 50.8349,105.339 54.1682,105.839 57.5,106C 56.4293,105.148 55.4293,104.315 54.5,103.5C 55.5,103.5 56.5,103.5 57.5,103.5C 57.5,101.5 57.5,99.5 57.5,97.5 Z"/></g>
<g><path style="opacity:1" fill="#e9e900" d="M 60.5,107.5 C 60.1667,107.5 59.8333,107.5 59.5,107.5C 59.1667,107.5 58.8333,107.5 58.5,107.5C 59.1667,95.5 59.8333,95.5 60.5,107.5 Z"/></g>
</svg>
