<?xml version="1.0" encoding="UTF-8"?>
<!DOCTYPE svg PUBLIC "-//W3C//DTD SVG 1.1//EN" "http://www.w3.org/Graphics/SVG/1.1/DTD/svg11.dtd">
<svg xmlns="http://www.w3.org/2000/svg" version="1.1" width="150px" height="150px" style="shape-rendering:geometricPrecision; text-rendering:geometricPrecision; image-rendering:optimizeQuality; fill-rule:evenodd; clip-rule:evenodd" xmlns:xlink="http://www.w3.org/1999/xlink">
<g><path style="opacity:0.937" fill="#7d1c3a" d="M 62.5,-0.5 C 70.5,-0.5 78.5,-0.5 86.5,-0.5C 120.5,7.5 141.5,28.5 149.5,62.5C 149.5,70.5 149.5,78.5 149.5,86.5C 141.5,120.5 120.5,141.5 86.5,149.5C 78.5,149.5 70.5,149.5 62.5,149.5C 58.2086,148.339 53.8753,147.006 49.5,145.5C 51.8383,143.96 54.5049,143.294 57.5,143.5C 96.0694,149.966 123.903,135.632 141,100.5C 151.511,68.042 144.011,40.542 118.5,18C 99.7461,4.41586 79.0794,0.249195 56.5,5.5C 53.8478,5.59047 51.5145,4.92381 49.5,3.5C 53.8753,1.9945 58.2086,0.661164 62.5,-0.5 Z"/></g>
<g><path style="opacity:0.878" fill="#e2e1e1" d="M 49.5,3.5 C 51.5145,4.92381 53.8478,5.59047 56.5,5.5C 58.2774,6.60047 60.2774,7.43381 62.5,8C 52.583,10.406 42.9163,13.2393 33.5,16.5C 8.56425,35.4552 -0.935752,60.4552 5,91.5C 9.58481,108.698 19.0848,122.365 33.5,132.5C 42.6229,135.62 51.9562,138.453 61.5,141C 60.1416,141.934 58.8083,142.768 57.5,143.5C 54.5049,143.294 51.8383,143.96 49.5,145.5C 21.9652,134.971 5.2985,115.304 -0.5,86.5C -0.5,78.5 -0.5,70.5 -0.5,62.5C 5.2985,33.6959 21.9652,14.0292 49.5,3.5 Z"/></g>
<g><path style="opacity:1" fill="#8d1d3e" d="M 57.5,143.5 C 58.8083,142.768 60.1416,141.934 61.5,141C 51.9562,138.453 42.6229,135.62 33.5,132.5C 42.5221,129.993 51.5221,127.327 60.5,124.5C 51.5454,121.571 42.5454,118.738 33.5,116C 43.1091,113.13 52.7758,110.464 62.5,108C 53.3127,105.622 44.3127,102.789 35.5,99.5C 44.3323,96.2072 53.3323,93.3739 62.5,91C 52.7758,88.5363 43.1091,85.8696 33.5,83C 42.7159,79.8615 52.0492,77.0281 61.5,74.5C 52.1366,71.7678 42.8033,68.9344 33.5,66C 43.1138,63.1285 52.7805,60.4619 62.5,58C 52.7766,55.3196 43.11,52.4863 33.5,49.5C 43.1714,46.7312 52.8381,43.8978 62.5,41C 52.7758,38.5363 43.1091,35.8696 33.5,33C 42.6406,30.6055 51.6406,27.7721 60.5,24.5C 51.6268,21.4314 42.6268,18.7648 33.5,16.5C 42.9163,13.2393 52.583,10.406 62.5,8C 60.2774,7.43381 58.2774,6.60047 56.5,5.5C 79.0794,0.249195 99.7461,4.41586 118.5,18C 144.011,40.542 151.511,68.042 141,100.5C 123.903,135.632 96.0694,149.966 57.5,143.5 Z"/></g>
<g><path style="opacity:1" fill="#fefdfd" d="M 33.5,16.5 C 42.6268,18.7648 51.6268,21.4314 60.5,24.5C 51.6406,27.7721 42.6406,30.6055 33.5,33C 43.1091,35.8696 52.7758,38.5363 62.5,41C 52.8381,43.8978 43.1714,46.7312 33.5,49.5C 43.11,52.4863 52.7766,55.3196 62.5,58C 52.7805,60.4619 43.1138,63.1285 33.5,66C 42.8033,68.9344 52.1366,71.7678 61.5,74.5C 52.0492,77.0281 42.7159,79.8615 33.5,83C 43.1091,85.8696 52.7758,88.5363 62.5,91C 53.3323,93.3739 44.3323,96.2072 35.5,99.5C 44.3127,102.789 53.3127,105.622 62.5,108C 52.7758,110.464 43.1091,113.13 33.5,116C 42.5454,118.738 51.5454,121.571 60.5,124.5C 51.5221,127.327 42.5221,129.993 33.5,132.5C 19.0848,122.365 9.58481,108.698 5,91.5C -0.935752,60.4552 8.56425,35.4552 33.5,16.5 Z"/></g>
</svg>
