<?xml version="1.0" encoding="UTF-8"?>
<svg version="1.1" xmlns="http://www.w3.org/2000/svg" width="150" height="150">
<path d="M0 0 C2.26685452 1.68622161 4.37461281 3.45620684 6.4765625 5.34375 C7.70826172 6.43623047 7.70826172 6.43623047 8.96484375 7.55078125 C22.24806842 20.02774039 31.07984821 37.58848816 31.8125 55.9453125 C32.13371051 77.23647878 28.10626638 96.0522542 13.4765625 112.34375 C12.74824219 113.16488281 12.01992187 113.98601562 11.26953125 114.83203125 C-1.20742789 128.11525592 -18.76817566 136.94703571 -37.125 137.6796875 C-58.41616628 138.00089801 -77.2319417 133.97345388 -93.5234375 119.34375 C-94.34457031 118.61542969 -95.16570312 117.88710937 -96.01171875 117.13671875 C-109.29494342 104.65975961 -118.12672321 87.09901184 -118.859375 68.7421875 C-119.18058551 47.45102122 -115.15314138 28.6352458 -100.5234375 12.34375 C-99.79511719 11.52261719 -99.06679687 10.70148437 -98.31640625 9.85546875 C-72.64852592 -17.47107913 -30.68115209 -20.13747444 0 0 Z " fill="#017847" transform="translate(118.5234375,12.65625)"/>
<path d="M0 0 C2.26685452 1.68622161 4.37461281 3.45620684 6.4765625 5.34375 C7.70826172 6.43623047 7.70826172 6.43623047 8.96484375 7.55078125 C20.29356138 18.19186807 28.04949978 31.92956156 30.4765625 47.34375 C22.84560167 47.54772177 15.21535136 47.68715939 7.58227539 47.78320312 C4.98956026 47.82326751 2.39702397 47.87773648 -0.19506836 47.94726562 C-3.93648531 48.04506165 -7.67550044 48.0898502 -11.41796875 48.125 C-13.13739433 48.18693542 -13.13739433 48.18693542 -14.89155579 48.25012207 C-23.97522366 48.25511047 -28.7317466 45.1279095 -35.5234375 39.34375 C-36.81652027 38.43389083 -38.12078391 37.53922249 -39.4453125 36.67578125 C-40.06325684 36.2677124 -40.68120117 35.85964355 -41.31787109 35.43920898 C-41.96320801 35.01583252 -42.60854492 34.59245605 -43.2734375 34.15625 C-51.47814637 28.72782628 -59.63545945 23.23077213 -67.78137207 17.71469116 C-69.18725111 16.76278629 -70.59341759 15.81130579 -71.99987793 14.86026001 C-73.99542827 13.51076156 -75.99004079 12.1598886 -77.984375 10.80859375 C-78.88490097 10.19988937 -78.88490097 10.19988937 -79.80361938 9.57888794 C-82.76595259 7.56900017 -85.68305145 5.5230643 -88.5234375 3.34375 C-87.19421857 -0.6439068 -84.76171207 -1.64196083 -81.2734375 -3.59375 C-80.65025635 -3.94638916 -80.0270752 -4.29902832 -79.38500977 -4.66235352 C-54.43948144 -18.27558357 -23.3477389 -15.32421253 0 0 Z " fill="#E0392D" transform="translate(118.5234375,12.65625)"/>
<path d="M0 0 C-0.45783193 1.4279127 -0.92043844 2.85429502 -1.38500977 4.2800293 C-1.6421022 5.07450974 -1.89919464 5.86899017 -2.16407776 6.68754578 C-7.91703368 22.60224043 -22.33284128 35.51888117 -37 43 C-55.11959975 51.15277733 -75.68536366 53.24757163 -94.83984375 47.22265625 C-99.4047371 45.45651086 -103.75510862 43.43706705 -108 41 C-104.78562035 38.38127334 -101.52690497 35.92317659 -98.09765625 33.59375 C-97.14238037 32.94140381 -96.18710449 32.28905762 -95.20288086 31.61694336 C-93.04337559 30.16121218 -90.87900926 28.71917761 -88.70141602 27.29125977 C-83.25587563 23.69920898 -77.98580542 20.08683734 -73.0221405 15.84329224 C-50.53825031 -3.30861475 -28.5433728 -2.30503073 0 0 Z " fill="#000C8A" transform="translate(146,100)"/>
<path d="M0 0 C3.64642297 1.3317547 6.65160963 2.95812365 9.84375 5.16015625 C10.75495605 5.785271 11.66616211 6.41038574 12.60498047 7.05444336 C13.56033691 7.71710205 14.51569336 8.37976074 15.5 9.0625 C16.47727051 9.73482666 17.45454102 10.40715332 18.46142578 11.09985352 C21.31093899 13.06180957 24.15597116 15.03010543 27 17 C28.44514059 17.99764491 29.89043153 18.99507208 31.3359375 19.9921875 C34.22796696 21.98904681 37.11575217 23.99191047 40 26 C38.81156576 29.56530273 37.9498903 29.97335855 34.87109375 31.96875 C34.00782471 32.53513184 33.14455566 33.10151367 32.25512695 33.68505859 C31.32531006 34.28398926 30.39549316 34.88291992 29.4375 35.5 C27.52267599 36.75143976 25.60862202 38.00405848 23.6953125 39.2578125 C22.25913574 40.19608887 22.25913574 40.19608887 20.79394531 41.15332031 C16.06690687 44.2776928 11.42557966 47.52577289 6.80053711 50.79882812 C2.21555061 54 2.21555061 54 0 54 C-6.23832409 36.62181146 -6.23832409 17.37818854 0 0 Z " fill="#030201" transform="translate(4,48)"/>
<path d="M0 0 C5.03835841 2.36692516 9.50885848 5.60568183 14.11776733 8.70339966 C15.91456817 9.9013813 17.72288608 11.08005589 19.53442383 12.25561523 C25.27433751 16.00451513 30.85758756 19.77328904 36.10159302 24.19970703 C58.51437479 43.08951363 80.54014891 42.6335509 109 41 C109.50403768 42.29009643 110.00309926 43.58213789 110.5 44.875 C110.7784375 45.59429687 111.056875 46.31359375 111.34375 47.0546875 C112 49 112 49 112 51 C104.36903917 51.20397177 96.73878886 51.34340939 89.10571289 51.43945312 C86.51299776 51.47951751 83.92046147 51.53398648 81.32836914 51.60351562 C77.58695219 51.70131165 73.84793706 51.7461002 70.10546875 51.78125 C68.38604317 51.84318542 68.38604317 51.84318542 66.63188171 51.90637207 C57.54821384 51.91136047 52.7916909 48.7841595 46 43 C44.70691723 42.09014083 43.40265359 41.19547249 42.078125 40.33203125 C41.46018066 39.9239624 40.84223633 39.51589355 40.20556641 39.09545898 C39.56022949 38.67208252 38.91489258 38.24870605 38.25 37.8125 C30.04529113 32.38407628 21.88797805 26.88702213 13.74206543 21.37094116 C12.33618639 20.41903629 10.93001991 19.46755579 9.52355957 18.51651001 C7.52800923 17.16701156 5.53339671 15.8161386 3.5390625 14.46484375 C2.93871185 14.05904083 2.33836121 13.65323792 1.71981812 13.23513794 C-1.24251509 11.22525017 -4.15961395 9.1793143 -7 7 C-5.66667905 3.00003714 -3.5042173 2.16217663 0 0 Z " fill="#FCFBFB" transform="translate(37,9)"/>
<path d="M0 0 C2.50568193 0.07042717 5.01155791 0.13426945 7.51757812 0.19140625 C13.57854795 0.34364499 19.63207872 0.57612821 25.6875 0.875 C25.37951674 2.35511371 25.065982 3.83407325 24.75 5.3125 C24.57597656 6.13621094 24.40195313 6.95992188 24.22265625 7.80859375 C23.6875 9.875 23.6875 9.875 22.6875 10.875 C21.33920643 10.89330819 19.9898822 10.84225093 18.64379883 10.76293945 C-8.61989708 9.38567258 -28.66739827 9.59053419 -50.01396179 27.54701233 C-56.34090168 32.86268715 -63.2102993 37.29381723 -70.13323975 41.78671265 C-73.37501846 43.89863174 -76.58909045 46.05164541 -79.8046875 48.203125 C-81.640625 49.42708333 -83.4765625 50.65104167 -85.3125 51.875 C-87.9525 50.225 -90.5925 48.575 -93.3125 46.875 C-92.07084502 43.15003507 -90.87981645 42.65077535 -87.6328125 40.5390625 C-86.65094971 39.89372559 -85.66908691 39.24838867 -84.6574707 38.58349609 C-83.06358521 37.55216553 -83.06358521 37.55216553 -81.4375 36.5 C-79.22460439 35.04787423 -77.01237195 33.59473739 -74.80078125 32.140625 C-73.69814941 31.41810547 -72.59551758 30.69558594 -71.45947266 29.95117188 C-67.96224623 27.6439249 -64.49631674 25.29610705 -61.04890442 22.91522217 C-59.52691562 21.86961597 -57.9998303 20.83135015 -56.4655304 19.80389404 C-52.43270178 17.09289807 -48.56189422 14.30410782 -44.8046875 11.22070312 C-30.24611178 -0.25461054 -18.05725001 -0.89448424 0 0 Z " fill="#FAFBFC" transform="translate(123.3125,89.125)"/>
<path d="M0 0 C4.90776447 1.6263547 8.75057919 4.43119129 12.9375 7.375 C19.21446287 11.74277583 25.53480688 16.03364627 31.921875 20.23828125 C32.60314957 20.68780151 33.28442413 21.13732178 33.98634338 21.60046387 C38.11955376 24.32761772 38.11955376 24.32761772 42.26119995 27.04193115 C44.21335349 28.31746821 46.15983201 29.60127134 48.10546875 30.88671875 C48.7014386 31.27265701 49.29740845 31.65859528 49.91143799 32.05622864 C51.31020394 32.98557808 52.66108752 33.98631862 54 35 C54 35.66 54 36.32 54 37 C51.58546974 38.7884555 49.16553983 40.45332462 46.65234375 42.09375 C45.88886124 42.59990845 45.12537872 43.10606689 44.33876038 43.62756348 C41.87591461 45.25823299 39.40688213 46.87924992 36.9375 48.5 C35.32965555 49.56186042 33.72222874 50.62435351 32.11523438 51.6875 C28.94667865 53.78297928 25.77487223 55.87340854 22.60107422 57.9609375 C19.58126622 59.95015151 16.5728263 61.95481135 13.57470703 63.9765625 C12.54151085 64.67199158 12.54151085 64.67199158 11.48744202 65.38146973 C10.20082137 66.24889669 8.91606334 67.1190953 7.63352966 67.99255371 C5.09381084 69.70290737 2.92253884 71.02582039 0 72 C-3.06756361 66.60108805 -3.06756361 66.60108805 -2.76855469 63.94091797 C-1.43269487 60.56732027 1.81136746 59.03208236 4.75 57.125 C5.44287109 56.66101807 6.13574219 56.19703613 6.84960938 55.71899414 C9.22452732 54.13268008 11.61087485 52.5648312 14 51 C16.88006884 49.11176611 19.75904083 47.22201044 22.63378906 45.32568359 C24.53198416 44.07520311 26.43494358 42.83192249 28.34277344 41.59619141 C29.2093457 41.02690918 30.07591797 40.45762695 30.96875 39.87109375 C31.74669922 39.36505615 32.52464844 38.85901855 33.32617188 38.33764648 C33.87853516 37.89622314 34.43089844 37.4547998 35 37 C35 36.34 35 35.68 35 35 C32.74222782 33.24842173 32.74222782 33.24842173 29.82421875 31.42578125 C28.72770996 30.71244629 27.63120117 29.99911133 26.50146484 29.26416016 C25.63470123 28.70489838 25.63470123 28.70489838 24.75042725 28.13433838 C19.73022802 24.88107283 14.77844665 21.52266156 9.8125 18.1875 C9.246521 17.81214111 8.68054199 17.43678223 8.09741211 17.05004883 C6.44144032 15.95103626 4.79285047 14.84092583 3.14453125 13.73046875 C2.17878174 13.08489014 1.21303223 12.43931152 0.21801758 11.77416992 C-2 10 -2 10 -3 7 C-2.07796291 4.63477442 -1.08301035 2.29598193 0 0 Z " fill="#F8B615" transform="translate(8,39)"/>
<path d="M0 0 C1.32 0 2.64 0 4 0 C-0.2639364 16.48722074 -12.33318284 30.3351964 -26.4375 39.4375 C-44.92840468 50.08914689 -66.5252725 53.56748234 -87.375 48.3125 C-93.22517919 46.47236472 -98.68309341 44.0525299 -104 41 C-103.34 40.34 -102.68 39.68 -102 39 C-96.33008512 39.24651804 -91.278266 41.16335302 -85.96484375 43.0625 C-69.4126255 48.296403 -50.10091693 45.456343 -34.625 38.25 C-28.85342314 35.13741519 -23.89280448 31.34547381 -19 27 C-17.95199219 26.11054687 -17.95199219 26.11054687 -16.8828125 25.203125 C-9.8569337 18.80602134 -5.76142699 10.45727919 -1.51953125 2.07421875 C-1.01808594 1.38972656 -0.51664062 0.70523438 0 0 Z " fill="#050F7B" transform="translate(142,100)"/>
<path d="M0 0 C1.43845027 1.20360125 2.85450394 2.43434962 4.25 3.6875 C5.48169922 4.77998047 5.48169922 4.77998047 6.73828125 5.89453125 C15.60842683 14.22627649 22.05282883 23.89793131 25.25 35.6875 C22.92578125 35.52734375 22.92578125 35.52734375 20.25 34.6875 C18.73046875 32.31640625 18.73046875 32.31640625 17.4375 29.25 C14.48788744 22.89060515 10.88999391 17.91192062 6.25 12.6875 C5.36054688 11.63949219 5.36054688 11.63949219 4.453125 10.5703125 C-6.40614343 -1.35631992 -24.09201986 -8.90919686 -40.09765625 -9.68359375 C-42.00231545 -9.72346717 -43.90742995 -9.74503554 -45.8125 -9.75 C-46.81603516 -9.75314209 -47.81957031 -9.75628418 -48.85351562 -9.75952148 C-56.64192585 -9.63572806 -63.11899655 -8.24836445 -70.375 -5.50390625 C-73.85290505 -4.27617356 -77.09268231 -3.71835031 -80.75 -3.3125 C-81.08 -4.3025 -81.41 -5.2925 -81.75 -6.3125 C-54.6669578 -18.46145333 -24.50012945 -18.2246577 0 0 Z " fill="#C4362C" transform="translate(120.75,14.3125)"/>
<path d="M0 0 C1.27114968 1.79035166 2.46625519 3.63492868 3.625 5.5 C7.87933686 12.05586336 12.4654661 17.64364407 19 22 C18.34 23.32 17.68 24.64 17 26 C8.56083686 22.53320763 -0.0054012 12.09032669 -4 4 C-4 3.01 -4 2.02 -4 1 C-2 0 -2 0 0 0 Z " fill="#066C42" transform="translate(13,109)"/>
<path d="M0 0 C1.32 0.66 2.64 1.32 4 2 C4 2.66 4 3.32 4 4 C2.49609375 5.4453125 2.49609375 5.4453125 0.4375 7.125 C-6.02478873 12.63796136 -11.07243011 18.4590658 -15 26 C-16.32 25.34 -17.64 24.68 -19 24 C-15.4326077 14.17252025 -7.37462044 7.10753157 0 0 Z " fill="#066B42" transform="translate(28,15)"/>
<path d="M0 0 C1.32 0 2.64 0 4 0 C5.02628246 3.07884739 5.12906515 5.2126363 5.1328125 8.4375 C5.13474609 10.02691406 5.13474609 10.02691406 5.13671875 11.6484375 C5.13285156 12.75445312 5.12898437 13.86046875 5.125 15 C5.12886719 16.10601562 5.13273438 17.21203125 5.13671875 18.3515625 C5.13542969 19.41117188 5.13414062 20.47078125 5.1328125 21.5625 C5.13168457 22.53316406 5.13055664 23.50382812 5.12939453 24.50390625 C5 27 5 27 4 30 C2.68 30 1.36 30 0 30 C0 20.1 0 10.2 0 0 Z " fill="#046B42" transform="translate(145,60)"/>
<path d="M0 0 C17.82 0 35.64 0 54 0 C53.34 2.97 52.68 5.94 52 9 C50.35 9.33 48.7 9.66 47 10 C47.66 7.03 48.32 4.06 49 1 C32.83 1 16.66 1 0 1 C0 0.67 0 0.34 0 0 Z " fill="#BCDACE" transform="translate(95,90)"/>
<path d="M0 0 C2.475 0.495 2.475 0.495 5 1 C5.66 3.97 6.32 6.94 7 10 C-11.15 10 -29.3 10 -48 10 C-48 9.67 -48 9.34 -48 9 C-31.5 9 -15 9 2 9 C1.34 6.03 0.68 3.06 0 0 Z " fill="#BBD9CD" transform="translate(142,50)"/>
<path d="M0 0 C1.32 0.66 2.64 1.32 4 2 C4 2.66 4 3.32 4 4 C-2.4 8.06153846 -2.4 8.06153846 -5.4375 7.75 C-5.953125 7.5025 -6.46875 7.255 -7 7 C-5.66667905 3.00003714 -3.5042173 2.16217663 0 0 Z " fill="#DCDADA" transform="translate(37,9)"/>
<path d="M0 0 C3.95820859 0.56545837 6.6659053 1.80902348 10 4 C9.67 4.99 9.34 5.98 9 7 C8.01 7.33 7.02 7.66 6 8 C4.17578125 7.00390625 4.17578125 7.00390625 2.3125 5.5625 C1.68988281 5.08941406 1.06726562 4.61632812 0.42578125 4.12890625 C-0.04472656 3.75636719 -0.51523437 3.38382813 -1 3 C-0.67 2.01 -0.34 1.02 0 0 Z " fill="#DBDCDC" transform="translate(31,133)"/>
<path d="M0 0 C2.475 0.99 2.475 0.99 5 2 C3.35 4.97 1.7 7.94 0 11 C-0.99 10.34 -1.98 9.68 -3 9 C-2.01 6.03 -1.02 3.06 0 0 Z " fill="#D9A118" transform="translate(8,39)"/>
<path d="M0 0 C2.94545056 2.43319829 3.32286717 4.32413607 4 8 C4.66 8.33 5.32 8.66 6 9 C4.35 9.66 2.7 10.32 1 11 C-2.0653951 5.60490463 -2.0653951 5.60490463 -1.75 2.6875 C-1 1 -1 1 0 0 Z " fill="#DAA018" transform="translate(7,100)"/>
<path d="M0 0 C1.65 0 3.3 0 5 0 C4.01 2.97 3.02 5.94 2 9 C0.68 9 -0.64 9 -2 9 C-1.34 6.03 -0.68 3.06 0 0 Z " fill="#DFDFDF" transform="translate(144,91)"/>
<path d="M0 0 C2.475 0.495 2.475 0.495 5 1 C5.66 3.64 6.32 6.28 7 9 C5.35 9 3.7 9 2 9 C1.34 6.03 0.68 3.06 0 0 Z " fill="#DEDEDE" transform="translate(142,50)"/>
</svg>
