<?xml version="1.0" encoding="UTF-8"?>
<!DOCTYPE svg PUBLIC "-//W3C//DTD SVG 1.1//EN" "http://www.w3.org/Graphics/SVG/1.1/DTD/svg11.dtd">
<svg xmlns="http://www.w3.org/2000/svg" version="1.1" width="150px" height="150px" style="shape-rendering:geometricPrecision; text-rendering:geometricPrecision; image-rendering:optimizeQuality; fill-rule:evenodd; clip-rule:evenodd" xmlns:xlink="http://www.w3.org/1999/xlink">
<g><path style="opacity:0.952" fill="#18542f" d="M 62.5,-0.5 C 70.5,-0.5 78.5,-0.5 86.5,-0.5C 120.5,7.5 141.5,28.5 149.5,62.5C 149.5,70.5 149.5,78.5 149.5,86.5C 141.5,120.5 120.5,141.5 86.5,149.5C 78.5,149.5 70.5,149.5 62.5,149.5C 28.5,141.5 7.5,120.5 -0.5,86.5C -0.5,78.5 -0.5,70.5 -0.5,62.5C 7.5,28.5 28.5,7.5 62.5,-0.5 Z"/></g>
<g><path style="opacity:1" fill="#195e33" d="M 62.5,3.5 C 94.9603,0.149058 119.794,12.1491 137,39.5C 152.988,74.5631 146.821,105.063 118.5,131C 99.1177,145.009 77.7844,149.009 54.5,143C 17.745,129.23 0.911691,102.73 4,63.5C 10.9282,31.0735 30.4282,11.0735 62.5,3.5 Z"/></g>
<g><path style="opacity:1" fill="#ebf1ed" d="M 93.5,58.5 C 94.7416,60.6112 94.7416,62.6112 93.5,64.5C 92.2774,61.7261 90.7774,59.0594 89,56.5C 88.6667,60.5 88.3333,64.5 88,68.5C 87.6924,69.3081 87.1924,69.9747 86.5,70.5C 85.6689,63.5236 85.1689,56.5236 85,49.5C 82.9391,44.9429 79.7724,41.6096 75.5,39.5C 75.4562,43.0861 77.1229,45.4194 80.5,46.5C 79.7112,48.4879 78.5445,48.8213 77,47.5C 76.4867,48.5266 75.9867,49.5266 75.5,50.5C 73.0194,50.6766 71.1861,49.6766 70,47.5C 65.2232,52.0538 62.2232,51.0538 61,44.5C 60.7351,46.6515 59.7351,48.3181 58,49.5C 56.3468,49.1802 55.3468,48.1802 55,46.5C 54.4467,37.4228 55.28,37.4228 57.5,46.5C 58.1653,43.1617 59.8319,40.495 62.5,38.5C 63.3142,40.7662 63.8142,43.0995 64,45.5C 65.0495,46.5171 66.2161,46.6838 67.5,46C 68.7376,43.3816 68.7376,40.715 67.5,38C 67.6301,36.9412 68.1301,36.1079 69,35.5C 70.2319,38.3004 70.8985,41.3004 71,44.5C 71.7096,45.9733 72.8762,46.6399 74.5,46.5C 73.6548,43.1736 73.1548,39.8403 73,36.5C 73.414,36.0426 73.914,35.7093 74.5,35.5C 75.3333,36.5 76.1667,37.5 77,38.5C 77.2492,37.376 77.7492,36.376 78.5,35.5C 80.1222,37.4386 81.9555,37.772 84,36.5C 86.9861,40.2272 88.3195,44.5605 88,49.5C 90.3465,52.1943 92.1798,55.1943 93.5,58.5 Z"/></g>
<g><path style="opacity:1" fill="#e0eae4" d="M 21.5,35.5 C 23.3769,36.6591 23.8769,38.3258 23,40.5C 21.9914,38.9751 21.4914,37.3084 21.5,35.5 Z"/></g>
<g><path style="opacity:1" fill="#b5ccbe" d="M 58.5,34.5 C 59.3251,36.1252 58.9918,37.7918 57.5,39.5C 56.3482,37.6029 56.6815,35.9362 58.5,34.5 Z"/></g>
<g><path style="opacity:1" fill="#e7eeea" d="M 27.5,36.5 C 29.1042,37.287 29.7709,38.6203 29.5,40.5C 29.1485,43.0728 29.6485,45.4062 31,47.5C 31.0178,45.2028 30.8511,42.8695 30.5,40.5C 31.2341,39.2921 31.5674,37.9587 31.5,36.5C 34.7962,36.6955 37.1295,38.3622 38.5,41.5C 38.4185,44.3331 38.2518,47.3331 38,50.5C 36,51.8333 34,51.8333 32,50.5C 31.6667,54.1667 31.3333,57.8333 31,61.5C 30.3551,62.646 29.5217,63.646 28.5,64.5C 33.1103,66.5018 36.4436,65.1685 38.5,60.5C 36.7805,60.2537 34.7805,60.2537 32.5,60.5C 32.1377,53.996 34.6377,52.3293 40,55.5C 40.5637,49.7401 40.0637,44.0734 38.5,38.5C 38.8333,37.5 39.5,36.8333 40.5,36.5C 43.4663,39.3928 44.1329,42.7261 42.5,46.5C 42.4856,50.1234 43.8189,53.1234 46.5,55.5C 47.5032,53.458 48.8366,53.1246 50.5,54.5C 51.8418,51.6794 52.5084,51.8461 52.5,55C 52.4148,56.1074 52.0814,57.1074 51.5,58C 48.8323,58.567 46.1656,59.067 43.5,59.5C 43.2578,70.5702 37.5911,75.4035 26.5,74C 22.9947,70.6659 22.6614,67.1659 25.5,63.5C 24.8293,69.6646 27.496,72.1646 33.5,71C 39.0914,68.9632 41.4248,65.1299 40.5,59.5C 39.8849,62.4362 38.7183,65.1029 37,67.5C 29.7937,71.6291 26.2937,69.6291 26.5,61.5C 27.6816,59.9969 28.1816,58.3302 28,56.5C 25.3944,57.5985 22.8944,58.9319 20.5,60.5C 19.4063,59.132 19.7397,57.9653 21.5,57C 23.9342,55.4003 26.2675,54.5669 28.5,54.5C 27.3717,53.7379 26.2051,53.0712 25,52.5C 24.4795,44.1661 23.8128,43.8328 23,51.5C 21.4126,52.727 20.0793,52.3937 19,50.5C 18.3333,47.8333 18.3333,45.1667 19,42.5C 20.0173,44.3759 20.8506,46.3759 21.5,48.5C 22.1324,45.8976 23.1324,43.5643 24.5,41.5C 26.0615,43.3717 27.0615,45.7051 27.5,48.5C 27.858,44.5986 27.858,40.5986 27.5,36.5 Z"/></g>
<g><path style="opacity:1" fill="#cdddd3" d="M 64.5,35.5 C 66.9725,36.7487 67.1391,38.4153 65,40.5C 64.5065,38.8659 64.3398,37.1992 64.5,35.5 Z"/></g>
<g><path style="opacity:1" fill="#e6eee9" d="M 97.5,54.5 C 97.5,58.8333 97.5,63.1667 97.5,67.5C 96.3244,72.3956 93.3244,74.8956 88.5,75C 88.0426,74.586 87.7093,74.086 87.5,73.5C 90.8044,71.8602 93.471,69.5269 95.5,66.5C 96.0967,66.2648 96.4301,65.7648 96.5,65C 95.9198,60.6836 95.2531,56.5169 94.5,52.5C 94.7852,50.712 94.4519,49.0453 93.5,47.5C 91.4143,49.0234 89.7476,48.69 88.5,46.5C 90.0453,45.5481 91.712,45.2148 93.5,45.5C 93.3359,42.8127 93.5026,40.146 94,37.5C 94.6667,36.1667 95.3333,36.1667 96,37.5C 96.4017,38.8721 96.9017,40.2054 97.5,41.5C 97.064,45.756 97.064,50.0893 97.5,54.5 Z"/></g>
<g><path style="opacity:1" fill="#e4ece7" d="M 88.5,36.5 C 89.4959,36.4142 90.3292,36.7476 91,37.5C 91.6667,39.1667 91.6667,40.8333 91,42.5C 89.878,40.5932 89.0447,38.5932 88.5,36.5 Z"/></g>
<g><path style="opacity:1" fill="#ecf1ee" d="M 101.5,69.5 C 101.592,60.0536 100.592,50.7202 98.5,41.5C 98.8333,40.1667 99.1667,38.8333 99.5,37.5C 101.713,39.5416 102.38,41.875 101.5,44.5C 103.386,52.3937 103.886,60.3937 103,68.5C 102.617,69.056 102.117,69.3893 101.5,69.5 Z"/></g>
<g><path style="opacity:1" fill="#e7eeea" d="M 121.5,67.5 C 120.833,64.1667 120.167,60.8333 119.5,57.5C 119.217,56.7109 118.717,56.0442 118,55.5C 117.667,59.5 117.333,63.5 117,67.5C 114.048,71.4815 111.048,71.4815 108,67.5C 106.868,69.3392 106.035,71.3392 105.5,73.5C 102.232,75.1757 100.232,74.1757 99.5,70.5C 99.5,68.8333 99.5,67.1667 99.5,65.5C 100.316,66.1571 100.983,67.4905 101.5,69.5C 101.517,71.0281 102.184,71.5281 103.5,71C 104.536,68.0194 106.202,65.5194 108.5,63.5C 109.833,64.5 111.167,65.5 112.5,66.5C 113.086,66.2907 113.586,65.9574 114,65.5C 114.717,59.7753 114.384,54.1087 113,48.5C 112.333,47.8333 111.667,47.1667 111,46.5C 109.956,48.7148 109.29,51.0481 109,53.5C 106.952,52.9021 105.785,51.5688 105.5,49.5C 107.407,49.0912 108.74,47.4245 109.5,44.5C 107.48,42.4006 107.146,40.0673 108.5,37.5C 109.478,37.9767 110.311,38.6433 111,39.5C 111.965,37.7397 113.132,37.4063 114.5,38.5C 116.435,41.2774 116.935,44.2774 116,47.5C 116.419,48.6721 117.085,49.6721 118,50.5C 117.73,46.1309 117.896,41.7976 118.5,37.5C 119.971,38.3805 120.804,39.7139 121,41.5C 122,40.1667 123,40.1667 124,41.5C 124.419,40.3279 125.085,39.3279 126,38.5C 127.529,39.7287 128.696,41.2287 129.5,43C 129.525,52.0598 129.358,61.2265 129,70.5C 127.732,73.5984 125.399,75.265 122,75.5C 121.055,75.0946 120.388,74.428 120,73.5C 115.902,75.0001 115.402,74.0001 118.5,70.5C 121.311,73.1786 123.811,72.8453 126,69.5C 125.874,66.9023 124.874,64.569 123,62.5C 122.648,64.2475 122.148,65.9142 121.5,67.5 Z"/></g>
<g><path style="opacity:1" fill="#90b19c" d="M 29.5,40.5 C 29.8333,40.5 30.1667,40.5 30.5,40.5C 30.8511,42.8695 31.0178,45.2028 31,47.5C 29.6485,45.4062 29.1485,43.0728 29.5,40.5 Z"/></g>
<g><path style="opacity:1" fill="#679578" d="M 27.5,36.5 C 27.858,40.5986 27.858,44.5986 27.5,48.5C 27.0615,45.7051 26.0615,43.3717 24.5,41.5C 25.7671,39.9611 26.7671,38.2944 27.5,36.5 Z"/></g>
<g><path style="opacity:1" fill="#dae5de" d="M 49.5,45.5 C 47.9317,46.4731 46.265,46.6397 44.5,46C 46.2415,44.3804 48.0748,42.8804 50,41.5C 49.9813,39.8925 49.8146,38.2259 49.5,36.5C 50.8333,36.5 52.1667,36.5 53.5,36.5C 53.6602,38.1992 53.4935,39.8659 53,41.5C 51.6244,42.7051 50.4577,44.0384 49.5,45.5 Z"/></g>
<g><path style="opacity:1" fill="#26663d" d="M 121.5,42.5 C 122.302,43.9516 122.802,45.6183 123,47.5C 123.915,46.6721 124.581,45.6721 125,44.5C 126.46,50.4319 127.126,56.4319 127,62.5C 121.825,56.7361 119.991,50.0694 121.5,42.5 Z"/></g>
<g><path style="opacity:1" fill="#2c6a41" d="M 32.5,39.5 C 34.0968,40.7373 35.2635,42.404 36,44.5C 36.6667,45.8333 36.6667,47.1667 36,48.5C 33.7886,45.9874 32.6219,42.9874 32.5,39.5 Z"/></g>
<g><path style="opacity:1" fill="#b2c9ba" d="M 49.5,45.5 C 51.1207,45.7869 52.1207,46.7869 52.5,48.5C 51.675,49.3857 50.675,49.719 49.5,49.5C 49.5,48.1667 49.5,46.8333 49.5,45.5 Z"/></g>
<g><path style="opacity:1" fill="#edf2ef" d="M 75.5,50.5 C 81.4877,50.664 82.821,53.164 79.5,58C 77.6079,58.9734 75.6079,59.6401 73.5,60C 77.211,60.1747 80.8776,60.6747 84.5,61.5C 83.9598,62.7481 83.2931,63.9148 82.5,65C 79.5755,65.9876 76.5755,66.6543 73.5,67C 72.6634,68.0113 72.33,69.1779 72.5,70.5C 73.5,70.5 74.5,70.5 75.5,70.5C 75.5,71.5 75.5,72.5 75.5,73.5C 70.8175,73.4926 66.8175,71.826 63.5,68.5C 61.3102,70.524 58.9768,72.3573 56.5,74C 54.8333,74.6667 53.1667,74.6667 51.5,74C 50.6008,72.7638 49.4341,71.9304 48,71.5C 45.3051,73.1144 42.4717,73.9477 39.5,74C 45.8638,70.2164 51.3638,66.0497 56,61.5C 56.3263,58.0152 55.8263,54.6818 54.5,51.5C 55.8221,51.33 56.9887,51.6634 58,52.5C 60.913,58.8317 59.413,64.165 53.5,68.5C 52.6143,69.325 52.281,70.325 52.5,71.5C 59.7357,70.1023 62.9024,65.7689 62,58.5C 60.8644,55.9036 60.031,53.237 59.5,50.5C 60.675,50.281 61.675,50.6143 62.5,51.5C 63.7749,54.3728 64.6082,57.3728 65,60.5C 67.651,57.924 70.8177,56.5907 74.5,56.5C 74.3253,54.3792 74.6586,52.3792 75.5,50.5 Z"/></g>
<g><path style="opacity:1" fill="#e6ede8" d="M 67.5,51.5 C 68.4728,52.7914 69.4728,52.7914 70.5,51.5C 71.3857,52.325 71.719,53.325 71.5,54.5C 70.1667,54.5 68.8333,54.5 67.5,54.5C 67.5,53.5 67.5,52.5 67.5,51.5 Z"/></g>
<g><path style="opacity:1" fill="#ecf2ee" d="M 110.5,57.5 C 109.279,58.0283 108.113,58.695 107,59.5C 106.833,59.1667 106.667,58.8333 106.5,58.5C 108.008,56.4925 109.842,54.8259 112,53.5C 112.484,55.1933 111.984,56.5267 110.5,57.5 Z"/></g>
<g><path style="opacity:1" fill="#77a187" d="M 97.5,54.5 C 98.1667,58.1667 98.8333,61.8333 99.5,65.5C 99.5,67.1667 99.5,68.8333 99.5,70.5C 98.8333,69.5 98.1667,68.5 97.5,67.5C 97.5,63.1667 97.5,58.8333 97.5,54.5 Z"/></g>
<g><path style="opacity:1" fill="#cbdbd1" d="M 110.5,57.5 C 113.668,59.1781 114.168,61.5114 112,64.5C 111.338,62.1873 110.838,59.854 110.5,57.5 Z"/></g>
<g><path style="opacity:1" fill="#7da58d" d="M 119.5,57.5 C 120.167,60.8333 120.833,64.1667 121.5,67.5C 121.44,68.0431 121.107,68.3764 120.5,68.5C 119.511,64.8927 119.177,61.226 119.5,57.5 Z"/></g>
<g><path style="opacity:1" fill="#27673d" d="M 65.5,63.5 C 67.8568,63.3367 70.1902,63.5034 72.5,64C 70.7571,65.1095 69.4238,66.6095 68.5,68.5C 66.7377,67.3115 65.7377,65.6449 65.5,63.5 Z"/></g>
<g><path style="opacity:1" fill="#8fb19c" d="M 46.5,61.5 C 47.1894,60.2264 48.0228,60.2264 49,61.5C 49.7805,62.9437 49.6139,64.277 48.5,65.5C 47.8281,64.0508 47.1614,62.7175 46.5,61.5 Z"/></g>
<g><path style="opacity:1" fill="#89ac96" d="M 94.5,52.5 C 95.2531,56.5169 95.9198,60.6836 96.5,65C 96.4301,65.7648 96.0967,66.2648 95.5,66.5C 94.8333,65.8333 94.1667,65.1667 93.5,64.5C 94.7416,62.6112 94.7416,60.6112 93.5,58.5C 94.4614,56.7354 94.7947,54.7354 94.5,52.5 Z"/></g>
<g><path style="opacity:1" fill="#dbe6df" d="M 18.5,66.5 C 19.2758,69.8783 20.2758,72.545 21.5,74.5C 20.1779,74.67 19.0113,74.3366 18,73.5C 17.4436,71.1152 17.6103,68.7819 18.5,66.5 Z"/></g>
<g><path style="opacity:1" fill="#427954" d="M 25.5,63.5 C 25.3284,62.5084 25.6618,61.8417 26.5,61.5C 26.2937,69.6291 29.7937,71.6291 37,67.5C 38.7183,65.1029 39.8849,62.4362 40.5,59.5C 41.4248,65.1299 39.0914,68.9632 33.5,71C 27.496,72.1646 24.8293,69.6646 25.5,63.5 Z"/></g>
<g><path style="opacity:1" fill="#d0dfd5" d="M 78.5,68.5 C 79.9311,68.8807 80.7645,69.8807 81,71.5C 82.0495,70.4829 83.2161,70.3162 84.5,71C 81.9894,73.105 79.6561,72.9383 77.5,70.5C 77.8627,69.8165 78.1961,69.1499 78.5,68.5 Z"/></g>
<g><path style="opacity:1" fill="#ebf1ed" d="M 101.5,111.5 C 101.5,110.5 101.5,109.5 101.5,108.5C 97.1667,108.5 92.8333,108.5 88.5,108.5C 71.1635,108.667 53.8301,108.5 36.5,108C 35.8333,107.333 35.1667,106.667 34.5,106C 56.826,104.286 79.1593,104.119 101.5,105.5C 101.329,102.203 101.995,101.869 103.5,104.5C 107.122,105.325 110.789,105.825 114.5,106C 117.318,108.853 117.152,111.353 114,113.5C 109.684,112.92 105.517,112.253 101.5,111.5 Z"/></g>
<g><path style="opacity:1" fill="#6a977c" d="M 88.5,108.5 C 92.8333,108.5 97.1667,108.5 101.5,108.5C 101.5,109.5 101.5,110.5 101.5,111.5C 97.2829,109.964 92.9496,108.964 88.5,108.5 Z"/></g>
</svg>
