<?xml version="1.0" standalone="no"?>
<!DOCTYPE svg PUBLIC "-//W3C//DTD SVG 20010904//EN"
 "http://www.w3.org/TR/2001/REC-SVG-20010904/DTD/svg10.dtd">
<svg version="1.0" xmlns="http://www.w3.org/2000/svg"
 width="150.000000pt" height="150.000000pt" viewBox="0 0 150.000000 150.000000"
 preserveAspectRatio="xMidYMid meet">

<g transform="translate(0.000000,150.000000) scale(0.100000,-0.100000)"
fill="#000000" stroke="none">
<path d="M645 1491 c-148 -24 -291 -91 -392 -185 l-67 -63 279 -167 c155 -93
284 -165 292 -162 8 4 136 79 285 168 l271 162 -66 62 c-77 71 -190 134 -297
164 -84 23 -229 33 -305 21z"/>
<path d="M47 1003 c-3 -5 -13 -37 -23 -73 -25 -89 -23 -280 3 -370 10 -36 23
-65 28 -65 13 0 425 248 425 256 0 5 -396 247 -421 257 -4 2 -9 -1 -12 -5z"/>
<path d="M1228 881 c-115 -69 -208 -129 -208 -132 0 -10 421 -259 430 -254 22
14 45 154 43 265 -1 115 -26 241 -48 245 -5 2 -103 -54 -217 -124z"/>
<path d="M466 423 l-279 -167 66 -62 c78 -72 190 -134 303 -166 110 -31 276
-31 388 1 112 31 225 93 303 165 l67 63 -278 166 c-152 92 -280 167 -284 167
-4 0 -133 -75 -286 -167z"/>
</g>
</svg>
