<?xml version="1.0" encoding="UTF-8"?>
<!DOCTYPE svg PUBLIC "-//W3C//DTD SVG 1.1//EN" "http://www.w3.org/Graphics/SVG/1.1/DTD/svg11.dtd">
<svg xmlns="http://www.w3.org/2000/svg" version="1.1" width="150px" height="150px" style="shape-rendering:geometricPrecision; text-rendering:geometricPrecision; image-rendering:optimizeQuality; fill-rule:evenodd; clip-rule:evenodd" xmlns:xlink="http://www.w3.org/1999/xlink">
<g><path style="opacity:0.97" fill="#dcd03e" d="M 62.5,-0.5 C 70.5,-0.5 78.5,-0.5 86.5,-0.5C 90.7914,0.661164 95.1247,1.9945 99.5,3.5C 99.5,4.83333 99.5,6.16667 99.5,7.5C 82.8204,2.19456 66.1538,2.19456 49.5,7.5C 49.5,6.16667 49.5,4.83333 49.5,3.5C 53.8753,1.9945 58.2086,0.661164 62.5,-0.5 Z"/></g>
<g><path style="opacity:1" fill="#fcee41" d="M 99.5,7.5 C 99.5,51.8333 99.5,96.1667 99.5,140.5C 99.5,140.833 99.5,141.167 99.5,141.5C 82.8352,146.728 66.1685,146.728 49.5,141.5C 49.5,97.1667 49.5,52.8333 49.5,8.5C 49.5,8.16667 49.5,7.83333 49.5,7.5C 66.1538,2.19456 82.8204,2.19456 99.5,7.5 Z"/></g>
<g><path style="opacity:0.926" fill="#c61c23" d="M 99.5,3.5 C 127.035,14.0292 143.702,33.6959 149.5,62.5C 149.5,70.5 149.5,78.5 149.5,86.5C 143.702,115.304 127.035,134.971 99.5,145.5C 99.5,144.167 99.5,142.833 99.5,141.5C 99.5,141.167 99.5,140.833 99.5,140.5C 129.418,128.37 144.752,106.036 145.5,73.5C 143.931,41.9272 128.597,19.9272 99.5,7.5C 99.5,6.16667 99.5,4.83333 99.5,3.5 Z"/></g>
<g><path style="opacity:0.931" fill="#05763b" d="M 49.5,3.5 C 49.5,4.83333 49.5,6.16667 49.5,7.5C 49.5,7.83333 49.5,8.16667 49.5,8.5C 19.8801,20.3682 4.54674,42.3682 3.5,74.5C 4.70323,106.583 20.0366,128.917 49.5,141.5C 49.5,142.833 49.5,144.167 49.5,145.5C 21.9652,134.971 5.2985,115.304 -0.5,86.5C -0.5,78.5 -0.5,70.5 -0.5,62.5C 5.2985,33.6959 21.9652,14.0292 49.5,3.5 Z"/></g>
<g><path style="opacity:1" fill="#00843e" d="M 49.5,8.5 C 49.5,52.8333 49.5,97.1667 49.5,141.5C 20.0366,128.917 4.70323,106.583 3.5,74.5C 4.54674,42.3682 19.8801,20.3682 49.5,8.5 Z"/></g>
<g><path style="opacity:1" fill="#e21b23" d="M 99.5,7.5 C 128.597,19.9272 143.931,41.9272 145.5,73.5C 144.752,106.036 129.418,128.37 99.5,140.5C 99.5,96.1667 99.5,51.8333 99.5,7.5 Z"/></g>
<g><path style="opacity:1" fill="#14883f" d="M 73.5,53.5 C 74.5862,53.62 75.2528,54.2867 75.5,55.5C 76.6794,59.8854 78.0128,64.2188 79.5,68.5C 84.8025,69.3295 90.1358,69.8295 95.5,70C 91.6667,73.1667 87.8333,76.3333 84,79.5C 84.5964,84.3883 85.763,89.2217 87.5,94C 87.1667,94.5 86.8333,95 86.5,95.5C 82.5,92.5 78.5,89.5 74.5,86.5C 70.0685,89.1324 65.9018,92.1324 62,95.5C 62.3145,90.5369 63.4811,85.7036 65.5,81C 61.8636,77.0343 57.8636,73.3676 53.5,70C 58.8229,69.5006 64.1563,69.334 69.5,69.5C 70.6298,64.1116 71.9631,58.7783 73.5,53.5 Z"/></g>
<g><path style="opacity:0.975" fill="#ddd03e" d="M 49.5,141.5 C 66.1685,146.728 82.8352,146.728 99.5,141.5C 99.5,142.833 99.5,144.167 99.5,145.5C 95.1247,147.006 90.7914,148.339 86.5,149.5C 78.5,149.5 70.5,149.5 62.5,149.5C 58.2086,148.339 53.8753,147.006 49.5,145.5C 49.5,144.167 49.5,142.833 49.5,141.5 Z"/></g>
</svg>
