<?xml version="1.0" encoding="UTF-8"?>
<!DOCTYPE svg PUBLIC "-//W3C//DTD SVG 1.1//EN" "http://www.w3.org/Graphics/SVG/1.1/DTD/svg11.dtd">
<svg xmlns="http://www.w3.org/2000/svg" version="1.1" width="150px" height="150px" style="shape-rendering:geometricPrecision; text-rendering:geometricPrecision; image-rendering:optimizeQuality; fill-rule:evenodd; clip-rule:evenodd" xmlns:xlink="http://www.w3.org/1999/xlink">
<g><path style="opacity:0.944" fill="#c90516" d="M 62.5,-0.5 C 70.5,-0.5 78.5,-0.5 86.5,-0.5C 120.5,7.5 141.5,28.5 149.5,62.5C 149.5,70.5 149.5,78.5 149.5,86.5C 141.5,120.5 120.5,141.5 86.5,149.5C 78.5,149.5 70.5,149.5 62.5,149.5C 28.5,141.5 7.5,120.5 -0.5,86.5C -0.5,78.5 -0.5,70.5 -0.5,62.5C 7.5,28.5 28.5,7.5 62.5,-0.5 Z"/></g>
<g><path style="opacity:1" fill="#e60113" d="M 62.5,3.5 C 106.052,0.904269 133.552,20.5709 145,62.5C 148.085,103.517 130.251,130.684 91.5,144C 48.1999,150.108 19.3666,132.608 5,91.5C -0.640358,45.7473 18.5263,16.4139 62.5,3.5 Z"/></g>
<g><path style="opacity:1" fill="#fff9f9" d="M 74.5,38.5 C 92.1202,40.2864 103.62,49.6197 109,66.5C 111.4,84.1996 104.9,97.3662 89.5,106C 73.099,112.754 58.9323,109.587 47,96.5C 32.9041,72.4687 38.0708,53.9687 62.5,41C 66.6092,40.0557 70.6092,39.2224 74.5,38.5 Z"/></g>
<g><path style="opacity:1" fill="#e8111a" d="M 88.5,94.5 C 89.1667,94.5 89.8333,94.5 90.5,94.5C 83.8333,99.9156 76.1666,101.749 67.5,100C 52.1254,94.0952 45.9588,82.9285 49,66.5C 55.9394,50.5762 67.7727,45.0762 84.5,50C 87.772,51.6078 90.772,53.6078 93.5,56C 78.6667,49.7227 67.8334,53.8894 61,68.5C 59.0416,84.5354 66.0416,93.5354 82,95.5C 84.2159,95.3473 86.3825,95.0139 88.5,94.5 Z"/></g>
<g><path style="opacity:1" fill="#e8191e" d="M 76.5,59.5 C 78.5717,62.612 80.9051,65.612 83.5,68.5C 86.779,66.7192 90.1124,66.0525 93.5,66.5C 91.1153,68.8838 89.1153,71.5505 87.5,74.5C 89.3333,76.8333 91.1667,79.1667 93,81.5C 93.6877,82.3317 93.521,82.9984 92.5,83.5C 89.7044,82.4014 86.8711,81.4014 84,80.5C 81.3653,82.808 79.032,85.4746 77,88.5C 76.5014,84.8484 76.3347,81.1817 76.5,77.5C 64.9637,75.499 64.797,73.1657 76,70.5C 76.4986,66.8484 76.6653,63.1817 76.5,59.5 Z"/></g>
<g><path style="opacity:1" fill="#f36e71" d="M 90.5,94.5 C 89.8333,94.5 89.1667,94.5 88.5,94.5C 90.7097,93.6491 92.7097,92.3157 94.5,90.5C 94.8333,90.6667 95.1667,90.8333 95.5,91C 94.2107,92.8022 92.5441,93.9688 90.5,94.5 Z"/></g>
</svg>
