<?xml version="1.0" encoding="UTF-8"?>
<!DOCTYPE svg PUBLIC "-//W3C//DTD SVG 1.1//EN" "http://www.w3.org/Graphics/SVG/1.1/DTD/svg11.dtd">
<svg xmlns="http://www.w3.org/2000/svg" version="1.1" width="150px" height="150px" style="shape-rendering:geometricPrecision; text-rendering:geometricPrecision; image-rendering:optimizeQuality; fill-rule:evenodd; clip-rule:evenodd" xmlns:xlink="http://www.w3.org/1999/xlink">
<g><path style="opacity:0.88" fill="#dbdcdf" d="M 62.5,-0.5 C 70.5,-0.5 78.5,-0.5 86.5,-0.5C 99.4119,2.13609 111.079,7.46942 121.5,15.5C 108.677,16.4955 95.6774,16.8288 82.5,16.5C 92.6585,15.6697 102.992,15.1697 113.5,15C 97.8733,5.17805 80.8733,1.51138 62.5,4C 55.3128,5.67426 48.3128,7.84093 41.5,10.5C 40.3428,13.2727 39.6761,16.2727 39.5,19.5C 39.5,20.1667 39.5,20.8333 39.5,21.5C 38.8333,22.8333 38.1667,24.1667 37.5,25.5C 36.5849,23.2459 35.2516,21.2459 33.5,19.5C 31.4637,18.3738 30.1303,16.7071 29.5,14.5C 39.1735,6.60769 50.1735,1.60769 62.5,-0.5 Z"/></g>
<g><path style="opacity:1" fill="#fafafa" d="M 82.5,16.5 C 82.5,21.8333 82.5,27.1667 82.5,32.5C 100.5,32.5 118.5,32.5 136.5,32.5C 140.784,37.398 143.784,43.0647 145.5,49.5C 124.833,49.5 104.167,49.5 83.5,49.5C 82.5111,54.9753 82.1778,60.642 82.5,66.5C 104.833,66.5 127.167,66.5 149.5,66.5C 149.5,71.8333 149.5,77.1667 149.5,82.5C 100.833,82.5 52.1667,82.5 3.5,82.5C 2.32168,69.7157 4.15501,57.3824 9,45.5C 9.90784,43.5614 11.4078,42.5614 13.5,42.5C 14.8333,42.5 16.1667,42.5 17.5,42.5C 18.5,42.5 19.5,42.5 20.5,42.5C 21.6935,43.2719 22.6935,44.2719 23.5,45.5C 21.5,46.8333 19.8333,48.5 18.5,50.5C 17.1184,51.8005 15.4517,52.6339 13.5,53C 15.1484,54.6773 16.8151,54.844 18.5,53.5C 19.6049,52.3995 20.9382,51.7329 22.5,51.5C 24.099,51.2322 25.4324,51.5655 26.5,52.5C 25.8902,53.391 25.5569,54.391 25.5,55.5C 22.9984,57.1696 20.9984,59.3363 19.5,62C 20.1667,62.6667 20.8333,62.6667 21.5,62C 23.2395,60.483 24.9062,58.983 26.5,57.5C 27.8333,56.8333 29.1667,56.1667 30.5,55.5C 31.404,56.209 31.7373,57.209 31.5,58.5C 31.5,59.8333 31.5,61.1667 31.5,62.5C 31.0798,64.674 31.0798,66.674 31.5,68.5C 33.2623,67.3115 34.2623,65.6449 34.5,63.5C 34.9925,61.1815 35.9925,59.1815 37.5,57.5C 38.9498,61.9656 40.1165,66.6323 41,71.5C 41.8215,68.8832 42.3215,66.2165 42.5,63.5C 42.6785,60.7835 43.1785,58.1168 44,55.5C 45.2775,57.7472 46.7775,59.7472 48.5,61.5C 50.5958,63.4333 52.0958,65.7666 53,68.5C 53.9723,64.6319 53.139,61.2985 50.5,58.5C 50.3433,57.1266 50.51,55.7932 51,54.5C 52.9917,55.6647 54.825,56.998 56.5,58.5C 61.8333,62.5 62.5,61.8333 58.5,56.5C 57.5,55.1667 56.5,53.8333 55.5,52.5C 55.3284,51.5084 55.6618,50.8417 56.5,50.5C 56.8333,50.5 57.1667,50.5 57.5,50.5C 60.6414,51.3213 63.9748,51.8213 67.5,52C 68,52.5 68.5,53 69,53.5C 69.2494,51.332 68.4161,49.6653 66.5,48.5C 65.2921,47.7659 63.9587,47.4326 62.5,47.5C 60.847,47.3404 59.5137,46.6737 58.5,45.5C 58.6107,44.8826 58.944,44.3826 59.5,44C 63.5796,43.3134 67.5796,42.3134 71.5,41C 66.8365,40.0541 62.1699,39.2208 57.5,38.5C 57.5,38.1667 57.5,37.8333 57.5,37.5C 58.795,36.5116 60.1283,35.5116 61.5,34.5C 63.5558,31.9506 66.2224,30.4506 69.5,30C 65.4485,27.8982 61.7819,28.3982 58.5,31.5C 57.325,31.719 56.325,31.3857 55.5,30.5C 56.4671,28.2099 57.8004,26.2099 59.5,24.5C 61.0698,23.1252 61.9031,21.4585 62,19.5C 60.3333,20.7332 58.8333,22.0665 57.5,23.5C 55.9731,23.427 54.9731,24.0937 54.5,25.5C 53.5,26.1667 52.5,26.8333 51.5,27.5C 50.6618,27.1583 50.3284,26.4916 50.5,25.5C 50.5,25.1667 50.5,24.8333 50.5,24.5C 51.1982,21.1027 51.8648,17.6027 52.5,14C 51.0024,13.4153 50.0024,13.9153 49.5,15.5C 47.8958,16.287 47.2291,17.6203 47.5,19.5C 47.4431,20.609 47.1098,21.609 46.5,22.5C 45.609,23.1098 44.609,23.4431 43.5,23.5C 42.5386,21.7354 42.2053,19.7354 42.5,17.5C 42.552,15.0971 42.2186,12.7638 41.5,10.5C 48.3128,7.84093 55.3128,5.67426 62.5,4C 80.8733,1.51138 97.8733,5.17805 113.5,15C 102.992,15.1697 92.6585,15.6697 82.5,16.5 Z"/></g>
<g><path style="opacity:0.859" fill="#dcdcdc" d="M 28.5,14.5 C 28.4781,18.1429 29.4781,21.4762 31.5,24.5C 31.2528,25.7133 30.5862,26.38 29.5,26.5C 29.1667,26.5 28.8333,26.5 28.5,26.5C 27.0077,23.6769 24.6743,22.0102 21.5,21.5C 23.5,18.8333 25.8333,16.5 28.5,14.5 Z"/></g>
<g><path style="opacity:1" fill="#635319" d="M 41.5,10.5 C 42.2186,12.7638 42.552,15.0971 42.5,17.5C 41.8373,19.4726 41.5039,21.6392 41.5,24C 41.5812,26.6254 42.2478,28.9587 43.5,31C 41.444,31.3108 39.444,31.8108 37.5,32.5C 35.5808,31.3875 33.9142,30.0542 32.5,28.5C 33.4959,28.4142 34.3292,28.7476 35,29.5C 35.3589,26.4557 36.0255,26.1224 37,28.5C 37.4828,27.552 37.6495,26.552 37.5,25.5C 38.1667,24.1667 38.8333,22.8333 39.5,21.5C 39.7711,32.6429 39.7711,31.9763 39.5,19.5C 39.6761,16.2727 40.3428,13.2727 41.5,10.5 Z"/></g>
<g><path style="opacity:1" fill="#65625b" d="M 50.5,24.5 C 50.5,22.5 50.5,20.5 50.5,18.5C 50.7373,17.209 50.404,16.209 49.5,15.5C 50.0024,13.9153 51.0024,13.4153 52.5,14C 51.8648,17.6027 51.1982,21.1027 50.5,24.5 Z"/></g>
<g><path style="opacity:1" fill="#0338a6" d="M 121.5,15.5 C 127.61,20.2708 132.61,25.9375 136.5,32.5C 118.5,32.5 100.5,32.5 82.5,32.5C 82.5,27.1667 82.5,21.8333 82.5,16.5C 95.6774,16.8288 108.677,16.4955 121.5,15.5 Z"/></g>
<g><path style="opacity:1" fill="#7b681d" d="M 49.5,15.5 C 50.404,16.209 50.7373,17.209 50.5,18.5C 49.71,19.6085 49.21,20.9419 49,22.5C 48.7679,21.2625 48.2679,20.2625 47.5,19.5C 47.2291,17.6203 47.8958,16.287 49.5,15.5 Z"/></g>
<g><path style="opacity:1" fill="#ebc314" d="M 50.5,18.5 C 50.5,20.5 50.5,22.5 50.5,24.5C 50.5,24.8333 50.5,25.1667 50.5,25.5C 49.6554,26.6715 48.9887,28.0048 48.5,29.5C 48.0707,28.0473 47.904,26.3806 48,24.5C 47.4169,26.0016 46.5836,27.3349 45.5,28.5C 45.1667,28 44.8333,27.5 44.5,27C 45.4138,25.5936 46.0805,24.0936 46.5,22.5C 47.1098,21.609 47.4431,20.609 47.5,19.5C 48.2679,20.2625 48.7679,21.2625 49,22.5C 49.21,20.9419 49.71,19.6085 50.5,18.5 Z"/></g>
<g><path style="opacity:1" fill="#7f6c25" d="M 28.5,14.5 C 28.8333,14.5 29.1667,14.5 29.5,14.5C 30.1303,16.7071 31.4637,18.3738 33.5,19.5C 32.7611,19.369 32.0944,19.5357 31.5,20C 32.6872,21.0195 33.6872,22.1861 34.5,23.5C 34.1543,24.6956 33.6543,24.6956 33,23.5C 32.5065,25.1341 32.3398,26.8008 32.5,28.5C 32.1667,28.5 31.8333,28.5 31.5,28.5C 30.8333,27.8333 30.1667,27.1667 29.5,26.5C 30.5862,26.38 31.2528,25.7133 31.5,24.5C 29.4781,21.4762 28.4781,18.1429 28.5,14.5 Z"/></g>
<g><path style="opacity:1" fill="#f7cc15" d="M 39.5,19.5 C 39.7711,31.9763 39.7711,32.6429 39.5,21.5C 39.5,20.8333 39.5,20.1667 39.5,19.5 Z"/></g>
<g><path style="opacity:0.877" fill="#dcdcdc" d="M 20.5,22.5 C 22.3947,23.973 24.0613,25.6397 25.5,27.5C 25.5,27.8333 25.5,28.1667 25.5,28.5C 25.4142,29.4959 25.7476,30.3292 26.5,31C 25.9056,31.4643 25.2389,31.631 24.5,31.5C 22.8333,31.5 21.1667,31.5 19.5,31.5C 17.4352,31.4828 15.4352,31.1495 13.5,30.5C 15.117,27.2157 17.4503,24.5491 20.5,22.5 Z"/></g>
<g><path style="opacity:1" fill="#595033" d="M 59.5,24.5 C 59.1583,23.6618 58.4916,23.3284 57.5,23.5C 58.8333,22.0665 60.3333,20.7332 62,19.5C 61.9031,21.4585 61.0698,23.1252 59.5,24.5 Z"/></g>
<g><path style="opacity:1" fill="#d5b117" d="M 33.5,19.5 C 35.2516,21.2459 36.5849,23.2459 37.5,25.5C 37.6495,26.552 37.4828,27.552 37,28.5C 36.0255,26.1224 35.3589,26.4557 35,29.5C 34.3292,28.7476 33.4959,28.4142 32.5,28.5C 32.3398,26.8008 32.5065,25.1341 33,23.5C 33.6543,24.6956 34.1543,24.6956 34.5,23.5C 33.6872,22.1861 32.6872,21.0195 31.5,20C 32.0944,19.5357 32.7611,19.369 33.5,19.5 Z"/></g>
<g><path style="opacity:1" fill="#77641d" d="M 20.5,22.5 C 20.5,21.8333 20.8333,21.5 21.5,21.5C 24.6743,22.0102 27.0077,23.6769 28.5,26.5C 27.3652,27.1027 26.3652,27.4361 25.5,27.5C 24.0613,25.6397 22.3947,23.973 20.5,22.5 Z"/></g>
<g><path style="opacity:1" fill="#6b5d29" d="M 50.5,25.5 C 50.3284,26.4916 50.6618,27.1583 51.5,27.5C 51.0269,28.9063 50.0269,29.573 48.5,29.5C 48.9887,28.0048 49.6554,26.6715 50.5,25.5 Z"/></g>
<g><path style="opacity:1" fill="#f4ca16" d="M 54.5,25.5 C 54.9382,25.4346 55.2716,25.6012 55.5,26C 53.1311,29.2258 50.1311,31.3924 46.5,32.5C 47.1667,31.5 47.8333,30.5 48.5,29.5C 50.0269,29.573 51.0269,28.9063 51.5,27.5C 52.5,26.8333 53.5,26.1667 54.5,25.5 Z"/></g>
<g><path style="opacity:1" fill="#a68b19" d="M 57.5,23.5 C 58.4916,23.3284 59.1583,23.6618 59.5,24.5C 57.8004,26.2099 56.4671,28.2099 55.5,30.5C 56.325,31.3857 57.325,31.719 58.5,31.5C 57.0536,32.6129 55.3869,32.7796 53.5,32C 54.4506,31.2825 54.6172,30.4491 54,29.5C 51.9565,31.208 50.2899,33.208 49,35.5C 47.955,34.6266 47.1217,33.6266 46.5,32.5C 50.1311,31.3924 53.1311,29.2258 55.5,26C 55.2716,25.6012 54.9382,25.4346 54.5,25.5C 54.9731,24.0937 55.9731,23.427 57.5,23.5 Z"/></g>
<g><path style="opacity:0.892" fill="#dededd" d="M 13.5,30.5 C 14.2702,32.9354 15.9368,34.2687 18.5,34.5C 21.2061,34.6878 23.5395,35.6878 25.5,37.5C 24.5,38.1667 23.5,38.8333 22.5,39.5C 21.8333,39.5 21.1667,39.5 20.5,39.5C 17.0901,39.4571 13.7568,39.9571 10.5,41C 11.7375,41.2321 12.7375,41.7321 13.5,42.5C 11.4078,42.5614 9.90784,43.5614 9,45.5C 4.15501,57.3824 2.32168,69.7157 3.5,82.5C 2.16667,82.5 0.833333,82.5 -0.5,82.5C -0.5,75.8333 -0.5,69.1667 -0.5,62.5C 1.98179,50.8705 6.64845,40.2038 13.5,30.5 Z"/></g>
<g><path style="opacity:1" fill="#846e1f" d="M 46.5,22.5 C 46.0805,24.0936 45.4138,25.5936 44.5,27C 44.8333,27.5 45.1667,28 45.5,28.5C 46.5836,27.3349 47.4169,26.0016 48,24.5C 47.904,26.3806 48.0707,28.0473 48.5,29.5C 47.8333,30.5 47.1667,31.5 46.5,32.5C 45.5028,32.5299 44.8361,32.0299 44.5,31C 43.6777,28.5661 43.3444,26.0661 43.5,23.5C 44.609,23.4431 45.609,23.1098 46.5,22.5 Z"/></g>
<g><path style="opacity:1" fill="#7d6b33" d="M 61.5,34.5 C 61.0825,33.7784 60.4158,33.2784 59.5,33C 60.7119,31.8932 60.3786,31.3932 58.5,31.5C 61.7819,28.3982 65.4485,27.8982 69.5,30C 66.2224,30.4506 63.5558,31.9506 61.5,34.5 Z"/></g>
<g><path style="opacity:1" fill="#8b836b" d="M 25.5,28.5 C 27.0627,29.9448 28.396,31.6115 29.5,33.5C 27.597,33.2041 25.9303,32.5375 24.5,31.5C 25.2389,31.631 25.9056,31.4643 26.5,31C 25.7476,30.3292 25.4142,29.4959 25.5,28.5 Z"/></g>
<g><path style="opacity:1" fill="#c2a012" d="M 28.5,26.5 C 28.8333,26.5 29.1667,26.5 29.5,26.5C 30.1667,27.1667 30.8333,27.8333 31.5,28.5C 30.9569,28.56 30.6236,28.8933 30.5,29.5C 31.802,31.2012 33.4687,32.3678 35.5,33C 34.1772,33.8159 33.5106,34.9826 33.5,36.5C 33.1667,36.5 32.8333,36.5 32.5,36.5C 31.2719,35.6935 30.2719,34.6935 29.5,33.5C 28.396,31.6115 27.0627,29.9448 25.5,28.5C 25.5,28.1667 25.5,27.8333 25.5,27.5C 26.3652,27.4361 27.3652,27.1027 28.5,26.5 Z"/></g>
<g><path style="opacity:1" fill="#eec615" d="M 42.5,17.5 C 42.2053,19.7354 42.5386,21.7354 43.5,23.5C 43.3444,26.0661 43.6777,28.5661 44.5,31C 44.8361,32.0299 45.5028,32.5299 46.5,32.5C 47.1217,33.6266 47.955,34.6266 49,35.5C 50.2899,33.208 51.9565,31.208 54,29.5C 54.6172,30.4491 54.4506,31.2825 53.5,32C 55.3869,32.7796 57.0536,32.6129 58.5,31.5C 60.3786,31.3932 60.7119,31.8932 59.5,33C 60.4158,33.2784 61.0825,33.7784 61.5,34.5C 60.1283,35.5116 58.795,36.5116 57.5,37.5C 55.4086,37.6816 53.4086,37.3482 51.5,36.5C 50.7597,39.8663 50.093,43.1996 49.5,46.5C 48.1667,47.1667 47.1667,48.1667 46.5,49.5C 42.8663,50.758 39.1996,50.758 35.5,49.5C 34.8333,48.1667 33.8333,47.1667 32.5,46.5C 31.0839,44.1493 29.4172,44.1493 27.5,46.5C 26.209,46.7373 25.209,46.404 24.5,45.5C 25.4734,45.0133 26.4734,44.5133 27.5,44C 25.1873,43.338 22.854,42.838 20.5,42.5C 19.5,42.5 18.5,42.5 17.5,42.5C 19.4726,41.8373 21.6392,41.5039 24,41.5C 26.6254,41.5812 28.9587,42.2478 31,43.5C 31.4396,41.1341 31.9396,38.8008 32.5,36.5C 32.8333,36.5 33.1667,36.5 33.5,36.5C 33.5106,34.9826 34.1772,33.8159 35.5,33C 33.4687,32.3678 31.802,31.2012 30.5,29.5C 30.6236,28.8933 30.9569,28.56 31.5,28.5C 31.8333,28.5 32.1667,28.5 32.5,28.5C 33.9142,30.0542 35.5808,31.3875 37.5,32.5C 39.444,31.8108 41.444,31.3108 43.5,31C 42.2478,28.9587 41.5812,26.6254 41.5,24C 41.5039,21.6392 41.8373,19.4726 42.5,17.5 Z"/></g>
<g><path style="opacity:1" fill="#6d5c17" d="M 13.5,30.5 C 15.4352,31.1495 17.4352,31.4828 19.5,31.5C 19.9175,32.2216 20.5842,32.7216 21.5,33C 20.2625,33.2321 19.2625,33.7321 18.5,34.5C 15.9368,34.2687 14.2702,32.9354 13.5,30.5 Z"/></g>
<g><path style="opacity:1" fill="#ceab12" d="M 19.5,31.5 C 21.1667,31.5 22.8333,31.5 24.5,31.5C 25.9303,32.5375 27.597,33.2041 29.5,33.5C 28.8288,34.8471 28.8288,36.0138 29.5,37C 28.2068,37.49 26.8734,37.6567 25.5,37.5C 23.5395,35.6878 21.2061,34.6878 18.5,34.5C 19.2625,33.7321 20.2625,33.2321 21.5,33C 20.5842,32.7216 19.9175,32.2216 19.5,31.5 Z"/></g>
<g><path style="opacity:1" fill="#826c0f" d="M 33.5,36.5 C 35.1368,35.7822 36.8034,35.6155 38.5,36C 40.0662,38.6766 39.3995,40.0099 36.5,40C 35.635,38.6412 34.635,37.4745 33.5,36.5 Z"/></g>
<g><path style="opacity:1" fill="#866f0f" d="M 43.5,35.5 C 45.4286,35.2308 47.0953,35.7308 48.5,37C 47.0217,39.0386 45.0217,39.8719 42.5,39.5C 42.4326,38.0413 42.7659,36.7079 43.5,35.5 Z"/></g>
<g><path style="opacity:1" fill="#695816" d="M 29.5,33.5 C 30.2719,34.6935 31.2719,35.6935 32.5,36.5C 31.9396,38.8008 31.4396,41.1341 31,43.5C 28.9587,42.2478 26.6254,41.5812 24,41.5C 21.6392,41.5039 19.4726,41.8373 17.5,42.5C 16.1667,42.5 14.8333,42.5 13.5,42.5C 12.7375,41.7321 11.7375,41.2321 10.5,41C 13.7568,39.9571 17.0901,39.4571 20.5,39.5C 31.6437,39.7973 32.3104,39.7973 22.5,39.5C 23.5,38.8333 24.5,38.1667 25.5,37.5C 26.8734,37.6567 28.2068,37.49 29.5,37C 28.8288,36.0138 28.8288,34.8471 29.5,33.5 Z"/></g>
<g><path style="opacity:1" fill="#f8ce15" d="M 20.5,39.5 C 21.1667,39.5 21.8333,39.5 22.5,39.5C 32.3104,39.7973 31.6437,39.7973 20.5,39.5 Z"/></g>
<g><path style="opacity:1" fill="#716028" d="M 57.5,37.5 C 57.5,37.8333 57.5,38.1667 57.5,38.5C 62.1699,39.2208 66.8365,40.0541 71.5,41C 67.5796,42.3134 63.5796,43.3134 59.5,44C 58.944,44.3826 58.6107,44.8826 58.5,45.5C 56.834,44.3336 55.1673,44.3336 53.5,45.5C 54.2427,46.1818 54.9094,46.8485 55.5,47.5C 54.7611,47.369 54.0944,47.5357 53.5,48C 54.5707,48.8518 55.5707,49.6851 56.5,50.5C 55.6618,50.8417 55.3284,51.5084 55.5,52.5C 53.8122,50.1455 51.8122,48.1455 49.5,46.5C 50.093,43.1996 50.7597,39.8663 51.5,36.5C 53.4086,37.3482 55.4086,37.6816 57.5,37.5 Z"/></g>
<g><path style="opacity:1" fill="#f3c915" d="M 57.5,38.5 C 58.6085,39.29 59.9419,39.79 61.5,40C 58.1177,40.8236 54.7844,40.657 51.5,39.5C 53.396,38.5344 55.396,38.2011 57.5,38.5 Z"/></g>
<g><path style="opacity:1" fill="#f5cb15" d="M 51.5,41.5 C 55.5138,41.3345 59.5138,41.5012 63.5,42C 59.5928,42.677 55.7595,43.5104 52,44.5C 51.5172,43.552 51.3505,42.552 51.5,41.5 Z"/></g>
<g><path style="opacity:1" fill="#887d60" d="M 20.5,42.5 C 22.854,42.838 25.1873,43.338 27.5,44C 26.4734,44.5133 25.4734,45.0133 24.5,45.5C 24.1667,45.5 23.8333,45.5 23.5,45.5C 22.6935,44.2719 21.6935,43.2719 20.5,42.5 Z"/></g>
<g><path style="opacity:1" fill="#efc614" d="M 58.5,45.5 C 59.5137,46.6737 60.847,47.3404 62.5,47.5C 60.3743,48.1032 58.0409,48.1032 55.5,47.5C 54.9094,46.8485 54.2427,46.1818 53.5,45.5C 55.1673,44.3336 56.834,44.3336 58.5,45.5 Z"/></g>
<g><path style="opacity:1" fill="#65540b" d="M 32.5,46.5 C 31.5,47.1667 30.5,47.8333 29.5,48.5C 29.5,47.1667 28.8333,46.5 27.5,46.5C 29.4172,44.1493 31.0839,44.1493 32.5,46.5 Z"/></g>
<g><path style="opacity:1" fill="#6c5a0b" d="M 38.5,43.5 C 39.9464,42.3871 41.6131,42.2204 43.5,43C 42.8333,43.3333 42.1667,43.6667 41.5,44C 42.6721,44.4186 43.6721,45.0853 44.5,46C 42.2436,47.8674 39.9102,47.8674 37.5,46C 38.3279,45.0853 39.3279,44.4186 40.5,44C 39.9056,43.5357 39.2389,43.369 38.5,43.5 Z"/></g>
<g><path style="opacity:1" fill="#f2c915" d="M 55.5,47.5 C 58.0873,48.7487 60.754,49.7487 63.5,50.5C 61.5,50.5 59.5,50.5 57.5,50.5C 57.1667,50.5 56.8333,50.5 56.5,50.5C 55.5707,49.6851 54.5707,48.8518 53.5,48C 54.0944,47.5357 54.7611,47.369 55.5,47.5 Z"/></g>
<g><path style="opacity:1" fill="#856f1a" d="M 55.5,47.5 C 58.0409,48.1032 60.3743,48.1032 62.5,47.5C 63.9587,47.4326 65.2921,47.7659 66.5,48.5C 65.7095,49.4013 64.7095,50.0679 63.5,50.5C 60.754,49.7487 58.0873,48.7487 55.5,47.5 Z"/></g>
<g><path style="opacity:1" fill="#ba9a14" d="M 23.5,45.5 C 23.8333,45.5 24.1667,45.5 24.5,45.5C 25.209,46.404 26.209,46.7373 27.5,46.5C 28.8333,46.5 29.5,47.1667 29.5,48.5C 26.904,49.0549 24.5707,50.0549 22.5,51.5C 20.9382,51.7329 19.6049,52.3995 18.5,53.5C 17.8843,52.7978 17.8843,51.7978 18.5,50.5C 19.8333,48.5 21.5,46.8333 23.5,45.5 Z"/></g>
<g><path style="opacity:1" fill="#d0ac14" d="M 49.5,46.5 C 51.8122,48.1455 53.8122,50.1455 55.5,52.5C 56.5,53.8333 57.5,55.1667 58.5,56.5C 58.1667,57.5 57.5,58.1667 56.5,58.5C 54.825,56.998 52.9917,55.6647 51,54.5C 50.51,55.7932 50.3433,57.1266 50.5,58.5C 50.573,60.0269 49.9063,61.0269 48.5,61.5C 46.7775,59.7472 45.2775,57.7472 44,55.5C 43.1785,58.1168 42.6785,60.7835 42.5,63.5C 41.5166,59.7016 41.1832,55.7016 41.5,51.5C 43.9115,51.1367 45.4115,52.1367 46,54.5C 46.3333,53.8333 46.6667,53.1667 47,52.5C 47.7175,53.4506 48.5509,53.6172 49.5,53C 47.9371,52.2411 46.9371,51.0744 46.5,49.5C 47.1667,48.1667 48.1667,47.1667 49.5,46.5 Z"/></g>
<g><path style="opacity:1" fill="#0037a6" d="M 83.5,49.5 C 104.167,49.5 124.833,49.5 145.5,49.5C 147.006,53.8753 148.339,58.2086 149.5,62.5C 149.5,63.5 149.5,64.5 149.5,65.5C 127.5,65.5 105.5,65.5 83.5,65.5C 83.5,60.1667 83.5,54.8333 83.5,49.5 Z"/></g>
<g><path style="opacity:1" fill="#9f9270" d="M 29.5,48.5 C 29.2624,50.4044 28.2624,51.7377 26.5,52.5C 25.4324,51.5655 24.099,51.2322 22.5,51.5C 24.5707,50.0549 26.904,49.0549 29.5,48.5 Z"/></g>
<g><path style="opacity:1" fill="#cca912" d="M 32.5,46.5 C 33.8333,47.1667 34.8333,48.1667 35.5,49.5C 35.4431,50.609 35.1098,51.609 34.5,52.5C 32.5956,52.7376 31.2623,53.7376 30.5,55.5C 29.1667,56.1667 27.8333,56.8333 26.5,57.5C 26.1667,56.8333 25.8333,56.1667 25.5,55.5C 25.5569,54.391 25.8902,53.391 26.5,52.5C 28.2624,51.7377 29.2624,50.4044 29.5,48.5C 30.5,47.8333 31.5,47.1667 32.5,46.5 Z"/></g>
<g><path style="opacity:1" fill="#675614" d="M 35.5,49.5 C 39.1996,50.758 42.8663,50.758 46.5,49.5C 46.9371,51.0744 47.9371,52.2411 49.5,53C 48.5509,53.6172 47.7175,53.4506 47,52.5C 46.6667,53.1667 46.3333,53.8333 46,54.5C 45.4115,52.1367 43.9115,51.1367 41.5,51.5C 41.1832,55.7016 41.5166,59.7016 42.5,63.5C 42.3215,66.2165 41.8215,68.8832 41,71.5C 40.1165,66.6323 38.9498,61.9656 37.5,57.5C 37.6602,55.8008 37.4935,54.1341 37,52.5C 36.2303,53.5981 35.397,53.5981 34.5,52.5C 35.1098,51.609 35.4431,50.609 35.5,49.5 Z"/></g>
<g><path style="opacity:1" fill="#767162" d="M 66.5,48.5 C 68.4161,49.6653 69.2494,51.332 69,53.5C 68.5,53 68,52.5 67.5,52C 63.9748,51.8213 60.6414,51.3213 57.5,50.5C 59.5,50.5 61.5,50.5 63.5,50.5C 64.7095,50.0679 65.7095,49.4013 66.5,48.5 Z"/></g>
<g><path style="opacity:1" fill="#f9ce15" d="M 38.5,51.5 C 39.7773,52.6936 40.4439,54.3603 40.5,56.5C 40.3333,58.1667 40.1667,59.8333 40,61.5C 39.1744,58.2072 38.6744,54.8738 38.5,51.5 Z"/></g>
<g><path style="opacity:1" fill="#dab513" d="M 34.5,52.5 C 35.397,53.5981 36.2303,53.5981 37,52.5C 37.4935,54.1341 37.6602,55.8008 37.5,57.5C 35.9925,59.1815 34.9925,61.1815 34.5,63.5C 33.7784,63.0825 33.2784,62.4158 33,61.5C 32.6174,62.056 32.1174,62.3893 31.5,62.5C 31.5,61.1667 31.5,59.8333 31.5,58.5C 32.2008,56.4123 33.2008,54.4123 34.5,52.5 Z"/></g>
<g><path style="opacity:1" fill="#767062" d="M 18.5,50.5 C 17.8843,51.7978 17.8843,52.7978 18.5,53.5C 16.8151,54.844 15.1484,54.6773 13.5,53C 15.4517,52.6339 17.1184,51.8005 18.5,50.5 Z"/></g>
<g><path style="opacity:1" fill="#796830" d="M 34.5,52.5 C 33.2008,54.4123 32.2008,56.4123 31.5,58.5C 31.7373,57.209 31.404,56.209 30.5,55.5C 31.2623,53.7376 32.5956,52.7376 34.5,52.5 Z"/></g>
<g><path style="opacity:1" fill="#756326" d="M 25.5,55.5 C 25.8333,56.1667 26.1667,56.8333 26.5,57.5C 24.9062,58.983 23.2395,60.483 21.5,62C 20.8333,62.6667 20.1667,62.6667 19.5,62C 20.9984,59.3363 22.9984,57.1696 25.5,55.5 Z"/></g>
<g><path style="opacity:1" fill="#474029" d="M 58.5,56.5 C 62.5,61.8333 61.8333,62.5 56.5,58.5C 57.5,58.1667 58.1667,57.5 58.5,56.5 Z"/></g>
<g><path style="opacity:1" fill="#856f17" d="M 50.5,58.5 C 53.139,61.2985 53.9723,64.6319 53,68.5C 52.0958,65.7666 50.5958,63.4333 48.5,61.5C 49.9063,61.0269 50.573,60.0269 50.5,58.5 Z"/></g>
<g><path style="opacity:1" fill="#655518" d="M 34.5,63.5 C 34.2623,65.6449 33.2623,67.3115 31.5,68.5C 31.0798,66.674 31.0798,64.674 31.5,62.5C 32.1174,62.3893 32.6174,62.056 33,61.5C 33.2784,62.4158 33.7784,63.0825 34.5,63.5 Z"/></g>
<g><path style="opacity:1" fill="#5b7ec5" d="M 83.5,49.5 C 83.5,54.8333 83.5,60.1667 83.5,65.5C 105.5,65.5 127.5,65.5 149.5,65.5C 149.5,65.8333 149.5,66.1667 149.5,66.5C 127.167,66.5 104.833,66.5 82.5,66.5C 82.1778,60.642 82.5111,54.9753 83.5,49.5 Z"/></g>
<g><path style="opacity:1" fill="#103ba8" d="M -0.5,82.5 C 0.833333,82.5 2.16667,82.5 3.5,82.5C 52.1667,82.5 100.833,82.5 149.5,82.5C 149.5,83.8333 149.5,85.1667 149.5,86.5C 148.339,90.7914 147.006,95.1247 145.5,99.5C 98.1667,99.5 50.8333,99.5 3.5,99.5C 1.9945,95.1247 0.661164,90.7914 -0.5,86.5C -0.5,85.1667 -0.5,83.8333 -0.5,82.5 Z"/></g>
<g><path style="opacity:1" fill="#f7f8fb" d="M 3.5,99.5 C 50.8333,99.5 98.1667,99.5 145.5,99.5C 143.784,105.935 140.784,111.602 136.5,116.5C 95.1667,116.5 53.8333,116.5 12.5,116.5C 8.21563,111.602 5.21563,105.935 3.5,99.5 Z"/></g>
<g><path style="opacity:1" fill="#0037a6" d="M 12.5,116.5 C 53.8333,116.5 95.1667,116.5 136.5,116.5C 132.61,123.062 127.61,128.729 121.5,133.5C 90.1667,132.167 58.8333,132.167 27.5,133.5C 21.3904,128.729 16.3904,123.062 12.5,116.5 Z"/></g>
<g><path style="opacity:0.875" fill="#d4d7de" d="M 121.5,133.5 C 111.202,141.815 99.5358,147.149 86.5,149.5C 78.5,149.5 70.5,149.5 62.5,149.5C 49.5881,146.864 37.9214,141.531 27.5,133.5C 58.8333,132.167 90.1667,132.167 121.5,133.5 Z"/></g>
<g><path style="opacity:1" fill="#fefefe" d="M 35.5,134.5 C 61.3301,133.337 87.3301,133.17 113.5,134C 87.5804,149.058 61.5804,149.224 35.5,134.5 Z"/></g>
</svg>
