<?xml version="1.0" encoding="UTF-8"?>
<!DOCTYPE svg PUBLIC "-//W3C//DTD SVG 1.1//EN" "http://www.w3.org/Graphics/SVG/1.1/DTD/svg11.dtd">
<svg xmlns="http://www.w3.org/2000/svg" version="1.1" width="150px" height="150px" style="shape-rendering:geometricPrecision; text-rendering:geometricPrecision; image-rendering:optimizeQuality; fill-rule:evenodd; clip-rule:evenodd" xmlns:xlink="http://www.w3.org/1999/xlink">
<g><path style="opacity:1" fill="#403f70" d="M 62.5,-0.5 C 70.5,-0.5 78.5,-0.5 86.5,-0.5C 92.4206,0.731718 98.0873,2.73172 103.5,5.5C 101.757,7.1261 101.257,9.1261 102,11.5C 102.928,9.66518 104.094,9.33184 105.5,10.5C 106.362,9.23415 107.029,7.90082 107.5,6.5C 109.882,7.3507 111.882,8.68403 113.5,10.5C 113.5,14.5 113.5,18.5 113.5,22.5C 113.5,26.1667 113.5,29.8333 113.5,33.5C 113.5,33.8333 113.5,34.1667 113.5,34.5C 113.5,38.1667 113.5,41.8333 113.5,45.5C 113.5,49.5 113.5,53.5 113.5,57.5C 113.5,61.1667 113.5,64.8333 113.5,68.5C 113.5,72.5 113.5,76.5 113.5,80.5C 75.5,80.5 37.5,80.5 -0.5,80.5C -0.5,74.5 -0.5,68.5 -0.5,62.5C 1.06488,56.1336 3.06488,49.8003 5.5,43.5C 7.01739,43.4894 8.18405,42.8228 9,41.5C 9.66667,42.1667 10.3333,42.8333 11,43.5C 11.2734,41.8988 11.7734,40.3988 12.5,39C 10.8807,38.7645 9.88066,37.9311 9.5,36.5C 17.3477,22.9835 28.3477,12.9835 42.5,6.5C 43.8503,7.4831 44.8503,8.81643 45.5,10.5C 46.5,9.16667 47.5,9.16667 48.5,10.5C 49.2283,8.80678 50.2283,7.30678 51.5,6C 49.9419,5.78997 48.6085,5.28997 47.5,4.5C 52.3605,2.36934 57.3605,0.702678 62.5,-0.5 Z"/></g>
<g><path style="opacity:0.972" fill="#bbbac6" d="M 47.5,4.5 C 48.6085,5.28997 49.9419,5.78997 51.5,6C 50.2283,7.30678 49.2283,8.80678 48.5,10.5C 47.5,9.16667 46.5,9.16667 45.5,10.5C 44.8503,8.81643 43.8503,7.4831 42.5,6.5C 43.7804,5.06873 45.4471,4.40206 47.5,4.5 Z"/></g>
<g><path style="opacity:1" fill="#e0e0e8" d="M 65.5,3.5 C 66.404,4.20895 66.7373,5.20895 66.5,6.5C 69.742,6.46683 70.0754,7.80016 67.5,10.5C 66.5,9.16667 65.5,9.16667 64.5,10.5C 64.1667,9.83333 63.8333,9.16667 63.5,8.5C 64.5471,6.94359 65.2137,5.27692 65.5,3.5 Z"/></g>
<g><path style="opacity:1" fill="#dddce5" d="M 84.5,3.5 C 85.404,4.20895 85.7373,5.20895 85.5,6.5C 88.742,6.46683 89.0754,7.80016 86.5,10.5C 85.0944,9.33184 83.9277,9.66518 83,11.5C 82.6882,8.69115 83.1882,6.02448 84.5,3.5 Z"/></g>
<g><path style="opacity:0.917" fill="#c5c5cd" d="M 103.5,5.5 C 104.959,5.43255 106.292,5.76589 107.5,6.5C 107.029,7.90082 106.362,9.23415 105.5,10.5C 104.094,9.33184 102.928,9.66518 102,11.5C 101.257,9.1261 101.757,7.1261 103.5,5.5 Z"/></g>
<g><path style="opacity:0.857" fill="#e6e6e6" d="M 113.5,10.5 C 119.659,12.9865 124.659,16.9865 128.5,22.5C 123.5,22.5 118.5,22.5 113.5,22.5C 113.5,18.5 113.5,14.5 113.5,10.5 Z"/></g>
<g><path style="opacity:1" fill="#f0f0f3" d="M 36.5,12.5 C 40.3274,13.4363 41.1607,15.4363 39,18.5C 38,17.1667 37,17.1667 36,18.5C 35.6905,17.2341 35.1905,16.0674 34.5,15C 35.756,14.5831 36.4226,13.7498 36.5,12.5 Z"/></g>
<g><path style="opacity:1" fill="#f3f3f6" d="M 55.5,12.5 C 59.3274,13.4363 60.1607,15.4363 58,18.5C 57,17.1667 56,17.1667 55,18.5C 54.6905,17.2341 54.1905,16.0674 53.5,15C 54.756,14.5831 55.4226,13.7498 55.5,12.5 Z"/></g>
<g><path style="opacity:1" fill="#e9e9ef" d="M 74.5,11.5 C 77.8513,13.1542 78.6846,15.4875 77,18.5C 76,17.1667 75,17.1667 74,18.5C 73.6905,17.2341 73.1905,16.0674 72.5,15C 73.9733,14.2904 74.6399,13.1238 74.5,11.5 Z"/></g>
<g><path style="opacity:1" fill="#e9e9ef" d="M 93.5,11.5 C 96.8513,13.1542 97.6846,15.4875 96,18.5C 95,17.1667 94,17.1667 93,18.5C 92.6905,17.2341 92.1905,16.0674 91.5,15C 92.9733,14.2904 93.6399,13.1238 93.5,11.5 Z"/></g>
<g><path style="opacity:1" fill="#e1e1e8" d="M 27.5,20.5 C 28.5336,21.6871 29.867,22.5204 31.5,23C 30.7734,24.3988 30.2734,25.8988 30,27.5C 28.6667,24.8333 27.3333,24.8333 26,27.5C 25.7266,25.8988 25.2266,24.3988 24.5,23C 26.1193,22.7645 27.1193,21.9311 27.5,20.5 Z"/></g>
<g><path style="opacity:1" fill="#dfdee7" d="M 46.5,19.5 C 47.404,20.209 47.7373,21.209 47.5,22.5C 48.552,22.3505 49.552,22.5172 50.5,23C 49.7734,24.3988 49.2734,25.8988 49,27.5C 47.6667,24.8333 46.3333,24.8333 45,27.5C 44.7266,25.8988 44.2266,24.3988 43.5,23C 44.448,22.5172 45.448,22.3505 46.5,22.5C 46.5,21.5 46.5,20.5 46.5,19.5 Z"/></g>
<g><path style="opacity:1" fill="#dfdee7" d="M 65.5,19.5 C 66.404,20.209 66.7373,21.209 66.5,22.5C 67.552,22.3505 68.552,22.5172 69.5,23C 68.7734,24.3988 68.2734,25.8988 68,27.5C 66.6667,24.8333 65.3333,24.8333 64,27.5C 63.7266,25.8988 63.2266,24.3988 62.5,23C 63.448,22.5172 64.448,22.3505 65.5,22.5C 65.5,21.5 65.5,20.5 65.5,19.5 Z"/></g>
<g><path style="opacity:1" fill="#dfdee7" d="M 84.5,19.5 C 85.404,20.209 85.7373,21.209 85.5,22.5C 86.552,22.3505 87.552,22.5172 88.5,23C 87.7734,24.3988 87.2734,25.8988 87,27.5C 85.6667,24.8333 84.3333,24.8333 83,27.5C 82.7266,25.8988 82.2266,24.3988 81.5,23C 82.448,22.5172 83.448,22.3505 84.5,22.5C 84.5,21.5 84.5,20.5 84.5,19.5 Z"/></g>
<g><path style="opacity:1" fill="#dfdee7" d="M 103.5,19.5 C 104.404,20.209 104.737,21.209 104.5,22.5C 105.552,22.3505 106.552,22.5172 107.5,23C 106.773,24.3988 106.273,25.8988 106,27.5C 104.667,24.8333 103.333,24.8333 102,27.5C 101.727,25.8988 101.227,24.3988 100.5,23C 101.448,22.5172 102.448,22.3505 103.5,22.5C 103.5,21.5 103.5,20.5 103.5,19.5 Z"/></g>
<g><path style="opacity:1" fill="#ae2636" d="M 113.5,22.5 C 118.5,22.5 123.5,22.5 128.5,22.5C 132.605,25.2705 135.605,28.9372 137.5,33.5C 129.5,33.5 121.5,33.5 113.5,33.5C 113.5,29.8333 113.5,26.1667 113.5,22.5 Z"/></g>
<g><path style="opacity:1" fill="#e4e4e9" d="M 17.5,28.5 C 19.0843,29.3818 20.751,30.2152 22.5,31C 21.0267,31.7096 20.3601,32.8762 20.5,34.5C 19.1667,34.5 17.8333,34.5 16.5,34.5C 16.67,33.1779 16.3366,32.0113 15.5,31C 16.756,30.5831 17.4226,29.7498 17.5,28.5 Z"/></g>
<g><path style="opacity:1" fill="#f1f1f4" d="M 36.5,28.5 C 38.0843,29.3818 39.751,30.2152 41.5,31C 40.1509,31.7724 39.3176,32.9391 39,34.5C 38,33.1667 37,33.1667 36,34.5C 35.6905,33.2341 35.1905,32.0674 34.5,31C 35.756,30.5831 36.4226,29.7498 36.5,28.5 Z"/></g>
<g><path style="opacity:1" fill="#f1f1f4" d="M 55.5,28.5 C 57.0843,29.3818 58.751,30.2152 60.5,31C 59.1509,31.7724 58.3176,32.9391 58,34.5C 57,33.1667 56,33.1667 55,34.5C 54.6905,33.2341 54.1905,32.0674 53.5,31C 54.756,30.5831 55.4226,29.7498 55.5,28.5 Z"/></g>
<g><path style="opacity:1" fill="#f1f1f4" d="M 74.5,28.5 C 76.0843,29.3818 77.751,30.2152 79.5,31C 78.1509,31.7724 77.3176,32.9391 77,34.5C 76,33.1667 75,33.1667 74,34.5C 73.6905,33.2341 73.1905,32.0674 72.5,31C 73.756,30.5831 74.4226,29.7498 74.5,28.5 Z"/></g>
<g><path style="opacity:1" fill="#f0f0f4" d="M 93.5,28.5 C 95.0843,29.3818 96.751,30.2152 98.5,31C 97.1509,31.7724 96.3176,32.9391 96,34.5C 95,33.1667 94,33.1667 93,34.5C 92.6905,33.2341 92.1905,32.0674 91.5,31C 92.756,30.5831 93.4226,29.7498 93.5,28.5 Z"/></g>
<g><path style="opacity:0.84" fill="#decccd" d="M 113.5,34.5 C 113.5,34.1667 113.5,33.8333 113.5,33.5C 121.5,33.5 129.5,33.5 137.5,33.5C 140.323,37.1362 142.656,41.1362 144.5,45.5C 142.833,45.5 141.167,45.5 139.5,45.5C 137.891,41.7832 135.891,38.2832 133.5,35C 126.842,34.5004 120.175,34.3337 113.5,34.5 Z"/></g>
<g><path style="opacity:1" fill="#fefefe" d="M 113.5,34.5 C 120.175,34.3337 126.842,34.5004 133.5,35C 135.891,38.2832 137.891,41.7832 139.5,45.5C 130.833,45.5 122.167,45.5 113.5,45.5C 113.5,41.8333 113.5,38.1667 113.5,34.5 Z"/></g>
<g><path style="opacity:0.723" fill="#ccccd1" d="M 9.5,36.5 C 9.88066,37.9311 10.8807,38.7645 12.5,39C 11.7734,40.3988 11.2734,41.8988 11,43.5C 10.3333,42.8333 9.66667,42.1667 9,41.5C 8.18405,42.8228 7.01739,43.4894 5.5,43.5C 6.59575,40.9684 7.92908,38.6351 9.5,36.5 Z"/></g>
<g><path style="opacity:1" fill="#e0e0e8" d="M 27.5,35.5 C 28.404,36.209 28.7373,37.209 28.5,38.5C 29.552,38.3505 30.552,38.5172 31.5,39C 30.7734,40.3988 30.2734,41.8988 30,43.5C 28.6667,40.8333 27.3333,40.8333 26,43.5C 25.7266,41.8988 25.2266,40.3988 24.5,39C 25.448,38.5172 26.448,38.3505 27.5,38.5C 27.5,37.5 27.5,36.5 27.5,35.5 Z"/></g>
<g><path style="opacity:1" fill="#e1e1e9" d="M 46.5,35.5 C 47.404,36.209 47.7373,37.209 47.5,38.5C 48.552,38.3505 49.552,38.5172 50.5,39C 49.7734,40.3988 49.2734,41.8988 49,43.5C 47.6667,40.8333 46.3333,40.8333 45,43.5C 44.7266,41.8988 44.2266,40.3988 43.5,39C 44.448,38.5172 45.448,38.3505 46.5,38.5C 46.5,37.5 46.5,36.5 46.5,35.5 Z"/></g>
<g><path style="opacity:1" fill="#e1e1e9" d="M 65.5,35.5 C 66.404,36.209 66.7373,37.209 66.5,38.5C 67.552,38.3505 68.552,38.5172 69.5,39C 68.7734,40.3988 68.2734,41.8988 68,43.5C 66.6667,40.8333 65.3333,40.8333 64,43.5C 63.7266,41.8988 63.2266,40.3988 62.5,39C 63.448,38.5172 64.448,38.3505 65.5,38.5C 65.5,37.5 65.5,36.5 65.5,35.5 Z"/></g>
<g><path style="opacity:1" fill="#e1e0e8" d="M 84.5,35.5 C 85.404,36.209 85.7373,37.209 85.5,38.5C 86.552,38.3505 87.552,38.5172 88.5,39C 87.7734,40.3988 87.2734,41.8988 87,43.5C 85.6667,40.8333 84.3333,40.8333 83,43.5C 82.7266,41.8988 82.2266,40.3988 81.5,39C 82.448,38.5172 83.448,38.3505 84.5,38.5C 84.5,37.5 84.5,36.5 84.5,35.5 Z"/></g>
<g><path style="opacity:1" fill="#e1e0e8" d="M 103.5,35.5 C 104.404,36.209 104.737,37.209 104.5,38.5C 105.552,38.3505 106.552,38.5172 107.5,39C 106.773,40.3988 106.273,41.8988 106,43.5C 104.667,40.8333 103.333,40.8333 102,43.5C 101.727,41.8988 101.227,40.3988 100.5,39C 101.448,38.5172 102.448,38.3505 103.5,38.5C 103.5,37.5 103.5,36.5 103.5,35.5 Z"/></g>
<g><path style="opacity:1" fill="#e8e8ee" d="M 17.5,44.5 C 19.0843,45.3818 20.751,46.2152 22.5,47C 21.0267,47.7096 20.3601,48.8762 20.5,50.5C 19.1667,50.5 17.8333,50.5 16.5,50.5C 16.6399,48.8762 15.9733,47.7096 14.5,47C 16.1193,46.7645 17.1193,45.9311 17.5,44.5 Z"/></g>
<g><path style="opacity:1" fill="#e8e8ee" d="M 36.5,44.5 C 38.0843,45.3818 39.751,46.2152 41.5,47C 40.0267,47.7096 39.3601,48.8762 39.5,50.5C 38.1667,50.5 36.8333,50.5 35.5,50.5C 35.6399,48.8762 34.9733,47.7096 33.5,47C 35.1193,46.7645 36.1193,45.9311 36.5,44.5 Z"/></g>
<g><path style="opacity:1" fill="#e9e9ee" d="M 55.5,44.5 C 57.0843,45.3818 58.751,46.2152 60.5,47C 59.0267,47.7096 58.3601,48.8762 58.5,50.5C 57.1667,50.5 55.8333,50.5 54.5,50.5C 54.6399,48.8762 53.9733,47.7096 52.5,47C 54.1193,46.7645 55.1193,45.9311 55.5,44.5 Z"/></g>
<g><path style="opacity:1" fill="#e8e8ee" d="M 74.5,44.5 C 76.0843,45.3818 77.751,46.2152 79.5,47C 78.0267,47.7096 77.3601,48.8762 77.5,50.5C 76.1667,50.5 74.8333,50.5 73.5,50.5C 73.6399,48.8762 72.9733,47.7096 71.5,47C 73.1193,46.7645 74.1193,45.9311 74.5,44.5 Z"/></g>
<g><path style="opacity:1" fill="#e8e8ee" d="M 93.5,44.5 C 95.0843,45.3818 96.751,46.2152 98.5,47C 97.0267,47.7096 96.3601,48.8762 96.5,50.5C 95.1667,50.5 93.8333,50.5 92.5,50.5C 92.6399,48.8762 91.9733,47.7096 90.5,47C 92.1193,46.7645 93.1193,45.9311 93.5,44.5 Z"/></g>
<g><path style="opacity:1" fill="#b4323e" d="M 113.5,45.5 C 122.167,45.5 130.833,45.5 139.5,45.5C 141.167,45.5 142.833,45.5 144.5,45.5C 145.91,49.3967 146.91,53.3967 147.5,57.5C 136.167,57.5 124.833,57.5 113.5,57.5C 113.5,53.5 113.5,49.5 113.5,45.5 Z"/></g>
<g><path style="opacity:1" fill="#e0e0e8" d="M 8.5,52.5 C 9.53365,53.6871 10.867,54.5204 12.5,55C 11.7734,56.3988 11.2734,57.8988 11,59.5C 9.66667,58.1667 8.33333,58.1667 7,59.5C 6.72662,57.8988 6.22662,56.3988 5.5,55C 7.11934,54.7645 8.11934,53.9311 8.5,52.5 Z"/></g>
<g><path style="opacity:1" fill="#e1e0e8" d="M 27.5,52.5 C 28.5336,53.6871 29.867,54.5204 31.5,55C 30.7734,56.3988 30.2734,57.8988 30,59.5C 28.6667,58.1667 27.3333,58.1667 26,59.5C 25.7266,57.8988 25.2266,56.3988 24.5,55C 26.1193,54.7645 27.1193,53.9311 27.5,52.5 Z"/></g>
<g><path style="opacity:1" fill="#e0e0e8" d="M 46.5,52.5 C 47.5336,53.6871 48.867,54.5204 50.5,55C 49.7734,56.3988 49.2734,57.8988 49,59.5C 47.6667,58.1667 46.3333,58.1667 45,59.5C 44.7266,57.8988 44.2266,56.3988 43.5,55C 45.1193,54.7645 46.1193,53.9311 46.5,52.5 Z"/></g>
<g><path style="opacity:1" fill="#e0e0e8" d="M 65.5,52.5 C 66.5336,53.6871 67.867,54.5204 69.5,55C 68.7734,56.3988 68.2734,57.8988 68,59.5C 66.6667,58.1667 65.3333,58.1667 64,59.5C 63.7266,57.8988 63.2266,56.3988 62.5,55C 64.1193,54.7645 65.1193,53.9311 65.5,52.5 Z"/></g>
<g><path style="opacity:1" fill="#dfdee7" d="M 84.5,51.5 C 85.404,52.209 85.7373,53.209 85.5,54.5C 86.552,54.3505 87.552,54.5172 88.5,55C 87.7734,56.3988 87.2734,57.8988 87,59.5C 85.6667,58.1667 84.3333,58.1667 83,59.5C 82.7266,57.8988 82.2266,56.3988 81.5,55C 82.448,54.5172 83.448,54.3505 84.5,54.5C 84.5,53.5 84.5,52.5 84.5,51.5 Z"/></g>
<g><path style="opacity:1" fill="#dfdfe7" d="M 103.5,51.5 C 104.404,52.209 104.737,53.209 104.5,54.5C 105.552,54.3505 106.552,54.5172 107.5,55C 106.773,56.3988 106.273,57.8988 106,59.5C 104.667,58.1667 103.333,58.1667 102,59.5C 101.727,57.8988 101.227,56.3988 100.5,55C 101.448,54.5172 102.448,54.3505 103.5,54.5C 103.5,53.5 103.5,52.5 103.5,51.5 Z"/></g>
<g><path style="opacity:1" fill="#fbfbfb" d="M 113.5,57.5 C 124.833,57.5 136.167,57.5 147.5,57.5C 148.167,59.1667 148.833,60.8333 149.5,62.5C 149.5,64.5 149.5,66.5 149.5,68.5C 137.5,68.5 125.5,68.5 113.5,68.5C 113.5,64.8333 113.5,61.1667 113.5,57.5 Z"/></g>
<g><path style="opacity:1" fill="#e2e1e9" d="M 17.5,60.5 C 19.0843,61.3818 20.751,62.2152 22.5,63C 20.6063,64.0793 20.273,65.4126 21.5,67C 18.4168,67.1739 16.0835,65.8406 14.5,63C 16.1193,62.7645 17.1193,61.9311 17.5,60.5 Z"/></g>
<g><path style="opacity:1" fill="#e2e1e9" d="M 36.5,60.5 C 38.0843,61.3818 39.751,62.2152 41.5,63C 39.6063,64.0793 39.273,65.4126 40.5,67C 37.4168,67.1739 35.0835,65.8406 33.5,63C 35.1193,62.7645 36.1193,61.9311 36.5,60.5 Z"/></g>
<g><path style="opacity:1" fill="#e1e1e9" d="M 55.5,60.5 C 57.0843,61.3818 58.751,62.2152 60.5,63C 58.6063,64.0793 58.273,65.4126 59.5,67C 56.4168,67.1739 54.0835,65.8406 52.5,63C 54.1193,62.7645 55.1193,61.9311 55.5,60.5 Z"/></g>
<g><path style="opacity:1" fill="#e2e2e9" d="M 74.5,60.5 C 76.0843,61.3818 77.751,62.2152 79.5,63C 77.6063,64.0793 77.273,65.4126 78.5,67C 75.4168,67.1739 73.0835,65.8406 71.5,63C 73.1193,62.7645 74.1193,61.9311 74.5,60.5 Z"/></g>
<g><path style="opacity:1" fill="#e2e2ea" d="M 93.5,60.5 C 95.0843,61.3818 96.751,62.2152 98.5,63C 96.6063,64.0793 96.273,65.4126 97.5,67C 94.4168,67.1739 92.0835,65.8406 90.5,63C 92.1193,62.7645 93.1193,61.9311 93.5,60.5 Z"/></g>
<g><path style="opacity:1" fill="#dfdfe7" d="M 8.5,68.5 C 9.53365,69.6871 10.867,70.5204 12.5,71C 11.7734,72.3988 11.2734,73.8988 11,75.5C 9.66667,74.1667 8.33333,74.1667 7,75.5C 6.72662,73.8988 6.22662,72.3988 5.5,71C 7.11934,70.7645 8.11934,69.9311 8.5,68.5 Z"/></g>
<g><path style="opacity:1" fill="#dfdfe7" d="M 27.5,68.5 C 28.5336,69.6871 29.867,70.5204 31.5,71C 30.7734,72.3988 30.2734,73.8988 30,75.5C 28.6667,74.1667 27.3333,74.1667 26,75.5C 25.7266,73.8988 25.2266,72.3988 24.5,71C 26.1193,70.7645 27.1193,69.9311 27.5,68.5 Z"/></g>
<g><path style="opacity:1" fill="#dfdee7" d="M 46.5,68.5 C 47.5336,69.6871 48.867,70.5204 50.5,71C 49.7734,72.3988 49.2734,73.8988 49,75.5C 47.6667,74.1667 46.3333,74.1667 45,75.5C 44.7266,73.8988 44.2266,72.3988 43.5,71C 45.1193,70.7645 46.1193,69.9311 46.5,68.5 Z"/></g>
<g><path style="opacity:1" fill="#dfdee7" d="M 65.5,68.5 C 66.5336,69.6871 67.867,70.5204 69.5,71C 68.7734,72.3988 68.2734,73.8988 68,75.5C 66.6667,74.1667 65.3333,74.1667 64,75.5C 63.7266,73.8988 63.2266,72.3988 62.5,71C 64.1193,70.7645 65.1193,69.9311 65.5,68.5 Z"/></g>
<g><path style="opacity:1" fill="#dfdee7" d="M 84.5,68.5 C 85.5336,69.6871 86.867,70.5204 88.5,71C 87.7734,72.3988 87.2734,73.8988 87,75.5C 85.6667,74.1667 84.3333,74.1667 83,75.5C 82.7266,73.8988 82.2266,72.3988 81.5,71C 83.1193,70.7645 84.1193,69.9311 84.5,68.5 Z"/></g>
<g><path style="opacity:1" fill="#dfdee7" d="M 103.5,68.5 C 104.534,69.6871 105.867,70.5204 107.5,71C 106.773,72.3988 106.273,73.8988 106,75.5C 104.667,74.1667 103.333,74.1667 102,75.5C 101.727,73.8988 101.227,72.3988 100.5,71C 102.119,70.7645 103.119,69.9311 103.5,68.5 Z"/></g>
<g><path style="opacity:1" fill="#b4323e" d="M 113.5,68.5 C 125.5,68.5 137.5,68.5 149.5,68.5C 149.5,72.5 149.5,76.5 149.5,80.5C 137.5,80.5 125.5,80.5 113.5,80.5C 113.5,76.5 113.5,72.5 113.5,68.5 Z"/></g>
<g><path style="opacity:1" fill="#faf4f5" d="M -0.5,80.5 C 37.5,80.5 75.5,80.5 113.5,80.5C 125.5,80.5 137.5,80.5 149.5,80.5C 149.5,82.5 149.5,84.5 149.5,86.5C 148.715,88.3736 148.048,90.3736 147.5,92.5C 98.8333,92.5 50.1667,92.5 1.5,92.5C 0.951844,90.3736 0.285178,88.3736 -0.5,86.5C -0.5,84.5 -0.5,82.5 -0.5,80.5 Z"/></g>
<g><path style="opacity:1" fill="#b22737" d="M 1.5,92.5 C 50.1667,92.5 98.8333,92.5 147.5,92.5C 146.935,96.5368 145.601,100.203 143.5,103.5C 142.167,103.5 140.833,103.5 139.5,103.5C 96.1667,103.5 52.8333,103.5 9.5,103.5C 7.83333,103.5 6.16667,103.5 4.5,103.5C 3.29668,99.8899 2.29668,96.2232 1.5,92.5 Z"/></g>
<g><path style="opacity:0.84" fill="#dfdfdf" d="M 4.5,103.5 C 6.16667,103.5 7.83333,103.5 9.5,103.5C 11.246,107.327 13.246,110.993 15.5,114.5C 13.901,114.232 12.5676,114.566 11.5,115.5C 8.67705,111.864 6.34371,107.864 4.5,103.5 Z"/></g>
<g><path style="opacity:1" fill="#fefefe" d="M 9.5,103.5 C 52.8333,103.5 96.1667,103.5 139.5,103.5C 137.891,107.217 135.891,110.717 133.5,114C 94.1681,114.5 54.8347,114.667 15.5,114.5C 13.246,110.993 11.246,107.327 9.5,103.5 Z"/></g>
<g><path style="opacity:0.856" fill="#ddbec1" d="M 139.5,103.5 C 140.833,103.5 142.167,103.5 143.5,103.5C 142.54,108.086 140.54,112.086 137.5,115.5C 95.5,115.5 53.5,115.5 11.5,115.5C 12.5676,114.566 13.901,114.232 15.5,114.5C 54.8347,114.667 94.1681,114.5 133.5,114C 135.891,110.717 137.891,107.217 139.5,103.5 Z"/></g>
<g><path style="opacity:1" fill="#b12737" d="M 11.5,115.5 C 53.5,115.5 95.5,115.5 137.5,115.5C 135.605,120.063 132.605,123.73 128.5,126.5C 126.5,126.5 124.5,126.5 122.5,126.5C 90.5,126.5 58.5,126.5 26.5,126.5C 24.5,126.5 22.5,126.5 20.5,126.5C 16.3954,123.73 13.3954,120.063 11.5,115.5 Z"/></g>
<g><path style="opacity:0.87" fill="#dedede" d="M 20.5,126.5 C 22.5,126.5 24.5,126.5 26.5,126.5C 30.5927,130.929 35.2594,134.596 40.5,137.5C 38.2646,137.205 36.2646,137.539 34.5,138.5C 28.925,135.594 24.2583,131.594 20.5,126.5 Z"/></g>
<g><path style="opacity:1" fill="#fefefe" d="M 26.5,126.5 C 58.5,126.5 90.5,126.5 122.5,126.5C 118.583,130.906 113.917,134.406 108.5,137C 85.8358,137.5 63.1691,137.667 40.5,137.5C 35.2594,134.596 30.5927,130.929 26.5,126.5 Z"/></g>
<g><path style="opacity:0.867" fill="#dfccce" d="M 122.5,126.5 C 124.5,126.5 126.5,126.5 128.5,126.5C 124.659,132.014 119.659,136.014 113.5,138.5C 110.5,138.5 107.5,138.5 104.5,138.5C 84.5,138.5 64.5,138.5 44.5,138.5C 41.5,138.5 38.5,138.5 35.5,138.5C 35.1667,138.5 34.8333,138.5 34.5,138.5C 36.2646,137.539 38.2646,137.205 40.5,137.5C 63.1691,137.667 85.8358,137.5 108.5,137C 113.917,134.406 118.583,130.906 122.5,126.5 Z"/></g>
<g><path style="opacity:0.93" fill="#9c2232" d="M 35.5,138.5 C 38.5,138.5 41.5,138.5 44.5,138.5C 53.4168,143.478 63.0835,145.812 73.5,145.5C 84.6132,146.044 94.9465,143.711 104.5,138.5C 107.5,138.5 110.5,138.5 113.5,138.5C 110.898,140.81 107.898,142.643 104.5,144C 98.4692,146.168 92.4692,148.001 86.5,149.5C 78.5,149.5 70.5,149.5 62.5,149.5C 55.7857,147.874 49.119,145.707 42.5,143C 39.7613,141.974 37.428,140.474 35.5,138.5 Z"/></g>
<g><path style="opacity:1" fill="#b12233" d="M 44.5,138.5 C 64.5,138.5 84.5,138.5 104.5,138.5C 94.9465,143.711 84.6132,146.044 73.5,145.5C 63.0835,145.812 53.4168,143.478 44.5,138.5 Z"/></g>
</svg>
