<?xml version="1.0" encoding="UTF-8"?>
<!DOCTYPE svg PUBLIC "-//W3C//DTD SVG 1.1//EN" "http://www.w3.org/Graphics/SVG/1.1/DTD/svg11.dtd">
<svg xmlns="http://www.w3.org/2000/svg" version="1.1" width="150px" height="150px" style="shape-rendering:geometricPrecision; text-rendering:geometricPrecision; image-rendering:optimizeQuality; fill-rule:evenodd; clip-rule:evenodd" xmlns:xlink="http://www.w3.org/1999/xlink">
<g><path style="opacity:1" fill="#0997b2" d="M 62.5,-0.5 C 70.5,-0.5 78.5,-0.5 86.5,-0.5C 114.576,4.90734 133.909,20.9073 144.5,47.5C 97.8333,47.5 51.1667,47.5 4.5,47.5C 8.35032,36.4611 14.6837,27.1278 23.5,19.5C 22.8471,33.1048 29.1805,40.2715 42.5,41C 28.9306,34.3668 25.9306,24.5335 33.5,11.5C 42.363,5.546 52.0297,1.546 62.5,-0.5 Z"/></g>
<g><path style="opacity:1" fill="#f2f9fb" d="M 80.5,6.5 C 83.1506,8.46145 82.9839,10.1281 80,11.5C 79.6155,9.80343 79.7822,8.13676 80.5,6.5 Z"/></g>
<g><path style="opacity:1" fill="#b2dee7" d="M 94.5,6.5 C 95.9217,6.70858 97.255,7.20858 98.5,8C 97.6634,9.01127 97.33,10.1779 97.5,11.5C 96.1266,11.6567 94.7932,11.49 93.5,11C 94.4581,9.85252 94.1247,8.85252 92.5,8C 93.4158,7.72158 94.0825,7.22158 94.5,6.5 Z"/></g>
<g><path style="opacity:1" fill="#eff4f5" d="M 33.5,11.5 C 25.9306,24.5335 28.9306,34.3668 42.5,41C 29.1805,40.2715 22.8471,33.1048 23.5,19.5C 26.0639,15.8831 29.3972,13.2164 33.5,11.5 Z"/></g>
<g><path style="opacity:1" fill="#e9f6f8" d="M 80.5,20.5 C 84.018,21.9665 84.1847,23.6331 81,25.5C 79.8315,24.9915 78.9981,24.1581 78.5,23C 79.756,22.5831 80.4226,21.7498 80.5,20.5 Z"/></g>
<g><path style="opacity:1" fill="#e8f5f8" d="M 109.5,20.5 C 113.018,21.9665 113.185,23.6331 110,25.5C 108.831,24.9915 107.998,24.1581 107.5,23C 108.756,22.5831 109.423,21.7498 109.5,20.5 Z"/></g>
<g><path style="opacity:1" fill="#e2f3f6" d="M 66.5,20.5 C 70.018,21.9665 70.1847,23.6331 67,25.5C 65.8315,24.9915 64.9981,24.1581 64.5,23C 65.3805,22.2917 66.0472,21.4584 66.5,20.5 Z"/></g>
<g><path style="opacity:1" fill="#c3e6ed" d="M 94.5,21.5 C 97.2436,22.0717 98.0769,23.7383 97,26.5C 96,25.1667 95,25.1667 94,26.5C 93.3603,24.735 93.5269,23.0683 94.5,21.5 Z"/></g>
<g><path style="opacity:1" fill="#e0f2f6" d="M 51.5,35.5 C 54.2791,37.3021 54.1125,38.9688 51,40.5C 50.6905,39.2341 50.1905,38.0674 49.5,37C 50.4158,36.7216 51.0825,36.2216 51.5,35.5 Z"/></g>
<g><path style="opacity:1" fill="#c5e7ed" d="M 94.5,35.5 C 98.6902,35.6459 99.5235,37.3126 97,40.5C 96,39.1667 95,39.1667 94,40.5C 93.6905,39.2341 93.1905,38.0674 92.5,37C 93.4158,36.7216 94.0825,36.2216 94.5,35.5 Z"/></g>
<g><path style="opacity:1" fill="#e6f5f8" d="M 80.5,35.5 C 84.2494,36.2768 84.4161,37.6101 81,39.5C 78.2643,38.0674 78.0977,36.7341 80.5,35.5 Z"/></g>
<g><path style="opacity:1" fill="#bfe4eb" d="M 66.5,35.5 C 69.8236,36.1105 70.3236,37.7772 68,40.5C 67,39.1667 66,39.1667 65,40.5C 64.6905,39.2341 64.1905,38.0674 63.5,37C 64.7375,36.7679 65.7375,36.2679 66.5,35.5 Z"/></g>
<g><path style="opacity:1" fill="#e6f4f7" d="M 109.5,35.5 C 113.249,36.2768 113.416,37.6101 110,39.5C 107.264,38.0674 107.098,36.7341 109.5,35.5 Z"/></g>
<g><path style="opacity:1" fill="#cc1126" d="M 4.5,47.5 C 51.1667,47.5 97.8333,47.5 144.5,47.5C 145.404,48.209 145.737,49.209 145.5,50.5C 144.167,50.5 142.833,50.5 141.5,50.5C 96.8333,50.5 52.1667,50.5 7.5,50.5C 6.16667,50.5 4.83333,50.5 3.5,50.5C 3.26269,49.209 3.59603,48.209 4.5,47.5 Z"/></g>
<g><path style="opacity:0.9" fill="#dfdfdf" d="M 3.5,50.5 C 4.83333,50.5 6.16667,50.5 7.5,50.5C 2.27109,66.4918 2.27109,82.4918 7.5,98.5C 6.16667,98.5 4.83333,98.5 3.5,98.5C 1.85706,94.5914 0.523724,90.5914 -0.5,86.5C -0.5,78.5 -0.5,70.5 -0.5,62.5C 0.523724,58.4086 1.85706,54.4086 3.5,50.5 Z"/></g>
<g><path style="opacity:1" fill="#fefefe" d="M 7.5,50.5 C 52.1667,50.5 96.8333,50.5 141.5,50.5C 146.806,66.4863 146.806,82.4863 141.5,98.5C 96.8333,98.5 52.1667,98.5 7.5,98.5C 2.27109,82.4918 2.27109,66.4918 7.5,50.5 Z"/></g>
<g><path style="opacity:0.9" fill="#dedede" d="M 141.5,50.5 C 142.833,50.5 144.167,50.5 145.5,50.5C 147.143,54.4086 148.476,58.4086 149.5,62.5C 149.5,70.5 149.5,78.5 149.5,86.5C 148.476,90.5914 147.143,94.5914 145.5,98.5C 144.167,98.5 142.833,98.5 141.5,98.5C 146.806,82.4863 146.806,66.4863 141.5,50.5 Z"/></g>
<g><path style="opacity:1" fill="#cc1126" d="M 3.5,98.5 C 4.83333,98.5 6.16667,98.5 7.5,98.5C 52.1667,98.5 96.8333,98.5 141.5,98.5C 142.833,98.5 144.167,98.5 145.5,98.5C 145.737,99.791 145.404,100.791 144.5,101.5C 143.167,101.5 141.833,101.5 140.5,101.5C 96.5,101.5 52.5,101.5 8.5,101.5C 7.16667,101.5 5.83333,101.5 4.5,101.5C 3.59603,100.791 3.26269,99.791 3.5,98.5 Z"/></g>
<g><path style="opacity:0.984" fill="#1f9f37" d="M 4.5,101.5 C 5.83333,101.5 7.16667,101.5 8.5,101.5C 21.1708,129.343 42.8374,144.01 73.5,145.5C 104.996,144.597 127.329,129.93 140.5,101.5C 141.833,101.5 143.167,101.5 144.5,101.5C 133.901,128.103 114.567,144.103 86.5,149.5C 78.5,149.5 70.5,149.5 62.5,149.5C 34.4239,144.093 15.0906,128.093 4.5,101.5 Z"/></g>
<g><path style="opacity:1" fill="#1eb439" d="M 8.5,101.5 C 52.5,101.5 96.5,101.5 140.5,101.5C 127.329,129.93 104.996,144.597 73.5,145.5C 42.8374,144.01 21.1708,129.343 8.5,101.5 Z"/></g>
</svg>
